<?xml version="1.0" encoding="UTF-8"?>
<svg xmlns="http://www.w3.org/2000/svg"
     xmlns:xlink="http://www.w3.org/1999/xlink"
     xmlns:gadfly="http://www.gadflyjl.org/ns"
     version="1.2"
     width="160mm" height="90mm" viewBox="0 0 160 90"
     stroke="none"
     fill="#000000"
     stroke-width="0.3"
     font-size="3.88"
>
<defs>
  <marker id="arrow" markerWidth="15" markerHeight="7" refX="5" refY="3.5" orient="auto" markerUnits="strokeWidth">
    <path d="M0,0 L15,3.5 L0,7 z" stroke="context-stroke" fill="context-stroke"/>
  </marker>
</defs>
<g stroke="#000000" stroke-opacity="0.000" fill="#FFFFFF" id="img-b54103d5-1">
  <g transform="translate(80,45)">
    <path d="M-80,-45 L80,-45 80,45 -80,45  z" class="primitive"/>
  </g>
</g>
<g class="plotroot yscalable" id="img-b54103d5-2">
  <g font-size="3.88" font-family="'PT Sans','Helvetica Neue','Helvetica',sans-serif" fill="#564A55" stroke="#000000" stroke-opacity="0.000" id="img-b54103d5-3">
    <g transform="translate(91.7,78.39)">
      <g class="primitive">
        <text text-anchor="middle" dy="0.6em">Year</text>
      </g>
    </g>
  </g>
  <g class="guide xlabels" font-size="2.82" font-family="'PT Sans Caption','Helvetica Neue','Helvetica',sans-serif" fill="#6C606B" id="img-b54103d5-4">
    <g transform="translate(32.12,71.72)">
      <g class="primitive">
        <text text-anchor="middle" dy="0.6em">1791</text>
      </g>
    </g>
    <g transform="translate(39.57,71.72)">
      <g class="primitive">
        <text text-anchor="middle" dy="0.6em">1792</text>
      </g>
    </g>
    <g transform="translate(47.02,71.72)">
      <g class="primitive">
        <text text-anchor="middle" dy="0.6em">1793</text>
      </g>
    </g>
    <g transform="translate(54.46,71.72)">
      <g class="primitive">
        <text text-anchor="middle" dy="0.6em">1794</text>
      </g>
    </g>
    <g transform="translate(61.91,71.72)">
      <g class="primitive">
        <text text-anchor="middle" dy="0.6em">1795</text>
      </g>
    </g>
    <g transform="translate(69.36,71.72)">
      <g class="primitive">
        <text text-anchor="middle" dy="0.6em">1796</text>
      </g>
    </g>
    <g transform="translate(76.8,71.72)">
      <g class="primitive">
        <text text-anchor="middle" dy="0.6em">1797</text>
      </g>
    </g>
    <g transform="translate(84.25,71.72)">
      <g class="primitive">
        <text text-anchor="middle" dy="0.6em">1798</text>
      </g>
    </g>
    <g transform="translate(91.7,71.72)">
      <g class="primitive">
        <text text-anchor="middle" dy="0.6em">1799</text>
      </g>
    </g>
    <g transform="translate(99.15,71.72)">
      <g class="primitive">
        <text text-anchor="middle" dy="0.6em">1800</text>
      </g>
    </g>
    <g transform="translate(106.59,71.72)">
      <g class="primitive">
        <text text-anchor="middle" dy="0.6em">1801</text>
      </g>
    </g>
    <g transform="translate(114.04,71.72)">
      <g class="primitive">
        <text text-anchor="middle" dy="0.6em">1803</text>
      </g>
    </g>
    <g transform="translate(121.49,71.72)">
      <g class="primitive">
        <text text-anchor="middle" dy="0.6em">1805</text>
      </g>
    </g>
    <g transform="translate(128.93,71.72)">
      <g class="primitive">
        <text text-anchor="middle" dy="0.6em">1807</text>
      </g>
    </g>
    <g transform="translate(136.38,71.72)">
      <g class="primitive">
        <text text-anchor="middle" dy="0.6em">1808</text>
      </g>
    </g>
    <g transform="translate(143.83,71.72)">
      <g class="primitive">
        <text text-anchor="middle" dy="0.6em">1813</text>
      </g>
    </g>
    <g transform="translate(151.28,71.72)">
      <g class="primitive">
        <text text-anchor="middle" dy="0.6em">missing</text>
      </g>
    </g>
  </g>
  <g clip-path="url(#img-b54103d5-5)">
    <g id="img-b54103d5-6">
      <g pointer-events="visible" stroke-width="0.3" fill="#000000" fill-opacity="0.000" stroke="#000000" stroke-opacity="0.000" class="guide background" id="img-b54103d5-7">
        <g transform="translate(91.7,40.66)" id="img-b54103d5-8">
          <path d="M-63.3,-30.05 L63.3,-30.05 63.3,30.05 -63.3,30.05  z" class="primitive"/>
        </g>
      </g>
      <g class="guide ygridlines xfixed" stroke-dasharray="0.5,0.5" stroke-width="0.2" stroke="#D0D0E0" id="img-b54103d5-9">
        <g transform="translate(91.7,68.72)" id="img-b54103d5-10">
          <path fill="none" d="M-63.3,0 L63.3,0 " class="primitive"/>
        </g>
        <g transform="translate(91.7,57.49)" id="img-b54103d5-11">
          <path fill="none" d="M-63.3,0 L63.3,0 " class="primitive"/>
        </g>
        <g transform="translate(91.7,46.27)" id="img-b54103d5-12">
          <path fill="none" d="M-63.3,0 L63.3,0 " class="primitive"/>
        </g>
        <g transform="translate(91.7,35.05)" id="img-b54103d5-13">
          <path fill="none" d="M-63.3,0 L63.3,0 " class="primitive"/>
        </g>
        <g transform="translate(91.7,23.83)" id="img-b54103d5-14">
          <path fill="none" d="M-63.3,0 L63.3,0 " class="primitive"/>
        </g>
        <g transform="translate(91.7,12.61)" id="img-b54103d5-15">
          <path fill="none" d="M-63.3,0 L63.3,0 " class="primitive"/>
        </g>
      </g>
      <g class="guide xgridlines yfixed" stroke-dasharray="0.5,0.5" stroke-width="0.2" stroke="#D0D0E0" id="img-b54103d5-16">
        <g transform="translate(35.85,40.66)" id="img-b54103d5-17">
          <path fill="none" d="M0,-30.05 L0,30.05 " class="primitive"/>
        </g>
        <g transform="translate(43.29,40.66)" id="img-b54103d5-18">
          <path fill="none" d="M0,-30.05 L0,30.05 " class="primitive"/>
        </g>
        <g transform="translate(50.74,40.66)" id="img-b54103d5-19">
          <path fill="none" d="M0,-30.05 L0,30.05 " class="primitive"/>
        </g>
        <g transform="translate(58.19,40.66)" id="img-b54103d5-20">
          <path fill="none" d="M0,-30.05 L0,30.05 " class="primitive"/>
        </g>
        <g transform="translate(65.63,40.66)" id="img-b54103d5-21">
          <path fill="none" d="M0,-30.05 L0,30.05 " class="primitive"/>
        </g>
        <g transform="translate(73.08,40.66)" id="img-b54103d5-22">
          <path fill="none" d="M0,-30.05 L0,30.05 " class="primitive"/>
        </g>
        <g transform="translate(80.53,40.66)" id="img-b54103d5-23">
          <path fill="none" d="M0,-30.05 L0,30.05 " class="primitive"/>
        </g>
        <g transform="translate(87.98,40.66)" id="img-b54103d5-24">
          <path fill="none" d="M0,-30.05 L0,30.05 " class="primitive"/>
        </g>
        <g transform="translate(95.42,40.66)" id="img-b54103d5-25">
          <path fill="none" d="M0,-30.05 L0,30.05 " class="primitive"/>
        </g>
        <g transform="translate(102.87,40.66)" id="img-b54103d5-26">
          <path fill="none" d="M0,-30.05 L0,30.05 " class="primitive"/>
        </g>
        <g transform="translate(110.32,40.66)" id="img-b54103d5-27">
          <path fill="none" d="M0,-30.05 L0,30.05 " class="primitive"/>
        </g>
        <g transform="translate(117.76,40.66)" id="img-b54103d5-28">
          <path fill="none" d="M0,-30.05 L0,30.05 " class="primitive"/>
        </g>
        <g transform="translate(125.21,40.66)" id="img-b54103d5-29">
          <path fill="none" d="M0,-30.05 L0,30.05 " class="primitive"/>
        </g>
        <g transform="translate(132.66,40.66)" id="img-b54103d5-30">
          <path fill="none" d="M0,-30.05 L0,30.05 " class="primitive"/>
        </g>
        <g transform="translate(140.11,40.66)" id="img-b54103d5-31">
          <path fill="none" d="M0,-30.05 L0,30.05 " class="primitive"/>
        </g>
        <g transform="translate(147.55,40.66)" id="img-b54103d5-32">
          <path fill="none" d="M0,-30.05 L0,30.05 " class="primitive"/>
        </g>
      </g>
      <g class="plotpanel" id="img-b54103d5-33">
        <metadata>
          <boundingbox value="28.39833333333334mm 10.611666666666665mm 126.60166666666666mm 60.10333333333334mm"/>
          <unitbox value="0.5 258912.126433367 17.0 -267824.252866734"/>
        </metadata>
        <g shape-rendering="crispEdges" stroke-width="0.3" id="img-b54103d5-34">
          <g class="geometry" fill-opacity="1" stroke="#000000" stroke-opacity="0.000" fill="#00BFFF" id="img-b54103d5-35">
            <g transform="translate(32.12,42.26)" id="img-b54103d5-36">
              <path d="M-3.75,-26.45 L3.75,-26.45 3.75,26.45 -3.75,26.45  z" class="primitive"/>
            </g>
            <g transform="translate(39.57,66.71)" id="img-b54103d5-37">
              <path d="M-3.75,-2.01 L3.75,-2.01 3.75,2.01 -3.75,2.01  z" class="primitive"/>
            </g>
            <g transform="translate(47.02,68.3)" id="img-b54103d5-38">
              <path d="M-3.75,-0.41 L3.75,-0.41 3.75,0.41 -3.75,0.41  z" class="primitive"/>
            </g>
            <g transform="translate(54.46,66.86)" id="img-b54103d5-39">
              <path d="M-3.75,-1.85 L3.75,-1.85 3.75,1.85 -3.75,1.85  z" class="primitive"/>
            </g>
            <g transform="translate(61.91,68.62)" id="img-b54103d5-40">
              <path d="M-3.75,-0.09 L3.75,-0.09 3.75,0.09 -3.75,0.09  z" class="primitive"/>
            </g>
            <g transform="translate(69.36,68.6)" id="img-b54103d5-41">
              <path d="M-3.75,-0.11 L3.75,-0.11 3.75,0.11 -3.75,0.11  z" class="primitive"/>
            </g>
            <g transform="translate(76.8,52.43)" id="img-b54103d5-42">
              <path d="M-3.75,-16.28 L3.75,-16.28 3.75,16.28 -3.75,16.28  z" class="primitive"/>
            </g>
            <g transform="translate(84.25,68.46)" id="img-b54103d5-43">
              <path d="M-3.75,-0.25 L3.75,-0.25 3.75,0.25 -3.75,0.25  z" class="primitive"/>
            </g>
            <g transform="translate(91.7,68.28)" id="img-b54103d5-44">
              <path d="M-3.75,-0.43 L3.75,-0.43 3.75,0.43 -3.75,0.43  z" class="primitive"/>
            </g>
            <g transform="translate(99.15,68.62)" id="img-b54103d5-45">
              <path d="M-3.75,-0.09 L3.75,-0.09 3.75,0.09 -3.75,0.09  z" class="primitive"/>
            </g>
            <g transform="translate(106.59,68.28)" id="img-b54103d5-46">
              <path d="M-3.75,-0.43 L3.75,-0.43 3.75,0.43 -3.75,0.43  z" class="primitive"/>
            </g>
            <g transform="translate(114.04,67.94)" id="img-b54103d5-47">
              <path d="M-3.75,-0.77 L3.75,-0.77 3.75,0.77 -3.75,0.77  z" class="primitive"/>
            </g>
            <g transform="translate(121.49,67.73)" id="img-b54103d5-48">
              <path d="M-3.75,-0.98 L3.75,-0.98 3.75,0.98 -3.75,0.98  z" class="primitive"/>
            </g>
            <g transform="translate(128.93,68.7)" id="img-b54103d5-49">
              <path d="M-3.75,-0.02 L3.75,-0.02 3.75,0.02 -3.75,0.02  z" class="primitive"/>
            </g>
            <g transform="translate(136.38,68.72)" id="img-b54103d5-50">
              <path d="M-3.75,-0 L3.75,-0 3.75,0 -3.75,0  z" class="primitive"/>
            </g>
            <g transform="translate(143.83,68.67)" id="img-b54103d5-51">
              <path d="M-3.75,-0.05 L3.75,-0.05 3.75,0.05 -3.75,0.05  z" class="primitive"/>
            </g>
            <g transform="translate(151.28,68.69)" id="img-b54103d5-52">
              <path d="M-3.75,-0.03 L3.75,-0.03 3.75,0.03 -3.75,0.03  z" class="primitive"/>
            </g>
          </g>
        </g>
      </g>
    </g>
  </g>
  <g class="guide ylabels" font-size="2.82" font-family="'PT Sans Caption','Helvetica Neue','Helvetica',sans-serif" fill="#6C606B" id="img-b54103d5-53">
    <g transform="translate(27.4,68.72)" id="img-b54103d5-54">
      <g class="primitive">
        <text text-anchor="end" dy="0.35em">0</text>
      </g>
    </g>
    <g transform="translate(27.4,57.49)" id="img-b54103d5-55">
      <g class="primitive">
        <text text-anchor="end" dy="0.35em">5.00×10⁴</text>
      </g>
    </g>
    <g transform="translate(27.4,46.27)" id="img-b54103d5-56">
      <g class="primitive">
        <text text-anchor="end" dy="0.35em">1.00×10⁵</text>
      </g>
    </g>
    <g transform="translate(27.4,35.05)" id="img-b54103d5-57">
      <g class="primitive">
        <text text-anchor="end" dy="0.35em">1.50×10⁵</text>
      </g>
    </g>
    <g transform="translate(27.4,23.83)" id="img-b54103d5-58">
      <g class="primitive">
        <text text-anchor="end" dy="0.35em">2.00×10⁵</text>
      </g>
    </g>
    <g transform="translate(27.4,12.61)" id="img-b54103d5-59">
      <g class="primitive">
        <text text-anchor="end" dy="0.35em">2.50×10⁵</text>
      </g>
    </g>
  </g>
  <g font-size="3.88" font-family="'PT Sans','Helvetica Neue','Helvetica',sans-serif" fill="#564A55" stroke="#000000" stroke-opacity="0.000" id="img-b54103d5-60">
    <g transform="translate(8.81,38.66)" id="img-b54103d5-61">
      <g class="primitive">
        <text text-anchor="middle" dy="0.35em" transform="rotate(-90,0, 2)">Total Debt (in dollars)</text>
      </g>
    </g>
  </g>
  <g font-size="3.88" font-family="'PT Sans','Helvetica Neue','Helvetica',sans-serif" fill="#564A55" stroke="#000000" stroke-opacity="0.000" id="img-b54103d5-62">
    <g transform="translate(91.7,5)" id="img-b54103d5-63">
      <g class="primitive">
        <text text-anchor="middle" dy="0.6em">NJ Debt Redeemed Per Year</text>
      </g>
    </g>
  </g>
</g>
<defs>
  <clipPath id="img-b54103d5-5">
    <path d="M28.4,10.61 L155,10.61 155,70.72 28.4,70.72 " />
  </clipPath>
</defs>
</svg>
