<?xml version="1.0" encoding="UTF-8"?>
<svg xmlns="http://www.w3.org/2000/svg"
     xmlns:xlink="http://www.w3.org/1999/xlink"
     xmlns:gadfly="http://www.gadflyjl.org/ns"
     version="1.2"
     width="160mm" height="90mm" viewBox="0 0 160 90"
     stroke="none"
     fill="#000000"
     stroke-width="0.3"
     font-size="3.88"
>
<defs>
  <marker id="arrow" markerWidth="15" markerHeight="7" refX="5" refY="3.5" orient="auto" markerUnits="strokeWidth">
    <path d="M0,0 L15,3.5 L0,7 z" stroke="context-stroke" fill="context-stroke"/>
  </marker>
</defs>
<g stroke="#000000" stroke-opacity="0.000" fill="#FFFFFF" id="img-41f547f0-1">
  <g transform="translate(80,45)">
    <path d="M-80,-45 L80,-45 80,45 -80,45  z" class="primitive"/>
  </g>
</g>
<g class="plotroot yscalable" id="img-41f547f0-2">
  <g font-size="3.88" font-family="'PT Sans','Helvetica Neue','Helvetica',sans-serif" fill="#564A55" stroke="#000000" stroke-opacity="0.000" id="img-41f547f0-3">
    <g transform="translate(91.7,78.39)">
      <g class="primitive">
        <text text-anchor="middle" dy="0.6em">Year</text>
      </g>
    </g>
  </g>
  <g class="guide xlabels" font-size="2.82" font-family="'PT Sans Caption','Helvetica Neue','Helvetica',sans-serif" fill="#6C606B" id="img-41f547f0-4">
    <g transform="translate(35.43,71.72)">
      <g class="primitive">
        <text text-anchor="middle" dy="0.6em">1790</text>
      </g>
    </g>
    <g transform="translate(49.5,71.72)">
      <g class="primitive">
        <text text-anchor="middle" dy="0.6em">1791</text>
      </g>
    </g>
    <g transform="translate(63.57,71.72)">
      <g class="primitive">
        <text text-anchor="middle" dy="0.6em">1792</text>
      </g>
    </g>
    <g transform="translate(77.63,71.72)">
      <g class="primitive">
        <text text-anchor="middle" dy="0.6em">1793</text>
      </g>
    </g>
    <g transform="translate(91.7,71.72)">
      <g class="primitive">
        <text text-anchor="middle" dy="0.6em">1794</text>
      </g>
    </g>
    <g transform="translate(105.77,71.72)">
      <g class="primitive">
        <text text-anchor="middle" dy="0.6em">1795</text>
      </g>
    </g>
    <g transform="translate(119.83,71.72)">
      <g class="primitive">
        <text text-anchor="middle" dy="0.6em">1796</text>
      </g>
    </g>
    <g transform="translate(133.9,71.72)">
      <g class="primitive">
        <text text-anchor="middle" dy="0.6em">1797</text>
      </g>
    </g>
    <g transform="translate(147.97,71.72)">
      <g class="primitive">
        <text text-anchor="middle" dy="0.6em">no year</text>
      </g>
    </g>
  </g>
  <g clip-path="url(#img-41f547f0-5)">
    <g id="img-41f547f0-6">
      <g pointer-events="visible" stroke-width="0.3" fill="#000000" fill-opacity="0.000" stroke="#000000" stroke-opacity="0.000" class="guide background" id="img-41f547f0-7">
        <g transform="translate(91.7,40.66)" id="img-41f547f0-8">
          <path d="M-63.3,-30.05 L63.3,-30.05 63.3,30.05 -63.3,30.05  z" class="primitive"/>
        </g>
      </g>
      <g class="guide ygridlines xfixed" stroke-dasharray="0.5,0.5" stroke-width="0.2" stroke="#D0D0E0" id="img-41f547f0-9">
        <g transform="translate(91.7,68.72)" id="img-41f547f0-10">
          <path fill="none" d="M-63.3,0 L63.3,0 " class="primitive"/>
        </g>
        <g transform="translate(91.7,57.49)" id="img-41f547f0-11">
          <path fill="none" d="M-63.3,0 L63.3,0 " class="primitive"/>
        </g>
        <g transform="translate(91.7,46.27)" id="img-41f547f0-12">
          <path fill="none" d="M-63.3,0 L63.3,0 " class="primitive"/>
        </g>
        <g transform="translate(91.7,35.05)" id="img-41f547f0-13">
          <path fill="none" d="M-63.3,0 L63.3,0 " class="primitive"/>
        </g>
        <g transform="translate(91.7,23.83)" id="img-41f547f0-14">
          <path fill="none" d="M-63.3,0 L63.3,0 " class="primitive"/>
        </g>
        <g transform="translate(91.7,12.61)" id="img-41f547f0-15">
          <path fill="none" d="M-63.3,0 L63.3,0 " class="primitive"/>
        </g>
      </g>
      <g class="guide xgridlines yfixed" stroke-dasharray="0.5,0.5" stroke-width="0.2" stroke="#D0D0E0" id="img-41f547f0-16">
        <g transform="translate(42.47,40.66)" id="img-41f547f0-17">
          <path fill="none" d="M0,-30.05 L0,30.05 " class="primitive"/>
        </g>
        <g transform="translate(56.53,40.66)" id="img-41f547f0-18">
          <path fill="none" d="M0,-30.05 L0,30.05 " class="primitive"/>
        </g>
        <g transform="translate(70.6,40.66)" id="img-41f547f0-19">
          <path fill="none" d="M0,-30.05 L0,30.05 " class="primitive"/>
        </g>
        <g transform="translate(84.67,40.66)" id="img-41f547f0-20">
          <path fill="none" d="M0,-30.05 L0,30.05 " class="primitive"/>
        </g>
        <g transform="translate(98.73,40.66)" id="img-41f547f0-21">
          <path fill="none" d="M0,-30.05 L0,30.05 " class="primitive"/>
        </g>
        <g transform="translate(112.8,40.66)" id="img-41f547f0-22">
          <path fill="none" d="M0,-30.05 L0,30.05 " class="primitive"/>
        </g>
        <g transform="translate(126.87,40.66)" id="img-41f547f0-23">
          <path fill="none" d="M0,-30.05 L0,30.05 " class="primitive"/>
        </g>
        <g transform="translate(140.93,40.66)" id="img-41f547f0-24">
          <path fill="none" d="M0,-30.05 L0,30.05 " class="primitive"/>
        </g>
      </g>
      <g class="plotpanel" id="img-41f547f0-25">
        <metadata>
          <boundingbox value="28.398333333333355mm 10.611666666666665mm 126.60166666666667mm 60.10333333333334mm"/>
          <unitbox value="0.5 258912.126433367 9.0 -267824.252866734"/>
        </metadata>
        <g shape-rendering="crispEdges" stroke-width="0.3" id="img-41f547f0-26">
          <g class="geometry" fill-opacity="1" stroke="#000000" stroke-opacity="0.000" fill="#00BFFF" id="img-41f547f0-27">
            <g transform="translate(35.43,65.63)" id="img-41f547f0-28">
              <path d="M-7.06,-3.09 L7.06,-3.09 7.06,3.09 -7.06,3.09  z" class="primitive"/>
            </g>
            <g transform="translate(49.5,59.87)" id="img-41f547f0-29">
              <path d="M-7.06,-8.85 L7.06,-8.85 7.06,8.85 -7.06,8.85  z" class="primitive"/>
            </g>
            <g transform="translate(63.57,67.03)" id="img-41f547f0-30">
              <path d="M-7.06,-1.69 L7.06,-1.69 7.06,1.69 -7.06,1.69  z" class="primitive"/>
            </g>
            <g transform="translate(77.63,68.36)" id="img-41f547f0-31">
              <path d="M-7.06,-0.35 L7.06,-0.35 7.06,0.35 -7.06,0.35  z" class="primitive"/>
            </g>
            <g transform="translate(91.7,40.78)" id="img-41f547f0-32">
              <path d="M-7.06,-27.94 L7.06,-27.94 7.06,27.94 -7.06,27.94  z" class="primitive"/>
            </g>
            <g transform="translate(105.77,66.88)" id="img-41f547f0-33">
              <path d="M-7.06,-1.83 L7.06,-1.83 7.06,1.83 -7.06,1.83  z" class="primitive"/>
            </g>
            <g transform="translate(119.83,68.65)" id="img-41f547f0-34">
              <path d="M-7.06,-0.06 L7.06,-0.06 7.06,0.06 -7.06,0.06  z" class="primitive"/>
            </g>
            <g transform="translate(133.9,68.7)" id="img-41f547f0-35">
              <path d="M-7.06,-0.01 L7.06,-0.01 7.06,0.01 -7.06,0.01  z" class="primitive"/>
            </g>
            <g transform="translate(147.97,66.57)" id="img-41f547f0-36">
              <path d="M-7.06,-2.15 L7.06,-2.15 7.06,2.15 -7.06,2.15  z" class="primitive"/>
            </g>
          </g>
        </g>
      </g>
    </g>
  </g>
  <g class="guide ylabels" font-size="2.82" font-family="'PT Sans Caption','Helvetica Neue','Helvetica',sans-serif" fill="#6C606B" id="img-41f547f0-37">
    <g transform="translate(27.4,68.72)" id="img-41f547f0-38">
      <g class="primitive">
        <text text-anchor="end" dy="0.35em">0</text>
      </g>
    </g>
    <g transform="translate(27.4,57.49)" id="img-41f547f0-39">
      <g class="primitive">
        <text text-anchor="end" dy="0.35em">5.00×10⁴</text>
      </g>
    </g>
    <g transform="translate(27.4,46.27)" id="img-41f547f0-40">
      <g class="primitive">
        <text text-anchor="end" dy="0.35em">1.00×10⁵</text>
      </g>
    </g>
    <g transform="translate(27.4,35.05)" id="img-41f547f0-41">
      <g class="primitive">
        <text text-anchor="end" dy="0.35em">1.50×10⁵</text>
      </g>
    </g>
    <g transform="translate(27.4,23.83)" id="img-41f547f0-42">
      <g class="primitive">
        <text text-anchor="end" dy="0.35em">2.00×10⁵</text>
      </g>
    </g>
    <g transform="translate(27.4,12.61)" id="img-41f547f0-43">
      <g class="primitive">
        <text text-anchor="end" dy="0.35em">2.50×10⁵</text>
      </g>
    </g>
  </g>
  <g font-size="3.88" font-family="'PT Sans','Helvetica Neue','Helvetica',sans-serif" fill="#564A55" stroke="#000000" stroke-opacity="0.000" id="img-41f547f0-44">
    <g transform="translate(8.81,38.66)" id="img-41f547f0-45">
      <g class="primitive">
        <text text-anchor="middle" dy="0.35em" transform="rotate(-90,0, 2)">Total Debt (in dollars)</text>
      </g>
    </g>
  </g>
  <g font-size="3.88" font-family="'PT Sans','Helvetica Neue','Helvetica',sans-serif" fill="#564A55" stroke="#000000" stroke-opacity="0.000" id="img-41f547f0-46">
    <g transform="translate(91.7,5)" id="img-41f547f0-47">
      <g class="primitive">
        <text text-anchor="middle" dy="0.6em">SC Debt Redeemed Per Year</text>
      </g>
    </g>
  </g>
</g>
<defs>
  <clipPath id="img-41f547f0-5">
    <path d="M28.4,10.61 L155,10.61 155,70.72 28.4,70.72 " />
  </clipPath>
</defs>
</svg>
