<?xml version="1.0" encoding="UTF-8"?>
<svg xmlns="http://www.w3.org/2000/svg"
     xmlns:xlink="http://www.w3.org/1999/xlink"
     xmlns:gadfly="http://www.gadflyjl.org/ns"
     version="1.2"
     width="160mm" height="90mm" viewBox="0 0 160 90"
     stroke="none"
     fill="#000000"
     stroke-width="0.3"
     font-size="3.88"
>
<defs>
  <marker id="arrow" markerWidth="15" markerHeight="7" refX="5" refY="3.5" orient="auto" markerUnits="strokeWidth">
    <path d="M0,0 L15,3.5 L0,7 z" stroke="context-stroke" fill="context-stroke"/>
  </marker>
</defs>
<g stroke="#000000" stroke-opacity="0.000" fill="#FFFFFF" id="img-2724eefc-1">
  <g transform="translate(80,45)">
    <path d="M-80,-45 L80,-45 80,45 -80,45  z" class="primitive"/>
  </g>
</g>
<g class="plotroot yscalable" id="img-2724eefc-2">
  <g font-size="3.88" font-family="'PT Sans','Helvetica Neue','Helvetica',sans-serif" fill="#564A55" stroke="#000000" stroke-opacity="0.000" id="img-2724eefc-3">
    <g transform="translate(90.86,78.39)">
      <g class="primitive">
        <text text-anchor="middle" dy="0.6em">Year</text>
      </g>
    </g>
  </g>
  <g class="guide xlabels" font-size="2.82" font-family="'PT Sans Caption','Helvetica Neue','Helvetica',sans-serif" fill="#6C606B" id="img-2724eefc-4">
    <g transform="translate(30.29,71.72)">
      <g class="primitive">
        <text text-anchor="middle" dy="0.6em">1790</text>
      </g>
    </g>
    <g transform="translate(37.41,71.72)">
      <g class="primitive">
        <text text-anchor="middle" dy="0.6em">1791</text>
      </g>
    </g>
    <g transform="translate(44.54,71.72)">
      <g class="primitive">
        <text text-anchor="middle" dy="0.6em">1792</text>
      </g>
    </g>
    <g transform="translate(51.67,71.72)">
      <g class="primitive">
        <text text-anchor="middle" dy="0.6em">1793</text>
      </g>
    </g>
    <g transform="translate(58.79,71.72)">
      <g class="primitive">
        <text text-anchor="middle" dy="0.6em">1794</text>
      </g>
    </g>
    <g transform="translate(65.92,71.72)">
      <g class="primitive">
        <text text-anchor="middle" dy="0.6em">1795</text>
      </g>
    </g>
    <g transform="translate(73.05,71.72)">
      <g class="primitive">
        <text text-anchor="middle" dy="0.6em">1796</text>
      </g>
    </g>
    <g transform="translate(80.17,71.72)">
      <g class="primitive">
        <text text-anchor="middle" dy="0.6em">1797</text>
      </g>
    </g>
    <g transform="translate(87.3,71.72)">
      <g class="primitive">
        <text text-anchor="middle" dy="0.6em">1798</text>
      </g>
    </g>
    <g transform="translate(94.43,71.72)">
      <g class="primitive">
        <text text-anchor="middle" dy="0.6em">1799</text>
      </g>
    </g>
    <g transform="translate(101.55,71.72)">
      <g class="primitive">
        <text text-anchor="middle" dy="0.6em">1800</text>
      </g>
    </g>
    <g transform="translate(108.68,71.72)">
      <g class="primitive">
        <text text-anchor="middle" dy="0.6em">1801</text>
      </g>
    </g>
    <g transform="translate(115.8,71.72)">
      <g class="primitive">
        <text text-anchor="middle" dy="0.6em">1803</text>
      </g>
    </g>
    <g transform="translate(122.93,71.72)">
      <g class="primitive">
        <text text-anchor="middle" dy="0.6em">1805</text>
      </g>
    </g>
    <g transform="translate(130.06,71.72)">
      <g class="primitive">
        <text text-anchor="middle" dy="0.6em">1807</text>
      </g>
    </g>
    <g transform="translate(137.18,71.72)">
      <g class="primitive">
        <text text-anchor="middle" dy="0.6em">1808</text>
      </g>
    </g>
    <g transform="translate(144.31,71.72)">
      <g class="primitive">
        <text text-anchor="middle" dy="0.6em">1813</text>
      </g>
    </g>
    <g transform="translate(151.44,71.72)">
      <g class="primitive">
        <text text-anchor="middle" dy="0.6em">no year</text>
      </g>
    </g>
  </g>
  <g clip-path="url(#img-2724eefc-5)">
    <g id="img-2724eefc-6">
      <g pointer-events="visible" stroke-width="0.3" fill="#000000" fill-opacity="0.000" stroke="#000000" stroke-opacity="0.000" class="guide background" id="img-2724eefc-7">
        <g transform="translate(90.86,40.66)" id="img-2724eefc-8">
          <path d="M-64.14,-30.05 L64.14,-30.05 64.14,30.05 -64.14,30.05  z" class="primitive"/>
        </g>
      </g>
      <g class="guide ygridlines xfixed" stroke-dasharray="0.5,0.5" stroke-width="0.2" stroke="#D0D0E0" id="img-2724eefc-9">
        <g transform="translate(90.86,68.72)" id="img-2724eefc-10">
          <path fill="none" d="M-64.14,0 L64.14,0 " class="primitive"/>
        </g>
        <g transform="translate(90.86,50.01)" id="img-2724eefc-11">
          <path fill="none" d="M-64.14,0 L64.14,0 " class="primitive"/>
        </g>
        <g transform="translate(90.86,31.31)" id="img-2724eefc-12">
          <path fill="none" d="M-64.14,0 L64.14,0 " class="primitive"/>
        </g>
        <g transform="translate(90.86,12.61)" id="img-2724eefc-13">
          <path fill="none" d="M-64.14,0 L64.14,0 " class="primitive"/>
        </g>
      </g>
      <g class="guide xgridlines yfixed" stroke-dasharray="0.5,0.5" stroke-width="0.2" stroke="#D0D0E0" id="img-2724eefc-14">
        <g transform="translate(33.85,40.66)" id="img-2724eefc-15">
          <path fill="none" d="M0,-30.05 L0,30.05 " class="primitive"/>
        </g>
        <g transform="translate(40.98,40.66)" id="img-2724eefc-16">
          <path fill="none" d="M0,-30.05 L0,30.05 " class="primitive"/>
        </g>
        <g transform="translate(48.1,40.66)" id="img-2724eefc-17">
          <path fill="none" d="M0,-30.05 L0,30.05 " class="primitive"/>
        </g>
        <g transform="translate(55.23,40.66)" id="img-2724eefc-18">
          <path fill="none" d="M0,-30.05 L0,30.05 " class="primitive"/>
        </g>
        <g transform="translate(62.36,40.66)" id="img-2724eefc-19">
          <path fill="none" d="M0,-30.05 L0,30.05 " class="primitive"/>
        </g>
        <g transform="translate(69.48,40.66)" id="img-2724eefc-20">
          <path fill="none" d="M0,-30.05 L0,30.05 " class="primitive"/>
        </g>
        <g transform="translate(76.61,40.66)" id="img-2724eefc-21">
          <path fill="none" d="M0,-30.05 L0,30.05 " class="primitive"/>
        </g>
        <g transform="translate(83.74,40.66)" id="img-2724eefc-22">
          <path fill="none" d="M0,-30.05 L0,30.05 " class="primitive"/>
        </g>
        <g transform="translate(90.86,40.66)" id="img-2724eefc-23">
          <path fill="none" d="M0,-30.05 L0,30.05 " class="primitive"/>
        </g>
        <g transform="translate(97.99,40.66)" id="img-2724eefc-24">
          <path fill="none" d="M0,-30.05 L0,30.05 " class="primitive"/>
        </g>
        <g transform="translate(105.12,40.66)" id="img-2724eefc-25">
          <path fill="none" d="M0,-30.05 L0,30.05 " class="primitive"/>
        </g>
        <g transform="translate(112.24,40.66)" id="img-2724eefc-26">
          <path fill="none" d="M0,-30.05 L0,30.05 " class="primitive"/>
        </g>
        <g transform="translate(119.37,40.66)" id="img-2724eefc-27">
          <path fill="none" d="M0,-30.05 L0,30.05 " class="primitive"/>
        </g>
        <g transform="translate(126.49,40.66)" id="img-2724eefc-28">
          <path fill="none" d="M0,-30.05 L0,30.05 " class="primitive"/>
        </g>
        <g transform="translate(133.62,40.66)" id="img-2724eefc-29">
          <path fill="none" d="M0,-30.05 L0,30.05 " class="primitive"/>
        </g>
        <g transform="translate(140.75,40.66)" id="img-2724eefc-30">
          <path fill="none" d="M0,-30.05 L0,30.05 " class="primitive"/>
        </g>
        <g transform="translate(147.87,40.66)" id="img-2724eefc-31">
          <path fill="none" d="M0,-30.05 L0,30.05 " class="primitive"/>
        </g>
      </g>
      <g class="plotpanel" id="img-2724eefc-32">
        <metadata>
          <boundingbox value="26.725000000000023mm 10.611666666666665mm 128.275mm 60.10333333333334mm"/>
          <unitbox value="0.5 3.106945517200404e6 18.0 -3.213891034400808e6"/>
        </metadata>
        <g shape-rendering="crispEdges" stroke-width="0.3" id="img-2724eefc-33">
          <g class="geometry" fill-opacity="1" stroke="#000000" stroke-opacity="0.000" fill="#00BFFF" id="img-2724eefc-34">
            <g transform="translate(30.29,68.69)" id="img-2724eefc-35">
              <path d="M-3.59,-0.02 L3.59,-0.02 3.59,0.02 -3.59,0.02  z" class="primitive"/>
            </g>
            <g transform="translate(30.29,68.46)" id="img-2724eefc-36">
              <path d="M-3.59,-0.26 L3.59,-0.26 3.59,0.26 -3.59,0.26  z" class="primitive"/>
            </g>
            <g transform="translate(30.29,68.37)" id="img-2724eefc-37">
              <path d="M-3.59,-0.34 L3.59,-0.34 3.59,0.34 -3.59,0.34  z" class="primitive"/>
            </g>
            <g transform="translate(30.29,68.26)" id="img-2724eefc-38">
              <path d="M-3.59,-0.46 L3.59,-0.46 3.59,0.46 -3.59,0.46  z" class="primitive"/>
            </g>
            <g transform="translate(30.29,67.6)" id="img-2724eefc-39">
              <path d="M-3.59,-1.11 L3.59,-1.11 3.59,1.11 -3.59,1.11  z" class="primitive"/>
            </g>
            <g transform="translate(30.29,67.41)" id="img-2724eefc-40">
              <path d="M-3.59,-1.31 L3.59,-1.31 3.59,1.31 -3.59,1.31  z" class="primitive"/>
            </g>
            <g transform="translate(30.29,66.81)" id="img-2724eefc-41">
              <path d="M-3.59,-1.9 L3.59,-1.9 3.59,1.9 -3.59,1.9  z" class="primitive"/>
            </g>
            <g transform="translate(30.29,63.64)" id="img-2724eefc-42">
              <path d="M-3.59,-5.07 L3.59,-5.07 3.59,5.07 -3.59,5.07  z" class="primitive"/>
            </g>
            <g transform="translate(37.41,68.4)" id="img-2724eefc-43">
              <path d="M-3.59,-0.31 L3.59,-0.31 3.59,0.31 -3.59,0.31  z" class="primitive"/>
            </g>
            <g transform="translate(37.41,67.98)" id="img-2724eefc-44">
              <path d="M-3.59,-0.74 L3.59,-0.74 3.59,0.74 -3.59,0.74  z" class="primitive"/>
            </g>
            <g transform="translate(37.41,67.82)" id="img-2724eefc-45">
              <path d="M-3.59,-0.9 L3.59,-0.9 3.59,0.9 -3.59,0.9  z" class="primitive"/>
            </g>
            <g transform="translate(37.41,67.35)" id="img-2724eefc-46">
              <path d="M-3.59,-1.37 L3.59,-1.37 3.59,1.37 -3.59,1.37  z" class="primitive"/>
            </g>
            <g transform="translate(37.41,66.62)" id="img-2724eefc-47">
              <path d="M-3.59,-2.1 L3.59,-2.1 3.59,2.1 -3.59,2.1  z" class="primitive"/>
            </g>
            <g transform="translate(37.41,66.51)" id="img-2724eefc-48">
              <path d="M-3.59,-2.2 L3.59,-2.2 3.59,2.2 -3.59,2.2  z" class="primitive"/>
            </g>
            <g transform="translate(37.41,65.91)" id="img-2724eefc-49">
              <path d="M-3.59,-2.8 L3.59,-2.8 3.59,2.8 -3.59,2.8  z" class="primitive"/>
            </g>
            <g transform="translate(37.41,64.78)" id="img-2724eefc-50">
              <path d="M-3.59,-3.93 L3.59,-3.93 3.59,3.93 -3.59,3.93  z" class="primitive"/>
            </g>
            <g transform="translate(37.41,63.99)" id="img-2724eefc-51">
              <path d="M-3.59,-4.72 L3.59,-4.72 3.59,4.72 -3.59,4.72  z" class="primitive"/>
            </g>
            <g transform="translate(37.41,63.05)" id="img-2724eefc-52">
              <path d="M-3.59,-5.67 L3.59,-5.67 3.59,5.67 -3.59,5.67  z" class="primitive"/>
            </g>
            <g transform="translate(37.41,44.4)" id="img-2724eefc-53">
              <path d="M-3.59,-24.31 L3.59,-24.31 3.59,24.31 -3.59,24.31  z" class="primitive"/>
            </g>
            <g transform="translate(44.54,68.69)" id="img-2724eefc-54">
              <path d="M-3.59,-0.02 L3.59,-0.02 3.59,0.02 -3.59,0.02  z" class="primitive"/>
            </g>
            <g transform="translate(44.54,68.68)" id="img-2724eefc-55">
              <path d="M-3.59,-0.04 L3.59,-0.04 3.59,0.04 -3.59,0.04  z" class="primitive"/>
            </g>
            <g transform="translate(44.54,68.65)" id="img-2724eefc-56">
              <path d="M-3.59,-0.07 L3.59,-0.07 3.59,0.07 -3.59,0.07  z" class="primitive"/>
            </g>
            <g transform="translate(44.54,68.64)" id="img-2724eefc-57">
              <path d="M-3.59,-0.08 L3.59,-0.08 3.59,0.08 -3.59,0.08  z" class="primitive"/>
            </g>
            <g transform="translate(44.54,68.57)" id="img-2724eefc-58">
              <path d="M-3.59,-0.14 L3.59,-0.14 3.59,0.14 -3.59,0.14  z" class="primitive"/>
            </g>
            <g transform="translate(44.54,68.56)" id="img-2724eefc-59">
              <path d="M-3.59,-0.16 L3.59,-0.16 3.59,0.16 -3.59,0.16  z" class="primitive"/>
            </g>
            <g transform="translate(44.54,68.55)" id="img-2724eefc-60">
              <path d="M-3.59,-0.17 L3.59,-0.17 3.59,0.17 -3.59,0.17  z" class="primitive"/>
            </g>
            <g transform="translate(44.54,68.41)" id="img-2724eefc-61">
              <path d="M-3.59,-0.3 L3.59,-0.3 3.59,0.3 -3.59,0.3  z" class="primitive"/>
            </g>
            <g transform="translate(44.54,68.39)" id="img-2724eefc-62">
              <path d="M-3.59,-0.33 L3.59,-0.33 3.59,0.33 -3.59,0.33  z" class="primitive"/>
            </g>
            <g transform="translate(44.54,68.37)" id="img-2724eefc-63">
              <path d="M-3.59,-0.35 L3.59,-0.35 3.59,0.35 -3.59,0.35  z" class="primitive"/>
            </g>
            <g transform="translate(44.54,61.36)" id="img-2724eefc-64">
              <path d="M-3.59,-7.36 L3.59,-7.36 3.59,7.36 -3.59,7.36  z" class="primitive"/>
            </g>
            <g transform="translate(51.67,68.71)" id="img-2724eefc-65">
              <path d="M-3.59,-0.01 L3.59,-0.01 3.59,0.01 -3.59,0.01  z" class="primitive"/>
            </g>
            <g transform="translate(51.67,68.69)" id="img-2724eefc-66">
              <path d="M-3.59,-0.03 L3.59,-0.03 3.59,0.03 -3.59,0.03  z" class="primitive"/>
            </g>
            <g transform="translate(51.67,68.68)" id="img-2724eefc-67">
              <path d="M-3.59,-0.03 L3.59,-0.03 3.59,0.03 -3.59,0.03  z" class="primitive"/>
            </g>
            <g transform="translate(51.67,68.68)" id="img-2724eefc-68">
              <path d="M-3.59,-0.03 L3.59,-0.03 3.59,0.03 -3.59,0.03  z" class="primitive"/>
            </g>
            <g transform="translate(51.67,68.68)" id="img-2724eefc-69">
              <path d="M-3.59,-0.03 L3.59,-0.03 3.59,0.03 -3.59,0.03  z" class="primitive"/>
            </g>
            <g transform="translate(51.67,68.67)" id="img-2724eefc-70">
              <path d="M-3.59,-0.04 L3.59,-0.04 3.59,0.04 -3.59,0.04  z" class="primitive"/>
            </g>
            <g transform="translate(51.67,68.67)" id="img-2724eefc-71">
              <path d="M-3.59,-0.04 L3.59,-0.04 3.59,0.04 -3.59,0.04  z" class="primitive"/>
            </g>
            <g transform="translate(51.67,68.65)" id="img-2724eefc-72">
              <path d="M-3.59,-0.06 L3.59,-0.06 3.59,0.06 -3.59,0.06  z" class="primitive"/>
            </g>
            <g transform="translate(51.67,68.56)" id="img-2724eefc-73">
              <path d="M-3.59,-0.15 L3.59,-0.15 3.59,0.15 -3.59,0.15  z" class="primitive"/>
            </g>
            <g transform="translate(51.67,68.3)" id="img-2724eefc-74">
              <path d="M-3.59,-0.42 L3.59,-0.42 3.59,0.42 -3.59,0.42  z" class="primitive"/>
            </g>
            <g transform="translate(51.67,64.75)" id="img-2724eefc-75">
              <path d="M-3.59,-3.97 L3.59,-3.97 3.59,3.97 -3.59,3.97  z" class="primitive"/>
            </g>
            <g transform="translate(58.79,68.71)" id="img-2724eefc-76">
              <path d="M-3.59,-0.01 L3.59,-0.01 3.59,0.01 -3.59,0.01  z" class="primitive"/>
            </g>
            <g transform="translate(58.79,68.68)" id="img-2724eefc-77">
              <path d="M-3.59,-0.04 L3.59,-0.04 3.59,0.04 -3.59,0.04  z" class="primitive"/>
            </g>
            <g transform="translate(58.79,68.58)" id="img-2724eefc-78">
              <path d="M-3.59,-0.13 L3.59,-0.13 3.59,0.13 -3.59,0.13  z" class="primitive"/>
            </g>
            <g transform="translate(58.79,68.56)" id="img-2724eefc-79">
              <path d="M-3.59,-0.15 L3.59,-0.15 3.59,0.15 -3.59,0.15  z" class="primitive"/>
            </g>
            <g transform="translate(58.79,68.49)" id="img-2724eefc-80">
              <path d="M-3.59,-0.22 L3.59,-0.22 3.59,0.22 -3.59,0.22  z" class="primitive"/>
            </g>
            <g transform="translate(58.79,68.15)" id="img-2724eefc-81">
              <path d="M-3.59,-0.57 L3.59,-0.57 3.59,0.57 -3.59,0.57  z" class="primitive"/>
            </g>
            <g transform="translate(58.79,67.54)" id="img-2724eefc-82">
              <path d="M-3.59,-1.18 L3.59,-1.18 3.59,1.18 -3.59,1.18  z" class="primitive"/>
            </g>
            <g transform="translate(58.79,66.39)" id="img-2724eefc-83">
              <path d="M-3.59,-2.33 L3.59,-2.33 3.59,2.33 -3.59,2.33  z" class="primitive"/>
            </g>
            <g transform="translate(58.79,66.11)" id="img-2724eefc-84">
              <path d="M-3.59,-2.61 L3.59,-2.61 3.59,2.61 -3.59,2.61  z" class="primitive"/>
            </g>
            <g transform="translate(65.92,68.71)" id="img-2724eefc-85">
              <path d="M-3.59,-0 L3.59,-0 3.59,0 -3.59,0  z" class="primitive"/>
            </g>
            <g transform="translate(65.92,68.71)" id="img-2724eefc-86">
              <path d="M-3.59,-0.01 L3.59,-0.01 3.59,0.01 -3.59,0.01  z" class="primitive"/>
            </g>
            <g transform="translate(65.92,68.71)" id="img-2724eefc-87">
              <path d="M-3.59,-0.01 L3.59,-0.01 3.59,0.01 -3.59,0.01  z" class="primitive"/>
            </g>
            <g transform="translate(65.92,68.69)" id="img-2724eefc-88">
              <path d="M-3.59,-0.02 L3.59,-0.02 3.59,0.02 -3.59,0.02  z" class="primitive"/>
            </g>
            <g transform="translate(65.92,68.56)" id="img-2724eefc-89">
              <path d="M-3.59,-0.15 L3.59,-0.15 3.59,0.15 -3.59,0.15  z" class="primitive"/>
            </g>
            <g transform="translate(65.92,67.1)" id="img-2724eefc-90">
              <path d="M-3.59,-1.62 L3.59,-1.62 3.59,1.62 -3.59,1.62  z" class="primitive"/>
            </g>
            <g transform="translate(73.05,68.72)" id="img-2724eefc-91">
              <path d="M-3.59,-0 L3.59,-0 3.59,0 -3.59,0  z" class="primitive"/>
            </g>
            <g transform="translate(73.05,68.71)" id="img-2724eefc-92">
              <path d="M-3.59,-0 L3.59,-0 3.59,0 -3.59,0  z" class="primitive"/>
            </g>
            <g transform="translate(73.05,68.71)" id="img-2724eefc-93">
              <path d="M-3.59,-0.01 L3.59,-0.01 3.59,0.01 -3.59,0.01  z" class="primitive"/>
            </g>
            <g transform="translate(73.05,68.71)" id="img-2724eefc-94">
              <path d="M-3.59,-0.01 L3.59,-0.01 3.59,0.01 -3.59,0.01  z" class="primitive"/>
            </g>
            <g transform="translate(73.05,68.66)" id="img-2724eefc-95">
              <path d="M-3.59,-0.05 L3.59,-0.05 3.59,0.05 -3.59,0.05  z" class="primitive"/>
            </g>
            <g transform="translate(80.17,68.72)" id="img-2724eefc-96">
              <path d="M-3.59,-0 L3.59,-0 3.59,0 -3.59,0  z" class="primitive"/>
            </g>
            <g transform="translate(80.17,68.72)" id="img-2724eefc-97">
              <path d="M-3.59,-0 L3.59,-0 3.59,0 -3.59,0  z" class="primitive"/>
            </g>
            <g transform="translate(80.17,68.72)" id="img-2724eefc-98">
              <path d="M-3.59,-0 L3.59,-0 3.59,0 -3.59,0  z" class="primitive"/>
            </g>
            <g transform="translate(80.17,68.72)" id="img-2724eefc-99">
              <path d="M-3.59,-0 L3.59,-0 3.59,0 -3.59,0  z" class="primitive"/>
            </g>
            <g transform="translate(80.17,67.36)" id="img-2724eefc-100">
              <path d="M-3.59,-1.36 L3.59,-1.36 3.59,1.36 -3.59,1.36  z" class="primitive"/>
            </g>
            <g transform="translate(87.3,68.69)" id="img-2724eefc-101">
              <path d="M-3.59,-0.02 L3.59,-0.02 3.59,0.02 -3.59,0.02  z" class="primitive"/>
            </g>
            <g transform="translate(94.43,68.68)" id="img-2724eefc-102">
              <path d="M-3.59,-0.04 L3.59,-0.04 3.59,0.04 -3.59,0.04  z" class="primitive"/>
            </g>
            <g transform="translate(101.55,68.71)" id="img-2724eefc-103">
              <path d="M-3.59,-0.01 L3.59,-0.01 3.59,0.01 -3.59,0.01  z" class="primitive"/>
            </g>
            <g transform="translate(108.68,68.68)" id="img-2724eefc-104">
              <path d="M-3.59,-0.04 L3.59,-0.04 3.59,0.04 -3.59,0.04  z" class="primitive"/>
            </g>
            <g transform="translate(115.8,68.65)" id="img-2724eefc-105">
              <path d="M-3.59,-0.06 L3.59,-0.06 3.59,0.06 -3.59,0.06  z" class="primitive"/>
            </g>
            <g transform="translate(122.93,68.63)" id="img-2724eefc-106">
              <path d="M-3.59,-0.08 L3.59,-0.08 3.59,0.08 -3.59,0.08  z" class="primitive"/>
            </g>
            <g transform="translate(130.06,68.72)" id="img-2724eefc-107">
              <path d="M-3.59,-0 L3.59,-0 3.59,0 -3.59,0  z" class="primitive"/>
            </g>
            <g transform="translate(137.18,68.72)" id="img-2724eefc-108">
              <path d="M-3.59,-0 L3.59,-0 3.59,0 -3.59,0  z" class="primitive"/>
            </g>
            <g transform="translate(144.31,68.71)" id="img-2724eefc-109">
              <path d="M-3.59,-0 L3.59,-0 3.59,0 -3.59,0  z" class="primitive"/>
            </g>
            <g transform="translate(151.44,68.72)" id="img-2724eefc-110">
              <path d="M-3.59,-0 L3.59,-0 3.59,0 -3.59,0  z" class="primitive"/>
            </g>
            <g transform="translate(151.44,68.68)" id="img-2724eefc-111">
              <path d="M-3.59,-0.03 L3.59,-0.03 3.59,0.03 -3.59,0.03  z" class="primitive"/>
            </g>
            <g transform="translate(151.44,68.59)" id="img-2724eefc-112">
              <path d="M-3.59,-0.12 L3.59,-0.12 3.59,0.12 -3.59,0.12  z" class="primitive"/>
            </g>
            <g transform="translate(151.44,68.54)" id="img-2724eefc-113">
              <path d="M-3.59,-0.18 L3.59,-0.18 3.59,0.18 -3.59,0.18  z" class="primitive"/>
            </g>
            <g transform="translate(151.44,68.52)" id="img-2724eefc-114">
              <path d="M-3.59,-0.19 L3.59,-0.19 3.59,0.19 -3.59,0.19  z" class="primitive"/>
            </g>
            <g transform="translate(151.44,68.34)" id="img-2724eefc-115">
              <path d="M-3.59,-0.38 L3.59,-0.38 3.59,0.38 -3.59,0.38  z" class="primitive"/>
            </g>
            <g transform="translate(151.44,68)" id="img-2724eefc-116">
              <path d="M-3.59,-0.72 L3.59,-0.72 3.59,0.72 -3.59,0.72  z" class="primitive"/>
            </g>
            <g transform="translate(151.44,67.76)" id="img-2724eefc-117">
              <path d="M-3.59,-0.96 L3.59,-0.96 3.59,0.96 -3.59,0.96  z" class="primitive"/>
            </g>
          </g>
        </g>
      </g>
    </g>
  </g>
  <g class="guide ylabels" font-size="2.82" font-family="'PT Sans Caption','Helvetica Neue','Helvetica',sans-serif" fill="#6C606B" id="img-2724eefc-118">
    <g transform="translate(25.72,68.72)" id="img-2724eefc-119">
      <g class="primitive">
        <text text-anchor="end" dy="0.35em">0</text>
      </g>
    </g>
    <g transform="translate(25.72,50.01)" id="img-2724eefc-120">
      <g class="primitive">
        <text text-anchor="end" dy="0.35em">1.0×10⁶</text>
      </g>
    </g>
    <g transform="translate(25.72,31.31)" id="img-2724eefc-121">
      <g class="primitive">
        <text text-anchor="end" dy="0.35em">2.0×10⁶</text>
      </g>
    </g>
    <g transform="translate(25.72,12.61)" id="img-2724eefc-122">
      <g class="primitive">
        <text text-anchor="end" dy="0.35em">3.0×10⁶</text>
      </g>
    </g>
  </g>
  <g font-size="3.88" font-family="'PT Sans','Helvetica Neue','Helvetica',sans-serif" fill="#564A55" stroke="#000000" stroke-opacity="0.000" id="img-2724eefc-123">
    <g transform="translate(8.81,38.66)" id="img-2724eefc-124">
      <g class="primitive">
        <text text-anchor="middle" dy="0.35em" transform="rotate(-90,0, 2)">Total Debt (in dollars)</text>
      </g>
    </g>
  </g>
  <g font-size="3.88" font-family="'PT Sans','Helvetica Neue','Helvetica',sans-serif" fill="#564A55" stroke="#000000" stroke-opacity="0.000" id="img-2724eefc-125">
    <g transform="translate(90.86,5)" id="img-2724eefc-126">
      <g class="primitive">
        <text text-anchor="middle" dy="0.6em">UNITED STATES Debt Redeemed Per Year</text>
      </g>
    </g>
  </g>
</g>
<defs>
  <clipPath id="img-2724eefc-5">
    <path d="M26.73,10.61 L155,10.61 155,70.72 26.73,70.72 " />
  </clipPath>
</defs>
</svg>
