<?xml version="1.0" encoding="UTF-8"?>
<svg xmlns="http://www.w3.org/2000/svg"
     xmlns:xlink="http://www.w3.org/1999/xlink"
     xmlns:gadfly="http://www.gadflyjl.org/ns"
     version="1.2"
     width="160mm" height="90mm" viewBox="0 0 160 90"
     stroke="none"
     fill="#000000"
     stroke-width="0.3"
     font-size="3.88"
>
<defs>
  <marker id="arrow" markerWidth="15" markerHeight="7" refX="5" refY="3.5" orient="auto" markerUnits="strokeWidth">
    <path d="M0,0 L15,3.5 L0,7 z" stroke="context-stroke" fill="context-stroke"/>
  </marker>
</defs>
<g stroke="#000000" stroke-opacity="0.000" fill="#FFFFFF" id="img-37340f95-1">
  <g transform="translate(80,45)">
    <path d="M-80,-45 L80,-45 80,45 -80,45  z" class="primitive"/>
  </g>
</g>
<g class="plotroot yscalable" id="img-37340f95-2">
  <g font-size="3.88" font-family="'PT Sans','Helvetica Neue','Helvetica',sans-serif" fill="#564A55" stroke="#000000" stroke-opacity="0.000" id="img-37340f95-3">
    <g transform="translate(90.86,78.39)">
      <g class="primitive">
        <text text-anchor="middle" dy="0.6em">Year</text>
      </g>
    </g>
  </g>
  <g class="guide xlabels" font-size="2.82" font-family="'PT Sans Caption','Helvetica Neue','Helvetica',sans-serif" fill="#6C606B" id="img-37340f95-4">
    <g transform="translate(33.85,71.72)">
      <g class="primitive">
        <text text-anchor="middle" dy="0.6em">1790</text>
      </g>
    </g>
    <g transform="translate(48.1,71.72)">
      <g class="primitive">
        <text text-anchor="middle" dy="0.6em">1791</text>
      </g>
    </g>
    <g transform="translate(62.36,71.72)">
      <g class="primitive">
        <text text-anchor="middle" dy="0.6em">1792</text>
      </g>
    </g>
    <g transform="translate(76.61,71.72)">
      <g class="primitive">
        <text text-anchor="middle" dy="0.6em">1793</text>
      </g>
    </g>
    <g transform="translate(90.86,71.72)">
      <g class="primitive">
        <text text-anchor="middle" dy="0.6em">1794</text>
      </g>
    </g>
    <g transform="translate(105.12,71.72)">
      <g class="primitive">
        <text text-anchor="middle" dy="0.6em">1795</text>
      </g>
    </g>
    <g transform="translate(119.37,71.72)">
      <g class="primitive">
        <text text-anchor="middle" dy="0.6em">1796</text>
      </g>
    </g>
    <g transform="translate(133.62,71.72)">
      <g class="primitive">
        <text text-anchor="middle" dy="0.6em">1797</text>
      </g>
    </g>
    <g transform="translate(147.87,71.72)">
      <g class="primitive">
        <text text-anchor="middle" dy="0.6em">missing</text>
      </g>
    </g>
  </g>
  <g clip-path="url(#img-37340f95-5)">
    <g id="img-37340f95-6">
      <g pointer-events="visible" stroke-width="0.3" fill="#000000" fill-opacity="0.000" stroke="#000000" stroke-opacity="0.000" class="guide background" id="img-37340f95-7">
        <g transform="translate(90.86,40.66)" id="img-37340f95-8">
          <path d="M-64.14,-30.05 L64.14,-30.05 64.14,30.05 -64.14,30.05  z" class="primitive"/>
        </g>
      </g>
      <g class="guide ygridlines xfixed" stroke-dasharray="0.5,0.5" stroke-width="0.2" stroke="#D0D0E0" id="img-37340f95-9">
        <g transform="translate(90.86,68.72)" id="img-37340f95-10">
          <path fill="none" d="M-64.14,0 L64.14,0 " class="primitive"/>
        </g>
        <g transform="translate(90.86,50.01)" id="img-37340f95-11">
          <path fill="none" d="M-64.14,0 L64.14,0 " class="primitive"/>
        </g>
        <g transform="translate(90.86,31.31)" id="img-37340f95-12">
          <path fill="none" d="M-64.14,0 L64.14,0 " class="primitive"/>
        </g>
        <g transform="translate(90.86,12.61)" id="img-37340f95-13">
          <path fill="none" d="M-64.14,0 L64.14,0 " class="primitive"/>
        </g>
      </g>
      <g class="guide xgridlines yfixed" stroke-dasharray="0.5,0.5" stroke-width="0.2" stroke="#D0D0E0" id="img-37340f95-14">
        <g transform="translate(40.98,40.66)" id="img-37340f95-15">
          <path fill="none" d="M0,-30.05 L0,30.05 " class="primitive"/>
        </g>
        <g transform="translate(55.23,40.66)" id="img-37340f95-16">
          <path fill="none" d="M0,-30.05 L0,30.05 " class="primitive"/>
        </g>
        <g transform="translate(69.48,40.66)" id="img-37340f95-17">
          <path fill="none" d="M0,-30.05 L0,30.05 " class="primitive"/>
        </g>
        <g transform="translate(83.74,40.66)" id="img-37340f95-18">
          <path fill="none" d="M0,-30.05 L0,30.05 " class="primitive"/>
        </g>
        <g transform="translate(97.99,40.66)" id="img-37340f95-19">
          <path fill="none" d="M0,-30.05 L0,30.05 " class="primitive"/>
        </g>
        <g transform="translate(112.24,40.66)" id="img-37340f95-20">
          <path fill="none" d="M0,-30.05 L0,30.05 " class="primitive"/>
        </g>
        <g transform="translate(126.49,40.66)" id="img-37340f95-21">
          <path fill="none" d="M0,-30.05 L0,30.05 " class="primitive"/>
        </g>
        <g transform="translate(140.75,40.66)" id="img-37340f95-22">
          <path fill="none" d="M0,-30.05 L0,30.05 " class="primitive"/>
        </g>
      </g>
      <g class="plotpanel" id="img-37340f95-23">
        <metadata>
          <boundingbox value="26.725000000000023mm 10.611666666666665mm 128.275mm 60.10333333333334mm"/>
          <unitbox value="0.5 310694.5517200404 9.0 -321389.1034400808"/>
        </metadata>
        <g shape-rendering="crispEdges" stroke-width="0.3" id="img-37340f95-24">
          <g class="geometry" fill-opacity="1" stroke="#000000" stroke-opacity="0.000" fill="#00BFFF" id="img-37340f95-25">
            <g transform="translate(33.85,64.15)" id="img-37340f95-26">
              <path d="M-7.15,-4.57 L7.15,-4.57 7.15,4.57 -7.15,4.57  z" class="primitive"/>
            </g>
            <g transform="translate(48.1,40.7)" id="img-37340f95-27">
              <path d="M-7.15,-28.02 L7.15,-28.02 7.15,28.02 -7.15,28.02  z" class="primitive"/>
            </g>
            <g transform="translate(62.36,67.16)" id="img-37340f95-28">
              <path d="M-7.15,-1.55 L7.15,-1.55 7.15,1.55 -7.15,1.55  z" class="primitive"/>
            </g>
            <g transform="translate(76.61,68.1)" id="img-37340f95-29">
              <path d="M-7.15,-0.61 L7.15,-0.61 7.15,0.61 -7.15,0.61  z" class="primitive"/>
            </g>
            <g transform="translate(90.86,68.35)" id="img-37340f95-30">
              <path d="M-7.15,-0.37 L7.15,-0.37 7.15,0.37 -7.15,0.37  z" class="primitive"/>
            </g>
            <g transform="translate(105.12,68.49)" id="img-37340f95-31">
              <path d="M-7.15,-0.23 L7.15,-0.23 7.15,0.23 -7.15,0.23  z" class="primitive"/>
            </g>
            <g transform="translate(119.37,68.17)" id="img-37340f95-32">
              <path d="M-7.15,-0.55 L7.15,-0.55 7.15,0.55 -7.15,0.55  z" class="primitive"/>
            </g>
            <g transform="translate(133.62,68.72)" id="img-37340f95-33">
              <path d="M-7.15,-0 L7.15,-0 7.15,0 -7.15,0  z" class="primitive"/>
            </g>
            <g transform="translate(147.87,64.94)" id="img-37340f95-34">
              <path d="M-7.15,-3.77 L7.15,-3.77 7.15,3.77 -7.15,3.77  z" class="primitive"/>
            </g>
          </g>
        </g>
      </g>
    </g>
  </g>
  <g class="guide ylabels" font-size="2.82" font-family="'PT Sans Caption','Helvetica Neue','Helvetica',sans-serif" fill="#6C606B" id="img-37340f95-35">
    <g transform="translate(25.72,68.72)" id="img-37340f95-36">
      <g class="primitive">
        <text text-anchor="end" dy="0.35em">0</text>
      </g>
    </g>
    <g transform="translate(25.72,50.01)" id="img-37340f95-37">
      <g class="primitive">
        <text text-anchor="end" dy="0.35em">1.0×10⁵</text>
      </g>
    </g>
    <g transform="translate(25.72,31.31)" id="img-37340f95-38">
      <g class="primitive">
        <text text-anchor="end" dy="0.35em">2.0×10⁵</text>
      </g>
    </g>
    <g transform="translate(25.72,12.61)" id="img-37340f95-39">
      <g class="primitive">
        <text text-anchor="end" dy="0.35em">3.0×10⁵</text>
      </g>
    </g>
  </g>
  <g font-size="3.88" font-family="'PT Sans','Helvetica Neue','Helvetica',sans-serif" fill="#564A55" stroke="#000000" stroke-opacity="0.000" id="img-37340f95-40">
    <g transform="translate(8.81,38.66)" id="img-37340f95-41">
      <g class="primitive">
        <text text-anchor="middle" dy="0.35em" transform="rotate(-90,0, 2)">Total Debt (in dollars)</text>
      </g>
    </g>
  </g>
  <g font-size="3.88" font-family="'PT Sans','Helvetica Neue','Helvetica',sans-serif" fill="#564A55" stroke="#000000" stroke-opacity="0.000" id="img-37340f95-42">
    <g transform="translate(90.86,5)" id="img-37340f95-43">
      <g class="primitive">
        <text text-anchor="middle" dy="0.6em">VA Debt Redeemed Per Year</text>
      </g>
    </g>
  </g>
</g>
<defs>
  <clipPath id="img-37340f95-5">
    <path d="M26.73,10.61 L155,10.61 155,70.72 26.73,70.72 " />
  </clipPath>
</defs>
</svg>
