<?xml version="1.0" encoding="UTF-8"?>
<svg xmlns="http://www.w3.org/2000/svg"
     xmlns:xlink="http://www.w3.org/1999/xlink"
     xmlns:gadfly="http://www.gadflyjl.org/ns"
     version="1.2"
     width="320mm" height="180mm" viewBox="0 0 320 180"
     stroke="none"
     fill="#000000"
     stroke-width="0.3"
     font-size="3.88"
>
<defs>
  <marker id="arrow" markerWidth="15" markerHeight="7" refX="5" refY="3.5" orient="auto" markerUnits="strokeWidth">
    <path d="M0,0 L15,3.5 L0,7 z" stroke="context-stroke" fill="context-stroke"/>
  </marker>
</defs>
<g stroke="#000000" stroke-opacity="0.000" fill="#FFFFFF" id="img-bf9af982-1">
  <g transform="translate(160,90)">
    <path d="M-160,-90 L160,-90 160,90 -160,90  z" class="primitive"/>
  </g>
</g>
<g class="plotroot yscalable" id="img-bf9af982-2">
  <g font-size="3.88" font-family="'PT Sans','Helvetica Neue','Helvetica',sans-serif" fill="#564A55" stroke="#000000" stroke-opacity="0.000" id="img-bf9af982-3">
    <g transform="translate(171.7,168.39)">
      <g class="primitive">
        <text text-anchor="middle" dy="0.6em">Year</text>
      </g>
    </g>
  </g>
  <g class="guide xlabels" font-size="2.82" font-family="'PT Sans Caption','Helvetica Neue','Helvetica',sans-serif" fill="#6C606B" id="img-bf9af982-4">
    <g transform="translate(44.32,161.72)">
      <g class="primitive">
        <text text-anchor="middle" dy="0.6em">1790</text>
      </g>
    </g>
    <g transform="translate(76.17,161.72)">
      <g class="primitive">
        <text text-anchor="middle" dy="0.6em">1791</text>
      </g>
    </g>
    <g transform="translate(108.01,161.72)">
      <g class="primitive">
        <text text-anchor="middle" dy="0.6em">1792</text>
      </g>
    </g>
    <g transform="translate(139.85,161.72)">
      <g class="primitive">
        <text text-anchor="middle" dy="0.6em">1793</text>
      </g>
    </g>
    <g transform="translate(171.7,161.72)">
      <g class="primitive">
        <text text-anchor="middle" dy="0.6em">1794</text>
      </g>
    </g>
    <g transform="translate(203.54,161.72)">
      <g class="primitive">
        <text text-anchor="middle" dy="0.6em">1795</text>
      </g>
    </g>
    <g transform="translate(235.39,161.72)">
      <g class="primitive">
        <text text-anchor="middle" dy="0.6em">1796</text>
      </g>
    </g>
    <g transform="translate(267.23,161.72)">
      <g class="primitive">
        <text text-anchor="middle" dy="0.6em">1797</text>
      </g>
    </g>
    <g transform="translate(299.08,161.72)">
      <g class="primitive">
        <text text-anchor="middle" dy="0.6em">no year</text>
      </g>
    </g>
  </g>
  <g clip-path="url(#img-bf9af982-5)">
    <g id="img-bf9af982-6">
      <g pointer-events="visible" stroke-width="0.3" fill="#000000" fill-opacity="0.000" stroke="#000000" stroke-opacity="0.000" class="guide background" id="img-bf9af982-7">
        <g transform="translate(171.7,85.66)" id="img-bf9af982-8">
          <path d="M-143.3,-75.05 L143.3,-75.05 143.3,75.05 -143.3,75.05  z" class="primitive"/>
        </g>
      </g>
      <g class="guide ygridlines xfixed" stroke-dasharray="0.5,0.5" stroke-width="0.2" stroke="#D0D0E0" id="img-bf9af982-9">
        <g transform="translate(171.7,158.72)" id="img-bf9af982-10">
          <path fill="none" d="M-143.3,0 L143.3,0 " class="primitive"/>
        </g>
        <g transform="translate(171.7,110.01)" id="img-bf9af982-11">
          <path fill="none" d="M-143.3,0 L143.3,0 " class="primitive"/>
        </g>
        <g transform="translate(171.7,61.31)" id="img-bf9af982-12">
          <path fill="none" d="M-143.3,0 L143.3,0 " class="primitive"/>
        </g>
        <g transform="translate(171.7,12.61)" id="img-bf9af982-13">
          <path fill="none" d="M-143.3,0 L143.3,0 " class="primitive"/>
        </g>
      </g>
      <g class="guide xgridlines yfixed" stroke-dasharray="0.5,0.5" stroke-width="0.2" stroke="#D0D0E0" id="img-bf9af982-14">
        <g transform="translate(60.24,85.66)" id="img-bf9af982-15">
          <path fill="none" d="M0,-75.05 L0,75.05 " class="primitive"/>
        </g>
        <g transform="translate(92.09,85.66)" id="img-bf9af982-16">
          <path fill="none" d="M0,-75.05 L0,75.05 " class="primitive"/>
        </g>
        <g transform="translate(123.93,85.66)" id="img-bf9af982-17">
          <path fill="none" d="M0,-75.05 L0,75.05 " class="primitive"/>
        </g>
        <g transform="translate(155.78,85.66)" id="img-bf9af982-18">
          <path fill="none" d="M0,-75.05 L0,75.05 " class="primitive"/>
        </g>
        <g transform="translate(187.62,85.66)" id="img-bf9af982-19">
          <path fill="none" d="M0,-75.05 L0,75.05 " class="primitive"/>
        </g>
        <g transform="translate(219.47,85.66)" id="img-bf9af982-20">
          <path fill="none" d="M0,-75.05 L0,75.05 " class="primitive"/>
        </g>
        <g transform="translate(251.31,85.66)" id="img-bf9af982-21">
          <path fill="none" d="M0,-75.05 L0,75.05 " class="primitive"/>
        </g>
        <g transform="translate(283.16,85.66)" id="img-bf9af982-22">
          <path fill="none" d="M0,-75.05 L0,75.05 " class="primitive"/>
        </g>
      </g>
      <g class="plotpanel" id="img-bf9af982-23">
        <metadata>
          <boundingbox value="28.39833333333337mm 10.611666666666679mm 286.6016666666667mm 150.10333333333335mm"/>
          <unitbox value="0.5 152053.3412424996 9.0 -154106.6824849992"/>
        </metadata>
        <g shape-rendering="crispEdges" stroke-width="0.3" id="img-bf9af982-24">
          <g class="geometry" fill-opacity="1" stroke="#000000" stroke-opacity="0.000" fill="#00BFFF" id="img-bf9af982-25">
            <g transform="translate(44.32,137.82)" id="img-bf9af982-26">
              <path d="M-15.95,-20.9 L15.95,-20.9 15.95,20.9 -15.95,20.9  z" class="primitive"/>
            </g>
            <g transform="translate(44.32,137.65)" id="img-bf9af982-27">
              <path d="M-15.95,-21.06 L15.95,-21.06 15.95,21.06 -15.95,21.06  z" class="primitive"/>
            </g>
            <g transform="translate(44.32,142.83)" id="img-bf9af982-28">
              <path d="M-15.95,-15.88 L15.95,-15.88 15.95,15.88 -15.95,15.88  z" class="primitive"/>
            </g>
            <g transform="translate(76.17,142.15)" id="img-bf9af982-29">
              <path d="M-15.95,-16.56 L15.95,-16.56 15.95,16.56 -15.95,16.56  z" class="primitive"/>
            </g>
            <g transform="translate(76.17,158.28)" id="img-bf9af982-30">
              <path d="M-15.95,-0.43 L15.95,-0.43 15.95,0.43 -15.95,0.43  z" class="primitive"/>
            </g>
            <g transform="translate(76.17,158.6)" id="img-bf9af982-31">
              <path d="M-15.95,-0.12 L15.95,-0.12 15.95,0.12 -15.95,0.12  z" class="primitive"/>
            </g>
            <g transform="translate(76.17,157.91)" id="img-bf9af982-32">
              <path d="M-15.95,-0.81 L15.95,-0.81 15.95,0.81 -15.95,0.81  z" class="primitive"/>
            </g>
            <g transform="translate(76.17,132.63)" id="img-bf9af982-33">
              <path d="M-15.95,-26.09 L15.95,-26.09 15.95,26.09 -15.95,26.09  z" class="primitive"/>
            </g>
            <g transform="translate(76.17,141.51)" id="img-bf9af982-34">
              <path d="M-15.95,-17.21 L15.95,-17.21 15.95,17.21 -15.95,17.21  z" class="primitive"/>
            </g>
            <g transform="translate(76.17,155.62)" id="img-bf9af982-35">
              <path d="M-15.95,-3.09 L15.95,-3.09 15.95,3.09 -15.95,3.09  z" class="primitive"/>
            </g>
            <g transform="translate(76.17,148.56)" id="img-bf9af982-36">
              <path d="M-15.95,-10.15 L15.95,-10.15 15.95,10.15 -15.95,10.15  z" class="primitive"/>
            </g>
            <g transform="translate(76.17,154.16)" id="img-bf9af982-37">
              <path d="M-15.95,-4.56 L15.95,-4.56 15.95,4.56 -15.95,4.56  z" class="primitive"/>
            </g>
            <g transform="translate(76.17,157.31)" id="img-bf9af982-38">
              <path d="M-15.95,-1.41 L15.95,-1.41 15.95,1.41 -15.95,1.41  z" class="primitive"/>
            </g>
            <g transform="translate(76.17,150.98)" id="img-bf9af982-39">
              <path d="M-15.95,-7.73 L15.95,-7.73 15.95,7.73 -15.95,7.73  z" class="primitive"/>
            </g>
            <g transform="translate(76.17,137.68)" id="img-bf9af982-40">
              <path d="M-15.95,-21.03 L15.95,-21.03 15.95,21.03 -15.95,21.03  z" class="primitive"/>
            </g>
            <g transform="translate(108.01,158.44)" id="img-bf9af982-41">
              <path d="M-15.95,-0.27 L15.95,-0.27 15.95,0.27 -15.95,0.27  z" class="primitive"/>
            </g>
            <g transform="translate(108.01,158.72)" id="img-bf9af982-42">
              <path d="M-15.95,-0 L15.95,-0 15.95,0 -15.95,0  z" class="primitive"/>
            </g>
            <g transform="translate(108.01,158.31)" id="img-bf9af982-43">
              <path d="M-15.95,-0.4 L15.95,-0.4 15.95,0.4 -15.95,0.4  z" class="primitive"/>
            </g>
            <g transform="translate(108.01,158.68)" id="img-bf9af982-44">
              <path d="M-15.95,-0.03 L15.95,-0.03 15.95,0.03 -15.95,0.03  z" class="primitive"/>
            </g>
            <g transform="translate(108.01,158.45)" id="img-bf9af982-45">
              <path d="M-15.95,-0.26 L15.95,-0.26 15.95,0.26 -15.95,0.26  z" class="primitive"/>
            </g>
            <g transform="translate(108.01,158.72)" id="img-bf9af982-46">
              <path d="M-15.95,-0 L15.95,-0 15.95,0 -15.95,0  z" class="primitive"/>
            </g>
            <g transform="translate(108.01,158.59)" id="img-bf9af982-47">
              <path d="M-15.95,-0.13 L15.95,-0.13 15.95,0.13 -15.95,0.13  z" class="primitive"/>
            </g>
            <g transform="translate(108.01,158.72)" id="img-bf9af982-48">
              <path d="M-15.95,-0 L15.95,-0 15.95,0 -15.95,0  z" class="primitive"/>
            </g>
            <g transform="translate(108.01,158.72)" id="img-bf9af982-49">
              <path d="M-15.95,-0 L15.95,-0 15.95,0 -15.95,0  z" class="primitive"/>
            </g>
            <g transform="translate(139.85,158.04)" id="img-bf9af982-50">
              <path d="M-15.95,-0.68 L15.95,-0.68 15.95,0.68 -15.95,0.68  z" class="primitive"/>
            </g>
            <g transform="translate(139.85,158.69)" id="img-bf9af982-51">
              <path d="M-15.95,-0.03 L15.95,-0.03 15.95,0.03 -15.95,0.03  z" class="primitive"/>
            </g>
            <g transform="translate(139.85,158.72)" id="img-bf9af982-52">
              <path d="M-15.95,-0 L15.95,-0 15.95,0 -15.95,0  z" class="primitive"/>
            </g>
            <g transform="translate(139.85,158.07)" id="img-bf9af982-53">
              <path d="M-15.95,-0.64 L15.95,-0.64 15.95,0.64 -15.95,0.64  z" class="primitive"/>
            </g>
            <g transform="translate(139.85,158.71)" id="img-bf9af982-54">
              <path d="M-15.95,-0.01 L15.95,-0.01 15.95,0.01 -15.95,0.01  z" class="primitive"/>
            </g>
            <g transform="translate(139.85,158.55)" id="img-bf9af982-55">
              <path d="M-15.95,-0.17 L15.95,-0.17 15.95,0.17 -15.95,0.17  z" class="primitive"/>
            </g>
            <g transform="translate(139.85,158.69)" id="img-bf9af982-56">
              <path d="M-15.95,-0.03 L15.95,-0.03 15.95,0.03 -15.95,0.03  z" class="primitive"/>
            </g>
            <g transform="translate(139.85,158.72)" id="img-bf9af982-57">
              <path d="M-15.95,-0 L15.95,-0 15.95,0 -15.95,0  z" class="primitive"/>
            </g>
            <g transform="translate(139.85,158.68)" id="img-bf9af982-58">
              <path d="M-15.95,-0.04 L15.95,-0.04 15.95,0.04 -15.95,0.04  z" class="primitive"/>
            </g>
            <g transform="translate(139.85,158.67)" id="img-bf9af982-59">
              <path d="M-15.95,-0.05 L15.95,-0.05 15.95,0.05 -15.95,0.05  z" class="primitive"/>
            </g>
            <g transform="translate(171.7,158.71)" id="img-bf9af982-60">
              <path d="M-15.95,-0.01 L15.95,-0.01 15.95,0.01 -15.95,0.01  z" class="primitive"/>
            </g>
            <g transform="translate(171.7,158.49)" id="img-bf9af982-61">
              <path d="M-15.95,-0.23 L15.95,-0.23 15.95,0.23 -15.95,0.23  z" class="primitive"/>
            </g>
            <g transform="translate(171.7,98.41)" id="img-bf9af982-62">
              <path d="M-15.95,-60.3 L15.95,-60.3 15.95,60.3 -15.95,60.3  z" class="primitive"/>
            </g>
            <g transform="translate(171.7,158.72)" id="img-bf9af982-63">
              <path d="M-15.95,-0 L15.95,-0 15.95,0 -15.95,0  z" class="primitive"/>
            </g>
            <g transform="translate(171.7,158.68)" id="img-bf9af982-64">
              <path d="M-15.95,-0.04 L15.95,-0.04 15.95,0.04 -15.95,0.04  z" class="primitive"/>
            </g>
            <g transform="translate(171.7,158.68)" id="img-bf9af982-65">
              <path d="M-15.95,-0.04 L15.95,-0.04 15.95,0.04 -15.95,0.04  z" class="primitive"/>
            </g>
            <g transform="translate(171.7,158.25)" id="img-bf9af982-66">
              <path d="M-15.95,-0.47 L15.95,-0.47 15.95,0.47 -15.95,0.47  z" class="primitive"/>
            </g>
            <g transform="translate(171.7,158.55)" id="img-bf9af982-67">
              <path d="M-15.95,-0.17 L15.95,-0.17 15.95,0.17 -15.95,0.17  z" class="primitive"/>
            </g>
            <g transform="translate(171.7,158.68)" id="img-bf9af982-68">
              <path d="M-15.95,-0.04 L15.95,-0.04 15.95,0.04 -15.95,0.04  z" class="primitive"/>
            </g>
            <g transform="translate(171.7,158.71)" id="img-bf9af982-69">
              <path d="M-15.95,-0 L15.95,-0 15.95,0 -15.95,0  z" class="primitive"/>
            </g>
            <g transform="translate(203.54,158.72)" id="img-bf9af982-70">
              <path d="M-15.95,-0 L15.95,-0 15.95,0 -15.95,0  z" class="primitive"/>
            </g>
            <g transform="translate(203.54,158.72)" id="img-bf9af982-71">
              <path d="M-15.95,-0 L15.95,-0 15.95,0 -15.95,0  z" class="primitive"/>
            </g>
            <g transform="translate(203.54,158.55)" id="img-bf9af982-72">
              <path d="M-15.95,-0.16 L15.95,-0.16 15.95,0.16 -15.95,0.16  z" class="primitive"/>
            </g>
            <g transform="translate(203.54,158.7)" id="img-bf9af982-73">
              <path d="M-15.95,-0.01 L15.95,-0.01 15.95,0.01 -15.95,0.01  z" class="primitive"/>
            </g>
            <g transform="translate(203.54,158.72)" id="img-bf9af982-74">
              <path d="M-15.95,-0 L15.95,-0 15.95,0 -15.95,0  z" class="primitive"/>
            </g>
            <g transform="translate(203.54,158.63)" id="img-bf9af982-75">
              <path d="M-15.95,-0.08 L15.95,-0.08 15.95,0.08 -15.95,0.08  z" class="primitive"/>
            </g>
            <g transform="translate(235.39,158.72)" id="img-bf9af982-76">
              <path d="M-15.95,-0 L15.95,-0 15.95,0 -15.95,0  z" class="primitive"/>
            </g>
            <g transform="translate(235.39,158.7)" id="img-bf9af982-77">
              <path d="M-15.95,-0.01 L15.95,-0.01 15.95,0.01 -15.95,0.01  z" class="primitive"/>
            </g>
            <g transform="translate(235.39,158.68)" id="img-bf9af982-78">
              <path d="M-15.95,-0.03 L15.95,-0.03 15.95,0.03 -15.95,0.03  z" class="primitive"/>
            </g>
            <g transform="translate(235.39,158.72)" id="img-bf9af982-79">
              <path d="M-15.95,-0 L15.95,-0 15.95,0 -15.95,0  z" class="primitive"/>
            </g>
            <g transform="translate(235.39,158.72)" id="img-bf9af982-80">
              <path d="M-15.95,-0 L15.95,-0 15.95,0 -15.95,0  z" class="primitive"/>
            </g>
            <g transform="translate(235.39,158.72)" id="img-bf9af982-81">
              <path d="M-15.95,-0 L15.95,-0 15.95,0 -15.95,0  z" class="primitive"/>
            </g>
            <g transform="translate(267.23,158.63)" id="img-bf9af982-82">
              <path d="M-15.95,-0.08 L15.95,-0.08 15.95,0.08 -15.95,0.08  z" class="primitive"/>
            </g>
            <g transform="translate(299.08,152.22)" id="img-bf9af982-83">
              <path d="M-15.95,-6.5 L15.95,-6.5 15.95,6.5 -15.95,6.5  z" class="primitive"/>
            </g>
          </g>
        </g>
      </g>
    </g>
  </g>
  <g class="guide ylabels" font-size="2.82" font-family="'PT Sans Caption','Helvetica Neue','Helvetica',sans-serif" fill="#6C606B" id="img-bf9af982-84">
    <g transform="translate(27.4,158.72)" id="img-bf9af982-85">
      <g class="primitive">
        <text text-anchor="end" dy="0.35em">0</text>
      </g>
    </g>
    <g transform="translate(27.4,110.01)" id="img-bf9af982-86">
      <g class="primitive">
        <text text-anchor="end" dy="0.35em">5.00×10⁴</text>
      </g>
    </g>
    <g transform="translate(27.4,61.31)" id="img-bf9af982-87">
      <g class="primitive">
        <text text-anchor="end" dy="0.35em">1.00×10⁵</text>
      </g>
    </g>
    <g transform="translate(27.4,12.61)" id="img-bf9af982-88">
      <g class="primitive">
        <text text-anchor="end" dy="0.35em">1.50×10⁵</text>
      </g>
    </g>
  </g>
  <g font-size="3.88" font-family="'PT Sans','Helvetica Neue','Helvetica',sans-serif" fill="#564A55" stroke="#000000" stroke-opacity="0.000" id="img-bf9af982-89">
    <g transform="translate(8.81,83.66)" id="img-bf9af982-90">
      <g class="primitive">
        <text text-anchor="middle" dy="0.35em" transform="rotate(-90,0, 2)">Total Debt (in dollars)</text>
      </g>
    </g>
  </g>
  <g font-size="3.88" font-family="'PT Sans','Helvetica Neue','Helvetica',sans-serif" fill="#564A55" stroke="#000000" stroke-opacity="0.000" id="img-bf9af982-91">
    <g transform="translate(171.7,5)" id="img-bf9af982-92">
      <g class="primitive">
        <text text-anchor="middle" dy="0.6em">CT Debt Redeemed Per Year</text>
      </g>
    </g>
  </g>
</g>
<defs>
  <clipPath id="img-bf9af982-5">
    <path d="M28.4,10.61 L315,10.61 315,160.72 28.4,160.72 " />
  </clipPath>
</defs>
</svg>
