<?xml version="1.0" encoding="UTF-8"?>
<svg xmlns="http://www.w3.org/2000/svg"
     xmlns:xlink="http://www.w3.org/1999/xlink"
     xmlns:gadfly="http://www.gadflyjl.org/ns"
     version="1.2"
     width="320mm" height="180mm" viewBox="0 0 320 180"
     stroke="none"
     fill="#000000"
     stroke-width="0.3"
     font-size="3.88"
>
<defs>
  <marker id="arrow" markerWidth="15" markerHeight="7" refX="5" refY="3.5" orient="auto" markerUnits="strokeWidth">
    <path d="M0,0 L15,3.5 L0,7 z" stroke="context-stroke" fill="context-stroke"/>
  </marker>
</defs>
<g stroke="#000000" stroke-opacity="0.000" fill="#FFFFFF" id="img-3e9e783b-1">
  <g transform="translate(160,90)">
    <path d="M-160,-90 L160,-90 160,90 -160,90  z" class="primitive"/>
  </g>
</g>
<g class="plotroot yscalable" id="img-3e9e783b-2">
  <g font-size="3.88" font-family="'PT Sans','Helvetica Neue','Helvetica',sans-serif" fill="#564A55" stroke="#000000" stroke-opacity="0.000" id="img-3e9e783b-3">
    <g transform="translate(170.86,168.39)">
      <g class="primitive">
        <text text-anchor="middle" dy="0.6em">Year</text>
      </g>
    </g>
  </g>
  <g class="guide xlabels" font-size="2.82" font-family="'PT Sans Caption','Helvetica Neue','Helvetica',sans-serif" fill="#6C606B" id="img-3e9e783b-4">
    <g transform="translate(55.55,161.72)">
      <g class="primitive">
        <text text-anchor="middle" dy="0.6em">1790</text>
      </g>
    </g>
    <g transform="translate(113.21,161.72)">
      <g class="primitive">
        <text text-anchor="middle" dy="0.6em">1791</text>
      </g>
    </g>
    <g transform="translate(170.86,161.72)">
      <g class="primitive">
        <text text-anchor="middle" dy="0.6em">1792</text>
      </g>
    </g>
    <g transform="translate(228.52,161.72)">
      <g class="primitive">
        <text text-anchor="middle" dy="0.6em">1793</text>
      </g>
    </g>
    <g transform="translate(286.17,161.72)">
      <g class="primitive">
        <text text-anchor="middle" dy="0.6em">1794</text>
      </g>
    </g>
  </g>
  <g clip-path="url(#img-3e9e783b-5)">
    <g id="img-3e9e783b-6">
      <g pointer-events="visible" stroke-width="0.3" fill="#000000" fill-opacity="0.000" stroke="#000000" stroke-opacity="0.000" class="guide background" id="img-3e9e783b-7">
        <g transform="translate(170.86,85.66)" id="img-3e9e783b-8">
          <path d="M-144.14,-75.05 L144.14,-75.05 144.14,75.05 -144.14,75.05  z" class="primitive"/>
        </g>
      </g>
      <g class="guide ygridlines xfixed" stroke-dasharray="0.5,0.5" stroke-width="0.2" stroke="#D0D0E0" id="img-3e9e783b-9">
        <g transform="translate(170.86,158.72)" id="img-3e9e783b-10">
          <path fill="none" d="M-144.14,0 L144.14,0 " class="primitive"/>
        </g>
        <g transform="translate(170.86,110.01)" id="img-3e9e783b-11">
          <path fill="none" d="M-144.14,0 L144.14,0 " class="primitive"/>
        </g>
        <g transform="translate(170.86,61.31)" id="img-3e9e783b-12">
          <path fill="none" d="M-144.14,0 L144.14,0 " class="primitive"/>
        </g>
        <g transform="translate(170.86,12.61)" id="img-3e9e783b-13">
          <path fill="none" d="M-144.14,0 L144.14,0 " class="primitive"/>
        </g>
      </g>
      <g class="guide xgridlines yfixed" stroke-dasharray="0.5,0.5" stroke-width="0.2" stroke="#D0D0E0" id="img-3e9e783b-14">
        <g transform="translate(84.38,85.66)" id="img-3e9e783b-15">
          <path fill="none" d="M0,-75.05 L0,75.05 " class="primitive"/>
        </g>
        <g transform="translate(142.04,85.66)" id="img-3e9e783b-16">
          <path fill="none" d="M0,-75.05 L0,75.05 " class="primitive"/>
        </g>
        <g transform="translate(199.69,85.66)" id="img-3e9e783b-17">
          <path fill="none" d="M0,-75.05 L0,75.05 " class="primitive"/>
        </g>
        <g transform="translate(257.35,85.66)" id="img-3e9e783b-18">
          <path fill="none" d="M0,-75.05 L0,75.05 " class="primitive"/>
        </g>
      </g>
      <g class="plotpanel" id="img-3e9e783b-19">
        <metadata>
          <boundingbox value="26.725000000000023mm 10.611666666666679mm 288.275mm 150.10333333333335mm"/>
          <unitbox value="0.5 30410.66824849992 5.0 -30821.33649699984"/>
        </metadata>
        <g shape-rendering="crispEdges" stroke-width="0.3" id="img-3e9e783b-20">
          <g class="geometry" fill-opacity="1" stroke="#000000" stroke-opacity="0.000" fill="#00BFFF" id="img-3e9e783b-21">
            <g transform="translate(55.55,153.17)" id="img-3e9e783b-22">
              <path d="M-28.85,-5.55 L28.85,-5.55 28.85,5.55 -28.85,5.55  z" class="primitive"/>
            </g>
            <g transform="translate(113.21,154.63)" id="img-3e9e783b-23">
              <path d="M-28.85,-4.08 L28.85,-4.08 28.85,4.08 -28.85,4.08  z" class="primitive"/>
            </g>
            <g transform="translate(113.21,158.55)" id="img-3e9e783b-24">
              <path d="M-28.85,-0.17 L28.85,-0.17 28.85,0.17 -28.85,0.17  z" class="primitive"/>
            </g>
            <g transform="translate(113.21,142.28)" id="img-3e9e783b-25">
              <path d="M-28.85,-16.43 L28.85,-16.43 28.85,16.43 -28.85,16.43  z" class="primitive"/>
            </g>
            <g transform="translate(113.21,155.75)" id="img-3e9e783b-26">
              <path d="M-28.85,-2.97 L28.85,-2.97 28.85,2.97 -28.85,2.97  z" class="primitive"/>
            </g>
            <g transform="translate(113.21,150.39)" id="img-3e9e783b-27">
              <path d="M-28.85,-8.33 L28.85,-8.33 28.85,8.33 -28.85,8.33  z" class="primitive"/>
            </g>
            <g transform="translate(113.21,108.18)" id="img-3e9e783b-28">
              <path d="M-28.85,-50.53 L28.85,-50.53 28.85,50.53 -28.85,50.53  z" class="primitive"/>
            </g>
            <g transform="translate(113.21,125.74)" id="img-3e9e783b-29">
              <path d="M-28.85,-32.98 L28.85,-32.98 28.85,32.98 -28.85,32.98  z" class="primitive"/>
            </g>
            <g transform="translate(113.21,112.29)" id="img-3e9e783b-30">
              <path d="M-28.85,-46.43 L28.85,-46.43 28.85,46.43 -28.85,46.43  z" class="primitive"/>
            </g>
            <g transform="translate(113.21,87.5)" id="img-3e9e783b-31">
              <path d="M-28.85,-71.22 L28.85,-71.22 28.85,71.22 -28.85,71.22  z" class="primitive"/>
            </g>
            <g transform="translate(170.86,154.61)" id="img-3e9e783b-32">
              <path d="M-28.85,-4.11 L28.85,-4.11 28.85,4.11 -28.85,4.11  z" class="primitive"/>
            </g>
            <g transform="translate(170.86,157.42)" id="img-3e9e783b-33">
              <path d="M-28.85,-1.29 L28.85,-1.29 28.85,1.29 -28.85,1.29  z" class="primitive"/>
            </g>
            <g transform="translate(170.86,158.62)" id="img-3e9e783b-34">
              <path d="M-28.85,-0.1 L28.85,-0.1 28.85,0.1 -28.85,0.1  z" class="primitive"/>
            </g>
            <g transform="translate(170.86,156.56)" id="img-3e9e783b-35">
              <path d="M-28.85,-2.15 L28.85,-2.15 28.85,2.15 -28.85,2.15  z" class="primitive"/>
            </g>
            <g transform="translate(170.86,156.7)" id="img-3e9e783b-36">
              <path d="M-28.85,-2.01 L28.85,-2.01 28.85,2.01 -28.85,2.01  z" class="primitive"/>
            </g>
            <g transform="translate(228.52,156.38)" id="img-3e9e783b-37">
              <path d="M-28.85,-2.33 L28.85,-2.33 28.85,2.33 -28.85,2.33  z" class="primitive"/>
            </g>
            <g transform="translate(228.52,158.5)" id="img-3e9e783b-38">
              <path d="M-28.85,-0.22 L28.85,-0.22 28.85,0.22 -28.85,0.22  z" class="primitive"/>
            </g>
            <g transform="translate(286.17,100.31)" id="img-3e9e783b-39">
              <path d="M-28.85,-58.41 L28.85,-58.41 28.85,58.41 -28.85,58.41  z" class="primitive"/>
            </g>
            <g transform="translate(286.17,158.65)" id="img-3e9e783b-40">
              <path d="M-28.85,-0.07 L28.85,-0.07 28.85,0.07 -28.85,0.07  z" class="primitive"/>
            </g>
          </g>
        </g>
      </g>
    </g>
  </g>
  <g class="guide ylabels" font-size="2.82" font-family="'PT Sans Caption','Helvetica Neue','Helvetica',sans-serif" fill="#6C606B" id="img-3e9e783b-41">
    <g transform="translate(25.72,158.72)" id="img-3e9e783b-42">
      <g class="primitive">
        <text text-anchor="end" dy="0.35em">0</text>
      </g>
    </g>
    <g transform="translate(25.72,110.01)" id="img-3e9e783b-43">
      <g class="primitive">
        <text text-anchor="end" dy="0.35em">1.0×10⁴</text>
      </g>
    </g>
    <g transform="translate(25.72,61.31)" id="img-3e9e783b-44">
      <g class="primitive">
        <text text-anchor="end" dy="0.35em">2.0×10⁴</text>
      </g>
    </g>
    <g transform="translate(25.72,12.61)" id="img-3e9e783b-45">
      <g class="primitive">
        <text text-anchor="end" dy="0.35em">3.0×10⁴</text>
      </g>
    </g>
  </g>
  <g font-size="3.88" font-family="'PT Sans','Helvetica Neue','Helvetica',sans-serif" fill="#564A55" stroke="#000000" stroke-opacity="0.000" id="img-3e9e783b-46">
    <g transform="translate(8.81,83.66)" id="img-3e9e783b-47">
      <g class="primitive">
        <text text-anchor="middle" dy="0.35em" transform="rotate(-90,0, 2)">Total Debt (in dollars)</text>
      </g>
    </g>
  </g>
  <g font-size="3.88" font-family="'PT Sans','Helvetica Neue','Helvetica',sans-serif" fill="#564A55" stroke="#000000" stroke-opacity="0.000" id="img-3e9e783b-48">
    <g transform="translate(170.86,5)" id="img-3e9e783b-49">
      <g class="primitive">
        <text text-anchor="middle" dy="0.6em">GA Debt Redeemed Per Year</text>
      </g>
    </g>
  </g>
</g>
<defs>
  <clipPath id="img-3e9e783b-5">
    <path d="M26.73,10.61 L315,10.61 315,160.72 26.73,160.72 " />
  </clipPath>
</defs>
</svg>
