<?xml version="1.0" encoding="UTF-8"?>
<svg xmlns="http://www.w3.org/2000/svg"
     xmlns:xlink="http://www.w3.org/1999/xlink"
     xmlns:gadfly="http://www.gadflyjl.org/ns"
     version="1.2"
     width="320mm" height="180mm" viewBox="0 0 320 180"
     stroke="none"
     fill="#000000"
     stroke-width="0.3"
     font-size="3.88"
>
<defs>
  <marker id="arrow" markerWidth="15" markerHeight="7" refX="5" refY="3.5" orient="auto" markerUnits="strokeWidth">
    <path d="M0,0 L15,3.5 L0,7 z" stroke="context-stroke" fill="context-stroke"/>
  </marker>
</defs>
<g stroke="#000000" stroke-opacity="0.000" fill="#FFFFFF" id="img-dc13117b-1">
  <g transform="translate(160,90)">
    <path d="M-160,-90 L160,-90 160,90 -160,90  z" class="primitive"/>
  </g>
</g>
<g class="plotroot yscalable" id="img-dc13117b-2">
  <g font-size="3.88" font-family="'PT Sans','Helvetica Neue','Helvetica',sans-serif" fill="#564A55" stroke="#000000" stroke-opacity="0.000" id="img-dc13117b-3">
    <g transform="translate(171.7,168.39)">
      <g class="primitive">
        <text text-anchor="middle" dy="0.6em">Year</text>
      </g>
    </g>
  </g>
  <g class="guide xlabels" font-size="2.82" font-family="'PT Sans Caption','Helvetica Neue','Helvetica',sans-serif" fill="#6C606B" id="img-dc13117b-4">
    <g transform="translate(44.32,161.72)">
      <g class="primitive">
        <text text-anchor="middle" dy="0.6em">1790</text>
      </g>
    </g>
    <g transform="translate(76.17,161.72)">
      <g class="primitive">
        <text text-anchor="middle" dy="0.6em">1791</text>
      </g>
    </g>
    <g transform="translate(108.01,161.72)">
      <g class="primitive">
        <text text-anchor="middle" dy="0.6em">1792</text>
      </g>
    </g>
    <g transform="translate(139.85,161.72)">
      <g class="primitive">
        <text text-anchor="middle" dy="0.6em">1793</text>
      </g>
    </g>
    <g transform="translate(171.7,161.72)">
      <g class="primitive">
        <text text-anchor="middle" dy="0.6em">1794</text>
      </g>
    </g>
    <g transform="translate(203.54,161.72)">
      <g class="primitive">
        <text text-anchor="middle" dy="0.6em">1795</text>
      </g>
    </g>
    <g transform="translate(235.39,161.72)">
      <g class="primitive">
        <text text-anchor="middle" dy="0.6em">1796</text>
      </g>
    </g>
    <g transform="translate(267.23,161.72)">
      <g class="primitive">
        <text text-anchor="middle" dy="0.6em">1797</text>
      </g>
    </g>
    <g transform="translate(299.08,161.72)">
      <g class="primitive">
        <text text-anchor="middle" dy="0.6em">no year</text>
      </g>
    </g>
  </g>
  <g clip-path="url(#img-dc13117b-5)">
    <g id="img-dc13117b-6">
      <g pointer-events="visible" stroke-width="0.3" fill="#000000" fill-opacity="0.000" stroke="#000000" stroke-opacity="0.000" class="guide background" id="img-dc13117b-7">
        <g transform="translate(171.7,85.66)" id="img-dc13117b-8">
          <path d="M-143.3,-75.05 L143.3,-75.05 143.3,75.05 -143.3,75.05  z" class="primitive"/>
        </g>
      </g>
      <g class="guide ygridlines xfixed" stroke-dasharray="0.5,0.5" stroke-width="0.2" stroke="#D0D0E0" id="img-dc13117b-9">
        <g transform="translate(171.7,158.72)" id="img-dc13117b-10">
          <path fill="none" d="M-143.3,0 L143.3,0 " class="primitive"/>
        </g>
        <g transform="translate(171.7,122.19)" id="img-dc13117b-11">
          <path fill="none" d="M-143.3,0 L143.3,0 " class="primitive"/>
        </g>
        <g transform="translate(171.7,85.66)" id="img-dc13117b-12">
          <path fill="none" d="M-143.3,0 L143.3,0 " class="primitive"/>
        </g>
        <g transform="translate(171.7,49.14)" id="img-dc13117b-13">
          <path fill="none" d="M-143.3,0 L143.3,0 " class="primitive"/>
        </g>
        <g transform="translate(171.7,12.61)" id="img-dc13117b-14">
          <path fill="none" d="M-143.3,0 L143.3,0 " class="primitive"/>
        </g>
      </g>
      <g class="guide xgridlines yfixed" stroke-dasharray="0.5,0.5" stroke-width="0.2" stroke="#D0D0E0" id="img-dc13117b-15">
        <g transform="translate(60.24,85.66)" id="img-dc13117b-16">
          <path fill="none" d="M0,-75.05 L0,75.05 " class="primitive"/>
        </g>
        <g transform="translate(92.09,85.66)" id="img-dc13117b-17">
          <path fill="none" d="M0,-75.05 L0,75.05 " class="primitive"/>
        </g>
        <g transform="translate(123.93,85.66)" id="img-dc13117b-18">
          <path fill="none" d="M0,-75.05 L0,75.05 " class="primitive"/>
        </g>
        <g transform="translate(155.78,85.66)" id="img-dc13117b-19">
          <path fill="none" d="M0,-75.05 L0,75.05 " class="primitive"/>
        </g>
        <g transform="translate(187.62,85.66)" id="img-dc13117b-20">
          <path fill="none" d="M0,-75.05 L0,75.05 " class="primitive"/>
        </g>
        <g transform="translate(219.47,85.66)" id="img-dc13117b-21">
          <path fill="none" d="M0,-75.05 L0,75.05 " class="primitive"/>
        </g>
        <g transform="translate(251.31,85.66)" id="img-dc13117b-22">
          <path fill="none" d="M0,-75.05 L0,75.05 " class="primitive"/>
        </g>
        <g transform="translate(283.16,85.66)" id="img-dc13117b-23">
          <path fill="none" d="M0,-75.05 L0,75.05 " class="primitive"/>
        </g>
      </g>
      <g class="plotpanel" id="img-dc13117b-24">
        <metadata>
          <boundingbox value="28.39833333333337mm 10.611666666666679mm 286.6016666666667mm 150.10333333333335mm"/>
          <unitbox value="0.5 202737.7883233328 9.0 -205475.5766466656"/>
        </metadata>
        <g shape-rendering="crispEdges" stroke-width="0.3" id="img-dc13117b-25">
          <g class="geometry" fill-opacity="1" stroke="#000000" stroke-opacity="0.000" fill="#00BFFF" id="img-dc13117b-26">
            <g transform="translate(44.32,132.79)" id="img-dc13117b-27">
              <path d="M-15.95,-25.93 L15.95,-25.93 15.95,25.93 -15.95,25.93  z" class="primitive"/>
            </g>
            <g transform="translate(44.32,145.79)" id="img-dc13117b-28">
              <path d="M-15.95,-12.92 L15.95,-12.92 15.95,12.92 -15.95,12.92  z" class="primitive"/>
            </g>
            <g transform="translate(44.32,146.41)" id="img-dc13117b-29">
              <path d="M-15.95,-12.31 L15.95,-12.31 15.95,12.31 -15.95,12.31  z" class="primitive"/>
            </g>
            <g transform="translate(76.17,148.54)" id="img-dc13117b-30">
              <path d="M-15.95,-10.18 L15.95,-10.18 15.95,10.18 -15.95,10.18  z" class="primitive"/>
            </g>
            <g transform="translate(76.17,147.64)" id="img-dc13117b-31">
              <path d="M-15.95,-11.07 L15.95,-11.07 15.95,11.07 -15.95,11.07  z" class="primitive"/>
            </g>
            <g transform="translate(76.17,157.67)" id="img-dc13117b-32">
              <path d="M-15.95,-1.04 L15.95,-1.04 15.95,1.04 -15.95,1.04  z" class="primitive"/>
            </g>
            <g transform="translate(76.17,158.72)" id="img-dc13117b-33">
              <path d="M-15.95,-0 L15.95,-0 15.95,0 -15.95,0  z" class="primitive"/>
            </g>
            <g transform="translate(76.17,148.02)" id="img-dc13117b-34">
              <path d="M-15.95,-10.7 L15.95,-10.7 15.95,10.7 -15.95,10.7  z" class="primitive"/>
            </g>
            <g transform="translate(76.17,137.31)" id="img-dc13117b-35">
              <path d="M-15.95,-21.4 L15.95,-21.4 15.95,21.4 -15.95,21.4  z" class="primitive"/>
            </g>
            <g transform="translate(76.17,97.28)" id="img-dc13117b-36">
              <path d="M-15.95,-61.43 L15.95,-61.43 15.95,61.43 -15.95,61.43  z" class="primitive"/>
            </g>
            <g transform="translate(76.17,148.76)" id="img-dc13117b-37">
              <path d="M-15.95,-9.96 L15.95,-9.96 15.95,9.96 -15.95,9.96  z" class="primitive"/>
            </g>
            <g transform="translate(76.17,155.86)" id="img-dc13117b-38">
              <path d="M-15.95,-2.86 L15.95,-2.86 15.95,2.86 -15.95,2.86  z" class="primitive"/>
            </g>
            <g transform="translate(76.17,156.15)" id="img-dc13117b-39">
              <path d="M-15.95,-2.57 L15.95,-2.57 15.95,2.57 -15.95,2.57  z" class="primitive"/>
            </g>
            <g transform="translate(76.17,151.46)" id="img-dc13117b-40">
              <path d="M-15.95,-7.26 L15.95,-7.26 15.95,7.26 -15.95,7.26  z" class="primitive"/>
            </g>
            <g transform="translate(76.17,112.8)" id="img-dc13117b-41">
              <path d="M-15.95,-45.91 L15.95,-45.91 15.95,45.91 -15.95,45.91  z" class="primitive"/>
            </g>
            <g transform="translate(108.01,158.34)" id="img-dc13117b-42">
              <path d="M-15.95,-0.38 L15.95,-0.38 15.95,0.38 -15.95,0.38  z" class="primitive"/>
            </g>
            <g transform="translate(108.01,158.5)" id="img-dc13117b-43">
              <path d="M-15.95,-0.22 L15.95,-0.22 15.95,0.22 -15.95,0.22  z" class="primitive"/>
            </g>
            <g transform="translate(108.01,158.48)" id="img-dc13117b-44">
              <path d="M-15.95,-0.24 L15.95,-0.24 15.95,0.24 -15.95,0.24  z" class="primitive"/>
            </g>
            <g transform="translate(108.01,158.26)" id="img-dc13117b-45">
              <path d="M-15.95,-0.46 L15.95,-0.46 15.95,0.46 -15.95,0.46  z" class="primitive"/>
            </g>
            <g transform="translate(108.01,158.71)" id="img-dc13117b-46">
              <path d="M-15.95,-0.01 L15.95,-0.01 15.95,0.01 -15.95,0.01  z" class="primitive"/>
            </g>
            <g transform="translate(108.01,158.72)" id="img-dc13117b-47">
              <path d="M-15.95,-0 L15.95,-0 15.95,0 -15.95,0  z" class="primitive"/>
            </g>
            <g transform="translate(108.01,158.09)" id="img-dc13117b-48">
              <path d="M-15.95,-0.63 L15.95,-0.63 15.95,0.63 -15.95,0.63  z" class="primitive"/>
            </g>
            <g transform="translate(108.01,158.36)" id="img-dc13117b-49">
              <path d="M-15.95,-0.35 L15.95,-0.35 15.95,0.35 -15.95,0.35  z" class="primitive"/>
            </g>
            <g transform="translate(108.01,158.47)" id="img-dc13117b-50">
              <path d="M-15.95,-0.24 L15.95,-0.24 15.95,0.24 -15.95,0.24  z" class="primitive"/>
            </g>
            <g transform="translate(108.01,158.67)" id="img-dc13117b-51">
              <path d="M-15.95,-0.04 L15.95,-0.04 15.95,0.04 -15.95,0.04  z" class="primitive"/>
            </g>
            <g transform="translate(139.85,158.68)" id="img-dc13117b-52">
              <path d="M-15.95,-0.04 L15.95,-0.04 15.95,0.04 -15.95,0.04  z" class="primitive"/>
            </g>
            <g transform="translate(139.85,158.71)" id="img-dc13117b-53">
              <path d="M-15.95,-0 L15.95,-0 15.95,0 -15.95,0  z" class="primitive"/>
            </g>
            <g transform="translate(139.85,158.72)" id="img-dc13117b-54">
              <path d="M-15.95,-0 L15.95,-0 15.95,0 -15.95,0  z" class="primitive"/>
            </g>
            <g transform="translate(139.85,157.16)" id="img-dc13117b-55">
              <path d="M-15.95,-1.55 L15.95,-1.55 15.95,1.55 -15.95,1.55  z" class="primitive"/>
            </g>
            <g transform="translate(139.85,145.86)" id="img-dc13117b-56">
              <path d="M-15.95,-12.85 L15.95,-12.85 15.95,12.85 -15.95,12.85  z" class="primitive"/>
            </g>
            <g transform="translate(139.85,158.67)" id="img-dc13117b-57">
              <path d="M-15.95,-0.05 L15.95,-0.05 15.95,0.05 -15.95,0.05  z" class="primitive"/>
            </g>
            <g transform="translate(139.85,157.25)" id="img-dc13117b-58">
              <path d="M-15.95,-1.46 L15.95,-1.46 15.95,1.46 -15.95,1.46  z" class="primitive"/>
            </g>
            <g transform="translate(139.85,158.5)" id="img-dc13117b-59">
              <path d="M-15.95,-0.22 L15.95,-0.22 15.95,0.22 -15.95,0.22  z" class="primitive"/>
            </g>
            <g transform="translate(139.85,158.72)" id="img-dc13117b-60">
              <path d="M-15.95,-0 L15.95,-0 15.95,0 -15.95,0  z" class="primitive"/>
            </g>
            <g transform="translate(139.85,158.61)" id="img-dc13117b-61">
              <path d="M-15.95,-0.11 L15.95,-0.11 15.95,0.11 -15.95,0.11  z" class="primitive"/>
            </g>
            <g transform="translate(171.7,158.59)" id="img-dc13117b-62">
              <path d="M-15.95,-0.13 L15.95,-0.13 15.95,0.13 -15.95,0.13  z" class="primitive"/>
            </g>
            <g transform="translate(171.7,158.72)" id="img-dc13117b-63">
              <path d="M-15.95,-0 L15.95,-0 15.95,0 -15.95,0  z" class="primitive"/>
            </g>
            <g transform="translate(171.7,158.69)" id="img-dc13117b-64">
              <path d="M-15.95,-0.02 L15.95,-0.02 15.95,0.02 -15.95,0.02  z" class="primitive"/>
            </g>
            <g transform="translate(171.7,158.67)" id="img-dc13117b-65">
              <path d="M-15.95,-0.05 L15.95,-0.05 15.95,0.05 -15.95,0.05  z" class="primitive"/>
            </g>
            <g transform="translate(171.7,158.7)" id="img-dc13117b-66">
              <path d="M-15.95,-0.01 L15.95,-0.01 15.95,0.01 -15.95,0.01  z" class="primitive"/>
            </g>
            <g transform="translate(171.7,158.72)" id="img-dc13117b-67">
              <path d="M-15.95,-0 L15.95,-0 15.95,0 -15.95,0  z" class="primitive"/>
            </g>
            <g transform="translate(171.7,158.72)" id="img-dc13117b-68">
              <path d="M-15.95,-0 L15.95,-0 15.95,0 -15.95,0  z" class="primitive"/>
            </g>
            <g transform="translate(171.7,158.72)" id="img-dc13117b-69">
              <path d="M-15.95,-0 L15.95,-0 15.95,0 -15.95,0  z" class="primitive"/>
            </g>
            <g transform="translate(171.7,158.68)" id="img-dc13117b-70">
              <path d="M-15.95,-0.03 L15.95,-0.03 15.95,0.03 -15.95,0.03  z" class="primitive"/>
            </g>
            <g transform="translate(171.7,158.7)" id="img-dc13117b-71">
              <path d="M-15.95,-0.02 L15.95,-0.02 15.95,0.02 -15.95,0.02  z" class="primitive"/>
            </g>
            <g transform="translate(203.54,158.72)" id="img-dc13117b-72">
              <path d="M-15.95,-0 L15.95,-0 15.95,0 -15.95,0  z" class="primitive"/>
            </g>
            <g transform="translate(203.54,158.68)" id="img-dc13117b-73">
              <path d="M-15.95,-0.04 L15.95,-0.04 15.95,0.04 -15.95,0.04  z" class="primitive"/>
            </g>
            <g transform="translate(203.54,158.72)" id="img-dc13117b-74">
              <path d="M-15.95,-0 L15.95,-0 15.95,0 -15.95,0  z" class="primitive"/>
            </g>
            <g transform="translate(203.54,158.72)" id="img-dc13117b-75">
              <path d="M-15.95,-0 L15.95,-0 15.95,0 -15.95,0  z" class="primitive"/>
            </g>
            <g transform="translate(203.54,158.52)" id="img-dc13117b-76">
              <path d="M-15.95,-0.19 L15.95,-0.19 15.95,0.19 -15.95,0.19  z" class="primitive"/>
            </g>
            <g transform="translate(235.39,158.72)" id="img-dc13117b-77">
              <path d="M-15.95,-0 L15.95,-0 15.95,0 -15.95,0  z" class="primitive"/>
            </g>
            <g transform="translate(235.39,158.71)" id="img-dc13117b-78">
              <path d="M-15.95,-0 L15.95,-0 15.95,0 -15.95,0  z" class="primitive"/>
            </g>
            <g transform="translate(235.39,158.68)" id="img-dc13117b-79">
              <path d="M-15.95,-0.04 L15.95,-0.04 15.95,0.04 -15.95,0.04  z" class="primitive"/>
            </g>
            <g transform="translate(235.39,158.72)" id="img-dc13117b-80">
              <path d="M-15.95,-0 L15.95,-0 15.95,0 -15.95,0  z" class="primitive"/>
            </g>
            <g transform="translate(235.39,158.72)" id="img-dc13117b-81">
              <path d="M-15.95,-0 L15.95,-0 15.95,0 -15.95,0  z" class="primitive"/>
            </g>
            <g transform="translate(235.39,158.72)" id="img-dc13117b-82">
              <path d="M-15.95,-0 L15.95,-0 15.95,0 -15.95,0  z" class="primitive"/>
            </g>
            <g transform="translate(235.39,158.63)" id="img-dc13117b-83">
              <path d="M-15.95,-0.09 L15.95,-0.09 15.95,0.09 -15.95,0.09  z" class="primitive"/>
            </g>
            <g transform="translate(235.39,158.72)" id="img-dc13117b-84">
              <path d="M-15.95,-0 L15.95,-0 15.95,0 -15.95,0  z" class="primitive"/>
            </g>
            <g transform="translate(235.39,158.72)" id="img-dc13117b-85">
              <path d="M-15.95,-0 L15.95,-0 15.95,0 -15.95,0  z" class="primitive"/>
            </g>
            <g transform="translate(235.39,158.72)" id="img-dc13117b-86">
              <path d="M-15.95,-0 L15.95,-0 15.95,0 -15.95,0  z" class="primitive"/>
            </g>
            <g transform="translate(267.23,158.72)" id="img-dc13117b-87">
              <path d="M-15.95,-0 L15.95,-0 15.95,0 -15.95,0  z" class="primitive"/>
            </g>
            <g transform="translate(299.08,121.24)" id="img-dc13117b-88">
              <path d="M-15.95,-37.47 L15.95,-37.47 15.95,37.47 -15.95,37.47  z" class="primitive"/>
            </g>
          </g>
        </g>
      </g>
    </g>
  </g>
  <g class="guide ylabels" font-size="2.82" font-family="'PT Sans Caption','Helvetica Neue','Helvetica',sans-serif" fill="#6C606B" id="img-dc13117b-89">
    <g transform="translate(27.4,158.72)" id="img-dc13117b-90">
      <g class="primitive">
        <text text-anchor="end" dy="0.35em">0</text>
      </g>
    </g>
    <g transform="translate(27.4,122.19)" id="img-dc13117b-91">
      <g class="primitive">
        <text text-anchor="end" dy="0.35em">5.00×10⁴</text>
      </g>
    </g>
    <g transform="translate(27.4,85.66)" id="img-dc13117b-92">
      <g class="primitive">
        <text text-anchor="end" dy="0.35em">1.00×10⁵</text>
      </g>
    </g>
    <g transform="translate(27.4,49.14)" id="img-dc13117b-93">
      <g class="primitive">
        <text text-anchor="end" dy="0.35em">1.50×10⁵</text>
      </g>
    </g>
    <g transform="translate(27.4,12.61)" id="img-dc13117b-94">
      <g class="primitive">
        <text text-anchor="end" dy="0.35em">2.00×10⁵</text>
      </g>
    </g>
  </g>
  <g font-size="3.88" font-family="'PT Sans','Helvetica Neue','Helvetica',sans-serif" fill="#564A55" stroke="#000000" stroke-opacity="0.000" id="img-dc13117b-95">
    <g transform="translate(8.81,83.66)" id="img-dc13117b-96">
      <g class="primitive">
        <text text-anchor="middle" dy="0.35em" transform="rotate(-90,0, 2)">Total Debt (in dollars)</text>
      </g>
    </g>
  </g>
  <g font-size="3.88" font-family="'PT Sans','Helvetica Neue','Helvetica',sans-serif" fill="#564A55" stroke="#000000" stroke-opacity="0.000" id="img-dc13117b-97">
    <g transform="translate(171.7,5)" id="img-dc13117b-98">
      <g class="primitive">
        <text text-anchor="middle" dy="0.6em">MD Debt Redeemed Per Year</text>
      </g>
    </g>
  </g>
</g>
<defs>
  <clipPath id="img-dc13117b-5">
    <path d="M28.4,10.61 L315,10.61 315,160.72 28.4,160.72 " />
  </clipPath>
</defs>
</svg>
