<?xml version="1.0" encoding="UTF-8"?>
<svg xmlns="http://www.w3.org/2000/svg"
     xmlns:xlink="http://www.w3.org/1999/xlink"
     xmlns:gadfly="http://www.gadflyjl.org/ns"
     version="1.2"
     width="320mm" height="180mm" viewBox="0 0 320 180"
     stroke="none"
     fill="#000000"
     stroke-width="0.3"
     font-size="3.88"
>
<defs>
  <marker id="arrow" markerWidth="15" markerHeight="7" refX="5" refY="3.5" orient="auto" markerUnits="strokeWidth">
    <path d="M0,0 L15,3.5 L0,7 z" stroke="context-stroke" fill="context-stroke"/>
  </marker>
</defs>
<g stroke="#000000" stroke-opacity="0.000" fill="#FFFFFF" id="img-3d96f773-1">
  <g transform="translate(160,90)">
    <path d="M-160,-90 L160,-90 160,90 -160,90  z" class="primitive"/>
  </g>
</g>
<g class="plotroot yscalable" id="img-3d96f773-2">
  <g font-size="3.88" font-family="'PT Sans','Helvetica Neue','Helvetica',sans-serif" fill="#564A55" stroke="#000000" stroke-opacity="0.000" id="img-3d96f773-3">
    <g transform="translate(170.86,168.39)">
      <g class="primitive">
        <text text-anchor="middle" dy="0.6em">Year</text>
      </g>
    </g>
  </g>
  <g class="guide xlabels" font-size="2.82" font-family="'PT Sans Caption','Helvetica Neue','Helvetica',sans-serif" fill="#6C606B" id="img-3d96f773-4">
    <g transform="translate(62.76,161.72)">
      <g class="primitive">
        <text text-anchor="middle" dy="0.6em">1791</text>
      </g>
    </g>
    <g transform="translate(134.83,161.72)">
      <g class="primitive">
        <text text-anchor="middle" dy="0.6em">1792</text>
      </g>
    </g>
    <g transform="translate(206.9,161.72)">
      <g class="primitive">
        <text text-anchor="middle" dy="0.6em">1793</text>
      </g>
    </g>
    <g transform="translate(278.97,161.72)">
      <g class="primitive">
        <text text-anchor="middle" dy="0.6em">1794</text>
      </g>
    </g>
  </g>
  <g clip-path="url(#img-3d96f773-5)">
    <g id="img-3d96f773-6">
      <g pointer-events="visible" stroke-width="0.3" fill="#000000" fill-opacity="0.000" stroke="#000000" stroke-opacity="0.000" class="guide background" id="img-3d96f773-7">
        <g transform="translate(170.86,85.66)" id="img-3d96f773-8">
          <path d="M-144.14,-75.05 L144.14,-75.05 144.14,75.05 -144.14,75.05  z" class="primitive"/>
        </g>
      </g>
      <g class="guide ygridlines xfixed" stroke-dasharray="0.5,0.5" stroke-width="0.2" stroke="#D0D0E0" id="img-3d96f773-9">
        <g transform="translate(170.86,158.72)" id="img-3d96f773-10">
          <path fill="none" d="M-144.14,0 L144.14,0 " class="primitive"/>
        </g>
        <g transform="translate(170.86,110.01)" id="img-3d96f773-11">
          <path fill="none" d="M-144.14,0 L144.14,0 " class="primitive"/>
        </g>
        <g transform="translate(170.86,61.31)" id="img-3d96f773-12">
          <path fill="none" d="M-144.14,0 L144.14,0 " class="primitive"/>
        </g>
        <g transform="translate(170.86,12.61)" id="img-3d96f773-13">
          <path fill="none" d="M-144.14,0 L144.14,0 " class="primitive"/>
        </g>
      </g>
      <g class="guide xgridlines yfixed" stroke-dasharray="0.5,0.5" stroke-width="0.2" stroke="#D0D0E0" id="img-3d96f773-14">
        <g transform="translate(98.79,85.66)" id="img-3d96f773-15">
          <path fill="none" d="M0,-75.05 L0,75.05 " class="primitive"/>
        </g>
        <g transform="translate(170.86,85.66)" id="img-3d96f773-16">
          <path fill="none" d="M0,-75.05 L0,75.05 " class="primitive"/>
        </g>
        <g transform="translate(242.93,85.66)" id="img-3d96f773-17">
          <path fill="none" d="M0,-75.05 L0,75.05 " class="primitive"/>
        </g>
      </g>
      <g class="plotpanel" id="img-3d96f773-18">
        <metadata>
          <boundingbox value="26.725000000000023mm 10.611666666666679mm 288.275mm 150.10333333333335mm"/>
          <unitbox value="0.5 30410.66824849992 4.0 -30821.33649699984"/>
        </metadata>
        <g shape-rendering="crispEdges" stroke-width="0.3" id="img-3d96f773-19">
          <g class="geometry" fill-opacity="1" stroke="#000000" stroke-opacity="0.000" fill="#00BFFF" id="img-3d96f773-20">
            <g transform="translate(62.76,157.83)" id="img-3d96f773-21">
              <path d="M-36.06,-0.89 L36.06,-0.89 36.06,0.89 -36.06,0.89  z" class="primitive"/>
            </g>
            <g transform="translate(62.76,139.13)" id="img-3d96f773-22">
              <path d="M-36.06,-19.59 L36.06,-19.59 36.06,19.59 -36.06,19.59  z" class="primitive"/>
            </g>
            <g transform="translate(62.76,147.15)" id="img-3d96f773-23">
              <path d="M-36.06,-11.56 L36.06,-11.56 36.06,11.56 -36.06,11.56  z" class="primitive"/>
            </g>
            <g transform="translate(62.76,157.61)" id="img-3d96f773-24">
              <path d="M-36.06,-1.11 L36.06,-1.11 36.06,1.11 -36.06,1.11  z" class="primitive"/>
            </g>
            <g transform="translate(62.76,146.81)" id="img-3d96f773-25">
              <path d="M-36.06,-11.91 L36.06,-11.91 36.06,11.91 -36.06,11.91  z" class="primitive"/>
            </g>
            <g transform="translate(62.76,139.55)" id="img-3d96f773-26">
              <path d="M-36.06,-19.17 L36.06,-19.17 36.06,19.17 -36.06,19.17  z" class="primitive"/>
            </g>
            <g transform="translate(62.76,151.35)" id="img-3d96f773-27">
              <path d="M-36.06,-7.37 L36.06,-7.37 36.06,7.37 -36.06,7.37  z" class="primitive"/>
            </g>
            <g transform="translate(62.76,148.32)" id="img-3d96f773-28">
              <path d="M-36.06,-10.39 L36.06,-10.39 36.06,10.39 -36.06,10.39  z" class="primitive"/>
            </g>
            <g transform="translate(134.83,158.57)" id="img-3d96f773-29">
              <path d="M-36.06,-0.14 L36.06,-0.14 36.06,0.14 -36.06,0.14  z" class="primitive"/>
            </g>
            <g transform="translate(134.83,156.59)" id="img-3d96f773-30">
              <path d="M-36.06,-2.12 L36.06,-2.12 36.06,2.12 -36.06,2.12  z" class="primitive"/>
            </g>
            <g transform="translate(134.83,156.84)" id="img-3d96f773-31">
              <path d="M-36.06,-1.87 L36.06,-1.87 36.06,1.87 -36.06,1.87  z" class="primitive"/>
            </g>
            <g transform="translate(134.83,155.73)" id="img-3d96f773-32">
              <path d="M-36.06,-2.98 L36.06,-2.98 36.06,2.98 -36.06,2.98  z" class="primitive"/>
            </g>
            <g transform="translate(134.83,87.59)" id="img-3d96f773-33">
              <path d="M-36.06,-71.12 L36.06,-71.12 36.06,71.12 -36.06,71.12  z" class="primitive"/>
            </g>
            <g transform="translate(206.9,151.68)" id="img-3d96f773-34">
              <path d="M-36.06,-7.04 L36.06,-7.04 36.06,7.04 -36.06,7.04  z" class="primitive"/>
            </g>
            <g transform="translate(206.9,158.28)" id="img-3d96f773-35">
              <path d="M-36.06,-0.44 L36.06,-0.44 36.06,0.44 -36.06,0.44  z" class="primitive"/>
            </g>
            <g transform="translate(206.9,157.16)" id="img-3d96f773-36">
              <path d="M-36.06,-1.55 L36.06,-1.55 36.06,1.55 -36.06,1.55  z" class="primitive"/>
            </g>
            <g transform="translate(206.9,156.27)" id="img-3d96f773-37">
              <path d="M-36.06,-2.45 L36.06,-2.45 36.06,2.45 -36.06,2.45  z" class="primitive"/>
            </g>
            <g transform="translate(278.97,129.08)" id="img-3d96f773-38">
              <path d="M-36.06,-29.64 L36.06,-29.64 36.06,29.64 -36.06,29.64  z" class="primitive"/>
            </g>
            <g transform="translate(278.97,153.28)" id="img-3d96f773-39">
              <path d="M-36.06,-5.43 L36.06,-5.43 36.06,5.43 -36.06,5.43  z" class="primitive"/>
            </g>
          </g>
        </g>
      </g>
    </g>
  </g>
  <g class="guide ylabels" font-size="2.82" font-family="'PT Sans Caption','Helvetica Neue','Helvetica',sans-serif" fill="#6C606B" id="img-3d96f773-40">
    <g transform="translate(25.72,158.72)" id="img-3d96f773-41">
      <g class="primitive">
        <text text-anchor="end" dy="0.35em">0</text>
      </g>
    </g>
    <g transform="translate(25.72,110.01)" id="img-3d96f773-42">
      <g class="primitive">
        <text text-anchor="end" dy="0.35em">1.0×10⁴</text>
      </g>
    </g>
    <g transform="translate(25.72,61.31)" id="img-3d96f773-43">
      <g class="primitive">
        <text text-anchor="end" dy="0.35em">2.0×10⁴</text>
      </g>
    </g>
    <g transform="translate(25.72,12.61)" id="img-3d96f773-44">
      <g class="primitive">
        <text text-anchor="end" dy="0.35em">3.0×10⁴</text>
      </g>
    </g>
  </g>
  <g font-size="3.88" font-family="'PT Sans','Helvetica Neue','Helvetica',sans-serif" fill="#564A55" stroke="#000000" stroke-opacity="0.000" id="img-3d96f773-45">
    <g transform="translate(8.81,83.66)" id="img-3d96f773-46">
      <g class="primitive">
        <text text-anchor="middle" dy="0.35em" transform="rotate(-90,0, 2)">Total Debt (in dollars)</text>
      </g>
    </g>
  </g>
  <g font-size="3.88" font-family="'PT Sans','Helvetica Neue','Helvetica',sans-serif" fill="#564A55" stroke="#000000" stroke-opacity="0.000" id="img-3d96f773-47">
    <g transform="translate(170.86,5)" id="img-3d96f773-48">
      <g class="primitive">
        <text text-anchor="middle" dy="0.6em">NC Debt Redeemed Per Year</text>
      </g>
    </g>
  </g>
</g>
<defs>
  <clipPath id="img-3d96f773-5">
    <path d="M26.73,10.61 L315,10.61 315,160.72 26.73,160.72 " />
  </clipPath>
</defs>
</svg>
