<?xml version="1.0" encoding="UTF-8"?>
<svg xmlns="http://www.w3.org/2000/svg"
     xmlns:xlink="http://www.w3.org/1999/xlink"
     xmlns:gadfly="http://www.gadflyjl.org/ns"
     version="1.2"
     width="320mm" height="180mm" viewBox="0 0 320 180"
     stroke="none"
     fill="#000000"
     stroke-width="0.3"
     font-size="3.88"
>
<defs>
  <marker id="arrow" markerWidth="15" markerHeight="7" refX="5" refY="3.5" orient="auto" markerUnits="strokeWidth">
    <path d="M0,0 L15,3.5 L0,7 z" stroke="context-stroke" fill="context-stroke"/>
  </marker>
</defs>
<g stroke="#000000" stroke-opacity="0.000" fill="#FFFFFF" id="img-78f8c233-1">
  <g transform="translate(160,90)">
    <path d="M-160,-90 L160,-90 160,90 -160,90  z" class="primitive"/>
  </g>
</g>
<g class="plotroot yscalable" id="img-78f8c233-2">
  <g font-size="3.88" font-family="'PT Sans','Helvetica Neue','Helvetica',sans-serif" fill="#564A55" stroke="#000000" stroke-opacity="0.000" id="img-78f8c233-3">
    <g transform="translate(171.7,168.39)">
      <g class="primitive">
        <text text-anchor="middle" dy="0.6em">Year</text>
      </g>
    </g>
  </g>
  <g class="guide xlabels" font-size="2.82" font-family="'PT Sans Caption','Helvetica Neue','Helvetica',sans-serif" fill="#6C606B" id="img-78f8c233-4">
    <g transform="translate(36.83,161.72)">
      <g class="primitive">
        <text text-anchor="middle" dy="0.6em">1791</text>
      </g>
    </g>
    <g transform="translate(53.69,161.72)">
      <g class="primitive">
        <text text-anchor="middle" dy="0.6em">1792</text>
      </g>
    </g>
    <g transform="translate(70.55,161.72)">
      <g class="primitive">
        <text text-anchor="middle" dy="0.6em">1793</text>
      </g>
    </g>
    <g transform="translate(87.4,161.72)">
      <g class="primitive">
        <text text-anchor="middle" dy="0.6em">1794</text>
      </g>
    </g>
    <g transform="translate(104.26,161.72)">
      <g class="primitive">
        <text text-anchor="middle" dy="0.6em">1795</text>
      </g>
    </g>
    <g transform="translate(121.12,161.72)">
      <g class="primitive">
        <text text-anchor="middle" dy="0.6em">1796</text>
      </g>
    </g>
    <g transform="translate(137.98,161.72)">
      <g class="primitive">
        <text text-anchor="middle" dy="0.6em">1797</text>
      </g>
    </g>
    <g transform="translate(154.84,161.72)">
      <g class="primitive">
        <text text-anchor="middle" dy="0.6em">1798</text>
      </g>
    </g>
    <g transform="translate(171.7,161.72)">
      <g class="primitive">
        <text text-anchor="middle" dy="0.6em">1799</text>
      </g>
    </g>
    <g transform="translate(188.56,161.72)">
      <g class="primitive">
        <text text-anchor="middle" dy="0.6em">1800</text>
      </g>
    </g>
    <g transform="translate(205.42,161.72)">
      <g class="primitive">
        <text text-anchor="middle" dy="0.6em">1801</text>
      </g>
    </g>
    <g transform="translate(222.28,161.72)">
      <g class="primitive">
        <text text-anchor="middle" dy="0.6em">1803</text>
      </g>
    </g>
    <g transform="translate(239.13,161.72)">
      <g class="primitive">
        <text text-anchor="middle" dy="0.6em">1805</text>
      </g>
    </g>
    <g transform="translate(255.99,161.72)">
      <g class="primitive">
        <text text-anchor="middle" dy="0.6em">1807</text>
      </g>
    </g>
    <g transform="translate(272.85,161.72)">
      <g class="primitive">
        <text text-anchor="middle" dy="0.6em">1808</text>
      </g>
    </g>
    <g transform="translate(289.71,161.72)">
      <g class="primitive">
        <text text-anchor="middle" dy="0.6em">1813</text>
      </g>
    </g>
    <g transform="translate(306.57,161.72)">
      <g class="primitive">
        <text text-anchor="middle" dy="0.6em">no year</text>
      </g>
    </g>
  </g>
  <g clip-path="url(#img-78f8c233-5)">
    <g id="img-78f8c233-6">
      <g pointer-events="visible" stroke-width="0.3" fill="#000000" fill-opacity="0.000" stroke="#000000" stroke-opacity="0.000" class="guide background" id="img-78f8c233-7">
        <g transform="translate(171.7,85.66)" id="img-78f8c233-8">
          <path d="M-143.3,-75.05 L143.3,-75.05 143.3,75.05 -143.3,75.05  z" class="primitive"/>
        </g>
      </g>
      <g class="guide ygridlines xfixed" stroke-dasharray="0.5,0.5" stroke-width="0.2" stroke="#D0D0E0" id="img-78f8c233-9">
        <g transform="translate(171.7,158.72)" id="img-78f8c233-10">
          <path fill="none" d="M-143.3,0 L143.3,0 " class="primitive"/>
        </g>
        <g transform="translate(171.7,122.19)" id="img-78f8c233-11">
          <path fill="none" d="M-143.3,0 L143.3,0 " class="primitive"/>
        </g>
        <g transform="translate(171.7,85.66)" id="img-78f8c233-12">
          <path fill="none" d="M-143.3,0 L143.3,0 " class="primitive"/>
        </g>
        <g transform="translate(171.7,49.14)" id="img-78f8c233-13">
          <path fill="none" d="M-143.3,0 L143.3,0 " class="primitive"/>
        </g>
        <g transform="translate(171.7,12.61)" id="img-78f8c233-14">
          <path fill="none" d="M-143.3,0 L143.3,0 " class="primitive"/>
        </g>
      </g>
      <g class="guide xgridlines yfixed" stroke-dasharray="0.5,0.5" stroke-width="0.2" stroke="#D0D0E0" id="img-78f8c233-15">
        <g transform="translate(45.26,85.66)" id="img-78f8c233-16">
          <path fill="none" d="M0,-75.05 L0,75.05 " class="primitive"/>
        </g>
        <g transform="translate(62.12,85.66)" id="img-78f8c233-17">
          <path fill="none" d="M0,-75.05 L0,75.05 " class="primitive"/>
        </g>
        <g transform="translate(78.98,85.66)" id="img-78f8c233-18">
          <path fill="none" d="M0,-75.05 L0,75.05 " class="primitive"/>
        </g>
        <g transform="translate(95.83,85.66)" id="img-78f8c233-19">
          <path fill="none" d="M0,-75.05 L0,75.05 " class="primitive"/>
        </g>
        <g transform="translate(112.69,85.66)" id="img-78f8c233-20">
          <path fill="none" d="M0,-75.05 L0,75.05 " class="primitive"/>
        </g>
        <g transform="translate(129.55,85.66)" id="img-78f8c233-21">
          <path fill="none" d="M0,-75.05 L0,75.05 " class="primitive"/>
        </g>
        <g transform="translate(146.41,85.66)" id="img-78f8c233-22">
          <path fill="none" d="M0,-75.05 L0,75.05 " class="primitive"/>
        </g>
        <g transform="translate(163.27,85.66)" id="img-78f8c233-23">
          <path fill="none" d="M0,-75.05 L0,75.05 " class="primitive"/>
        </g>
        <g transform="translate(180.13,85.66)" id="img-78f8c233-24">
          <path fill="none" d="M0,-75.05 L0,75.05 " class="primitive"/>
        </g>
        <g transform="translate(196.99,85.66)" id="img-78f8c233-25">
          <path fill="none" d="M0,-75.05 L0,75.05 " class="primitive"/>
        </g>
        <g transform="translate(213.85,85.66)" id="img-78f8c233-26">
          <path fill="none" d="M0,-75.05 L0,75.05 " class="primitive"/>
        </g>
        <g transform="translate(230.71,85.66)" id="img-78f8c233-27">
          <path fill="none" d="M0,-75.05 L0,75.05 " class="primitive"/>
        </g>
        <g transform="translate(247.56,85.66)" id="img-78f8c233-28">
          <path fill="none" d="M0,-75.05 L0,75.05 " class="primitive"/>
        </g>
        <g transform="translate(264.42,85.66)" id="img-78f8c233-29">
          <path fill="none" d="M0,-75.05 L0,75.05 " class="primitive"/>
        </g>
        <g transform="translate(281.28,85.66)" id="img-78f8c233-30">
          <path fill="none" d="M0,-75.05 L0,75.05 " class="primitive"/>
        </g>
        <g transform="translate(298.14,85.66)" id="img-78f8c233-31">
          <path fill="none" d="M0,-75.05 L0,75.05 " class="primitive"/>
        </g>
      </g>
      <g class="plotpanel" id="img-78f8c233-32">
        <metadata>
          <boundingbox value="28.39833333333337mm 10.611666666666679mm 286.6016666666667mm 150.10333333333335mm"/>
          <unitbox value="0.5 202737.7883233328 17.0 -205475.5766466656"/>
        </metadata>
        <g shape-rendering="crispEdges" stroke-width="0.3" id="img-78f8c233-33">
          <g class="geometry" fill-opacity="1" stroke="#000000" stroke-opacity="0.000" fill="#00BFFF" id="img-78f8c233-34">
            <g transform="translate(36.83,158.37)" id="img-78f8c233-35">
              <path d="M-8.45,-0.35 L8.45,-0.35 8.45,0.35 -8.45,0.35  z" class="primitive"/>
            </g>
            <g transform="translate(36.83,158.54)" id="img-78f8c233-36">
              <path d="M-8.45,-0.17 L8.45,-0.17 8.45,0.17 -8.45,0.17  z" class="primitive"/>
            </g>
            <g transform="translate(36.83,158.13)" id="img-78f8c233-37">
              <path d="M-8.45,-0.58 L8.45,-0.58 8.45,0.58 -8.45,0.58  z" class="primitive"/>
            </g>
            <g transform="translate(36.83,158.1)" id="img-78f8c233-38">
              <path d="M-8.45,-0.62 L8.45,-0.62 8.45,0.62 -8.45,0.62  z" class="primitive"/>
            </g>
            <g transform="translate(36.83,158.68)" id="img-78f8c233-39">
              <path d="M-8.45,-0.03 L8.45,-0.03 8.45,0.03 -8.45,0.03  z" class="primitive"/>
            </g>
            <g transform="translate(36.83,90.13)" id="img-78f8c233-40">
              <path d="M-8.45,-68.59 L8.45,-68.59 8.45,68.59 -8.45,68.59  z" class="primitive"/>
            </g>
            <g transform="translate(36.83,153.39)" id="img-78f8c233-41">
              <path d="M-8.45,-5.33 L8.45,-5.33 8.45,5.33 -8.45,5.33  z" class="primitive"/>
            </g>
            <g transform="translate(36.83,148.31)" id="img-78f8c233-42">
              <path d="M-8.45,-10.4 L8.45,-10.4 8.45,10.4 -8.45,10.4  z" class="primitive"/>
            </g>
            <g transform="translate(36.83,158.68)" id="img-78f8c233-43">
              <path d="M-8.45,-0.04 L8.45,-0.04 8.45,0.04 -8.45,0.04  z" class="primitive"/>
            </g>
            <g transform="translate(53.69,158.7)" id="img-78f8c233-44">
              <path d="M-8.45,-0.02 L8.45,-0.02 8.45,0.02 -8.45,0.02  z" class="primitive"/>
            </g>
            <g transform="translate(53.69,158.39)" id="img-78f8c233-45">
              <path d="M-8.45,-0.32 L8.45,-0.32 8.45,0.32 -8.45,0.32  z" class="primitive"/>
            </g>
            <g transform="translate(53.69,158.38)" id="img-78f8c233-46">
              <path d="M-8.45,-0.34 L8.45,-0.34 8.45,0.34 -8.45,0.34  z" class="primitive"/>
            </g>
            <g transform="translate(53.69,158.62)" id="img-78f8c233-47">
              <path d="M-8.45,-0.09 L8.45,-0.09 8.45,0.09 -8.45,0.09  z" class="primitive"/>
            </g>
            <g transform="translate(53.69,158.19)" id="img-78f8c233-48">
              <path d="M-8.45,-0.52 L8.45,-0.52 8.45,0.52 -8.45,0.52  z" class="primitive"/>
            </g>
            <g transform="translate(53.69,158.35)" id="img-78f8c233-49">
              <path d="M-8.45,-0.37 L8.45,-0.37 8.45,0.37 -8.45,0.37  z" class="primitive"/>
            </g>
            <g transform="translate(53.69,154.41)" id="img-78f8c233-50">
              <path d="M-8.45,-4.3 L8.45,-4.3 8.45,4.3 -8.45,4.3  z" class="primitive"/>
            </g>
            <g transform="translate(53.69,158.23)" id="img-78f8c233-51">
              <path d="M-8.45,-0.49 L8.45,-0.49 8.45,0.49 -8.45,0.49  z" class="primitive"/>
            </g>
            <g transform="translate(53.69,158.63)" id="img-78f8c233-52">
              <path d="M-8.45,-0.08 L8.45,-0.08 8.45,0.08 -8.45,0.08  z" class="primitive"/>
            </g>
            <g transform="translate(53.69,158.71)" id="img-78f8c233-53">
              <path d="M-8.45,-0.01 L8.45,-0.01 8.45,0.01 -8.45,0.01  z" class="primitive"/>
            </g>
            <g transform="translate(70.55,158.59)" id="img-78f8c233-54">
              <path d="M-8.45,-0.13 L8.45,-0.13 8.45,0.13 -8.45,0.13  z" class="primitive"/>
            </g>
            <g transform="translate(70.55,158.05)" id="img-78f8c233-55">
              <path d="M-8.45,-0.66 L8.45,-0.66 8.45,0.66 -8.45,0.66  z" class="primitive"/>
            </g>
            <g transform="translate(70.55,158.49)" id="img-78f8c233-56">
              <path d="M-8.45,-0.23 L8.45,-0.23 8.45,0.23 -8.45,0.23  z" class="primitive"/>
            </g>
            <g transform="translate(70.55,158.51)" id="img-78f8c233-57">
              <path d="M-8.45,-0.21 L8.45,-0.21 8.45,0.21 -8.45,0.21  z" class="primitive"/>
            </g>
            <g transform="translate(70.55,158.71)" id="img-78f8c233-58">
              <path d="M-8.45,-0 L8.45,-0 8.45,0 -8.45,0  z" class="primitive"/>
            </g>
            <g transform="translate(70.55,158.6)" id="img-78f8c233-59">
              <path d="M-8.45,-0.11 L8.45,-0.11 8.45,0.11 -8.45,0.11  z" class="primitive"/>
            </g>
            <g transform="translate(87.4,158.67)" id="img-78f8c233-60">
              <path d="M-8.45,-0.05 L8.45,-0.05 8.45,0.05 -8.45,0.05  z" class="primitive"/>
            </g>
            <g transform="translate(87.4,155)" id="img-78f8c233-61">
              <path d="M-8.45,-3.71 L8.45,-3.71 8.45,3.71 -8.45,3.71  z" class="primitive"/>
            </g>
            <g transform="translate(87.4,158.72)" id="img-78f8c233-62">
              <path d="M-8.45,-0 L8.45,-0 8.45,0 -8.45,0  z" class="primitive"/>
            </g>
            <g transform="translate(87.4,156.81)" id="img-78f8c233-63">
              <path d="M-8.45,-1.91 L8.45,-1.91 8.45,1.91 -8.45,1.91  z" class="primitive"/>
            </g>
            <g transform="translate(87.4,158.35)" id="img-78f8c233-64">
              <path d="M-8.45,-0.37 L8.45,-0.37 8.45,0.37 -8.45,0.37  z" class="primitive"/>
            </g>
            <g transform="translate(104.26,158.61)" id="img-78f8c233-65">
              <path d="M-8.45,-0.1 L8.45,-0.1 8.45,0.1 -8.45,0.1  z" class="primitive"/>
            </g>
            <g transform="translate(104.26,158.66)" id="img-78f8c233-66">
              <path d="M-8.45,-0.05 L8.45,-0.05 8.45,0.05 -8.45,0.05  z" class="primitive"/>
            </g>
            <g transform="translate(104.26,158.7)" id="img-78f8c233-67">
              <path d="M-8.45,-0.02 L8.45,-0.02 8.45,0.02 -8.45,0.02  z" class="primitive"/>
            </g>
            <g transform="translate(104.26,158.59)" id="img-78f8c233-68">
              <path d="M-8.45,-0.12 L8.45,-0.12 8.45,0.12 -8.45,0.12  z" class="primitive"/>
            </g>
            <g transform="translate(121.12,158.72)" id="img-78f8c233-69">
              <path d="M-8.45,-0 L8.45,-0 8.45,0 -8.45,0  z" class="primitive"/>
            </g>
            <g transform="translate(121.12,158.42)" id="img-78f8c233-70">
              <path d="M-8.45,-0.29 L8.45,-0.29 8.45,0.29 -8.45,0.29  z" class="primitive"/>
            </g>
            <g transform="translate(121.12,158.66)" id="img-78f8c233-71">
              <path d="M-8.45,-0.05 L8.45,-0.05 8.45,0.05 -8.45,0.05  z" class="primitive"/>
            </g>
            <g transform="translate(121.12,158.7)" id="img-78f8c233-72">
              <path d="M-8.45,-0.01 L8.45,-0.01 8.45,0.01 -8.45,0.01  z" class="primitive"/>
            </g>
            <g transform="translate(137.98,106.81)" id="img-78f8c233-73">
              <path d="M-8.45,-51.9 L8.45,-51.9 8.45,51.9 -8.45,51.9  z" class="primitive"/>
            </g>
            <g transform="translate(137.98,158.71)" id="img-78f8c233-74">
              <path d="M-8.45,-0 L8.45,-0 8.45,0 -8.45,0  z" class="primitive"/>
            </g>
            <g transform="translate(137.98,158.41)" id="img-78f8c233-75">
              <path d="M-8.45,-0.31 L8.45,-0.31 8.45,0.31 -8.45,0.31  z" class="primitive"/>
            </g>
            <g transform="translate(137.98,158.58)" id="img-78f8c233-76">
              <path d="M-8.45,-0.13 L8.45,-0.13 8.45,0.13 -8.45,0.13  z" class="primitive"/>
            </g>
            <g transform="translate(137.98,158.43)" id="img-78f8c233-77">
              <path d="M-8.45,-0.28 L8.45,-0.28 8.45,0.28 -8.45,0.28  z" class="primitive"/>
            </g>
            <g transform="translate(137.98,158.61)" id="img-78f8c233-78">
              <path d="M-8.45,-0.1 L8.45,-0.1 8.45,0.1 -8.45,0.1  z" class="primitive"/>
            </g>
            <g transform="translate(137.98,158.45)" id="img-78f8c233-79">
              <path d="M-8.45,-0.26 L8.45,-0.26 8.45,0.26 -8.45,0.26  z" class="primitive"/>
            </g>
            <g transform="translate(154.84,158.54)" id="img-78f8c233-80">
              <path d="M-8.45,-0.18 L8.45,-0.18 8.45,0.18 -8.45,0.18  z" class="primitive"/>
            </g>
            <g transform="translate(154.84,158.71)" id="img-78f8c233-81">
              <path d="M-8.45,-0 L8.45,-0 8.45,0 -8.45,0  z" class="primitive"/>
            </g>
            <g transform="translate(154.84,158.71)" id="img-78f8c233-82">
              <path d="M-8.45,-0 L8.45,-0 8.45,0 -8.45,0  z" class="primitive"/>
            </g>
            <g transform="translate(154.84,158.69)" id="img-78f8c233-83">
              <path d="M-8.45,-0.03 L8.45,-0.03 8.45,0.03 -8.45,0.03  z" class="primitive"/>
            </g>
            <g transform="translate(154.84,158.11)" id="img-78f8c233-84">
              <path d="M-8.45,-0.6 L8.45,-0.6 8.45,0.6 -8.45,0.6  z" class="primitive"/>
            </g>
            <g transform="translate(171.7,157.45)" id="img-78f8c233-85">
              <path d="M-8.45,-1.26 L8.45,-1.26 8.45,1.26 -8.45,1.26  z" class="primitive"/>
            </g>
            <g transform="translate(171.7,158.59)" id="img-78f8c233-86">
              <path d="M-8.45,-0.12 L8.45,-0.12 8.45,0.12 -8.45,0.12  z" class="primitive"/>
            </g>
            <g transform="translate(171.7,158.69)" id="img-78f8c233-87">
              <path d="M-8.45,-0.02 L8.45,-0.02 8.45,0.02 -8.45,0.02  z" class="primitive"/>
            </g>
            <g transform="translate(188.56,158.59)" id="img-78f8c233-88">
              <path d="M-8.45,-0.12 L8.45,-0.12 8.45,0.12 -8.45,0.12  z" class="primitive"/>
            </g>
            <g transform="translate(188.56,158.7)" id="img-78f8c233-89">
              <path d="M-8.45,-0.01 L8.45,-0.01 8.45,0.01 -8.45,0.01  z" class="primitive"/>
            </g>
            <g transform="translate(188.56,158.69)" id="img-78f8c233-90">
              <path d="M-8.45,-0.02 L8.45,-0.02 8.45,0.02 -8.45,0.02  z" class="primitive"/>
            </g>
            <g transform="translate(188.56,158.57)" id="img-78f8c233-91">
              <path d="M-8.45,-0.14 L8.45,-0.14 8.45,0.14 -8.45,0.14  z" class="primitive"/>
            </g>
            <g transform="translate(205.42,158.58)" id="img-78f8c233-92">
              <path d="M-8.45,-0.14 L8.45,-0.14 8.45,0.14 -8.45,0.14  z" class="primitive"/>
            </g>
            <g transform="translate(205.42,158.7)" id="img-78f8c233-93">
              <path d="M-8.45,-0.01 L8.45,-0.01 8.45,0.01 -8.45,0.01  z" class="primitive"/>
            </g>
            <g transform="translate(205.42,158.49)" id="img-78f8c233-94">
              <path d="M-8.45,-0.23 L8.45,-0.23 8.45,0.23 -8.45,0.23  z" class="primitive"/>
            </g>
            <g transform="translate(205.42,158.22)" id="img-78f8c233-95">
              <path d="M-8.45,-0.5 L8.45,-0.5 8.45,0.5 -8.45,0.5  z" class="primitive"/>
            </g>
            <g transform="translate(205.42,158.25)" id="img-78f8c233-96">
              <path d="M-8.45,-0.46 L8.45,-0.46 8.45,0.46 -8.45,0.46  z" class="primitive"/>
            </g>
            <g transform="translate(205.42,158.65)" id="img-78f8c233-97">
              <path d="M-8.45,-0.07 L8.45,-0.07 8.45,0.07 -8.45,0.07  z" class="primitive"/>
            </g>
            <g transform="translate(222.28,158.71)" id="img-78f8c233-98">
              <path d="M-8.45,-0.01 L8.45,-0.01 8.45,0.01 -8.45,0.01  z" class="primitive"/>
            </g>
            <g transform="translate(222.28,156.21)" id="img-78f8c233-99">
              <path d="M-8.45,-2.51 L8.45,-2.51 8.45,2.51 -8.45,2.51  z" class="primitive"/>
            </g>
            <g transform="translate(239.13,155.52)" id="img-78f8c233-100">
              <path d="M-8.45,-3.2 L8.45,-3.2 8.45,3.2 -8.45,3.2  z" class="primitive"/>
            </g>
            <g transform="translate(255.99,158.67)" id="img-78f8c233-101">
              <path d="M-8.45,-0.05 L8.45,-0.05 8.45,0.05 -8.45,0.05  z" class="primitive"/>
            </g>
            <g transform="translate(255.99,158.71)" id="img-78f8c233-102">
              <path d="M-8.45,-0.01 L8.45,-0.01 8.45,0.01 -8.45,0.01  z" class="primitive"/>
            </g>
            <g transform="translate(272.85,158.71)" id="img-78f8c233-103">
              <path d="M-8.45,-0.01 L8.45,-0.01 8.45,0.01 -8.45,0.01  z" class="primitive"/>
            </g>
            <g transform="translate(289.71,158.56)" id="img-78f8c233-104">
              <path d="M-8.45,-0.16 L8.45,-0.16 8.45,0.16 -8.45,0.16  z" class="primitive"/>
            </g>
            <g transform="translate(306.57,158.63)" id="img-78f8c233-105">
              <path d="M-8.45,-0.09 L8.45,-0.09 8.45,0.09 -8.45,0.09  z" class="primitive"/>
            </g>
          </g>
        </g>
      </g>
    </g>
  </g>
  <g class="guide ylabels" font-size="2.82" font-family="'PT Sans Caption','Helvetica Neue','Helvetica',sans-serif" fill="#6C606B" id="img-78f8c233-106">
    <g transform="translate(27.4,158.72)" id="img-78f8c233-107">
      <g class="primitive">
        <text text-anchor="end" dy="0.35em">0</text>
      </g>
    </g>
    <g transform="translate(27.4,122.19)" id="img-78f8c233-108">
      <g class="primitive">
        <text text-anchor="end" dy="0.35em">5.00×10⁴</text>
      </g>
    </g>
    <g transform="translate(27.4,85.66)" id="img-78f8c233-109">
      <g class="primitive">
        <text text-anchor="end" dy="0.35em">1.00×10⁵</text>
      </g>
    </g>
    <g transform="translate(27.4,49.14)" id="img-78f8c233-110">
      <g class="primitive">
        <text text-anchor="end" dy="0.35em">1.50×10⁵</text>
      </g>
    </g>
    <g transform="translate(27.4,12.61)" id="img-78f8c233-111">
      <g class="primitive">
        <text text-anchor="end" dy="0.35em">2.00×10⁵</text>
      </g>
    </g>
  </g>
  <g font-size="3.88" font-family="'PT Sans','Helvetica Neue','Helvetica',sans-serif" fill="#564A55" stroke="#000000" stroke-opacity="0.000" id="img-78f8c233-112">
    <g transform="translate(8.81,83.66)" id="img-78f8c233-113">
      <g class="primitive">
        <text text-anchor="middle" dy="0.35em" transform="rotate(-90,0, 2)">Total Debt (in dollars)</text>
      </g>
    </g>
  </g>
  <g font-size="3.88" font-family="'PT Sans','Helvetica Neue','Helvetica',sans-serif" fill="#564A55" stroke="#000000" stroke-opacity="0.000" id="img-78f8c233-114">
    <g transform="translate(171.7,5)" id="img-78f8c233-115">
      <g class="primitive">
        <text text-anchor="middle" dy="0.6em">NJ Debt Redeemed Per Year</text>
      </g>
    </g>
  </g>
</g>
<defs>
  <clipPath id="img-78f8c233-5">
    <path d="M28.4,10.61 L315,10.61 315,160.72 28.4,160.72 " />
  </clipPath>
</defs>
</svg>
