<?xml version="1.0" encoding="UTF-8"?>
<svg xmlns="http://www.w3.org/2000/svg"
     xmlns:xlink="http://www.w3.org/1999/xlink"
     xmlns:gadfly="http://www.gadflyjl.org/ns"
     version="1.2"
     width="320mm" height="180mm" viewBox="0 0 320 180"
     stroke="none"
     fill="#000000"
     stroke-width="0.3"
     font-size="3.88"
>
<defs>
  <marker id="arrow" markerWidth="15" markerHeight="7" refX="5" refY="3.5" orient="auto" markerUnits="strokeWidth">
    <path d="M0,0 L15,3.5 L0,7 z" stroke="context-stroke" fill="context-stroke"/>
  </marker>
</defs>
<g stroke="#000000" stroke-opacity="0.000" fill="#FFFFFF" id="img-c64236e7-1">
  <g transform="translate(160,90)">
    <path d="M-160,-90 L160,-90 160,90 -160,90  z" class="primitive"/>
  </g>
</g>
<g class="plotroot yscalable" id="img-c64236e7-2">
  <g font-size="3.88" font-family="'PT Sans','Helvetica Neue','Helvetica',sans-serif" fill="#564A55" stroke="#000000" stroke-opacity="0.000" id="img-c64236e7-3">
    <g transform="translate(170.86,168.39)">
      <g class="primitive">
        <text text-anchor="middle" dy="0.6em">Year</text>
      </g>
    </g>
  </g>
  <g class="guide xlabels" font-size="2.82" font-family="'PT Sans Caption','Helvetica Neue','Helvetica',sans-serif" fill="#6C606B" id="img-c64236e7-4">
    <g transform="translate(47.32,161.72)">
      <g class="primitive">
        <text text-anchor="middle" dy="0.6em">1790</text>
      </g>
    </g>
    <g transform="translate(88.5,161.72)">
      <g class="primitive">
        <text text-anchor="middle" dy="0.6em">1791</text>
      </g>
    </g>
    <g transform="translate(129.68,161.72)">
      <g class="primitive">
        <text text-anchor="middle" dy="0.6em">1792</text>
      </g>
    </g>
    <g transform="translate(170.86,161.72)">
      <g class="primitive">
        <text text-anchor="middle" dy="0.6em">1793</text>
      </g>
    </g>
    <g transform="translate(212.04,161.72)">
      <g class="primitive">
        <text text-anchor="middle" dy="0.6em">1794</text>
      </g>
    </g>
    <g transform="translate(253.23,161.72)">
      <g class="primitive">
        <text text-anchor="middle" dy="0.6em">1795</text>
      </g>
    </g>
    <g transform="translate(294.41,161.72)">
      <g class="primitive">
        <text text-anchor="middle" dy="0.6em">no year</text>
      </g>
    </g>
  </g>
  <g clip-path="url(#img-c64236e7-5)">
    <g id="img-c64236e7-6">
      <g pointer-events="visible" stroke-width="0.3" fill="#000000" fill-opacity="0.000" stroke="#000000" stroke-opacity="0.000" class="guide background" id="img-c64236e7-7">
        <g transform="translate(170.86,85.66)" id="img-c64236e7-8">
          <path d="M-144.14,-75.05 L144.14,-75.05 144.14,75.05 -144.14,75.05  z" class="primitive"/>
        </g>
      </g>
      <g class="guide ygridlines xfixed" stroke-dasharray="0.5,0.5" stroke-width="0.2" stroke="#D0D0E0" id="img-c64236e7-9">
        <g transform="translate(170.86,158.72)" id="img-c64236e7-10">
          <path fill="none" d="M-144.14,0 L144.14,0 " class="primitive"/>
        </g>
        <g transform="translate(170.86,129.49)" id="img-c64236e7-11">
          <path fill="none" d="M-144.14,0 L144.14,0 " class="primitive"/>
        </g>
        <g transform="translate(170.86,100.27)" id="img-c64236e7-12">
          <path fill="none" d="M-144.14,0 L144.14,0 " class="primitive"/>
        </g>
        <g transform="translate(170.86,71.05)" id="img-c64236e7-13">
          <path fill="none" d="M-144.14,0 L144.14,0 " class="primitive"/>
        </g>
        <g transform="translate(170.86,41.83)" id="img-c64236e7-14">
          <path fill="none" d="M-144.14,0 L144.14,0 " class="primitive"/>
        </g>
        <g transform="translate(170.86,12.61)" id="img-c64236e7-15">
          <path fill="none" d="M-144.14,0 L144.14,0 " class="primitive"/>
        </g>
      </g>
      <g class="guide xgridlines yfixed" stroke-dasharray="0.5,0.5" stroke-width="0.2" stroke="#D0D0E0" id="img-c64236e7-16">
        <g transform="translate(67.91,85.66)" id="img-c64236e7-17">
          <path fill="none" d="M0,-75.05 L0,75.05 " class="primitive"/>
        </g>
        <g transform="translate(109.09,85.66)" id="img-c64236e7-18">
          <path fill="none" d="M0,-75.05 L0,75.05 " class="primitive"/>
        </g>
        <g transform="translate(150.27,85.66)" id="img-c64236e7-19">
          <path fill="none" d="M0,-75.05 L0,75.05 " class="primitive"/>
        </g>
        <g transform="translate(191.45,85.66)" id="img-c64236e7-20">
          <path fill="none" d="M0,-75.05 L0,75.05 " class="primitive"/>
        </g>
        <g transform="translate(232.64,85.66)" id="img-c64236e7-21">
          <path fill="none" d="M0,-75.05 L0,75.05 " class="primitive"/>
        </g>
        <g transform="translate(273.82,85.66)" id="img-c64236e7-22">
          <path fill="none" d="M0,-75.05 L0,75.05 " class="primitive"/>
        </g>
      </g>
      <g class="plotpanel" id="img-c64236e7-23">
        <metadata>
          <boundingbox value="26.725000000000023mm 10.611666666666679mm 288.275mm 150.10333333333335mm"/>
          <unitbox value="0.5 506844.47080833203 7.0 -513688.941616664"/>
        </metadata>
        <g shape-rendering="crispEdges" stroke-width="0.3" id="img-c64236e7-24">
          <g class="geometry" fill-opacity="1" stroke="#000000" stroke-opacity="0.000" fill="#00BFFF" id="img-c64236e7-25">
            <g transform="translate(47.32,118.75)" id="img-c64236e7-26">
              <path d="M-20.62,-39.96 L20.62,-39.96 20.62,39.96 -20.62,39.96  z" class="primitive"/>
            </g>
            <g transform="translate(47.32,143.93)" id="img-c64236e7-27">
              <path d="M-20.62,-14.78 L20.62,-14.78 20.62,14.78 -20.62,14.78  z" class="primitive"/>
            </g>
            <g transform="translate(47.32,134.17)" id="img-c64236e7-28">
              <path d="M-20.62,-24.55 L20.62,-24.55 20.62,24.55 -20.62,24.55  z" class="primitive"/>
            </g>
            <g transform="translate(88.5,141.48)" id="img-c64236e7-29">
              <path d="M-20.62,-17.24 L20.62,-17.24 20.62,17.24 -20.62,17.24  z" class="primitive"/>
            </g>
            <g transform="translate(88.5,148.48)" id="img-c64236e7-30">
              <path d="M-20.62,-10.24 L20.62,-10.24 20.62,10.24 -20.62,10.24  z" class="primitive"/>
            </g>
            <g transform="translate(88.5,108.89)" id="img-c64236e7-31">
              <path d="M-20.62,-49.83 L20.62,-49.83 20.62,49.83 -20.62,49.83  z" class="primitive"/>
            </g>
            <g transform="translate(88.5,90.72)" id="img-c64236e7-32">
              <path d="M-20.62,-67.99 L20.62,-67.99 20.62,67.99 -20.62,67.99  z" class="primitive"/>
            </g>
            <g transform="translate(88.5,141.91)" id="img-c64236e7-33">
              <path d="M-20.62,-16.81 L20.62,-16.81 20.62,16.81 -20.62,16.81  z" class="primitive"/>
            </g>
            <g transform="translate(88.5,131.2)" id="img-c64236e7-34">
              <path d="M-20.62,-27.52 L20.62,-27.52 20.62,27.52 -20.62,27.52  z" class="primitive"/>
            </g>
            <g transform="translate(88.5,133.86)" id="img-c64236e7-35">
              <path d="M-20.62,-24.86 L20.62,-24.86 20.62,24.86 -20.62,24.86  z" class="primitive"/>
            </g>
            <g transform="translate(88.5,136.7)" id="img-c64236e7-36">
              <path d="M-20.62,-22.02 L20.62,-22.02 20.62,22.02 -20.62,22.02  z" class="primitive"/>
            </g>
            <g transform="translate(88.5,127.81)" id="img-c64236e7-37">
              <path d="M-20.62,-30.91 L20.62,-30.91 20.62,30.91 -20.62,30.91  z" class="primitive"/>
            </g>
            <g transform="translate(88.5,138.17)" id="img-c64236e7-38">
              <path d="M-20.62,-20.55 L20.62,-20.55 20.62,20.55 -20.62,20.55  z" class="primitive"/>
            </g>
            <g transform="translate(88.5,121.44)" id="img-c64236e7-39">
              <path d="M-20.62,-37.27 L20.62,-37.27 20.62,37.27 -20.62,37.27  z" class="primitive"/>
            </g>
            <g transform="translate(88.5,104.05)" id="img-c64236e7-40">
              <path d="M-20.62,-54.66 L20.62,-54.66 20.62,54.66 -20.62,54.66  z" class="primitive"/>
            </g>
            <g transform="translate(129.68,147.96)" id="img-c64236e7-41">
              <path d="M-20.62,-10.76 L20.62,-10.76 20.62,10.76 -20.62,10.76  z" class="primitive"/>
            </g>
            <g transform="translate(129.68,147.34)" id="img-c64236e7-42">
              <path d="M-20.62,-11.37 L20.62,-11.37 20.62,11.37 -20.62,11.37  z" class="primitive"/>
            </g>
            <g transform="translate(129.68,154.09)" id="img-c64236e7-43">
              <path d="M-20.62,-4.63 L20.62,-4.63 20.62,4.63 -20.62,4.63  z" class="primitive"/>
            </g>
            <g transform="translate(129.68,156.07)" id="img-c64236e7-44">
              <path d="M-20.62,-2.64 L20.62,-2.64 20.62,2.64 -20.62,2.64  z" class="primitive"/>
            </g>
            <g transform="translate(129.68,138.56)" id="img-c64236e7-45">
              <path d="M-20.62,-20.15 L20.62,-20.15 20.62,20.15 -20.62,20.15  z" class="primitive"/>
            </g>
            <g transform="translate(129.68,152.54)" id="img-c64236e7-46">
              <path d="M-20.62,-6.17 L20.62,-6.17 20.62,6.17 -20.62,6.17  z" class="primitive"/>
            </g>
            <g transform="translate(129.68,154.51)" id="img-c64236e7-47">
              <path d="M-20.62,-4.21 L20.62,-4.21 20.62,4.21 -20.62,4.21  z" class="primitive"/>
            </g>
            <g transform="translate(129.68,142.87)" id="img-c64236e7-48">
              <path d="M-20.62,-15.84 L20.62,-15.84 20.62,15.84 -20.62,15.84  z" class="primitive"/>
            </g>
            <g transform="translate(129.68,145.72)" id="img-c64236e7-49">
              <path d="M-20.62,-13 L20.62,-13 20.62,13 -20.62,13  z" class="primitive"/>
            </g>
            <g transform="translate(129.68,146.34)" id="img-c64236e7-50">
              <path d="M-20.62,-12.38 L20.62,-12.38 20.62,12.38 -20.62,12.38  z" class="primitive"/>
            </g>
            <g transform="translate(129.68,152.06)" id="img-c64236e7-51">
              <path d="M-20.62,-6.65 L20.62,-6.65 20.62,6.65 -20.62,6.65  z" class="primitive"/>
            </g>
            <g transform="translate(129.68,151.53)" id="img-c64236e7-52">
              <path d="M-20.62,-7.18 L20.62,-7.18 20.62,7.18 -20.62,7.18  z" class="primitive"/>
            </g>
            <g transform="translate(170.86,151.1)" id="img-c64236e7-53">
              <path d="M-20.62,-7.62 L20.62,-7.62 20.62,7.62 -20.62,7.62  z" class="primitive"/>
            </g>
            <g transform="translate(170.86,157.86)" id="img-c64236e7-54">
              <path d="M-20.62,-0.86 L20.62,-0.86 20.62,0.86 -20.62,0.86  z" class="primitive"/>
            </g>
            <g transform="translate(170.86,158.68)" id="img-c64236e7-55">
              <path d="M-20.62,-0.04 L20.62,-0.04 20.62,0.04 -20.62,0.04  z" class="primitive"/>
            </g>
            <g transform="translate(170.86,141.62)" id="img-c64236e7-56">
              <path d="M-20.62,-17.09 L20.62,-17.09 20.62,17.09 -20.62,17.09  z" class="primitive"/>
            </g>
            <g transform="translate(170.86,154.9)" id="img-c64236e7-57">
              <path d="M-20.62,-3.82 L20.62,-3.82 20.62,3.82 -20.62,3.82  z" class="primitive"/>
            </g>
            <g transform="translate(170.86,155.97)" id="img-c64236e7-58">
              <path d="M-20.62,-2.75 L20.62,-2.75 20.62,2.75 -20.62,2.75  z" class="primitive"/>
            </g>
            <g transform="translate(170.86,152.79)" id="img-c64236e7-59">
              <path d="M-20.62,-5.92 L20.62,-5.92 20.62,5.92 -20.62,5.92  z" class="primitive"/>
            </g>
            <g transform="translate(170.86,144.84)" id="img-c64236e7-60">
              <path d="M-20.62,-13.87 L20.62,-13.87 20.62,13.87 -20.62,13.87  z" class="primitive"/>
            </g>
            <g transform="translate(170.86,157.79)" id="img-c64236e7-61">
              <path d="M-20.62,-0.93 L20.62,-0.93 20.62,0.93 -20.62,0.93  z" class="primitive"/>
            </g>
            <g transform="translate(170.86,152.03)" id="img-c64236e7-62">
              <path d="M-20.62,-6.68 L20.62,-6.68 20.62,6.68 -20.62,6.68  z" class="primitive"/>
            </g>
            <g transform="translate(170.86,157.2)" id="img-c64236e7-63">
              <path d="M-20.62,-1.52 L20.62,-1.52 20.62,1.52 -20.62,1.52  z" class="primitive"/>
            </g>
            <g transform="translate(170.86,157.83)" id="img-c64236e7-64">
              <path d="M-20.62,-0.88 L20.62,-0.88 20.62,0.88 -20.62,0.88  z" class="primitive"/>
            </g>
            <g transform="translate(212.04,155.31)" id="img-c64236e7-65">
              <path d="M-20.62,-3.41 L20.62,-3.41 20.62,3.41 -20.62,3.41  z" class="primitive"/>
            </g>
            <g transform="translate(212.04,151.81)" id="img-c64236e7-66">
              <path d="M-20.62,-6.9 L20.62,-6.9 20.62,6.9 -20.62,6.9  z" class="primitive"/>
            </g>
            <g transform="translate(212.04,158.5)" id="img-c64236e7-67">
              <path d="M-20.62,-0.22 L20.62,-0.22 20.62,0.22 -20.62,0.22  z" class="primitive"/>
            </g>
            <g transform="translate(212.04,157.85)" id="img-c64236e7-68">
              <path d="M-20.62,-0.86 L20.62,-0.86 20.62,0.86 -20.62,0.86  z" class="primitive"/>
            </g>
            <g transform="translate(212.04,143.28)" id="img-c64236e7-69">
              <path d="M-20.62,-15.44 L20.62,-15.44 20.62,15.44 -20.62,15.44  z" class="primitive"/>
            </g>
            <g transform="translate(212.04,157.88)" id="img-c64236e7-70">
              <path d="M-20.62,-0.84 L20.62,-0.84 20.62,0.84 -20.62,0.84  z" class="primitive"/>
            </g>
            <g transform="translate(212.04,157.3)" id="img-c64236e7-71">
              <path d="M-20.62,-1.42 L20.62,-1.42 20.62,1.42 -20.62,1.42  z" class="primitive"/>
            </g>
            <g transform="translate(212.04,155.73)" id="img-c64236e7-72">
              <path d="M-20.62,-2.98 L20.62,-2.98 20.62,2.98 -20.62,2.98  z" class="primitive"/>
            </g>
            <g transform="translate(212.04,156.56)" id="img-c64236e7-73">
              <path d="M-20.62,-2.15 L20.62,-2.15 20.62,2.15 -20.62,2.15  z" class="primitive"/>
            </g>
            <g transform="translate(212.04,158.07)" id="img-c64236e7-74">
              <path d="M-20.62,-0.65 L20.62,-0.65 20.62,0.65 -20.62,0.65  z" class="primitive"/>
            </g>
            <g transform="translate(212.04,152.87)" id="img-c64236e7-75">
              <path d="M-20.62,-5.85 L20.62,-5.85 20.62,5.85 -20.62,5.85  z" class="primitive"/>
            </g>
            <g transform="translate(253.23,158.4)" id="img-c64236e7-76">
              <path d="M-20.62,-0.31 L20.62,-0.31 20.62,0.31 -20.62,0.31  z" class="primitive"/>
            </g>
            <g transform="translate(253.23,156.68)" id="img-c64236e7-77">
              <path d="M-20.62,-2.04 L20.62,-2.04 20.62,2.04 -20.62,2.04  z" class="primitive"/>
            </g>
            <g transform="translate(253.23,156.6)" id="img-c64236e7-78">
              <path d="M-20.62,-2.11 L20.62,-2.11 20.62,2.11 -20.62,2.11  z" class="primitive"/>
            </g>
            <g transform="translate(253.23,152.77)" id="img-c64236e7-79">
              <path d="M-20.62,-5.94 L20.62,-5.94 20.62,5.94 -20.62,5.94  z" class="primitive"/>
            </g>
            <g transform="translate(253.23,152.49)" id="img-c64236e7-80">
              <path d="M-20.62,-6.22 L20.62,-6.22 20.62,6.22 -20.62,6.22  z" class="primitive"/>
            </g>
            <g transform="translate(253.23,157.74)" id="img-c64236e7-81">
              <path d="M-20.62,-0.97 L20.62,-0.97 20.62,0.97 -20.62,0.97  z" class="primitive"/>
            </g>
            <g transform="translate(253.23,153.83)" id="img-c64236e7-82">
              <path d="M-20.62,-4.89 L20.62,-4.89 20.62,4.89 -20.62,4.89  z" class="primitive"/>
            </g>
            <g transform="translate(253.23,155.93)" id="img-c64236e7-83">
              <path d="M-20.62,-2.79 L20.62,-2.79 20.62,2.79 -20.62,2.79  z" class="primitive"/>
            </g>
            <g transform="translate(294.41,158.23)" id="img-c64236e7-84">
              <path d="M-20.62,-0.49 L20.62,-0.49 20.62,0.49 -20.62,0.49  z" class="primitive"/>
            </g>
          </g>
        </g>
      </g>
    </g>
  </g>
  <g class="guide ylabels" font-size="2.82" font-family="'PT Sans Caption','Helvetica Neue','Helvetica',sans-serif" fill="#6C606B" id="img-c64236e7-85">
    <g transform="translate(25.72,158.72)" id="img-c64236e7-86">
      <g class="primitive">
        <text text-anchor="end" dy="0.35em">0</text>
      </g>
    </g>
    <g transform="translate(25.72,129.49)" id="img-c64236e7-87">
      <g class="primitive">
        <text text-anchor="end" dy="0.35em">1.0×10⁵</text>
      </g>
    </g>
    <g transform="translate(25.72,100.27)" id="img-c64236e7-88">
      <g class="primitive">
        <text text-anchor="end" dy="0.35em">2.0×10⁵</text>
      </g>
    </g>
    <g transform="translate(25.72,71.05)" id="img-c64236e7-89">
      <g class="primitive">
        <text text-anchor="end" dy="0.35em">3.0×10⁵</text>
      </g>
    </g>
    <g transform="translate(25.72,41.83)" id="img-c64236e7-90">
      <g class="primitive">
        <text text-anchor="end" dy="0.35em">4.0×10⁵</text>
      </g>
    </g>
    <g transform="translate(25.72,12.61)" id="img-c64236e7-91">
      <g class="primitive">
        <text text-anchor="end" dy="0.35em">5.0×10⁵</text>
      </g>
    </g>
  </g>
  <g font-size="3.88" font-family="'PT Sans','Helvetica Neue','Helvetica',sans-serif" fill="#564A55" stroke="#000000" stroke-opacity="0.000" id="img-c64236e7-92">
    <g transform="translate(8.81,83.66)" id="img-c64236e7-93">
      <g class="primitive">
        <text text-anchor="middle" dy="0.35em" transform="rotate(-90,0, 2)">Total Debt (in dollars)</text>
      </g>
    </g>
  </g>
  <g font-size="3.88" font-family="'PT Sans','Helvetica Neue','Helvetica',sans-serif" fill="#564A55" stroke="#000000" stroke-opacity="0.000" id="img-c64236e7-94">
    <g transform="translate(170.86,5)" id="img-c64236e7-95">
      <g class="primitive">
        <text text-anchor="middle" dy="0.6em">NY Debt Redeemed Per Year</text>
      </g>
    </g>
  </g>
</g>
<defs>
  <clipPath id="img-c64236e7-5">
    <path d="M26.73,10.61 L315,10.61 315,160.72 26.73,160.72 " />
  </clipPath>
</defs>
</svg>
