<?xml version="1.0" encoding="UTF-8"?>
<svg xmlns="http://www.w3.org/2000/svg"
     xmlns:xlink="http://www.w3.org/1999/xlink"
     xmlns:gadfly="http://www.gadflyjl.org/ns"
     version="1.2"
     width="320mm" height="180mm" viewBox="0 0 320 180"
     stroke="none"
     fill="#000000"
     stroke-width="0.3"
     font-size="3.88"
>
<defs>
  <marker id="arrow" markerWidth="15" markerHeight="7" refX="5" refY="3.5" orient="auto" markerUnits="strokeWidth">
    <path d="M0,0 L15,3.5 L0,7 z" stroke="context-stroke" fill="context-stroke"/>
  </marker>
</defs>
<g stroke="#000000" stroke-opacity="0.000" fill="#FFFFFF" id="img-75ae52e0-1">
  <g transform="translate(160,90)">
    <path d="M-160,-90 L160,-90 160,90 -160,90  z" class="primitive"/>
  </g>
</g>
<g class="plotroot yscalable" id="img-75ae52e0-2">
  <g font-size="3.88" font-family="'PT Sans','Helvetica Neue','Helvetica',sans-serif" fill="#564A55" stroke="#000000" stroke-opacity="0.000" id="img-75ae52e0-3">
    <g transform="translate(170.86,168.39)">
      <g class="primitive">
        <text text-anchor="middle" dy="0.6em">Year</text>
      </g>
    </g>
  </g>
  <g class="guide xlabels" font-size="2.82" font-family="'PT Sans Caption','Helvetica Neue','Helvetica',sans-serif" fill="#6C606B" id="img-75ae52e0-4">
    <g transform="translate(50.75,161.72)">
      <g class="primitive">
        <text text-anchor="middle" dy="0.6em">1790</text>
      </g>
    </g>
    <g transform="translate(98.79,161.72)">
      <g class="primitive">
        <text text-anchor="middle" dy="0.6em">1791</text>
      </g>
    </g>
    <g transform="translate(146.84,161.72)">
      <g class="primitive">
        <text text-anchor="middle" dy="0.6em">1792</text>
      </g>
    </g>
    <g transform="translate(194.89,161.72)">
      <g class="primitive">
        <text text-anchor="middle" dy="0.6em">1793</text>
      </g>
    </g>
    <g transform="translate(242.93,161.72)">
      <g class="primitive">
        <text text-anchor="middle" dy="0.6em">1794</text>
      </g>
    </g>
    <g transform="translate(290.98,161.72)">
      <g class="primitive">
        <text text-anchor="middle" dy="0.6em">no year</text>
      </g>
    </g>
  </g>
  <g clip-path="url(#img-75ae52e0-5)">
    <g id="img-75ae52e0-6">
      <g pointer-events="visible" stroke-width="0.3" fill="#000000" fill-opacity="0.000" stroke="#000000" stroke-opacity="0.000" class="guide background" id="img-75ae52e0-7">
        <g transform="translate(170.86,85.66)" id="img-75ae52e0-8">
          <path d="M-144.14,-75.05 L144.14,-75.05 144.14,75.05 -144.14,75.05  z" class="primitive"/>
        </g>
      </g>
      <g class="guide ygridlines xfixed" stroke-dasharray="0.5,0.5" stroke-width="0.2" stroke="#D0D0E0" id="img-75ae52e0-9">
        <g transform="translate(170.86,158.72)" id="img-75ae52e0-10">
          <path fill="none" d="M-144.14,0 L144.14,0 " class="primitive"/>
        </g>
        <g transform="translate(170.86,134.36)" id="img-75ae52e0-11">
          <path fill="none" d="M-144.14,0 L144.14,0 " class="primitive"/>
        </g>
        <g transform="translate(170.86,110.01)" id="img-75ae52e0-12">
          <path fill="none" d="M-144.14,0 L144.14,0 " class="primitive"/>
        </g>
        <g transform="translate(170.86,85.66)" id="img-75ae52e0-13">
          <path fill="none" d="M-144.14,0 L144.14,0 " class="primitive"/>
        </g>
        <g transform="translate(170.86,61.31)" id="img-75ae52e0-14">
          <path fill="none" d="M-144.14,0 L144.14,0 " class="primitive"/>
        </g>
        <g transform="translate(170.86,36.96)" id="img-75ae52e0-15">
          <path fill="none" d="M-144.14,0 L144.14,0 " class="primitive"/>
        </g>
        <g transform="translate(170.86,12.61)" id="img-75ae52e0-16">
          <path fill="none" d="M-144.14,0 L144.14,0 " class="primitive"/>
        </g>
      </g>
      <g class="guide xgridlines yfixed" stroke-dasharray="0.5,0.5" stroke-width="0.2" stroke="#D0D0E0" id="img-75ae52e0-17">
        <g transform="translate(74.77,85.66)" id="img-75ae52e0-18">
          <path fill="none" d="M0,-75.05 L0,75.05 " class="primitive"/>
        </g>
        <g transform="translate(122.82,85.66)" id="img-75ae52e0-19">
          <path fill="none" d="M0,-75.05 L0,75.05 " class="primitive"/>
        </g>
        <g transform="translate(170.86,85.66)" id="img-75ae52e0-20">
          <path fill="none" d="M0,-75.05 L0,75.05 " class="primitive"/>
        </g>
        <g transform="translate(218.91,85.66)" id="img-75ae52e0-21">
          <path fill="none" d="M0,-75.05 L0,75.05 " class="primitive"/>
        </g>
        <g transform="translate(266.95,85.66)" id="img-75ae52e0-22">
          <path fill="none" d="M0,-75.05 L0,75.05 " class="primitive"/>
        </g>
      </g>
      <g class="plotpanel" id="img-75ae52e0-23">
        <metadata>
          <boundingbox value="26.725000000000023mm 10.611666666666679mm 288.275mm 150.10333333333335mm"/>
          <unitbox value="0.5 60821.33649699984 6.0 -61642.67299399968"/>
        </metadata>
        <g shape-rendering="crispEdges" stroke-width="0.3" id="img-75ae52e0-24">
          <g class="geometry" fill-opacity="1" stroke="#000000" stroke-opacity="0.000" fill="#00BFFF" id="img-75ae52e0-25">
            <g transform="translate(50.75,146.28)" id="img-75ae52e0-26">
              <path d="M-24.05,-12.43 L24.05,-12.43 24.05,12.43 -24.05,12.43  z" class="primitive"/>
            </g>
            <g transform="translate(50.75,126.27)" id="img-75ae52e0-27">
              <path d="M-24.05,-32.45 L24.05,-32.45 24.05,32.45 -24.05,32.45  z" class="primitive"/>
            </g>
            <g transform="translate(98.79,141.52)" id="img-75ae52e0-28">
              <path d="M-24.05,-17.2 L24.05,-17.2 24.05,17.2 -24.05,17.2  z" class="primitive"/>
            </g>
            <g transform="translate(98.79,152.78)" id="img-75ae52e0-29">
              <path d="M-24.05,-5.94 L24.05,-5.94 24.05,5.94 -24.05,5.94  z" class="primitive"/>
            </g>
            <g transform="translate(98.79,158.32)" id="img-75ae52e0-30">
              <path d="M-24.05,-0.39 L24.05,-0.39 24.05,0.39 -24.05,0.39  z" class="primitive"/>
            </g>
            <g transform="translate(98.79,147.53)" id="img-75ae52e0-31">
              <path d="M-24.05,-11.18 L24.05,-11.18 24.05,11.18 -24.05,11.18  z" class="primitive"/>
            </g>
            <g transform="translate(98.79,118.9)" id="img-75ae52e0-32">
              <path d="M-24.05,-39.81 L24.05,-39.81 24.05,39.81 -24.05,39.81  z" class="primitive"/>
            </g>
            <g transform="translate(98.79,146.05)" id="img-75ae52e0-33">
              <path d="M-24.05,-12.67 L24.05,-12.67 24.05,12.67 -24.05,12.67  z" class="primitive"/>
            </g>
            <g transform="translate(98.79,136.28)" id="img-75ae52e0-34">
              <path d="M-24.05,-22.43 L24.05,-22.43 24.05,22.43 -24.05,22.43  z" class="primitive"/>
            </g>
            <g transform="translate(98.79,127.1)" id="img-75ae52e0-35">
              <path d="M-24.05,-31.61 L24.05,-31.61 24.05,31.61 -24.05,31.61  z" class="primitive"/>
            </g>
            <g transform="translate(98.79,147.18)" id="img-75ae52e0-36">
              <path d="M-24.05,-11.54 L24.05,-11.54 24.05,11.54 -24.05,11.54  z" class="primitive"/>
            </g>
            <g transform="translate(98.79,146.76)" id="img-75ae52e0-37">
              <path d="M-24.05,-11.95 L24.05,-11.95 24.05,11.95 -24.05,11.95  z" class="primitive"/>
            </g>
            <g transform="translate(98.79,145.19)" id="img-75ae52e0-38">
              <path d="M-24.05,-13.53 L24.05,-13.53 24.05,13.53 -24.05,13.53  z" class="primitive"/>
            </g>
            <g transform="translate(146.84,158.61)" id="img-75ae52e0-39">
              <path d="M-24.05,-0.1 L24.05,-0.1 24.05,0.1 -24.05,0.1  z" class="primitive"/>
            </g>
            <g transform="translate(146.84,158.5)" id="img-75ae52e0-40">
              <path d="M-24.05,-0.21 L24.05,-0.21 24.05,0.21 -24.05,0.21  z" class="primitive"/>
            </g>
            <g transform="translate(146.84,158.26)" id="img-75ae52e0-41">
              <path d="M-24.05,-0.46 L24.05,-0.46 24.05,0.46 -24.05,0.46  z" class="primitive"/>
            </g>
            <g transform="translate(146.84,157.71)" id="img-75ae52e0-42">
              <path d="M-24.05,-1 L24.05,-1 24.05,1 -24.05,1  z" class="primitive"/>
            </g>
            <g transform="translate(146.84,158.59)" id="img-75ae52e0-43">
              <path d="M-24.05,-0.12 L24.05,-0.12 24.05,0.12 -24.05,0.12  z" class="primitive"/>
            </g>
            <g transform="translate(146.84,156.17)" id="img-75ae52e0-44">
              <path d="M-24.05,-2.55 L24.05,-2.55 24.05,2.55 -24.05,2.55  z" class="primitive"/>
            </g>
            <g transform="translate(146.84,158.47)" id="img-75ae52e0-45">
              <path d="M-24.05,-0.24 L24.05,-0.24 24.05,0.24 -24.05,0.24  z" class="primitive"/>
            </g>
            <g transform="translate(146.84,153.89)" id="img-75ae52e0-46">
              <path d="M-24.05,-4.83 L24.05,-4.83 24.05,4.83 -24.05,4.83  z" class="primitive"/>
            </g>
            <g transform="translate(146.84,158.29)" id="img-75ae52e0-47">
              <path d="M-24.05,-0.42 L24.05,-0.42 24.05,0.42 -24.05,0.42  z" class="primitive"/>
            </g>
            <g transform="translate(146.84,158.59)" id="img-75ae52e0-48">
              <path d="M-24.05,-0.12 L24.05,-0.12 24.05,0.12 -24.05,0.12  z" class="primitive"/>
            </g>
            <g transform="translate(194.89,158.65)" id="img-75ae52e0-49">
              <path d="M-24.05,-0.07 L24.05,-0.07 24.05,0.07 -24.05,0.07  z" class="primitive"/>
            </g>
            <g transform="translate(194.89,157.69)" id="img-75ae52e0-50">
              <path d="M-24.05,-1.02 L24.05,-1.02 24.05,1.02 -24.05,1.02  z" class="primitive"/>
            </g>
            <g transform="translate(194.89,158.47)" id="img-75ae52e0-51">
              <path d="M-24.05,-0.24 L24.05,-0.24 24.05,0.24 -24.05,0.24  z" class="primitive"/>
            </g>
            <g transform="translate(194.89,158.3)" id="img-75ae52e0-52">
              <path d="M-24.05,-0.42 L24.05,-0.42 24.05,0.42 -24.05,0.42  z" class="primitive"/>
            </g>
            <g transform="translate(194.89,158.34)" id="img-75ae52e0-53">
              <path d="M-24.05,-0.37 L24.05,-0.37 24.05,0.37 -24.05,0.37  z" class="primitive"/>
            </g>
            <g transform="translate(194.89,156.35)" id="img-75ae52e0-54">
              <path d="M-24.05,-2.36 L24.05,-2.36 24.05,2.36 -24.05,2.36  z" class="primitive"/>
            </g>
            <g transform="translate(242.93,85.76)" id="img-75ae52e0-55">
              <path d="M-24.05,-72.96 L24.05,-72.96 24.05,72.96 -24.05,72.96  z" class="primitive"/>
            </g>
            <g transform="translate(242.93,158.7)" id="img-75ae52e0-56">
              <path d="M-24.05,-0.01 L24.05,-0.01 24.05,0.01 -24.05,0.01  z" class="primitive"/>
            </g>
            <g transform="translate(242.93,158.54)" id="img-75ae52e0-57">
              <path d="M-24.05,-0.18 L24.05,-0.18 24.05,0.18 -24.05,0.18  z" class="primitive"/>
            </g>
            <g transform="translate(242.93,158.67)" id="img-75ae52e0-58">
              <path d="M-24.05,-0.05 L24.05,-0.05 24.05,0.05 -24.05,0.05  z" class="primitive"/>
            </g>
            <g transform="translate(242.93,158.7)" id="img-75ae52e0-59">
              <path d="M-24.05,-0.02 L24.05,-0.02 24.05,0.02 -24.05,0.02  z" class="primitive"/>
            </g>
            <g transform="translate(242.93,158.38)" id="img-75ae52e0-60">
              <path d="M-24.05,-0.34 L24.05,-0.34 24.05,0.34 -24.05,0.34  z" class="primitive"/>
            </g>
            <g transform="translate(242.93,158.45)" id="img-75ae52e0-61">
              <path d="M-24.05,-0.26 L24.05,-0.26 24.05,0.26 -24.05,0.26  z" class="primitive"/>
            </g>
            <g transform="translate(290.98,133.67)" id="img-75ae52e0-62">
              <path d="M-24.05,-25.05 L24.05,-25.05 24.05,25.05 -24.05,25.05  z" class="primitive"/>
            </g>
          </g>
        </g>
      </g>
    </g>
  </g>
  <g class="guide ylabels" font-size="2.82" font-family="'PT Sans Caption','Helvetica Neue','Helvetica',sans-serif" fill="#6C606B" id="img-75ae52e0-63">
    <g transform="translate(25.72,158.72)" id="img-75ae52e0-64">
      <g class="primitive">
        <text text-anchor="end" dy="0.35em">0</text>
      </g>
    </g>
    <g transform="translate(25.72,134.36)" id="img-75ae52e0-65">
      <g class="primitive">
        <text text-anchor="end" dy="0.35em">1.0×10⁴</text>
      </g>
    </g>
    <g transform="translate(25.72,110.01)" id="img-75ae52e0-66">
      <g class="primitive">
        <text text-anchor="end" dy="0.35em">2.0×10⁴</text>
      </g>
    </g>
    <g transform="translate(25.72,85.66)" id="img-75ae52e0-67">
      <g class="primitive">
        <text text-anchor="end" dy="0.35em">3.0×10⁴</text>
      </g>
    </g>
    <g transform="translate(25.72,61.31)" id="img-75ae52e0-68">
      <g class="primitive">
        <text text-anchor="end" dy="0.35em">4.0×10⁴</text>
      </g>
    </g>
    <g transform="translate(25.72,36.96)" id="img-75ae52e0-69">
      <g class="primitive">
        <text text-anchor="end" dy="0.35em">5.0×10⁴</text>
      </g>
    </g>
    <g transform="translate(25.72,12.61)" id="img-75ae52e0-70">
      <g class="primitive">
        <text text-anchor="end" dy="0.35em">6.0×10⁴</text>
      </g>
    </g>
  </g>
  <g font-size="3.88" font-family="'PT Sans','Helvetica Neue','Helvetica',sans-serif" fill="#564A55" stroke="#000000" stroke-opacity="0.000" id="img-75ae52e0-71">
    <g transform="translate(8.81,83.66)" id="img-75ae52e0-72">
      <g class="primitive">
        <text text-anchor="middle" dy="0.35em" transform="rotate(-90,0, 2)">Total Debt (in dollars)</text>
      </g>
    </g>
  </g>
  <g font-size="3.88" font-family="'PT Sans','Helvetica Neue','Helvetica',sans-serif" fill="#564A55" stroke="#000000" stroke-opacity="0.000" id="img-75ae52e0-73">
    <g transform="translate(170.86,5)" id="img-75ae52e0-74">
      <g class="primitive">
        <text text-anchor="middle" dy="0.6em">RI Debt Redeemed Per Year</text>
      </g>
    </g>
  </g>
</g>
<defs>
  <clipPath id="img-75ae52e0-5">
    <path d="M26.73,10.61 L315,10.61 315,160.72 26.73,160.72 " />
  </clipPath>
</defs>
</svg>
