<?xml version="1.0" encoding="UTF-8"?>
<svg xmlns="http://www.w3.org/2000/svg"
     xmlns:xlink="http://www.w3.org/1999/xlink"
     xmlns:gadfly="http://www.gadflyjl.org/ns"
     version="1.2"
     width="320mm" height="180mm" viewBox="0 0 320 180"
     stroke="none"
     fill="#000000"
     stroke-width="0.3"
     font-size="3.88"
>
<defs>
  <marker id="arrow" markerWidth="15" markerHeight="7" refX="5" refY="3.5" orient="auto" markerUnits="strokeWidth">
    <path d="M0,0 L15,3.5 L0,7 z" stroke="context-stroke" fill="context-stroke"/>
  </marker>
</defs>
<g stroke="#000000" stroke-opacity="0.000" fill="#FFFFFF" id="img-e3f885d8-1">
  <g transform="translate(160,90)">
    <path d="M-160,-90 L160,-90 160,90 -160,90  z" class="primitive"/>
  </g>
</g>
<g class="plotroot yscalable" id="img-e3f885d8-2">
  <g font-size="3.88" font-family="'PT Sans','Helvetica Neue','Helvetica',sans-serif" fill="#564A55" stroke="#000000" stroke-opacity="0.000" id="img-e3f885d8-3">
    <g transform="translate(171.7,168.39)">
      <g class="primitive">
        <text text-anchor="middle" dy="0.6em">Year</text>
      </g>
    </g>
  </g>
  <g class="guide xlabels" font-size="2.82" font-family="'PT Sans Caption','Helvetica Neue','Helvetica',sans-serif" fill="#6C606B" id="img-e3f885d8-4">
    <g transform="translate(44.32,161.72)">
      <g class="primitive">
        <text text-anchor="middle" dy="0.6em">1790</text>
      </g>
    </g>
    <g transform="translate(76.17,161.72)">
      <g class="primitive">
        <text text-anchor="middle" dy="0.6em">1791</text>
      </g>
    </g>
    <g transform="translate(108.01,161.72)">
      <g class="primitive">
        <text text-anchor="middle" dy="0.6em">1792</text>
      </g>
    </g>
    <g transform="translate(139.85,161.72)">
      <g class="primitive">
        <text text-anchor="middle" dy="0.6em">1793</text>
      </g>
    </g>
    <g transform="translate(171.7,161.72)">
      <g class="primitive">
        <text text-anchor="middle" dy="0.6em">1794</text>
      </g>
    </g>
    <g transform="translate(203.54,161.72)">
      <g class="primitive">
        <text text-anchor="middle" dy="0.6em">1795</text>
      </g>
    </g>
    <g transform="translate(235.39,161.72)">
      <g class="primitive">
        <text text-anchor="middle" dy="0.6em">1796</text>
      </g>
    </g>
    <g transform="translate(267.23,161.72)">
      <g class="primitive">
        <text text-anchor="middle" dy="0.6em">1797</text>
      </g>
    </g>
    <g transform="translate(299.08,161.72)">
      <g class="primitive">
        <text text-anchor="middle" dy="0.6em">no year</text>
      </g>
    </g>
  </g>
  <g clip-path="url(#img-e3f885d8-5)">
    <g id="img-e3f885d8-6">
      <g pointer-events="visible" stroke-width="0.3" fill="#000000" fill-opacity="0.000" stroke="#000000" stroke-opacity="0.000" class="guide background" id="img-e3f885d8-7">
        <g transform="translate(171.7,85.66)" id="img-e3f885d8-8">
          <path d="M-143.3,-75.05 L143.3,-75.05 143.3,75.05 -143.3,75.05  z" class="primitive"/>
        </g>
      </g>
      <g class="guide ygridlines xfixed" stroke-dasharray="0.5,0.5" stroke-width="0.2" stroke="#D0D0E0" id="img-e3f885d8-9">
        <g transform="translate(171.7,158.72)" id="img-e3f885d8-10">
          <path fill="none" d="M-143.3,0 L143.3,0 " class="primitive"/>
        </g>
        <g transform="translate(171.7,129.49)" id="img-e3f885d8-11">
          <path fill="none" d="M-143.3,0 L143.3,0 " class="primitive"/>
        </g>
        <g transform="translate(171.7,100.27)" id="img-e3f885d8-12">
          <path fill="none" d="M-143.3,0 L143.3,0 " class="primitive"/>
        </g>
        <g transform="translate(171.7,71.05)" id="img-e3f885d8-13">
          <path fill="none" d="M-143.3,0 L143.3,0 " class="primitive"/>
        </g>
        <g transform="translate(171.7,41.83)" id="img-e3f885d8-14">
          <path fill="none" d="M-143.3,0 L143.3,0 " class="primitive"/>
        </g>
        <g transform="translate(171.7,12.61)" id="img-e3f885d8-15">
          <path fill="none" d="M-143.3,0 L143.3,0 " class="primitive"/>
        </g>
      </g>
      <g class="guide xgridlines yfixed" stroke-dasharray="0.5,0.5" stroke-width="0.2" stroke="#D0D0E0" id="img-e3f885d8-16">
        <g transform="translate(60.24,85.66)" id="img-e3f885d8-17">
          <path fill="none" d="M0,-75.05 L0,75.05 " class="primitive"/>
        </g>
        <g transform="translate(92.09,85.66)" id="img-e3f885d8-18">
          <path fill="none" d="M0,-75.05 L0,75.05 " class="primitive"/>
        </g>
        <g transform="translate(123.93,85.66)" id="img-e3f885d8-19">
          <path fill="none" d="M0,-75.05 L0,75.05 " class="primitive"/>
        </g>
        <g transform="translate(155.78,85.66)" id="img-e3f885d8-20">
          <path fill="none" d="M0,-75.05 L0,75.05 " class="primitive"/>
        </g>
        <g transform="translate(187.62,85.66)" id="img-e3f885d8-21">
          <path fill="none" d="M0,-75.05 L0,75.05 " class="primitive"/>
        </g>
        <g transform="translate(219.47,85.66)" id="img-e3f885d8-22">
          <path fill="none" d="M0,-75.05 L0,75.05 " class="primitive"/>
        </g>
        <g transform="translate(251.31,85.66)" id="img-e3f885d8-23">
          <path fill="none" d="M0,-75.05 L0,75.05 " class="primitive"/>
        </g>
        <g transform="translate(283.16,85.66)" id="img-e3f885d8-24">
          <path fill="none" d="M0,-75.05 L0,75.05 " class="primitive"/>
        </g>
      </g>
      <g class="plotpanel" id="img-e3f885d8-25">
        <metadata>
          <boundingbox value="28.39833333333337mm 10.611666666666679mm 286.6016666666667mm 150.10333333333335mm"/>
          <unitbox value="0.5 253422.23540416601 9.0 -256844.470808332"/>
        </metadata>
        <g shape-rendering="crispEdges" stroke-width="0.3" id="img-e3f885d8-26">
          <g class="geometry" fill-opacity="1" stroke="#000000" stroke-opacity="0.000" fill="#00BFFF" id="img-e3f885d8-27">
            <g transform="translate(44.32,153.05)" id="img-e3f885d8-28">
              <path d="M-15.95,-5.66 L15.95,-5.66 15.95,5.66 -15.95,5.66  z" class="primitive"/>
            </g>
            <g transform="translate(44.32,156.34)" id="img-e3f885d8-29">
              <path d="M-15.95,-2.38 L15.95,-2.38 15.95,2.38 -15.95,2.38  z" class="primitive"/>
            </g>
            <g transform="translate(44.32,158.72)" id="img-e3f885d8-30">
              <path d="M-15.95,-0 L15.95,-0 15.95,0 -15.95,0  z" class="primitive"/>
            </g>
            <g transform="translate(76.17,157.71)" id="img-e3f885d8-31">
              <path d="M-15.95,-1.01 L15.95,-1.01 15.95,1.01 -15.95,1.01  z" class="primitive"/>
            </g>
            <g transform="translate(76.17,157.04)" id="img-e3f885d8-32">
              <path d="M-15.95,-1.68 L15.95,-1.68 15.95,1.68 -15.95,1.68  z" class="primitive"/>
            </g>
            <g transform="translate(76.17,157.8)" id="img-e3f885d8-33">
              <path d="M-15.95,-0.92 L15.95,-0.92 15.95,0.92 -15.95,0.92  z" class="primitive"/>
            </g>
            <g transform="translate(76.17,156.98)" id="img-e3f885d8-34">
              <path d="M-15.95,-1.73 L15.95,-1.73 15.95,1.73 -15.95,1.73  z" class="primitive"/>
            </g>
            <g transform="translate(76.17,155.82)" id="img-e3f885d8-35">
              <path d="M-15.95,-2.9 L15.95,-2.9 15.95,2.9 -15.95,2.9  z" class="primitive"/>
            </g>
            <g transform="translate(76.17,155.84)" id="img-e3f885d8-36">
              <path d="M-15.95,-2.87 L15.95,-2.87 15.95,2.87 -15.95,2.87  z" class="primitive"/>
            </g>
            <g transform="translate(76.17,154.67)" id="img-e3f885d8-37">
              <path d="M-15.95,-4.05 L15.95,-4.05 15.95,4.05 -15.95,4.05  z" class="primitive"/>
            </g>
            <g transform="translate(76.17,157.73)" id="img-e3f885d8-38">
              <path d="M-15.95,-0.99 L15.95,-0.99 15.95,0.99 -15.95,0.99  z" class="primitive"/>
            </g>
            <g transform="translate(76.17,156.08)" id="img-e3f885d8-39">
              <path d="M-15.95,-2.63 L15.95,-2.63 15.95,2.63 -15.95,2.63  z" class="primitive"/>
            </g>
            <g transform="translate(76.17,156.13)" id="img-e3f885d8-40">
              <path d="M-15.95,-2.58 L15.95,-2.58 15.95,2.58 -15.95,2.58  z" class="primitive"/>
            </g>
            <g transform="translate(76.17,157.04)" id="img-e3f885d8-41">
              <path d="M-15.95,-1.68 L15.95,-1.68 15.95,1.68 -15.95,1.68  z" class="primitive"/>
            </g>
            <g transform="translate(108.01,157.1)" id="img-e3f885d8-42">
              <path d="M-15.95,-1.61 L15.95,-1.61 15.95,1.61 -15.95,1.61  z" class="primitive"/>
            </g>
            <g transform="translate(108.01,158.72)" id="img-e3f885d8-43">
              <path d="M-15.95,-0 L15.95,-0 15.95,0 -15.95,0  z" class="primitive"/>
            </g>
            <g transform="translate(108.01,158.71)" id="img-e3f885d8-44">
              <path d="M-15.95,-0.01 L15.95,-0.01 15.95,0.01 -15.95,0.01  z" class="primitive"/>
            </g>
            <g transform="translate(108.01,158.57)" id="img-e3f885d8-45">
              <path d="M-15.95,-0.15 L15.95,-0.15 15.95,0.15 -15.95,0.15  z" class="primitive"/>
            </g>
            <g transform="translate(108.01,157.88)" id="img-e3f885d8-46">
              <path d="M-15.95,-0.84 L15.95,-0.84 15.95,0.84 -15.95,0.84  z" class="primitive"/>
            </g>
            <g transform="translate(108.01,158.61)" id="img-e3f885d8-47">
              <path d="M-15.95,-0.11 L15.95,-0.11 15.95,0.11 -15.95,0.11  z" class="primitive"/>
            </g>
            <g transform="translate(108.01,157.54)" id="img-e3f885d8-48">
              <path d="M-15.95,-1.17 L15.95,-1.17 15.95,1.17 -15.95,1.17  z" class="primitive"/>
            </g>
            <g transform="translate(108.01,158.65)" id="img-e3f885d8-49">
              <path d="M-15.95,-0.06 L15.95,-0.06 15.95,0.06 -15.95,0.06  z" class="primitive"/>
            </g>
            <g transform="translate(108.01,158.26)" id="img-e3f885d8-50">
              <path d="M-15.95,-0.45 L15.95,-0.45 15.95,0.45 -15.95,0.45  z" class="primitive"/>
            </g>
            <g transform="translate(139.85,158.37)" id="img-e3f885d8-51">
              <path d="M-15.95,-0.34 L15.95,-0.34 15.95,0.34 -15.95,0.34  z" class="primitive"/>
            </g>
            <g transform="translate(139.85,158.72)" id="img-e3f885d8-52">
              <path d="M-15.95,-0 L15.95,-0 15.95,0 -15.95,0  z" class="primitive"/>
            </g>
            <g transform="translate(139.85,158.5)" id="img-e3f885d8-53">
              <path d="M-15.95,-0.21 L15.95,-0.21 15.95,0.21 -15.95,0.21  z" class="primitive"/>
            </g>
            <g transform="translate(139.85,158.56)" id="img-e3f885d8-54">
              <path d="M-15.95,-0.15 L15.95,-0.15 15.95,0.15 -15.95,0.15  z" class="primitive"/>
            </g>
            <g transform="translate(139.85,158.71)" id="img-e3f885d8-55">
              <path d="M-15.95,-0.01 L15.95,-0.01 15.95,0.01 -15.95,0.01  z" class="primitive"/>
            </g>
            <g transform="translate(139.85,158.69)" id="img-e3f885d8-56">
              <path d="M-15.95,-0.02 L15.95,-0.02 15.95,0.02 -15.95,0.02  z" class="primitive"/>
            </g>
            <g transform="translate(139.85,158.53)" id="img-e3f885d8-57">
              <path d="M-15.95,-0.18 L15.95,-0.18 15.95,0.18 -15.95,0.18  z" class="primitive"/>
            </g>
            <g transform="translate(171.7,158.65)" id="img-e3f885d8-58">
              <path d="M-15.95,-0.06 L15.95,-0.06 15.95,0.06 -15.95,0.06  z" class="primitive"/>
            </g>
            <g transform="translate(171.7,88.01)" id="img-e3f885d8-59">
              <path d="M-15.95,-70.71 L15.95,-70.71 15.95,70.71 -15.95,70.71  z" class="primitive"/>
            </g>
            <g transform="translate(171.7,156.84)" id="img-e3f885d8-60">
              <path d="M-15.95,-1.88 L15.95,-1.88 15.95,1.88 -15.95,1.88  z" class="primitive"/>
            </g>
            <g transform="translate(171.7,158.61)" id="img-e3f885d8-61">
              <path d="M-15.95,-0.11 L15.95,-0.11 15.95,0.11 -15.95,0.11  z" class="primitive"/>
            </g>
            <g transform="translate(203.54,158.72)" id="img-e3f885d8-62">
              <path d="M-15.95,-0 L15.95,-0 15.95,0 -15.95,0  z" class="primitive"/>
            </g>
            <g transform="translate(203.54,158.46)" id="img-e3f885d8-63">
              <path d="M-15.95,-0.25 L15.95,-0.25 15.95,0.25 -15.95,0.25  z" class="primitive"/>
            </g>
            <g transform="translate(203.54,158.72)" id="img-e3f885d8-64">
              <path d="M-15.95,-0 L15.95,-0 15.95,0 -15.95,0  z" class="primitive"/>
            </g>
            <g transform="translate(203.54,157.56)" id="img-e3f885d8-65">
              <path d="M-15.95,-1.15 L15.95,-1.15 15.95,1.15 -15.95,1.15  z" class="primitive"/>
            </g>
            <g transform="translate(203.54,158.67)" id="img-e3f885d8-66">
              <path d="M-15.95,-0.04 L15.95,-0.04 15.95,0.04 -15.95,0.04  z" class="primitive"/>
            </g>
            <g transform="translate(203.54,155.38)" id="img-e3f885d8-67">
              <path d="M-15.95,-3.33 L15.95,-3.33 15.95,3.33 -15.95,3.33  z" class="primitive"/>
            </g>
            <g transform="translate(235.39,158.65)" id="img-e3f885d8-68">
              <path d="M-15.95,-0.06 L15.95,-0.06 15.95,0.06 -15.95,0.06  z" class="primitive"/>
            </g>
            <g transform="translate(235.39,158.72)" id="img-e3f885d8-69">
              <path d="M-15.95,-0 L15.95,-0 15.95,0 -15.95,0  z" class="primitive"/>
            </g>
            <g transform="translate(235.39,158.69)" id="img-e3f885d8-70">
              <path d="M-15.95,-0.03 L15.95,-0.03 15.95,0.03 -15.95,0.03  z" class="primitive"/>
            </g>
            <g transform="translate(235.39,158.63)" id="img-e3f885d8-71">
              <path d="M-15.95,-0.08 L15.95,-0.08 15.95,0.08 -15.95,0.08  z" class="primitive"/>
            </g>
            <g transform="translate(235.39,158.72)" id="img-e3f885d8-72">
              <path d="M-15.95,-0 L15.95,-0 15.95,0 -15.95,0  z" class="primitive"/>
            </g>
            <g transform="translate(267.23,158.68)" id="img-e3f885d8-73">
              <path d="M-15.95,-0.03 L15.95,-0.03 15.95,0.03 -15.95,0.03  z" class="primitive"/>
            </g>
            <g transform="translate(299.08,153.12)" id="img-e3f885d8-74">
              <path d="M-15.95,-5.6 L15.95,-5.6 15.95,5.6 -15.95,5.6  z" class="primitive"/>
            </g>
          </g>
        </g>
      </g>
    </g>
  </g>
  <g class="guide ylabels" font-size="2.82" font-family="'PT Sans Caption','Helvetica Neue','Helvetica',sans-serif" fill="#6C606B" id="img-e3f885d8-75">
    <g transform="translate(27.4,158.72)" id="img-e3f885d8-76">
      <g class="primitive">
        <text text-anchor="end" dy="0.35em">0</text>
      </g>
    </g>
    <g transform="translate(27.4,129.49)" id="img-e3f885d8-77">
      <g class="primitive">
        <text text-anchor="end" dy="0.35em">5.00×10⁴</text>
      </g>
    </g>
    <g transform="translate(27.4,100.27)" id="img-e3f885d8-78">
      <g class="primitive">
        <text text-anchor="end" dy="0.35em">1.00×10⁵</text>
      </g>
    </g>
    <g transform="translate(27.4,71.05)" id="img-e3f885d8-79">
      <g class="primitive">
        <text text-anchor="end" dy="0.35em">1.50×10⁵</text>
      </g>
    </g>
    <g transform="translate(27.4,41.83)" id="img-e3f885d8-80">
      <g class="primitive">
        <text text-anchor="end" dy="0.35em">2.00×10⁵</text>
      </g>
    </g>
    <g transform="translate(27.4,12.61)" id="img-e3f885d8-81">
      <g class="primitive">
        <text text-anchor="end" dy="0.35em">2.50×10⁵</text>
      </g>
    </g>
  </g>
  <g font-size="3.88" font-family="'PT Sans','Helvetica Neue','Helvetica',sans-serif" fill="#564A55" stroke="#000000" stroke-opacity="0.000" id="img-e3f885d8-82">
    <g transform="translate(8.81,83.66)" id="img-e3f885d8-83">
      <g class="primitive">
        <text text-anchor="middle" dy="0.35em" transform="rotate(-90,0, 2)">Total Debt (in dollars)</text>
      </g>
    </g>
  </g>
  <g font-size="3.88" font-family="'PT Sans','Helvetica Neue','Helvetica',sans-serif" fill="#564A55" stroke="#000000" stroke-opacity="0.000" id="img-e3f885d8-84">
    <g transform="translate(171.7,5)" id="img-e3f885d8-85">
      <g class="primitive">
        <text text-anchor="middle" dy="0.6em">SC Debt Redeemed Per Year</text>
      </g>
    </g>
  </g>
</g>
<defs>
  <clipPath id="img-e3f885d8-5">
    <path d="M28.4,10.61 L315,10.61 315,160.72 28.4,160.72 " />
  </clipPath>
</defs>
</svg>
