<?xml version="1.0" encoding="UTF-8"?>
<svg xmlns="http://www.w3.org/2000/svg"
     xmlns:xlink="http://www.w3.org/1999/xlink"
     xmlns:gadfly="http://www.gadflyjl.org/ns"
     version="1.2"
     width="320mm" height="180mm" viewBox="0 0 320 180"
     stroke="none"
     fill="#000000"
     stroke-width="0.3"
     font-size="3.88"
>
<defs>
  <marker id="arrow" markerWidth="15" markerHeight="7" refX="5" refY="3.5" orient="auto" markerUnits="strokeWidth">
    <path d="M0,0 L15,3.5 L0,7 z" stroke="context-stroke" fill="context-stroke"/>
  </marker>
</defs>
<g stroke="#000000" stroke-opacity="0.000" fill="#FFFFFF" id="img-dc9c270a-1">
  <g transform="translate(160,90)">
    <path d="M-160,-90 L160,-90 160,90 -160,90  z" class="primitive"/>
  </g>
</g>
<g class="plotroot yscalable" id="img-dc9c270a-2">
  <g font-size="3.88" font-family="'PT Sans','Helvetica Neue','Helvetica',sans-serif" fill="#564A55" stroke="#000000" stroke-opacity="0.000" id="img-dc9c270a-3">
    <g transform="translate(170.86,168.39)">
      <g class="primitive">
        <text text-anchor="middle" dy="0.6em">Year</text>
      </g>
    </g>
  </g>
  <g class="guide xlabels" font-size="2.82" font-family="'PT Sans Caption','Helvetica Neue','Helvetica',sans-serif" fill="#6C606B" id="img-dc9c270a-4">
    <g transform="translate(42.74,161.72)">
      <g class="primitive">
        <text text-anchor="middle" dy="0.6em">1790</text>
      </g>
    </g>
    <g transform="translate(74.77,161.72)">
      <g class="primitive">
        <text text-anchor="middle" dy="0.6em">1791</text>
      </g>
    </g>
    <g transform="translate(106.8,161.72)">
      <g class="primitive">
        <text text-anchor="middle" dy="0.6em">1792</text>
      </g>
    </g>
    <g transform="translate(138.83,161.72)">
      <g class="primitive">
        <text text-anchor="middle" dy="0.6em">1793</text>
      </g>
    </g>
    <g transform="translate(170.86,161.72)">
      <g class="primitive">
        <text text-anchor="middle" dy="0.6em">1794</text>
      </g>
    </g>
    <g transform="translate(202.89,161.72)">
      <g class="primitive">
        <text text-anchor="middle" dy="0.6em">1795</text>
      </g>
    </g>
    <g transform="translate(234.92,161.72)">
      <g class="primitive">
        <text text-anchor="middle" dy="0.6em">1796</text>
      </g>
    </g>
    <g transform="translate(266.95,161.72)">
      <g class="primitive">
        <text text-anchor="middle" dy="0.6em">1797</text>
      </g>
    </g>
    <g transform="translate(298.98,161.72)">
      <g class="primitive">
        <text text-anchor="middle" dy="0.6em">no year</text>
      </g>
    </g>
  </g>
  <g clip-path="url(#img-dc9c270a-5)">
    <g id="img-dc9c270a-6">
      <g pointer-events="visible" stroke-width="0.3" fill="#000000" fill-opacity="0.000" stroke="#000000" stroke-opacity="0.000" class="guide background" id="img-dc9c270a-7">
        <g transform="translate(170.86,85.66)" id="img-dc9c270a-8">
          <path d="M-144.14,-75.05 L144.14,-75.05 144.14,75.05 -144.14,75.05  z" class="primitive"/>
        </g>
      </g>
      <g class="guide ygridlines xfixed" stroke-dasharray="0.5,0.5" stroke-width="0.2" stroke="#D0D0E0" id="img-dc9c270a-9">
        <g transform="translate(170.86,158.72)" id="img-dc9c270a-10">
          <path fill="none" d="M-144.14,0 L144.14,0 " class="primitive"/>
        </g>
        <g transform="translate(170.86,122.19)" id="img-dc9c270a-11">
          <path fill="none" d="M-144.14,0 L144.14,0 " class="primitive"/>
        </g>
        <g transform="translate(170.86,85.66)" id="img-dc9c270a-12">
          <path fill="none" d="M-144.14,0 L144.14,0 " class="primitive"/>
        </g>
        <g transform="translate(170.86,49.14)" id="img-dc9c270a-13">
          <path fill="none" d="M-144.14,0 L144.14,0 " class="primitive"/>
        </g>
        <g transform="translate(170.86,12.61)" id="img-dc9c270a-14">
          <path fill="none" d="M-144.14,0 L144.14,0 " class="primitive"/>
        </g>
      </g>
      <g class="guide xgridlines yfixed" stroke-dasharray="0.5,0.5" stroke-width="0.2" stroke="#D0D0E0" id="img-dc9c270a-15">
        <g transform="translate(58.76,85.66)" id="img-dc9c270a-16">
          <path fill="none" d="M0,-75.05 L0,75.05 " class="primitive"/>
        </g>
        <g transform="translate(90.79,85.66)" id="img-dc9c270a-17">
          <path fill="none" d="M0,-75.05 L0,75.05 " class="primitive"/>
        </g>
        <g transform="translate(122.82,85.66)" id="img-dc9c270a-18">
          <path fill="none" d="M0,-75.05 L0,75.05 " class="primitive"/>
        </g>
        <g transform="translate(154.85,85.66)" id="img-dc9c270a-19">
          <path fill="none" d="M0,-75.05 L0,75.05 " class="primitive"/>
        </g>
        <g transform="translate(186.88,85.66)" id="img-dc9c270a-20">
          <path fill="none" d="M0,-75.05 L0,75.05 " class="primitive"/>
        </g>
        <g transform="translate(218.91,85.66)" id="img-dc9c270a-21">
          <path fill="none" d="M0,-75.05 L0,75.05 " class="primitive"/>
        </g>
        <g transform="translate(250.94,85.66)" id="img-dc9c270a-22">
          <path fill="none" d="M0,-75.05 L0,75.05 " class="primitive"/>
        </g>
        <g transform="translate(282.97,85.66)" id="img-dc9c270a-23">
          <path fill="none" d="M0,-75.05 L0,75.05 " class="primitive"/>
        </g>
      </g>
      <g class="plotpanel" id="img-dc9c270a-24">
        <metadata>
          <boundingbox value="26.725000000000023mm 10.611666666666679mm 288.275mm 150.10333333333335mm"/>
          <unitbox value="0.5 81095.11532933312 9.0 -82190.23065866625"/>
        </metadata>
        <g shape-rendering="crispEdges" stroke-width="0.3" id="img-dc9c270a-25">
          <g class="geometry" fill-opacity="1" stroke="#000000" stroke-opacity="0.000" fill="#00BFFF" id="img-dc9c270a-26">
            <g transform="translate(42.74,140.97)" id="img-dc9c270a-27">
              <path d="M-16.04,-17.74 L16.04,-17.74 16.04,17.74 -16.04,17.74  z" class="primitive"/>
            </g>
            <g transform="translate(42.74,149.92)" id="img-dc9c270a-28">
              <path d="M-16.04,-8.79 L16.04,-8.79 16.04,8.79 -16.04,8.79  z" class="primitive"/>
            </g>
            <g transform="translate(42.74,145.51)" id="img-dc9c270a-29">
              <path d="M-16.04,-13.2 L16.04,-13.2 16.04,13.2 -16.04,13.2  z" class="primitive"/>
            </g>
            <g transform="translate(42.74,153.83)" id="img-dc9c270a-30">
              <path d="M-16.04,-4.89 L16.04,-4.89 16.04,4.89 -16.04,4.89  z" class="primitive"/>
            </g>
            <g transform="translate(74.77,142.21)" id="img-dc9c270a-31">
              <path d="M-16.04,-16.5 L16.04,-16.5 16.04,16.5 -16.04,16.5  z" class="primitive"/>
            </g>
            <g transform="translate(74.77,157.78)" id="img-dc9c270a-32">
              <path d="M-16.04,-0.94 L16.04,-0.94 16.04,0.94 -16.04,0.94  z" class="primitive"/>
            </g>
            <g transform="translate(74.77,158.12)" id="img-dc9c270a-33">
              <path d="M-16.04,-0.59 L16.04,-0.59 16.04,0.59 -16.04,0.59  z" class="primitive"/>
            </g>
            <g transform="translate(74.77,157.86)" id="img-dc9c270a-34">
              <path d="M-16.04,-0.85 L16.04,-0.85 16.04,0.85 -16.04,0.85  z" class="primitive"/>
            </g>
            <g transform="translate(74.77,106.2)" id="img-dc9c270a-35">
              <path d="M-16.04,-52.52 L16.04,-52.52 16.04,52.52 -16.04,52.52  z" class="primitive"/>
            </g>
            <g transform="translate(74.77,93.68)" id="img-dc9c270a-36">
              <path d="M-16.04,-65.04 L16.04,-65.04 16.04,65.04 -16.04,65.04  z" class="primitive"/>
            </g>
            <g transform="translate(74.77,140.69)" id="img-dc9c270a-37">
              <path d="M-16.04,-18.03 L16.04,-18.03 16.04,18.03 -16.04,18.03  z" class="primitive"/>
            </g>
            <g transform="translate(74.77,119.76)" id="img-dc9c270a-38">
              <path d="M-16.04,-38.96 L16.04,-38.96 16.04,38.96 -16.04,38.96  z" class="primitive"/>
            </g>
            <g transform="translate(74.77,145.28)" id="img-dc9c270a-39">
              <path d="M-16.04,-13.44 L16.04,-13.44 16.04,13.44 -16.04,13.44  z" class="primitive"/>
            </g>
            <g transform="translate(74.77,147.68)" id="img-dc9c270a-40">
              <path d="M-16.04,-11.03 L16.04,-11.03 16.04,11.03 -16.04,11.03  z" class="primitive"/>
            </g>
            <g transform="translate(74.77,153.67)" id="img-dc9c270a-41">
              <path d="M-16.04,-5.05 L16.04,-5.05 16.04,5.05 -16.04,5.05  z" class="primitive"/>
            </g>
            <g transform="translate(74.77,108.03)" id="img-dc9c270a-42">
              <path d="M-16.04,-50.69 L16.04,-50.69 16.04,50.69 -16.04,50.69  z" class="primitive"/>
            </g>
            <g transform="translate(106.8,158.33)" id="img-dc9c270a-43">
              <path d="M-16.04,-0.39 L16.04,-0.39 16.04,0.39 -16.04,0.39  z" class="primitive"/>
            </g>
            <g transform="translate(106.8,155.5)" id="img-dc9c270a-44">
              <path d="M-16.04,-3.22 L16.04,-3.22 16.04,3.22 -16.04,3.22  z" class="primitive"/>
            </g>
            <g transform="translate(106.8,155.83)" id="img-dc9c270a-45">
              <path d="M-16.04,-2.88 L16.04,-2.88 16.04,2.88 -16.04,2.88  z" class="primitive"/>
            </g>
            <g transform="translate(106.8,157.82)" id="img-dc9c270a-46">
              <path d="M-16.04,-0.89 L16.04,-0.89 16.04,0.89 -16.04,0.89  z" class="primitive"/>
            </g>
            <g transform="translate(106.8,158.72)" id="img-dc9c270a-47">
              <path d="M-16.04,-0 L16.04,-0 16.04,0 -16.04,0  z" class="primitive"/>
            </g>
            <g transform="translate(106.8,158.72)" id="img-dc9c270a-48">
              <path d="M-16.04,-0 L16.04,-0 16.04,0 -16.04,0  z" class="primitive"/>
            </g>
            <g transform="translate(106.8,158.72)" id="img-dc9c270a-49">
              <path d="M-16.04,-0 L16.04,-0 16.04,0 -16.04,0  z" class="primitive"/>
            </g>
            <g transform="translate(106.8,156.12)" id="img-dc9c270a-50">
              <path d="M-16.04,-2.6 L16.04,-2.6 16.04,2.6 -16.04,2.6  z" class="primitive"/>
            </g>
            <g transform="translate(106.8,157.19)" id="img-dc9c270a-51">
              <path d="M-16.04,-1.52 L16.04,-1.52 16.04,1.52 -16.04,1.52  z" class="primitive"/>
            </g>
            <g transform="translate(106.8,155.76)" id="img-dc9c270a-52">
              <path d="M-16.04,-2.96 L16.04,-2.96 16.04,2.96 -16.04,2.96  z" class="primitive"/>
            </g>
            <g transform="translate(106.8,157.99)" id="img-dc9c270a-53">
              <path d="M-16.04,-0.72 L16.04,-0.72 16.04,0.72 -16.04,0.72  z" class="primitive"/>
            </g>
            <g transform="translate(138.83,158.48)" id="img-dc9c270a-54">
              <path d="M-16.04,-0.24 L16.04,-0.24 16.04,0.24 -16.04,0.24  z" class="primitive"/>
            </g>
            <g transform="translate(138.83,158.67)" id="img-dc9c270a-55">
              <path d="M-16.04,-0.05 L16.04,-0.05 16.04,0.05 -16.04,0.05  z" class="primitive"/>
            </g>
            <g transform="translate(138.83,157.66)" id="img-dc9c270a-56">
              <path d="M-16.04,-1.06 L16.04,-1.06 16.04,1.06 -16.04,1.06  z" class="primitive"/>
            </g>
            <g transform="translate(138.83,156.12)" id="img-dc9c270a-57">
              <path d="M-16.04,-2.59 L16.04,-2.59 16.04,2.59 -16.04,2.59  z" class="primitive"/>
            </g>
            <g transform="translate(138.83,157.92)" id="img-dc9c270a-58">
              <path d="M-16.04,-0.79 L16.04,-0.79 16.04,0.79 -16.04,0.79  z" class="primitive"/>
            </g>
            <g transform="translate(138.83,158.67)" id="img-dc9c270a-59">
              <path d="M-16.04,-0.05 L16.04,-0.05 16.04,0.05 -16.04,0.05  z" class="primitive"/>
            </g>
            <g transform="translate(138.83,158.44)" id="img-dc9c270a-60">
              <path d="M-16.04,-0.27 L16.04,-0.27 16.04,0.27 -16.04,0.27  z" class="primitive"/>
            </g>
            <g transform="translate(138.83,158.66)" id="img-dc9c270a-61">
              <path d="M-16.04,-0.05 L16.04,-0.05 16.04,0.05 -16.04,0.05  z" class="primitive"/>
            </g>
            <g transform="translate(138.83,157.84)" id="img-dc9c270a-62">
              <path d="M-16.04,-0.88 L16.04,-0.88 16.04,0.88 -16.04,0.88  z" class="primitive"/>
            </g>
            <g transform="translate(170.86,158.29)" id="img-dc9c270a-63">
              <path d="M-16.04,-0.42 L16.04,-0.42 16.04,0.42 -16.04,0.42  z" class="primitive"/>
            </g>
            <g transform="translate(170.86,158.51)" id="img-dc9c270a-64">
              <path d="M-16.04,-0.21 L16.04,-0.21 16.04,0.21 -16.04,0.21  z" class="primitive"/>
            </g>
            <g transform="translate(170.86,158.66)" id="img-dc9c270a-65">
              <path d="M-16.04,-0.06 L16.04,-0.06 16.04,0.06 -16.04,0.06  z" class="primitive"/>
            </g>
            <g transform="translate(170.86,158.46)" id="img-dc9c270a-66">
              <path d="M-16.04,-0.25 L16.04,-0.25 16.04,0.25 -16.04,0.25  z" class="primitive"/>
            </g>
            <g transform="translate(170.86,158.63)" id="img-dc9c270a-67">
              <path d="M-16.04,-0.09 L16.04,-0.09 16.04,0.09 -16.04,0.09  z" class="primitive"/>
            </g>
            <g transform="translate(170.86,158.12)" id="img-dc9c270a-68">
              <path d="M-16.04,-0.59 L16.04,-0.59 16.04,0.59 -16.04,0.59  z" class="primitive"/>
            </g>
            <g transform="translate(170.86,158.68)" id="img-dc9c270a-69">
              <path d="M-16.04,-0.04 L16.04,-0.04 16.04,0.04 -16.04,0.04  z" class="primitive"/>
            </g>
            <g transform="translate(170.86,158)" id="img-dc9c270a-70">
              <path d="M-16.04,-0.71 L16.04,-0.71 16.04,0.71 -16.04,0.71  z" class="primitive"/>
            </g>
            <g transform="translate(170.86,157.48)" id="img-dc9c270a-71">
              <path d="M-16.04,-1.23 L16.04,-1.23 16.04,1.23 -16.04,1.23  z" class="primitive"/>
            </g>
            <g transform="translate(202.89,158.17)" id="img-dc9c270a-72">
              <path d="M-16.04,-0.55 L16.04,-0.55 16.04,0.55 -16.04,0.55  z" class="primitive"/>
            </g>
            <g transform="translate(202.89,158.7)" id="img-dc9c270a-73">
              <path d="M-16.04,-0.02 L16.04,-0.02 16.04,0.02 -16.04,0.02  z" class="primitive"/>
            </g>
            <g transform="translate(202.89,158.34)" id="img-dc9c270a-74">
              <path d="M-16.04,-0.38 L16.04,-0.38 16.04,0.38 -16.04,0.38  z" class="primitive"/>
            </g>
            <g transform="translate(202.89,158.64)" id="img-dc9c270a-75">
              <path d="M-16.04,-0.08 L16.04,-0.08 16.04,0.08 -16.04,0.08  z" class="primitive"/>
            </g>
            <g transform="translate(202.89,158.53)" id="img-dc9c270a-76">
              <path d="M-16.04,-0.19 L16.04,-0.19 16.04,0.19 -16.04,0.19  z" class="primitive"/>
            </g>
            <g transform="translate(202.89,158.72)" id="img-dc9c270a-77">
              <path d="M-16.04,-0 L16.04,-0 16.04,0 -16.04,0  z" class="primitive"/>
            </g>
            <g transform="translate(202.89,158.65)" id="img-dc9c270a-78">
              <path d="M-16.04,-0.06 L16.04,-0.06 16.04,0.06 -16.04,0.06  z" class="primitive"/>
            </g>
            <g transform="translate(202.89,158.7)" id="img-dc9c270a-79">
              <path d="M-16.04,-0.01 L16.04,-0.01 16.04,0.01 -16.04,0.01  z" class="primitive"/>
            </g>
            <g transform="translate(202.89,158.08)" id="img-dc9c270a-80">
              <path d="M-16.04,-0.63 L16.04,-0.63 16.04,0.63 -16.04,0.63  z" class="primitive"/>
            </g>
            <g transform="translate(202.89,158.63)" id="img-dc9c270a-81">
              <path d="M-16.04,-0.08 L16.04,-0.08 16.04,0.08 -16.04,0.08  z" class="primitive"/>
            </g>
            <g transform="translate(202.89,158.49)" id="img-dc9c270a-82">
              <path d="M-16.04,-0.22 L16.04,-0.22 16.04,0.22 -16.04,0.22  z" class="primitive"/>
            </g>
            <g transform="translate(234.92,158.65)" id="img-dc9c270a-83">
              <path d="M-16.04,-0.06 L16.04,-0.06 16.04,0.06 -16.04,0.06  z" class="primitive"/>
            </g>
            <g transform="translate(234.92,157.01)" id="img-dc9c270a-84">
              <path d="M-16.04,-1.71 L16.04,-1.71 16.04,1.71 -16.04,1.71  z" class="primitive"/>
            </g>
            <g transform="translate(234.92,158.72)" id="img-dc9c270a-85">
              <path d="M-16.04,-0 L16.04,-0 16.04,0 -16.04,0  z" class="primitive"/>
            </g>
            <g transform="translate(234.92,158.39)" id="img-dc9c270a-86">
              <path d="M-16.04,-0.32 L16.04,-0.32 16.04,0.32 -16.04,0.32  z" class="primitive"/>
            </g>
            <g transform="translate(234.92,158.65)" id="img-dc9c270a-87">
              <path d="M-16.04,-0.06 L16.04,-0.06 16.04,0.06 -16.04,0.06  z" class="primitive"/>
            </g>
            <g transform="translate(234.92,157.11)" id="img-dc9c270a-88">
              <path d="M-16.04,-1.6 L16.04,-1.6 16.04,1.6 -16.04,1.6  z" class="primitive"/>
            </g>
            <g transform="translate(234.92,158.08)" id="img-dc9c270a-89">
              <path d="M-16.04,-0.63 L16.04,-0.63 16.04,0.63 -16.04,0.63  z" class="primitive"/>
            </g>
            <g transform="translate(234.92,158.61)" id="img-dc9c270a-90">
              <path d="M-16.04,-0.1 L16.04,-0.1 16.04,0.1 -16.04,0.1  z" class="primitive"/>
            </g>
            <g transform="translate(234.92,157.86)" id="img-dc9c270a-91">
              <path d="M-16.04,-0.85 L16.04,-0.85 16.04,0.85 -16.04,0.85  z" class="primitive"/>
            </g>
            <g transform="translate(266.95,158.7)" id="img-dc9c270a-92">
              <path d="M-16.04,-0.01 L16.04,-0.01 16.04,0.01 -16.04,0.01  z" class="primitive"/>
            </g>
            <g transform="translate(298.98,121.87)" id="img-dc9c270a-93">
              <path d="M-16.04,-36.85 L16.04,-36.85 16.04,36.85 -16.04,36.85  z" class="primitive"/>
            </g>
          </g>
        </g>
      </g>
    </g>
  </g>
  <g class="guide ylabels" font-size="2.82" font-family="'PT Sans Caption','Helvetica Neue','Helvetica',sans-serif" fill="#6C606B" id="img-dc9c270a-94">
    <g transform="translate(25.72,158.72)" id="img-dc9c270a-95">
      <g class="primitive">
        <text text-anchor="end" dy="0.35em">0</text>
      </g>
    </g>
    <g transform="translate(25.72,122.19)" id="img-dc9c270a-96">
      <g class="primitive">
        <text text-anchor="end" dy="0.35em">2.0×10⁴</text>
      </g>
    </g>
    <g transform="translate(25.72,85.66)" id="img-dc9c270a-97">
      <g class="primitive">
        <text text-anchor="end" dy="0.35em">4.0×10⁴</text>
      </g>
    </g>
    <g transform="translate(25.72,49.14)" id="img-dc9c270a-98">
      <g class="primitive">
        <text text-anchor="end" dy="0.35em">6.0×10⁴</text>
      </g>
    </g>
    <g transform="translate(25.72,12.61)" id="img-dc9c270a-99">
      <g class="primitive">
        <text text-anchor="end" dy="0.35em">8.0×10⁴</text>
      </g>
    </g>
  </g>
  <g font-size="3.88" font-family="'PT Sans','Helvetica Neue','Helvetica',sans-serif" fill="#564A55" stroke="#000000" stroke-opacity="0.000" id="img-dc9c270a-100">
    <g transform="translate(8.81,83.66)" id="img-dc9c270a-101">
      <g class="primitive">
        <text text-anchor="middle" dy="0.35em" transform="rotate(-90,0, 2)">Total Debt (in dollars)</text>
      </g>
    </g>
  </g>
  <g font-size="3.88" font-family="'PT Sans','Helvetica Neue','Helvetica',sans-serif" fill="#564A55" stroke="#000000" stroke-opacity="0.000" id="img-dc9c270a-102">
    <g transform="translate(170.86,5)" id="img-dc9c270a-103">
      <g class="primitive">
        <text text-anchor="middle" dy="0.6em">VA Debt Redeemed Per Year</text>
      </g>
    </g>
  </g>
</g>
<defs>
  <clipPath id="img-dc9c270a-5">
    <path d="M26.73,10.61 L315,10.61 315,160.72 26.73,160.72 " />
  </clipPath>
</defs>
</svg>
