<?xml version="1.0" encoding="UTF-8"?>
<svg xmlns="http://www.w3.org/2000/svg"
     xmlns:xlink="http://www.w3.org/1999/xlink"
     xmlns:gadfly="http://www.gadflyjl.org/ns"
     version="1.2"
     width="320mm" height="180mm" viewBox="0 0 320 180"
     stroke="none"
     fill="#000000"
     stroke-width="0.3"
     font-size="3.88"
>
<defs>
  <marker id="arrow" markerWidth="15" markerHeight="7" refX="5" refY="3.5" orient="auto" markerUnits="strokeWidth">
    <path d="M0,0 L15,3.5 L0,7 z" stroke="context-stroke" fill="context-stroke"/>
  </marker>
</defs>
<g stroke="#000000" stroke-opacity="0.000" fill="#FFFFFF" id="img-f1d03ec7-1">
  <g transform="translate(160,90)">
    <path d="M-160,-90 L160,-90 160,90 -160,90  z" class="primitive"/>
  </g>
</g>
<g class="plotroot yscalable" id="img-f1d03ec7-2">
  <g font-size="3.88" font-family="'PT Sans','Helvetica Neue','Helvetica',sans-serif" fill="#564A55" stroke="#000000" stroke-opacity="0.000" id="img-f1d03ec7-3">
    <g transform="translate(171.7,168.39)">
      <g class="primitive">
        <text text-anchor="middle" dy="0.6em">Year</text>
      </g>
    </g>
  </g>
  <g class="guide xlabels" font-size="2.82" font-family="'PT Sans Caption','Helvetica Neue','Helvetica',sans-serif" fill="#6C606B" id="img-f1d03ec7-4">
    <g transform="translate(30.87,139.36)">
      <g class="primitive">
        <text text-anchor="end" dy="0.35em" transform="rotate(-90,0, 0)">1790-10</text>
      </g>
    </g>
    <g transform="translate(35.81,139.36)">
      <g class="primitive">
        <text text-anchor="end" dy="0.35em" transform="rotate(-90,0, 0)">1790-11</text>
      </g>
    </g>
    <g transform="translate(40.75,139.36)">
      <g class="primitive">
        <text text-anchor="end" dy="0.35em" transform="rotate(-90,0, 0)">1790-12</text>
      </g>
    </g>
    <g transform="translate(45.69,139.36)">
      <g class="primitive">
        <text text-anchor="end" dy="0.35em" transform="rotate(-90,0, 0)">1791-1</text>
      </g>
    </g>
    <g transform="translate(50.63,139.36)">
      <g class="primitive">
        <text text-anchor="end" dy="0.35em" transform="rotate(-90,0, 0)">1791-10</text>
      </g>
    </g>
    <g transform="translate(55.58,139.36)">
      <g class="primitive">
        <text text-anchor="end" dy="0.35em" transform="rotate(-90,0, 0)">1791-11</text>
      </g>
    </g>
    <g transform="translate(60.52,139.36)">
      <g class="primitive">
        <text text-anchor="end" dy="0.35em" transform="rotate(-90,0, 0)">1791-12</text>
      </g>
    </g>
    <g transform="translate(65.46,139.36)">
      <g class="primitive">
        <text text-anchor="end" dy="0.35em" transform="rotate(-90,0, 0)">1791-2</text>
      </g>
    </g>
    <g transform="translate(70.4,139.36)">
      <g class="primitive">
        <text text-anchor="end" dy="0.35em" transform="rotate(-90,0, 0)">1791-3</text>
      </g>
    </g>
    <g transform="translate(75.34,139.36)">
      <g class="primitive">
        <text text-anchor="end" dy="0.35em" transform="rotate(-90,0, 0)">1791-4</text>
      </g>
    </g>
    <g transform="translate(80.28,139.36)">
      <g class="primitive">
        <text text-anchor="end" dy="0.35em" transform="rotate(-90,0, 0)">1791-5</text>
      </g>
    </g>
    <g transform="translate(85.22,139.36)">
      <g class="primitive">
        <text text-anchor="end" dy="0.35em" transform="rotate(-90,0, 0)">1791-6</text>
      </g>
    </g>
    <g transform="translate(90.17,139.36)">
      <g class="primitive">
        <text text-anchor="end" dy="0.35em" transform="rotate(-90,0, 0)">1791-7</text>
      </g>
    </g>
    <g transform="translate(95.11,139.36)">
      <g class="primitive">
        <text text-anchor="end" dy="0.35em" transform="rotate(-90,0, 0)">1791-8</text>
      </g>
    </g>
    <g transform="translate(100.05,139.36)">
      <g class="primitive">
        <text text-anchor="end" dy="0.35em" transform="rotate(-90,0, 0)">1791-9</text>
      </g>
    </g>
    <g transform="translate(104.99,139.36)">
      <g class="primitive">
        <text text-anchor="end" dy="0.35em" transform="rotate(-90,0, 0)">1792-1</text>
      </g>
    </g>
    <g transform="translate(109.93,139.36)">
      <g class="primitive">
        <text text-anchor="end" dy="0.35em" transform="rotate(-90,0, 0)">1792-10</text>
      </g>
    </g>
    <g transform="translate(114.87,139.36)">
      <g class="primitive">
        <text text-anchor="end" dy="0.35em" transform="rotate(-90,0, 0)">1792-11</text>
      </g>
    </g>
    <g transform="translate(119.81,139.36)">
      <g class="primitive">
        <text text-anchor="end" dy="0.35em" transform="rotate(-90,0, 0)">1792-12</text>
      </g>
    </g>
    <g transform="translate(124.76,139.36)">
      <g class="primitive">
        <text text-anchor="end" dy="0.35em" transform="rotate(-90,0, 0)">1792-2</text>
      </g>
    </g>
    <g transform="translate(129.7,139.36)">
      <g class="primitive">
        <text text-anchor="end" dy="0.35em" transform="rotate(-90,0, 0)">1792-6</text>
      </g>
    </g>
    <g transform="translate(134.64,139.36)">
      <g class="primitive">
        <text text-anchor="end" dy="0.35em" transform="rotate(-90,0, 0)">1792-7</text>
      </g>
    </g>
    <g transform="translate(139.58,139.36)">
      <g class="primitive">
        <text text-anchor="end" dy="0.35em" transform="rotate(-90,0, 0)">1792-8</text>
      </g>
    </g>
    <g transform="translate(144.52,139.36)">
      <g class="primitive">
        <text text-anchor="end" dy="0.35em" transform="rotate(-90,0, 0)">1792-9</text>
      </g>
    </g>
    <g transform="translate(149.46,139.36)">
      <g class="primitive">
        <text text-anchor="end" dy="0.35em" transform="rotate(-90,0, 0)">1793-1</text>
      </g>
    </g>
    <g transform="translate(154.4,139.36)">
      <g class="primitive">
        <text text-anchor="end" dy="0.35em" transform="rotate(-90,0, 0)">1793-10</text>
      </g>
    </g>
    <g transform="translate(159.35,139.36)">
      <g class="primitive">
        <text text-anchor="end" dy="0.35em" transform="rotate(-90,0, 0)">1793-11</text>
      </g>
    </g>
    <g transform="translate(164.29,139.36)">
      <g class="primitive">
        <text text-anchor="end" dy="0.35em" transform="rotate(-90,0, 0)">1793-2</text>
      </g>
    </g>
    <g transform="translate(169.23,139.36)">
      <g class="primitive">
        <text text-anchor="end" dy="0.35em" transform="rotate(-90,0, 0)">1793-3</text>
      </g>
    </g>
    <g transform="translate(174.17,139.36)">
      <g class="primitive">
        <text text-anchor="end" dy="0.35em" transform="rotate(-90,0, 0)">1793-4</text>
      </g>
    </g>
    <g transform="translate(179.11,139.36)">
      <g class="primitive">
        <text text-anchor="end" dy="0.35em" transform="rotate(-90,0, 0)">1793-5</text>
      </g>
    </g>
    <g transform="translate(184.05,139.36)">
      <g class="primitive">
        <text text-anchor="end" dy="0.35em" transform="rotate(-90,0, 0)">1793-6</text>
      </g>
    </g>
    <g transform="translate(188.99,139.36)">
      <g class="primitive">
        <text text-anchor="end" dy="0.35em" transform="rotate(-90,0, 0)">1793-8</text>
      </g>
    </g>
    <g transform="translate(193.94,139.36)">
      <g class="primitive">
        <text text-anchor="end" dy="0.35em" transform="rotate(-90,0, 0)">1793-9</text>
      </g>
    </g>
    <g transform="translate(198.88,139.36)">
      <g class="primitive">
        <text text-anchor="end" dy="0.35em" transform="rotate(-90,0, 0)">1794-1</text>
      </g>
    </g>
    <g transform="translate(203.82,139.36)">
      <g class="primitive">
        <text text-anchor="end" dy="0.35em" transform="rotate(-90,0, 0)">1794-10</text>
      </g>
    </g>
    <g transform="translate(208.76,139.36)">
      <g class="primitive">
        <text text-anchor="end" dy="0.35em" transform="rotate(-90,0, 0)">1794-11</text>
      </g>
    </g>
    <g transform="translate(213.7,139.36)">
      <g class="primitive">
        <text text-anchor="end" dy="0.35em" transform="rotate(-90,0, 0)">1794-12</text>
      </g>
    </g>
    <g transform="translate(218.64,139.36)">
      <g class="primitive">
        <text text-anchor="end" dy="0.35em" transform="rotate(-90,0, 0)">1794-3</text>
      </g>
    </g>
    <g transform="translate(223.58,139.36)">
      <g class="primitive">
        <text text-anchor="end" dy="0.35em" transform="rotate(-90,0, 0)">1794-4</text>
      </g>
    </g>
    <g transform="translate(228.53,139.36)">
      <g class="primitive">
        <text text-anchor="end" dy="0.35em" transform="rotate(-90,0, 0)">1794-5</text>
      </g>
    </g>
    <g transform="translate(233.47,139.36)">
      <g class="primitive">
        <text text-anchor="end" dy="0.35em" transform="rotate(-90,0, 0)">1794-6</text>
      </g>
    </g>
    <g transform="translate(238.41,139.36)">
      <g class="primitive">
        <text text-anchor="end" dy="0.35em" transform="rotate(-90,0, 0)">1794-8</text>
      </g>
    </g>
    <g transform="translate(243.35,139.36)">
      <g class="primitive">
        <text text-anchor="end" dy="0.35em" transform="rotate(-90,0, 0)">1794-9</text>
      </g>
    </g>
    <g transform="translate(248.29,139.36)">
      <g class="primitive">
        <text text-anchor="end" dy="0.35em" transform="rotate(-90,0, 0)">1795-1</text>
      </g>
    </g>
    <g transform="translate(253.23,139.36)">
      <g class="primitive">
        <text text-anchor="end" dy="0.35em" transform="rotate(-90,0, 0)">1795-11</text>
      </g>
    </g>
    <g transform="translate(258.17,139.36)">
      <g class="primitive">
        <text text-anchor="end" dy="0.35em" transform="rotate(-90,0, 0)">1795-3</text>
      </g>
    </g>
    <g transform="translate(263.12,139.36)">
      <g class="primitive">
        <text text-anchor="end" dy="0.35em" transform="rotate(-90,0, 0)">1795-5</text>
      </g>
    </g>
    <g transform="translate(268.06,139.36)">
      <g class="primitive">
        <text text-anchor="end" dy="0.35em" transform="rotate(-90,0, 0)">1795-7</text>
      </g>
    </g>
    <g transform="translate(273,139.36)">
      <g class="primitive">
        <text text-anchor="end" dy="0.35em" transform="rotate(-90,0, 0)">1795-8</text>
      </g>
    </g>
    <g transform="translate(277.94,139.36)">
      <g class="primitive">
        <text text-anchor="end" dy="0.35em" transform="rotate(-90,0, 0)">1796-1</text>
      </g>
    </g>
    <g transform="translate(282.88,139.36)">
      <g class="primitive">
        <text text-anchor="end" dy="0.35em" transform="rotate(-90,0, 0)">1796-10</text>
      </g>
    </g>
    <g transform="translate(287.82,139.36)">
      <g class="primitive">
        <text text-anchor="end" dy="0.35em" transform="rotate(-90,0, 0)">1796-12</text>
      </g>
    </g>
    <g transform="translate(292.76,139.36)">
      <g class="primitive">
        <text text-anchor="end" dy="0.35em" transform="rotate(-90,0, 0)">1796-5</text>
      </g>
    </g>
    <g transform="translate(297.71,139.36)">
      <g class="primitive">
        <text text-anchor="end" dy="0.35em" transform="rotate(-90,0, 0)">1796-6</text>
      </g>
    </g>
    <g transform="translate(302.65,139.36)">
      <g class="primitive">
        <text text-anchor="end" dy="0.35em" transform="rotate(-90,0, 0)">1796-7</text>
      </g>
    </g>
    <g transform="translate(307.59,139.36)">
      <g class="primitive">
        <text text-anchor="end" dy="0.35em" transform="rotate(-90,0, 0)">1797-2</text>
      </g>
    </g>
    <g transform="translate(312.53,139.36)">
      <g class="primitive">
        <text text-anchor="end" dy="0.35em" transform="rotate(-90,0, 0)">no year-no month</text>
      </g>
    </g>
  </g>
  <g clip-path="url(#img-f1d03ec7-5)">
    <g id="img-f1d03ec7-6">
      <g pointer-events="visible" stroke-width="0.3" fill="#000000" fill-opacity="0.000" stroke="#000000" stroke-opacity="0.000" class="guide background" id="img-f1d03ec7-7">
        <g transform="translate(171.7,74.48)" id="img-f1d03ec7-8">
          <path d="M-143.3,-63.87 L143.3,-63.87 143.3,63.87 -143.3,63.87  z" class="primitive"/>
        </g>
      </g>
      <g class="guide ygridlines xfixed" stroke-dasharray="0.5,0.5" stroke-width="0.2" stroke="#D0D0E0" id="img-f1d03ec7-9">
        <g transform="translate(171.7,136.36)" id="img-f1d03ec7-10">
          <path fill="none" d="M-143.3,0 L143.3,0 " class="primitive"/>
        </g>
        <g transform="translate(171.7,95.11)" id="img-f1d03ec7-11">
          <path fill="none" d="M-143.3,0 L143.3,0 " class="primitive"/>
        </g>
        <g transform="translate(171.7,53.86)" id="img-f1d03ec7-12">
          <path fill="none" d="M-143.3,0 L143.3,0 " class="primitive"/>
        </g>
        <g transform="translate(171.7,12.61)" id="img-f1d03ec7-13">
          <path fill="none" d="M-143.3,0 L143.3,0 " class="primitive"/>
        </g>
      </g>
      <g class="guide xgridlines yfixed" stroke-dasharray="0.5,0.5" stroke-width="0.2" stroke="#D0D0E0" id="img-f1d03ec7-14">
        <g transform="translate(33.34,74.48)" id="img-f1d03ec7-15">
          <path fill="none" d="M0,-63.87 L0,63.87 " class="primitive"/>
        </g>
        <g transform="translate(38.28,74.48)" id="img-f1d03ec7-16">
          <path fill="none" d="M0,-63.87 L0,63.87 " class="primitive"/>
        </g>
        <g transform="translate(43.22,74.48)" id="img-f1d03ec7-17">
          <path fill="none" d="M0,-63.87 L0,63.87 " class="primitive"/>
        </g>
        <g transform="translate(48.16,74.48)" id="img-f1d03ec7-18">
          <path fill="none" d="M0,-63.87 L0,63.87 " class="primitive"/>
        </g>
        <g transform="translate(53.11,74.48)" id="img-f1d03ec7-19">
          <path fill="none" d="M0,-63.87 L0,63.87 " class="primitive"/>
        </g>
        <g transform="translate(58.05,74.48)" id="img-f1d03ec7-20">
          <path fill="none" d="M0,-63.87 L0,63.87 " class="primitive"/>
        </g>
        <g transform="translate(62.99,74.48)" id="img-f1d03ec7-21">
          <path fill="none" d="M0,-63.87 L0,63.87 " class="primitive"/>
        </g>
        <g transform="translate(67.93,74.48)" id="img-f1d03ec7-22">
          <path fill="none" d="M0,-63.87 L0,63.87 " class="primitive"/>
        </g>
        <g transform="translate(72.87,74.48)" id="img-f1d03ec7-23">
          <path fill="none" d="M0,-63.87 L0,63.87 " class="primitive"/>
        </g>
        <g transform="translate(77.81,74.48)" id="img-f1d03ec7-24">
          <path fill="none" d="M0,-63.87 L0,63.87 " class="primitive"/>
        </g>
        <g transform="translate(82.75,74.48)" id="img-f1d03ec7-25">
          <path fill="none" d="M0,-63.87 L0,63.87 " class="primitive"/>
        </g>
        <g transform="translate(87.7,74.48)" id="img-f1d03ec7-26">
          <path fill="none" d="M0,-63.87 L0,63.87 " class="primitive"/>
        </g>
        <g transform="translate(92.64,74.48)" id="img-f1d03ec7-27">
          <path fill="none" d="M0,-63.87 L0,63.87 " class="primitive"/>
        </g>
        <g transform="translate(97.58,74.48)" id="img-f1d03ec7-28">
          <path fill="none" d="M0,-63.87 L0,63.87 " class="primitive"/>
        </g>
        <g transform="translate(102.52,74.48)" id="img-f1d03ec7-29">
          <path fill="none" d="M0,-63.87 L0,63.87 " class="primitive"/>
        </g>
        <g transform="translate(107.46,74.48)" id="img-f1d03ec7-30">
          <path fill="none" d="M0,-63.87 L0,63.87 " class="primitive"/>
        </g>
        <g transform="translate(112.4,74.48)" id="img-f1d03ec7-31">
          <path fill="none" d="M0,-63.87 L0,63.87 " class="primitive"/>
        </g>
        <g transform="translate(117.34,74.48)" id="img-f1d03ec7-32">
          <path fill="none" d="M0,-63.87 L0,63.87 " class="primitive"/>
        </g>
        <g transform="translate(122.29,74.48)" id="img-f1d03ec7-33">
          <path fill="none" d="M0,-63.87 L0,63.87 " class="primitive"/>
        </g>
        <g transform="translate(127.23,74.48)" id="img-f1d03ec7-34">
          <path fill="none" d="M0,-63.87 L0,63.87 " class="primitive"/>
        </g>
        <g transform="translate(132.17,74.48)" id="img-f1d03ec7-35">
          <path fill="none" d="M0,-63.87 L0,63.87 " class="primitive"/>
        </g>
        <g transform="translate(137.11,74.48)" id="img-f1d03ec7-36">
          <path fill="none" d="M0,-63.87 L0,63.87 " class="primitive"/>
        </g>
        <g transform="translate(142.05,74.48)" id="img-f1d03ec7-37">
          <path fill="none" d="M0,-63.87 L0,63.87 " class="primitive"/>
        </g>
        <g transform="translate(146.99,74.48)" id="img-f1d03ec7-38">
          <path fill="none" d="M0,-63.87 L0,63.87 " class="primitive"/>
        </g>
        <g transform="translate(151.93,74.48)" id="img-f1d03ec7-39">
          <path fill="none" d="M0,-63.87 L0,63.87 " class="primitive"/>
        </g>
        <g transform="translate(156.87,74.48)" id="img-f1d03ec7-40">
          <path fill="none" d="M0,-63.87 L0,63.87 " class="primitive"/>
        </g>
        <g transform="translate(161.82,74.48)" id="img-f1d03ec7-41">
          <path fill="none" d="M0,-63.87 L0,63.87 " class="primitive"/>
        </g>
        <g transform="translate(166.76,74.48)" id="img-f1d03ec7-42">
          <path fill="none" d="M0,-63.87 L0,63.87 " class="primitive"/>
        </g>
        <g transform="translate(171.7,74.48)" id="img-f1d03ec7-43">
          <path fill="none" d="M0,-63.87 L0,63.87 " class="primitive"/>
        </g>
        <g transform="translate(176.64,74.48)" id="img-f1d03ec7-44">
          <path fill="none" d="M0,-63.87 L0,63.87 " class="primitive"/>
        </g>
        <g transform="translate(181.58,74.48)" id="img-f1d03ec7-45">
          <path fill="none" d="M0,-63.87 L0,63.87 " class="primitive"/>
        </g>
        <g transform="translate(186.52,74.48)" id="img-f1d03ec7-46">
          <path fill="none" d="M0,-63.87 L0,63.87 " class="primitive"/>
        </g>
        <g transform="translate(191.46,74.48)" id="img-f1d03ec7-47">
          <path fill="none" d="M0,-63.87 L0,63.87 " class="primitive"/>
        </g>
        <g transform="translate(196.41,74.48)" id="img-f1d03ec7-48">
          <path fill="none" d="M0,-63.87 L0,63.87 " class="primitive"/>
        </g>
        <g transform="translate(201.35,74.48)" id="img-f1d03ec7-49">
          <path fill="none" d="M0,-63.87 L0,63.87 " class="primitive"/>
        </g>
        <g transform="translate(206.29,74.48)" id="img-f1d03ec7-50">
          <path fill="none" d="M0,-63.87 L0,63.87 " class="primitive"/>
        </g>
        <g transform="translate(211.23,74.48)" id="img-f1d03ec7-51">
          <path fill="none" d="M0,-63.87 L0,63.87 " class="primitive"/>
        </g>
        <g transform="translate(216.17,74.48)" id="img-f1d03ec7-52">
          <path fill="none" d="M0,-63.87 L0,63.87 " class="primitive"/>
        </g>
        <g transform="translate(221.11,74.48)" id="img-f1d03ec7-53">
          <path fill="none" d="M0,-63.87 L0,63.87 " class="primitive"/>
        </g>
        <g transform="translate(226.05,74.48)" id="img-f1d03ec7-54">
          <path fill="none" d="M0,-63.87 L0,63.87 " class="primitive"/>
        </g>
        <g transform="translate(231,74.48)" id="img-f1d03ec7-55">
          <path fill="none" d="M0,-63.87 L0,63.87 " class="primitive"/>
        </g>
        <g transform="translate(235.94,74.48)" id="img-f1d03ec7-56">
          <path fill="none" d="M0,-63.87 L0,63.87 " class="primitive"/>
        </g>
        <g transform="translate(240.88,74.48)" id="img-f1d03ec7-57">
          <path fill="none" d="M0,-63.87 L0,63.87 " class="primitive"/>
        </g>
        <g transform="translate(245.82,74.48)" id="img-f1d03ec7-58">
          <path fill="none" d="M0,-63.87 L0,63.87 " class="primitive"/>
        </g>
        <g transform="translate(250.76,74.48)" id="img-f1d03ec7-59">
          <path fill="none" d="M0,-63.87 L0,63.87 " class="primitive"/>
        </g>
        <g transform="translate(255.7,74.48)" id="img-f1d03ec7-60">
          <path fill="none" d="M0,-63.87 L0,63.87 " class="primitive"/>
        </g>
        <g transform="translate(260.64,74.48)" id="img-f1d03ec7-61">
          <path fill="none" d="M0,-63.87 L0,63.87 " class="primitive"/>
        </g>
        <g transform="translate(265.59,74.48)" id="img-f1d03ec7-62">
          <path fill="none" d="M0,-63.87 L0,63.87 " class="primitive"/>
        </g>
        <g transform="translate(270.53,74.48)" id="img-f1d03ec7-63">
          <path fill="none" d="M0,-63.87 L0,63.87 " class="primitive"/>
        </g>
        <g transform="translate(275.47,74.48)" id="img-f1d03ec7-64">
          <path fill="none" d="M0,-63.87 L0,63.87 " class="primitive"/>
        </g>
        <g transform="translate(280.41,74.48)" id="img-f1d03ec7-65">
          <path fill="none" d="M0,-63.87 L0,63.87 " class="primitive"/>
        </g>
        <g transform="translate(285.35,74.48)" id="img-f1d03ec7-66">
          <path fill="none" d="M0,-63.87 L0,63.87 " class="primitive"/>
        </g>
        <g transform="translate(290.29,74.48)" id="img-f1d03ec7-67">
          <path fill="none" d="M0,-63.87 L0,63.87 " class="primitive"/>
        </g>
        <g transform="translate(295.23,74.48)" id="img-f1d03ec7-68">
          <path fill="none" d="M0,-63.87 L0,63.87 " class="primitive"/>
        </g>
        <g transform="translate(300.18,74.48)" id="img-f1d03ec7-69">
          <path fill="none" d="M0,-63.87 L0,63.87 " class="primitive"/>
        </g>
        <g transform="translate(305.12,74.48)" id="img-f1d03ec7-70">
          <path fill="none" d="M0,-63.87 L0,63.87 " class="primitive"/>
        </g>
        <g transform="translate(310.06,74.48)" id="img-f1d03ec7-71">
          <path fill="none" d="M0,-63.87 L0,63.87 " class="primitive"/>
        </g>
      </g>
      <g class="plotpanel" id="img-f1d03ec7-72">
        <metadata>
          <boundingbox value="28.39833333333337mm 10.611666666666665mm 286.6016666666667mm 127.74333333333333mm"/>
          <unitbox value="0.5 152424.3730301969 58.0 -154848.7460603938"/>
        </metadata>
        <g shape-rendering="crispEdges" stroke-width="0.3" id="img-f1d03ec7-73">
          <g class="geometry" fill-opacity="1" stroke="#000000" stroke-opacity="0.000" fill="#00BFFF" id="img-f1d03ec7-74">
            <g transform="translate(30.87,118.65)" id="img-f1d03ec7-75">
              <path d="M-2.5,-17.7 L2.5,-17.7 2.5,17.7 -2.5,17.7  z" class="primitive"/>
            </g>
            <g transform="translate(35.81,118.51)" id="img-f1d03ec7-76">
              <path d="M-2.5,-17.84 L2.5,-17.84 2.5,17.84 -2.5,17.84  z" class="primitive"/>
            </g>
            <g transform="translate(40.75,122.9)" id="img-f1d03ec7-77">
              <path d="M-2.5,-13.45 L2.5,-13.45 2.5,13.45 -2.5,13.45  z" class="primitive"/>
            </g>
            <g transform="translate(45.69,122.33)" id="img-f1d03ec7-78">
              <path d="M-2.5,-14.03 L2.5,-14.03 2.5,14.03 -2.5,14.03  z" class="primitive"/>
            </g>
            <g transform="translate(50.63,135.99)" id="img-f1d03ec7-79">
              <path d="M-2.5,-0.37 L2.5,-0.37 2.5,0.37 -2.5,0.37  z" class="primitive"/>
            </g>
            <g transform="translate(55.58,136.26)" id="img-f1d03ec7-80">
              <path d="M-2.5,-0.1 L2.5,-0.1 2.5,0.1 -2.5,0.1  z" class="primitive"/>
            </g>
            <g transform="translate(60.52,135.67)" id="img-f1d03ec7-81">
              <path d="M-2.5,-0.68 L2.5,-0.68 2.5,0.68 -2.5,0.68  z" class="primitive"/>
            </g>
            <g transform="translate(65.46,114.26)" id="img-f1d03ec7-82">
              <path d="M-2.5,-22.1 L2.5,-22.1 2.5,22.1 -2.5,22.1  z" class="primitive"/>
            </g>
            <g transform="translate(70.4,121.78)" id="img-f1d03ec7-83">
              <path d="M-2.5,-14.57 L2.5,-14.57 2.5,14.57 -2.5,14.57  z" class="primitive"/>
            </g>
            <g transform="translate(75.34,133.74)" id="img-f1d03ec7-84">
              <path d="M-2.5,-2.62 L2.5,-2.62 2.5,2.62 -2.5,2.62  z" class="primitive"/>
            </g>
            <g transform="translate(80.28,127.75)" id="img-f1d03ec7-85">
              <path d="M-2.5,-8.6 L2.5,-8.6 2.5,8.6 -2.5,8.6  z" class="primitive"/>
            </g>
            <g transform="translate(85.22,132.49)" id="img-f1d03ec7-86">
              <path d="M-2.5,-3.86 L2.5,-3.86 2.5,3.86 -2.5,3.86  z" class="primitive"/>
            </g>
            <g transform="translate(90.17,135.16)" id="img-f1d03ec7-87">
              <path d="M-2.5,-1.19 L2.5,-1.19 2.5,1.19 -2.5,1.19  z" class="primitive"/>
            </g>
            <g transform="translate(95.11,129.8)" id="img-f1d03ec7-88">
              <path d="M-2.5,-6.55 L2.5,-6.55 2.5,6.55 -2.5,6.55  z" class="primitive"/>
            </g>
            <g transform="translate(100.05,118.54)" id="img-f1d03ec7-89">
              <path d="M-2.5,-17.81 L2.5,-17.81 2.5,17.81 -2.5,17.81  z" class="primitive"/>
            </g>
            <g transform="translate(104.99,136.12)" id="img-f1d03ec7-90">
              <path d="M-2.5,-0.23 L2.5,-0.23 2.5,0.23 -2.5,0.23  z" class="primitive"/>
            </g>
            <g transform="translate(109.93,136.36)" id="img-f1d03ec7-91">
              <path d="M-2.5,-0 L2.5,-0 2.5,0 -2.5,0  z" class="primitive"/>
            </g>
            <g transform="translate(114.87,136.01)" id="img-f1d03ec7-92">
              <path d="M-2.5,-0.34 L2.5,-0.34 2.5,0.34 -2.5,0.34  z" class="primitive"/>
            </g>
            <g transform="translate(119.81,136.33)" id="img-f1d03ec7-93">
              <path d="M-2.5,-0.03 L2.5,-0.03 2.5,0.03 -2.5,0.03  z" class="primitive"/>
            </g>
            <g transform="translate(124.76,136.13)" id="img-f1d03ec7-94">
              <path d="M-2.5,-0.22 L2.5,-0.22 2.5,0.22 -2.5,0.22  z" class="primitive"/>
            </g>
            <g transform="translate(129.7,136.36)" id="img-f1d03ec7-95">
              <path d="M-2.5,-0 L2.5,-0 2.5,0 -2.5,0  z" class="primitive"/>
            </g>
            <g transform="translate(134.64,136.25)" id="img-f1d03ec7-96">
              <path d="M-2.5,-0.11 L2.5,-0.11 2.5,0.11 -2.5,0.11  z" class="primitive"/>
            </g>
            <g transform="translate(139.58,136.36)" id="img-f1d03ec7-97">
              <path d="M-2.5,-0 L2.5,-0 2.5,0 -2.5,0  z" class="primitive"/>
            </g>
            <g transform="translate(144.52,136.36)" id="img-f1d03ec7-98">
              <path d="M-2.5,-0 L2.5,-0 2.5,0 -2.5,0  z" class="primitive"/>
            </g>
            <g transform="translate(149.46,135.78)" id="img-f1d03ec7-99">
              <path d="M-2.5,-0.58 L2.5,-0.58 2.5,0.58 -2.5,0.58  z" class="primitive"/>
            </g>
            <g transform="translate(154.4,136.33)" id="img-f1d03ec7-100">
              <path d="M-2.5,-0.02 L2.5,-0.02 2.5,0.02 -2.5,0.02  z" class="primitive"/>
            </g>
            <g transform="translate(159.35,136.36)" id="img-f1d03ec7-101">
              <path d="M-2.5,-0 L2.5,-0 2.5,0 -2.5,0  z" class="primitive"/>
            </g>
            <g transform="translate(164.29,135.81)" id="img-f1d03ec7-102">
              <path d="M-2.5,-0.54 L2.5,-0.54 2.5,0.54 -2.5,0.54  z" class="primitive"/>
            </g>
            <g transform="translate(169.23,136.35)" id="img-f1d03ec7-103">
              <path d="M-2.5,-0.01 L2.5,-0.01 2.5,0.01 -2.5,0.01  z" class="primitive"/>
            </g>
            <g transform="translate(174.17,136.21)" id="img-f1d03ec7-104">
              <path d="M-2.5,-0.14 L2.5,-0.14 2.5,0.14 -2.5,0.14  z" class="primitive"/>
            </g>
            <g transform="translate(179.11,136.33)" id="img-f1d03ec7-105">
              <path d="M-2.5,-0.02 L2.5,-0.02 2.5,0.02 -2.5,0.02  z" class="primitive"/>
            </g>
            <g transform="translate(184.05,136.36)" id="img-f1d03ec7-106">
              <path d="M-2.5,-0 L2.5,-0 2.5,0 -2.5,0  z" class="primitive"/>
            </g>
            <g transform="translate(188.99,136.32)" id="img-f1d03ec7-107">
              <path d="M-2.5,-0.03 L2.5,-0.03 2.5,0.03 -2.5,0.03  z" class="primitive"/>
            </g>
            <g transform="translate(193.94,136.32)" id="img-f1d03ec7-108">
              <path d="M-2.5,-0.04 L2.5,-0.04 2.5,0.04 -2.5,0.04  z" class="primitive"/>
            </g>
            <g transform="translate(198.88,136.35)" id="img-f1d03ec7-109">
              <path d="M-2.5,-0.01 L2.5,-0.01 2.5,0.01 -2.5,0.01  z" class="primitive"/>
            </g>
            <g transform="translate(203.82,136.16)" id="img-f1d03ec7-110">
              <path d="M-2.5,-0.19 L2.5,-0.19 2.5,0.19 -2.5,0.19  z" class="primitive"/>
            </g>
            <g transform="translate(208.76,85.28)" id="img-f1d03ec7-111">
              <path d="M-2.5,-51.07 L2.5,-51.07 2.5,51.07 -2.5,51.07  z" class="primitive"/>
            </g>
            <g transform="translate(213.7,136.36)" id="img-f1d03ec7-112">
              <path d="M-2.5,-0 L2.5,-0 2.5,0 -2.5,0  z" class="primitive"/>
            </g>
            <g transform="translate(218.64,136.32)" id="img-f1d03ec7-113">
              <path d="M-2.5,-0.03 L2.5,-0.03 2.5,0.03 -2.5,0.03  z" class="primitive"/>
            </g>
            <g transform="translate(223.58,136.33)" id="img-f1d03ec7-114">
              <path d="M-2.5,-0.03 L2.5,-0.03 2.5,0.03 -2.5,0.03  z" class="primitive"/>
            </g>
            <g transform="translate(228.53,135.96)" id="img-f1d03ec7-115">
              <path d="M-2.5,-0.39 L2.5,-0.39 2.5,0.39 -2.5,0.39  z" class="primitive"/>
            </g>
            <g transform="translate(233.47,136.21)" id="img-f1d03ec7-116">
              <path d="M-2.5,-0.14 L2.5,-0.14 2.5,0.14 -2.5,0.14  z" class="primitive"/>
            </g>
            <g transform="translate(238.41,136.32)" id="img-f1d03ec7-117">
              <path d="M-2.5,-0.03 L2.5,-0.03 2.5,0.03 -2.5,0.03  z" class="primitive"/>
            </g>
            <g transform="translate(243.35,136.35)" id="img-f1d03ec7-118">
              <path d="M-2.5,-0 L2.5,-0 2.5,0 -2.5,0  z" class="primitive"/>
            </g>
            <g transform="translate(248.29,136.36)" id="img-f1d03ec7-119">
              <path d="M-2.5,-0 L2.5,-0 2.5,0 -2.5,0  z" class="primitive"/>
            </g>
            <g transform="translate(253.23,136.36)" id="img-f1d03ec7-120">
              <path d="M-2.5,-0 L2.5,-0 2.5,0 -2.5,0  z" class="primitive"/>
            </g>
            <g transform="translate(258.17,136.22)" id="img-f1d03ec7-121">
              <path d="M-2.5,-0.14 L2.5,-0.14 2.5,0.14 -2.5,0.14  z" class="primitive"/>
            </g>
            <g transform="translate(263.12,136.35)" id="img-f1d03ec7-122">
              <path d="M-2.5,-0.01 L2.5,-0.01 2.5,0.01 -2.5,0.01  z" class="primitive"/>
            </g>
            <g transform="translate(268.06,136.36)" id="img-f1d03ec7-123">
              <path d="M-2.5,-0 L2.5,-0 2.5,0 -2.5,0  z" class="primitive"/>
            </g>
            <g transform="translate(273,136.29)" id="img-f1d03ec7-124">
              <path d="M-2.5,-0.07 L2.5,-0.07 2.5,0.07 -2.5,0.07  z" class="primitive"/>
            </g>
            <g transform="translate(277.94,136.36)" id="img-f1d03ec7-125">
              <path d="M-2.5,-0 L2.5,-0 2.5,0 -2.5,0  z" class="primitive"/>
            </g>
            <g transform="translate(282.88,136.34)" id="img-f1d03ec7-126">
              <path d="M-2.5,-0.01 L2.5,-0.01 2.5,0.01 -2.5,0.01  z" class="primitive"/>
            </g>
            <g transform="translate(287.82,136.33)" id="img-f1d03ec7-127">
              <path d="M-2.5,-0.03 L2.5,-0.03 2.5,0.03 -2.5,0.03  z" class="primitive"/>
            </g>
            <g transform="translate(292.76,136.36)" id="img-f1d03ec7-128">
              <path d="M-2.5,-0 L2.5,-0 2.5,0 -2.5,0  z" class="primitive"/>
            </g>
            <g transform="translate(297.71,136.36)" id="img-f1d03ec7-129">
              <path d="M-2.5,-0 L2.5,-0 2.5,0 -2.5,0  z" class="primitive"/>
            </g>
            <g transform="translate(302.65,136.36)" id="img-f1d03ec7-130">
              <path d="M-2.5,-0 L2.5,-0 2.5,0 -2.5,0  z" class="primitive"/>
            </g>
            <g transform="translate(307.59,136.29)" id="img-f1d03ec7-131">
              <path d="M-2.5,-0.07 L2.5,-0.07 2.5,0.07 -2.5,0.07  z" class="primitive"/>
            </g>
            <g transform="translate(312.53,130.85)" id="img-f1d03ec7-132">
              <path d="M-2.5,-5.5 L2.5,-5.5 2.5,5.5 -2.5,5.5  z" class="primitive"/>
            </g>
          </g>
        </g>
      </g>
    </g>
  </g>
  <g class="guide ylabels" font-size="2.82" font-family="'PT Sans Caption','Helvetica Neue','Helvetica',sans-serif" fill="#6C606B" id="img-f1d03ec7-133">
    <g transform="translate(27.4,136.36)" id="img-f1d03ec7-134">
      <g class="primitive">
        <text text-anchor="end" dy="0.35em">0</text>
      </g>
    </g>
    <g transform="translate(27.4,95.11)" id="img-f1d03ec7-135">
      <g class="primitive">
        <text text-anchor="end" dy="0.35em">5.00×10⁴</text>
      </g>
    </g>
    <g transform="translate(27.4,53.86)" id="img-f1d03ec7-136">
      <g class="primitive">
        <text text-anchor="end" dy="0.35em">1.00×10⁵</text>
      </g>
    </g>
    <g transform="translate(27.4,12.61)" id="img-f1d03ec7-137">
      <g class="primitive">
        <text text-anchor="end" dy="0.35em">1.50×10⁵</text>
      </g>
    </g>
  </g>
  <g font-size="3.88" font-family="'PT Sans','Helvetica Neue','Helvetica',sans-serif" fill="#564A55" stroke="#000000" stroke-opacity="0.000" id="img-f1d03ec7-138">
    <g transform="translate(8.81,72.48)" id="img-f1d03ec7-139">
      <g class="primitive">
        <text text-anchor="middle" dy="0.35em" transform="rotate(-90,0, 2)">Total Debt (in dollars)</text>
      </g>
    </g>
  </g>
  <g font-size="3.88" font-family="'PT Sans','Helvetica Neue','Helvetica',sans-serif" fill="#564A55" stroke="#000000" stroke-opacity="0.000" id="img-f1d03ec7-140">
    <g transform="translate(171.7,5)" id="img-f1d03ec7-141">
      <g class="primitive">
        <text text-anchor="middle" dy="0.6em">CT Debt Redeemed Per Year/Month</text>
      </g>
    </g>
  </g>
</g>
<defs>
  <clipPath id="img-f1d03ec7-5">
    <path d="M28.4,10.61 L315,10.61 315,138.35 28.4,138.35 " />
  </clipPath>
</defs>
</svg>
