<?xml version="1.0" encoding="UTF-8"?>
<svg xmlns="http://www.w3.org/2000/svg"
     xmlns:xlink="http://www.w3.org/1999/xlink"
     xmlns:gadfly="http://www.gadflyjl.org/ns"
     version="1.2"
     width="400mm" height="225mm" viewBox="0 0 400 225"
     stroke="none"
     fill="#000000"
     stroke-width="0.3"
     font-size="3.88"
>
<defs>
  <marker id="arrow" markerWidth="15" markerHeight="7" refX="5" refY="3.5" orient="auto" markerUnits="strokeWidth">
    <path d="M0,0 L15,3.5 L0,7 z" stroke="context-stroke" fill="context-stroke"/>
  </marker>
</defs>
<g stroke="#000000" stroke-opacity="0.000" fill="#FFFFFF" id="img-465086d7-1">
  <g transform="translate(200,112.5)">
    <path d="M-200,-112.5 L200,-112.5 200,112.5 -200,112.5  z" class="primitive"/>
  </g>
</g>
<g class="plotroot yscalable" id="img-465086d7-2">
  <g font-size="3.88" font-family="'PT Sans','Helvetica Neue','Helvetica',sans-serif" fill="#564A55" stroke="#000000" stroke-opacity="0.000" id="img-465086d7-3">
    <g transform="translate(210.86,213.39)">
      <g class="primitive">
        <text text-anchor="middle" dy="0.6em">Year</text>
      </g>
    </g>
  </g>
  <g class="guide xlabels" font-size="2.82" font-family="'PT Sans Caption','Helvetica Neue','Helvetica',sans-serif" fill="#6C606B" id="img-465086d7-4">
    <g transform="translate(35.49,206.72)">
      <g class="primitive">
        <text text-anchor="middle" dy="0.6em">1790-12</text>
      </g>
    </g>
    <g transform="translate(53.03,206.72)">
      <g class="primitive">
        <text text-anchor="middle" dy="0.6em">1791-03</text>
      </g>
    </g>
    <g transform="translate(70.57,206.72)">
      <g class="primitive">
        <text text-anchor="middle" dy="0.6em">1791-04</text>
      </g>
    </g>
    <g transform="translate(88.1,206.72)">
      <g class="primitive">
        <text text-anchor="middle" dy="0.6em">1791-05</text>
      </g>
    </g>
    <g transform="translate(105.64,206.72)">
      <g class="primitive">
        <text text-anchor="middle" dy="0.6em">1791-06</text>
      </g>
    </g>
    <g transform="translate(123.18,206.72)">
      <g class="primitive">
        <text text-anchor="middle" dy="0.6em">1791-07</text>
      </g>
    </g>
    <g transform="translate(140.71,206.72)">
      <g class="primitive">
        <text text-anchor="middle" dy="0.6em">1791-08</text>
      </g>
    </g>
    <g transform="translate(158.25,206.72)">
      <g class="primitive">
        <text text-anchor="middle" dy="0.6em">1791-09</text>
      </g>
    </g>
    <g transform="translate(175.79,206.72)">
      <g class="primitive">
        <text text-anchor="middle" dy="0.6em">1791-11</text>
      </g>
    </g>
    <g transform="translate(193.33,206.72)">
      <g class="primitive">
        <text text-anchor="middle" dy="0.6em">1791-12</text>
      </g>
    </g>
    <g transform="translate(210.86,206.72)">
      <g class="primitive">
        <text text-anchor="middle" dy="0.6em">1792-01</text>
      </g>
    </g>
    <g transform="translate(228.4,206.72)">
      <g class="primitive">
        <text text-anchor="middle" dy="0.6em">1792-05</text>
      </g>
    </g>
    <g transform="translate(245.94,206.72)">
      <g class="primitive">
        <text text-anchor="middle" dy="0.6em">1792-07</text>
      </g>
    </g>
    <g transform="translate(263.47,206.72)">
      <g class="primitive">
        <text text-anchor="middle" dy="0.6em">1792-09</text>
      </g>
    </g>
    <g transform="translate(281.01,206.72)">
      <g class="primitive">
        <text text-anchor="middle" dy="0.6em">1792-11</text>
      </g>
    </g>
    <g transform="translate(298.55,206.72)">
      <g class="primitive">
        <text text-anchor="middle" dy="0.6em">1793-01</text>
      </g>
    </g>
    <g transform="translate(316.08,206.72)">
      <g class="primitive">
        <text text-anchor="middle" dy="0.6em">1793-02</text>
      </g>
    </g>
    <g transform="translate(333.62,206.72)">
      <g class="primitive">
        <text text-anchor="middle" dy="0.6em">1794-03</text>
      </g>
    </g>
    <g transform="translate(351.16,206.72)">
      <g class="primitive">
        <text text-anchor="middle" dy="0.6em">1794-11</text>
      </g>
    </g>
    <g transform="translate(368.69,206.72)">
      <g class="primitive">
        <text text-anchor="middle" dy="0.6em">post-1795</text>
      </g>
    </g>
    <g transform="translate(386.23,206.72)">
      <g class="primitive">
        <text text-anchor="middle" dy="0.6em">missing info</text>
      </g>
    </g>
  </g>
  <g clip-path="url(#img-465086d7-5)">
    <g id="img-465086d7-6">
      <g pointer-events="visible" stroke-width="0.3" fill="#000000" fill-opacity="0.000" stroke="#000000" stroke-opacity="0.000" class="guide background" id="img-465086d7-7">
        <g transform="translate(210.86,108.16)" id="img-465086d7-8">
          <path d="M-184.14,-97.55 L184.14,-97.55 184.14,97.55 -184.14,97.55  z" class="primitive"/>
        </g>
      </g>
      <g class="guide ygridlines xfixed" stroke-dasharray="0.5,0.5" stroke-width="0.2" stroke="#D0D0E0" id="img-465086d7-9">
        <g transform="translate(210.86,203.72)" id="img-465086d7-10">
          <path fill="none" d="M-184.14,0 L184.14,0 " class="primitive"/>
        </g>
        <g transform="translate(210.86,140.01)" id="img-465086d7-11">
          <path fill="none" d="M-184.14,0 L184.14,0 " class="primitive"/>
        </g>
        <g transform="translate(210.86,76.31)" id="img-465086d7-12">
          <path fill="none" d="M-184.14,0 L184.14,0 " class="primitive"/>
        </g>
        <g transform="translate(210.86,12.61)" id="img-465086d7-13">
          <path fill="none" d="M-184.14,0 L184.14,0 " class="primitive"/>
        </g>
      </g>
      <g class="guide xgridlines yfixed" stroke-dasharray="0.5,0.5" stroke-width="0.2" stroke="#D0D0E0" id="img-465086d7-14">
        <g transform="translate(44.26,108.16)" id="img-465086d7-15">
          <path fill="none" d="M0,-97.55 L0,97.55 " class="primitive"/>
        </g>
        <g transform="translate(61.8,108.16)" id="img-465086d7-16">
          <path fill="none" d="M0,-97.55 L0,97.55 " class="primitive"/>
        </g>
        <g transform="translate(79.34,108.16)" id="img-465086d7-17">
          <path fill="none" d="M0,-97.55 L0,97.55 " class="primitive"/>
        </g>
        <g transform="translate(96.87,108.16)" id="img-465086d7-18">
          <path fill="none" d="M0,-97.55 L0,97.55 " class="primitive"/>
        </g>
        <g transform="translate(114.41,108.16)" id="img-465086d7-19">
          <path fill="none" d="M0,-97.55 L0,97.55 " class="primitive"/>
        </g>
        <g transform="translate(131.95,108.16)" id="img-465086d7-20">
          <path fill="none" d="M0,-97.55 L0,97.55 " class="primitive"/>
        </g>
        <g transform="translate(149.48,108.16)" id="img-465086d7-21">
          <path fill="none" d="M0,-97.55 L0,97.55 " class="primitive"/>
        </g>
        <g transform="translate(167.02,108.16)" id="img-465086d7-22">
          <path fill="none" d="M0,-97.55 L0,97.55 " class="primitive"/>
        </g>
        <g transform="translate(184.56,108.16)" id="img-465086d7-23">
          <path fill="none" d="M0,-97.55 L0,97.55 " class="primitive"/>
        </g>
        <g transform="translate(202.09,108.16)" id="img-465086d7-24">
          <path fill="none" d="M0,-97.55 L0,97.55 " class="primitive"/>
        </g>
        <g transform="translate(219.63,108.16)" id="img-465086d7-25">
          <path fill="none" d="M0,-97.55 L0,97.55 " class="primitive"/>
        </g>
        <g transform="translate(237.17,108.16)" id="img-465086d7-26">
          <path fill="none" d="M0,-97.55 L0,97.55 " class="primitive"/>
        </g>
        <g transform="translate(254.7,108.16)" id="img-465086d7-27">
          <path fill="none" d="M0,-97.55 L0,97.55 " class="primitive"/>
        </g>
        <g transform="translate(272.24,108.16)" id="img-465086d7-28">
          <path fill="none" d="M0,-97.55 L0,97.55 " class="primitive"/>
        </g>
        <g transform="translate(289.78,108.16)" id="img-465086d7-29">
          <path fill="none" d="M0,-97.55 L0,97.55 " class="primitive"/>
        </g>
        <g transform="translate(307.32,108.16)" id="img-465086d7-30">
          <path fill="none" d="M0,-97.55 L0,97.55 " class="primitive"/>
        </g>
        <g transform="translate(324.85,108.16)" id="img-465086d7-31">
          <path fill="none" d="M0,-97.55 L0,97.55 " class="primitive"/>
        </g>
        <g transform="translate(342.39,108.16)" id="img-465086d7-32">
          <path fill="none" d="M0,-97.55 L0,97.55 " class="primitive"/>
        </g>
        <g transform="translate(359.93,108.16)" id="img-465086d7-33">
          <path fill="none" d="M0,-97.55 L0,97.55 " class="primitive"/>
        </g>
        <g transform="translate(377.46,108.16)" id="img-465086d7-34">
          <path fill="none" d="M0,-97.55 L0,97.55 " class="primitive"/>
        </g>
      </g>
      <g class="plotpanel" id="img-465086d7-35">
        <metadata>
          <boundingbox value="26.725000000000023mm 10.611666666666679mm 368.275mm 195.10333333333335mm"/>
          <unitbox value="0.5 30313.96626606897 21.0 -30627.932532137933"/>
        </metadata>
        <g shape-rendering="crispEdges" stroke-width="0.3" id="img-465086d7-36">
          <g class="geometry" fill-opacity="1" stroke="#000000" stroke-opacity="0.000" fill="#00BFFF" id="img-465086d7-37">
            <g transform="translate(35.49,196.46)" id="img-465086d7-38">
              <path d="M-8.79,-7.25 L8.79,-7.25 8.79,7.25 -8.79,7.25  z" class="primitive"/>
            </g>
            <g transform="translate(53.03,182.22)" id="img-465086d7-39">
              <path d="M-8.79,-21.5 L8.79,-21.5 8.79,21.5 -8.79,21.5  z" class="primitive"/>
            </g>
            <g transform="translate(70.57,199.83)" id="img-465086d7-40">
              <path d="M-8.79,-3.88 L8.79,-3.88 8.79,3.88 -8.79,3.88  z" class="primitive"/>
            </g>
            <g transform="translate(88.1,192.82)" id="img-465086d7-41">
              <path d="M-8.79,-10.89 L8.79,-10.89 8.79,10.89 -8.79,10.89  z" class="primitive"/>
            </g>
            <g transform="translate(105.64,137.62)" id="img-465086d7-42">
              <path d="M-8.79,-66.1 L8.79,-66.1 8.79,66.1 -8.79,66.1  z" class="primitive"/>
            </g>
            <g transform="translate(123.18,160.58)" id="img-465086d7-43">
              <path d="M-8.79,-43.13 L8.79,-43.13 8.79,43.13 -8.79,43.13  z" class="primitive"/>
            </g>
            <g transform="translate(140.71,142.99)" id="img-465086d7-44">
              <path d="M-8.79,-60.72 L8.79,-60.72 8.79,60.72 -8.79,60.72  z" class="primitive"/>
            </g>
            <g transform="translate(158.25,110.56)" id="img-465086d7-45">
              <path d="M-8.79,-93.15 L8.79,-93.15 8.79,93.15 -8.79,93.15  z" class="primitive"/>
            </g>
            <g transform="translate(175.79,198.37)" id="img-465086d7-46">
              <path d="M-8.79,-5.34 L8.79,-5.34 8.79,5.34 -8.79,5.34  z" class="primitive"/>
            </g>
            <g transform="translate(193.33,203.5)" id="img-465086d7-47">
              <path d="M-8.79,-0.22 L8.79,-0.22 8.79,0.22 -8.79,0.22  z" class="primitive"/>
            </g>
            <g transform="translate(210.86,198.34)" id="img-465086d7-48">
              <path d="M-8.79,-5.37 L8.79,-5.37 8.79,5.37 -8.79,5.37  z" class="primitive"/>
            </g>
            <g transform="translate(228.4,203.59)" id="img-465086d7-49">
              <path d="M-8.79,-0.12 L8.79,-0.12 8.79,0.12 -8.79,0.12  z" class="primitive"/>
            </g>
            <g transform="translate(245.94,200.9)" id="img-465086d7-50">
              <path d="M-8.79,-2.81 L8.79,-2.81 8.79,2.81 -8.79,2.81  z" class="primitive"/>
            </g>
            <g transform="translate(263.47,201.08)" id="img-465086d7-51">
              <path d="M-8.79,-2.63 L8.79,-2.63 8.79,2.63 -8.79,2.63  z" class="primitive"/>
            </g>
            <g transform="translate(281.01,202.02)" id="img-465086d7-52">
              <path d="M-8.79,-1.69 L8.79,-1.69 8.79,1.69 -8.79,1.69  z" class="primitive"/>
            </g>
            <g transform="translate(298.55,200.67)" id="img-465086d7-53">
              <path d="M-8.79,-3.05 L8.79,-3.05 8.79,3.05 -8.79,3.05  z" class="primitive"/>
            </g>
            <g transform="translate(316.08,203.43)" id="img-465086d7-54">
              <path d="M-8.79,-0.29 L8.79,-0.29 8.79,0.29 -8.79,0.29  z" class="primitive"/>
            </g>
            <g transform="translate(333.62,203.63)" id="img-465086d7-55">
              <path d="M-8.79,-0.09 L8.79,-0.09 8.79,0.09 -8.79,0.09  z" class="primitive"/>
            </g>
            <g transform="translate(351.16,127.32)" id="img-465086d7-56">
              <path d="M-8.79,-76.4 L8.79,-76.4 8.79,76.4 -8.79,76.4  z" class="primitive"/>
            </g>
            <g transform="translate(368.69,203.72)" id="img-465086d7-57">
              <path d="M-8.79,-0 L8.79,-0 8.79,0 -8.79,0  z" class="primitive"/>
            </g>
            <g transform="translate(386.23,203.72)" id="img-465086d7-58">
              <path d="M-8.79,-0 L8.79,-0 8.79,0 -8.79,0  z" class="primitive"/>
            </g>
          </g>
        </g>
      </g>
    </g>
  </g>
  <g class="guide ylabels" font-size="2.82" font-family="'PT Sans Caption','Helvetica Neue','Helvetica',sans-serif" fill="#6C606B" id="img-465086d7-59">
    <g transform="translate(25.72,203.72)" id="img-465086d7-60">
      <g class="primitive">
        <text text-anchor="end" dy="0.35em">0</text>
      </g>
    </g>
    <g transform="translate(25.72,140.01)" id="img-465086d7-61">
      <g class="primitive">
        <text text-anchor="end" dy="0.35em">1.0×10⁴</text>
      </g>
    </g>
    <g transform="translate(25.72,76.31)" id="img-465086d7-62">
      <g class="primitive">
        <text text-anchor="end" dy="0.35em">2.0×10⁴</text>
      </g>
    </g>
    <g transform="translate(25.72,12.61)" id="img-465086d7-63">
      <g class="primitive">
        <text text-anchor="end" dy="0.35em">3.0×10⁴</text>
      </g>
    </g>
  </g>
  <g font-size="3.88" font-family="'PT Sans','Helvetica Neue','Helvetica',sans-serif" fill="#564A55" stroke="#000000" stroke-opacity="0.000" id="img-465086d7-64">
    <g transform="translate(8.81,106.16)" id="img-465086d7-65">
      <g class="primitive">
        <text text-anchor="middle" dy="0.35em" transform="rotate(-90,0, 2)">Total Debt (in dollars)</text>
      </g>
    </g>
  </g>
  <g font-size="3.88" font-family="'PT Sans','Helvetica Neue','Helvetica',sans-serif" fill="#564A55" stroke="#000000" stroke-opacity="0.000" id="img-465086d7-66">
    <g transform="translate(210.86,5)" id="img-465086d7-67">
      <g class="primitive">
        <text text-anchor="middle" dy="0.6em">GA Debt Redeemed Per Year/Month</text>
      </g>
    </g>
  </g>
</g>
<defs>
  <clipPath id="img-465086d7-5">
    <path d="M26.73,10.61 L395,10.61 395,205.72 26.73,205.72 " />
  </clipPath>
</defs>
</svg>
