<?xml version="1.0" encoding="UTF-8"?>
<svg xmlns="http://www.w3.org/2000/svg"
     xmlns:xlink="http://www.w3.org/1999/xlink"
     xmlns:gadfly="http://www.gadflyjl.org/ns"
     version="1.2"
     width="320mm" height="180mm" viewBox="0 0 320 180"
     stroke="none"
     fill="#000000"
     stroke-width="0.3"
     font-size="3.88"
>
<defs>
  <marker id="arrow" markerWidth="15" markerHeight="7" refX="5" refY="3.5" orient="auto" markerUnits="strokeWidth">
    <path d="M0,0 L15,3.5 L0,7 z" stroke="context-stroke" fill="context-stroke"/>
  </marker>
</defs>
<g stroke="#000000" stroke-opacity="0.000" fill="#FFFFFF" id="img-3b3f2ec8-1">
  <g transform="translate(160,90)">
    <path d="M-160,-90 L160,-90 160,90 -160,90  z" class="primitive"/>
  </g>
</g>
<g class="plotroot yscalable" id="img-3b3f2ec8-2">
  <g font-size="3.88" font-family="'PT Sans','Helvetica Neue','Helvetica',sans-serif" fill="#564A55" stroke="#000000" stroke-opacity="0.000" id="img-3b3f2ec8-3">
    <g transform="translate(170.86,168.39)">
      <g class="primitive">
        <text text-anchor="middle" dy="0.6em">Year</text>
      </g>
    </g>
  </g>
  <g class="guide xlabels" font-size="2.82" font-family="'PT Sans Caption','Helvetica Neue','Helvetica',sans-serif" fill="#6C606B" id="img-3b3f2ec8-4">
    <g transform="translate(34.31,161.72)">
      <g class="primitive">
        <text text-anchor="middle" dy="0.6em">1790-12</text>
      </g>
    </g>
    <g transform="translate(49.48,161.72)">
      <g class="primitive">
        <text text-anchor="middle" dy="0.6em">1791-11</text>
      </g>
    </g>
    <g transform="translate(64.66,161.72)">
      <g class="primitive">
        <text text-anchor="middle" dy="0.6em">1791-12</text>
      </g>
    </g>
    <g transform="translate(79.83,161.72)">
      <g class="primitive">
        <text text-anchor="middle" dy="0.6em">1791-3</text>
      </g>
    </g>
    <g transform="translate(95,161.72)">
      <g class="primitive">
        <text text-anchor="middle" dy="0.6em">1791-4</text>
      </g>
    </g>
    <g transform="translate(110.17,161.72)">
      <g class="primitive">
        <text text-anchor="middle" dy="0.6em">1791-5</text>
      </g>
    </g>
    <g transform="translate(125.35,161.72)">
      <g class="primitive">
        <text text-anchor="middle" dy="0.6em">1791-6</text>
      </g>
    </g>
    <g transform="translate(140.52,161.72)">
      <g class="primitive">
        <text text-anchor="middle" dy="0.6em">1791-7</text>
      </g>
    </g>
    <g transform="translate(155.69,161.72)">
      <g class="primitive">
        <text text-anchor="middle" dy="0.6em">1791-8</text>
      </g>
    </g>
    <g transform="translate(170.86,161.72)">
      <g class="primitive">
        <text text-anchor="middle" dy="0.6em">1791-9</text>
      </g>
    </g>
    <g transform="translate(186.03,161.72)">
      <g class="primitive">
        <text text-anchor="middle" dy="0.6em">1792-1</text>
      </g>
    </g>
    <g transform="translate(201.21,161.72)">
      <g class="primitive">
        <text text-anchor="middle" dy="0.6em">1792-11</text>
      </g>
    </g>
    <g transform="translate(216.38,161.72)">
      <g class="primitive">
        <text text-anchor="middle" dy="0.6em">1792-5</text>
      </g>
    </g>
    <g transform="translate(231.55,161.72)">
      <g class="primitive">
        <text text-anchor="middle" dy="0.6em">1792-7</text>
      </g>
    </g>
    <g transform="translate(246.72,161.72)">
      <g class="primitive">
        <text text-anchor="middle" dy="0.6em">1792-9</text>
      </g>
    </g>
    <g transform="translate(261.9,161.72)">
      <g class="primitive">
        <text text-anchor="middle" dy="0.6em">1793-1</text>
      </g>
    </g>
    <g transform="translate(277.07,161.72)">
      <g class="primitive">
        <text text-anchor="middle" dy="0.6em">1793-2</text>
      </g>
    </g>
    <g transform="translate(292.24,161.72)">
      <g class="primitive">
        <text text-anchor="middle" dy="0.6em">1794-11</text>
      </g>
    </g>
    <g transform="translate(307.41,161.72)">
      <g class="primitive">
        <text text-anchor="middle" dy="0.6em">1794-3</text>
      </g>
    </g>
  </g>
  <g clip-path="url(#img-3b3f2ec8-5)">
    <g id="img-3b3f2ec8-6">
      <g pointer-events="visible" stroke-width="0.3" fill="#000000" fill-opacity="0.000" stroke="#000000" stroke-opacity="0.000" class="guide background" id="img-3b3f2ec8-7">
        <g transform="translate(170.86,85.66)" id="img-3b3f2ec8-8">
          <path d="M-144.14,-75.05 L144.14,-75.05 144.14,75.05 -144.14,75.05  z" class="primitive"/>
        </g>
      </g>
      <g class="guide ygridlines xfixed" stroke-dasharray="0.5,0.5" stroke-width="0.2" stroke="#D0D0E0" id="img-3b3f2ec8-9">
        <g transform="translate(170.86,158.72)" id="img-3b3f2ec8-10">
          <path fill="none" d="M-144.14,0 L144.14,0 " class="primitive"/>
        </g>
        <g transform="translate(170.86,110.01)" id="img-3b3f2ec8-11">
          <path fill="none" d="M-144.14,0 L144.14,0 " class="primitive"/>
        </g>
        <g transform="translate(170.86,61.31)" id="img-3b3f2ec8-12">
          <path fill="none" d="M-144.14,0 L144.14,0 " class="primitive"/>
        </g>
        <g transform="translate(170.86,12.61)" id="img-3b3f2ec8-13">
          <path fill="none" d="M-144.14,0 L144.14,0 " class="primitive"/>
        </g>
      </g>
      <g class="guide xgridlines yfixed" stroke-dasharray="0.5,0.5" stroke-width="0.2" stroke="#D0D0E0" id="img-3b3f2ec8-14">
        <g transform="translate(41.9,85.66)" id="img-3b3f2ec8-15">
          <path fill="none" d="M0,-75.05 L0,75.05 " class="primitive"/>
        </g>
        <g transform="translate(57.07,85.66)" id="img-3b3f2ec8-16">
          <path fill="none" d="M0,-75.05 L0,75.05 " class="primitive"/>
        </g>
        <g transform="translate(72.24,85.66)" id="img-3b3f2ec8-17">
          <path fill="none" d="M0,-75.05 L0,75.05 " class="primitive"/>
        </g>
        <g transform="translate(87.41,85.66)" id="img-3b3f2ec8-18">
          <path fill="none" d="M0,-75.05 L0,75.05 " class="primitive"/>
        </g>
        <g transform="translate(102.59,85.66)" id="img-3b3f2ec8-19">
          <path fill="none" d="M0,-75.05 L0,75.05 " class="primitive"/>
        </g>
        <g transform="translate(117.76,85.66)" id="img-3b3f2ec8-20">
          <path fill="none" d="M0,-75.05 L0,75.05 " class="primitive"/>
        </g>
        <g transform="translate(132.93,85.66)" id="img-3b3f2ec8-21">
          <path fill="none" d="M0,-75.05 L0,75.05 " class="primitive"/>
        </g>
        <g transform="translate(148.1,85.66)" id="img-3b3f2ec8-22">
          <path fill="none" d="M0,-75.05 L0,75.05 " class="primitive"/>
        </g>
        <g transform="translate(163.28,85.66)" id="img-3b3f2ec8-23">
          <path fill="none" d="M0,-75.05 L0,75.05 " class="primitive"/>
        </g>
        <g transform="translate(178.45,85.66)" id="img-3b3f2ec8-24">
          <path fill="none" d="M0,-75.05 L0,75.05 " class="primitive"/>
        </g>
        <g transform="translate(193.62,85.66)" id="img-3b3f2ec8-25">
          <path fill="none" d="M0,-75.05 L0,75.05 " class="primitive"/>
        </g>
        <g transform="translate(208.79,85.66)" id="img-3b3f2ec8-26">
          <path fill="none" d="M0,-75.05 L0,75.05 " class="primitive"/>
        </g>
        <g transform="translate(223.97,85.66)" id="img-3b3f2ec8-27">
          <path fill="none" d="M0,-75.05 L0,75.05 " class="primitive"/>
        </g>
        <g transform="translate(239.14,85.66)" id="img-3b3f2ec8-28">
          <path fill="none" d="M0,-75.05 L0,75.05 " class="primitive"/>
        </g>
        <g transform="translate(254.31,85.66)" id="img-3b3f2ec8-29">
          <path fill="none" d="M0,-75.05 L0,75.05 " class="primitive"/>
        </g>
        <g transform="translate(269.48,85.66)" id="img-3b3f2ec8-30">
          <path fill="none" d="M0,-75.05 L0,75.05 " class="primitive"/>
        </g>
        <g transform="translate(284.66,85.66)" id="img-3b3f2ec8-31">
          <path fill="none" d="M0,-75.05 L0,75.05 " class="primitive"/>
        </g>
        <g transform="translate(299.83,85.66)" id="img-3b3f2ec8-32">
          <path fill="none" d="M0,-75.05 L0,75.05 " class="primitive"/>
        </g>
      </g>
      <g class="plotpanel" id="img-3b3f2ec8-33">
        <metadata>
          <boundingbox value="26.725000000000023mm 10.611666666666679mm 288.275mm 150.10333333333335mm"/>
          <unitbox value="0.5 30410.66824849992 19.0 -30821.33649699984"/>
        </metadata>
        <g shape-rendering="crispEdges" stroke-width="0.3" id="img-3b3f2ec8-34">
          <g class="geometry" fill-opacity="1" stroke="#000000" stroke-opacity="0.000" fill="#00BFFF" id="img-3b3f2ec8-35">
            <g transform="translate(34.31,153.17)" id="img-3b3f2ec8-36">
              <path d="M-7.61,-5.55 L7.61,-5.55 7.61,5.55 -7.61,5.55  z" class="primitive"/>
            </g>
            <g transform="translate(49.48,154.63)" id="img-3b3f2ec8-37">
              <path d="M-7.61,-4.08 L7.61,-4.08 7.61,4.08 -7.61,4.08  z" class="primitive"/>
            </g>
            <g transform="translate(64.66,158.55)" id="img-3b3f2ec8-38">
              <path d="M-7.61,-0.17 L7.61,-0.17 7.61,0.17 -7.61,0.17  z" class="primitive"/>
            </g>
            <g transform="translate(79.83,142.28)" id="img-3b3f2ec8-39">
              <path d="M-7.61,-16.43 L7.61,-16.43 7.61,16.43 -7.61,16.43  z" class="primitive"/>
            </g>
            <g transform="translate(95,155.75)" id="img-3b3f2ec8-40">
              <path d="M-7.61,-2.97 L7.61,-2.97 7.61,2.97 -7.61,2.97  z" class="primitive"/>
            </g>
            <g transform="translate(110.17,150.39)" id="img-3b3f2ec8-41">
              <path d="M-7.61,-8.33 L7.61,-8.33 7.61,8.33 -7.61,8.33  z" class="primitive"/>
            </g>
            <g transform="translate(125.35,108.18)" id="img-3b3f2ec8-42">
              <path d="M-7.61,-50.53 L7.61,-50.53 7.61,50.53 -7.61,50.53  z" class="primitive"/>
            </g>
            <g transform="translate(140.52,125.74)" id="img-3b3f2ec8-43">
              <path d="M-7.61,-32.98 L7.61,-32.98 7.61,32.98 -7.61,32.98  z" class="primitive"/>
            </g>
            <g transform="translate(155.69,112.29)" id="img-3b3f2ec8-44">
              <path d="M-7.61,-46.43 L7.61,-46.43 7.61,46.43 -7.61,46.43  z" class="primitive"/>
            </g>
            <g transform="translate(170.86,87.5)" id="img-3b3f2ec8-45">
              <path d="M-7.61,-71.22 L7.61,-71.22 7.61,71.22 -7.61,71.22  z" class="primitive"/>
            </g>
            <g transform="translate(186.03,154.61)" id="img-3b3f2ec8-46">
              <path d="M-7.61,-4.11 L7.61,-4.11 7.61,4.11 -7.61,4.11  z" class="primitive"/>
            </g>
            <g transform="translate(201.21,157.42)" id="img-3b3f2ec8-47">
              <path d="M-7.61,-1.29 L7.61,-1.29 7.61,1.29 -7.61,1.29  z" class="primitive"/>
            </g>
            <g transform="translate(216.38,158.62)" id="img-3b3f2ec8-48">
              <path d="M-7.61,-0.1 L7.61,-0.1 7.61,0.1 -7.61,0.1  z" class="primitive"/>
            </g>
            <g transform="translate(231.55,156.56)" id="img-3b3f2ec8-49">
              <path d="M-7.61,-2.15 L7.61,-2.15 7.61,2.15 -7.61,2.15  z" class="primitive"/>
            </g>
            <g transform="translate(246.72,156.7)" id="img-3b3f2ec8-50">
              <path d="M-7.61,-2.01 L7.61,-2.01 7.61,2.01 -7.61,2.01  z" class="primitive"/>
            </g>
            <g transform="translate(261.9,156.38)" id="img-3b3f2ec8-51">
              <path d="M-7.61,-2.33 L7.61,-2.33 7.61,2.33 -7.61,2.33  z" class="primitive"/>
            </g>
            <g transform="translate(277.07,158.5)" id="img-3b3f2ec8-52">
              <path d="M-7.61,-0.22 L7.61,-0.22 7.61,0.22 -7.61,0.22  z" class="primitive"/>
            </g>
            <g transform="translate(292.24,100.31)" id="img-3b3f2ec8-53">
              <path d="M-7.61,-58.41 L7.61,-58.41 7.61,58.41 -7.61,58.41  z" class="primitive"/>
            </g>
            <g transform="translate(307.41,158.65)" id="img-3b3f2ec8-54">
              <path d="M-7.61,-0.07 L7.61,-0.07 7.61,0.07 -7.61,0.07  z" class="primitive"/>
            </g>
          </g>
        </g>
      </g>
    </g>
  </g>
  <g class="guide ylabels" font-size="2.82" font-family="'PT Sans Caption','Helvetica Neue','Helvetica',sans-serif" fill="#6C606B" id="img-3b3f2ec8-55">
    <g transform="translate(25.72,158.72)" id="img-3b3f2ec8-56">
      <g class="primitive">
        <text text-anchor="end" dy="0.35em">0</text>
      </g>
    </g>
    <g transform="translate(25.72,110.01)" id="img-3b3f2ec8-57">
      <g class="primitive">
        <text text-anchor="end" dy="0.35em">1.0×10⁴</text>
      </g>
    </g>
    <g transform="translate(25.72,61.31)" id="img-3b3f2ec8-58">
      <g class="primitive">
        <text text-anchor="end" dy="0.35em">2.0×10⁴</text>
      </g>
    </g>
    <g transform="translate(25.72,12.61)" id="img-3b3f2ec8-59">
      <g class="primitive">
        <text text-anchor="end" dy="0.35em">3.0×10⁴</text>
      </g>
    </g>
  </g>
  <g font-size="3.88" font-family="'PT Sans','Helvetica Neue','Helvetica',sans-serif" fill="#564A55" stroke="#000000" stroke-opacity="0.000" id="img-3b3f2ec8-60">
    <g transform="translate(8.81,83.66)" id="img-3b3f2ec8-61">
      <g class="primitive">
        <text text-anchor="middle" dy="0.35em" transform="rotate(-90,0, 2)">Total Debt (in dollars)</text>
      </g>
    </g>
  </g>
  <g font-size="3.88" font-family="'PT Sans','Helvetica Neue','Helvetica',sans-serif" fill="#564A55" stroke="#000000" stroke-opacity="0.000" id="img-3b3f2ec8-62">
    <g transform="translate(170.86,5)" id="img-3b3f2ec8-63">
      <g class="primitive">
        <text text-anchor="middle" dy="0.6em">GA Debt Redeemed Per Year/Month</text>
      </g>
    </g>
  </g>
</g>
<defs>
  <clipPath id="img-3b3f2ec8-5">
    <path d="M26.73,10.61 L315,10.61 315,160.72 26.73,160.72 " />
  </clipPath>
</defs>
</svg>
