<?xml version="1.0" encoding="UTF-8"?>
<svg xmlns="http://www.w3.org/2000/svg"
     xmlns:xlink="http://www.w3.org/1999/xlink"
     xmlns:gadfly="http://www.gadflyjl.org/ns"
     version="1.2"
     width="320mm" height="180mm" viewBox="0 0 320 180"
     stroke="none"
     fill="#000000"
     stroke-width="0.3"
     font-size="3.88"
>
<defs>
  <marker id="arrow" markerWidth="15" markerHeight="7" refX="5" refY="3.5" orient="auto" markerUnits="strokeWidth">
    <path d="M0,0 L15,3.5 L0,7 z" stroke="context-stroke" fill="context-stroke"/>
  </marker>
</defs>
<g stroke="#000000" stroke-opacity="0.000" fill="#FFFFFF" id="img-5d5e1071-1">
  <g transform="translate(160,90)">
    <path d="M-160,-90 L160,-90 160,90 -160,90  z" class="primitive"/>
  </g>
</g>
<g class="plotroot yscalable" id="img-5d5e1071-2">
  <g font-size="3.88" font-family="'PT Sans','Helvetica Neue','Helvetica',sans-serif" fill="#564A55" stroke="#000000" stroke-opacity="0.000" id="img-5d5e1071-3">
    <g transform="translate(171.7,168.39)">
      <g class="primitive">
        <text text-anchor="middle" dy="0.6em">Year</text>
      </g>
    </g>
  </g>
  <g class="guide xlabels" font-size="2.82" font-family="'PT Sans Caption','Helvetica Neue','Helvetica',sans-serif" fill="#6C606B" id="img-5d5e1071-4">
    <g transform="translate(30.71,139.36)">
      <g class="primitive">
        <text text-anchor="end" dy="0.35em" transform="rotate(-90,0, 0)">1790-10</text>
      </g>
    </g>
    <g transform="translate(35.33,139.36)">
      <g class="primitive">
        <text text-anchor="end" dy="0.35em" transform="rotate(-90,0, 0)">1790-11</text>
      </g>
    </g>
    <g transform="translate(39.95,139.36)">
      <g class="primitive">
        <text text-anchor="end" dy="0.35em" transform="rotate(-90,0, 0)">1790-12</text>
      </g>
    </g>
    <g transform="translate(44.58,139.36)">
      <g class="primitive">
        <text text-anchor="end" dy="0.35em" transform="rotate(-90,0, 0)">1791-1</text>
      </g>
    </g>
    <g transform="translate(49.2,139.36)">
      <g class="primitive">
        <text text-anchor="end" dy="0.35em" transform="rotate(-90,0, 0)">1791-10</text>
      </g>
    </g>
    <g transform="translate(53.82,139.36)">
      <g class="primitive">
        <text text-anchor="end" dy="0.35em" transform="rotate(-90,0, 0)">1791-11</text>
      </g>
    </g>
    <g transform="translate(58.45,139.36)">
      <g class="primitive">
        <text text-anchor="end" dy="0.35em" transform="rotate(-90,0, 0)">1791-12</text>
      </g>
    </g>
    <g transform="translate(63.07,139.36)">
      <g class="primitive">
        <text text-anchor="end" dy="0.35em" transform="rotate(-90,0, 0)">1791-2</text>
      </g>
    </g>
    <g transform="translate(67.69,139.36)">
      <g class="primitive">
        <text text-anchor="end" dy="0.35em" transform="rotate(-90,0, 0)">1791-3</text>
      </g>
    </g>
    <g transform="translate(72.31,139.36)">
      <g class="primitive">
        <text text-anchor="end" dy="0.35em" transform="rotate(-90,0, 0)">1791-4</text>
      </g>
    </g>
    <g transform="translate(76.94,139.36)">
      <g class="primitive">
        <text text-anchor="end" dy="0.35em" transform="rotate(-90,0, 0)">1791-5</text>
      </g>
    </g>
    <g transform="translate(81.56,139.36)">
      <g class="primitive">
        <text text-anchor="end" dy="0.35em" transform="rotate(-90,0, 0)">1791-6</text>
      </g>
    </g>
    <g transform="translate(86.18,139.36)">
      <g class="primitive">
        <text text-anchor="end" dy="0.35em" transform="rotate(-90,0, 0)">1791-7</text>
      </g>
    </g>
    <g transform="translate(90.8,139.36)">
      <g class="primitive">
        <text text-anchor="end" dy="0.35em" transform="rotate(-90,0, 0)">1791-8</text>
      </g>
    </g>
    <g transform="translate(95.43,139.36)">
      <g class="primitive">
        <text text-anchor="end" dy="0.35em" transform="rotate(-90,0, 0)">1791-9</text>
      </g>
    </g>
    <g transform="translate(100.05,139.36)">
      <g class="primitive">
        <text text-anchor="end" dy="0.35em" transform="rotate(-90,0, 0)">1792-1</text>
      </g>
    </g>
    <g transform="translate(104.67,139.36)">
      <g class="primitive">
        <text text-anchor="end" dy="0.35em" transform="rotate(-90,0, 0)">1792-10</text>
      </g>
    </g>
    <g transform="translate(109.29,139.36)">
      <g class="primitive">
        <text text-anchor="end" dy="0.35em" transform="rotate(-90,0, 0)">1792-11</text>
      </g>
    </g>
    <g transform="translate(113.92,139.36)">
      <g class="primitive">
        <text text-anchor="end" dy="0.35em" transform="rotate(-90,0, 0)">1792-12</text>
      </g>
    </g>
    <g transform="translate(118.54,139.36)">
      <g class="primitive">
        <text text-anchor="end" dy="0.35em" transform="rotate(-90,0, 0)">1792-3</text>
      </g>
    </g>
    <g transform="translate(123.16,139.36)">
      <g class="primitive">
        <text text-anchor="end" dy="0.35em" transform="rotate(-90,0, 0)">1792-5</text>
      </g>
    </g>
    <g transform="translate(127.78,139.36)">
      <g class="primitive">
        <text text-anchor="end" dy="0.35em" transform="rotate(-90,0, 0)">1792-6</text>
      </g>
    </g>
    <g transform="translate(132.41,139.36)">
      <g class="primitive">
        <text text-anchor="end" dy="0.35em" transform="rotate(-90,0, 0)">1792-7</text>
      </g>
    </g>
    <g transform="translate(137.03,139.36)">
      <g class="primitive">
        <text text-anchor="end" dy="0.35em" transform="rotate(-90,0, 0)">1792-8</text>
      </g>
    </g>
    <g transform="translate(141.65,139.36)">
      <g class="primitive">
        <text text-anchor="end" dy="0.35em" transform="rotate(-90,0, 0)">1792-9</text>
      </g>
    </g>
    <g transform="translate(146.27,139.36)">
      <g class="primitive">
        <text text-anchor="end" dy="0.35em" transform="rotate(-90,0, 0)">1793-1</text>
      </g>
    </g>
    <g transform="translate(150.9,139.36)">
      <g class="primitive">
        <text text-anchor="end" dy="0.35em" transform="rotate(-90,0, 0)">1793-11</text>
      </g>
    </g>
    <g transform="translate(155.52,139.36)">
      <g class="primitive">
        <text text-anchor="end" dy="0.35em" transform="rotate(-90,0, 0)">1793-12</text>
      </g>
    </g>
    <g transform="translate(160.14,139.36)">
      <g class="primitive">
        <text text-anchor="end" dy="0.35em" transform="rotate(-90,0, 0)">1793-2</text>
      </g>
    </g>
    <g transform="translate(164.77,139.36)">
      <g class="primitive">
        <text text-anchor="end" dy="0.35em" transform="rotate(-90,0, 0)">1793-3</text>
      </g>
    </g>
    <g transform="translate(169.39,139.36)">
      <g class="primitive">
        <text text-anchor="end" dy="0.35em" transform="rotate(-90,0, 0)">1793-4</text>
      </g>
    </g>
    <g transform="translate(174.01,139.36)">
      <g class="primitive">
        <text text-anchor="end" dy="0.35em" transform="rotate(-90,0, 0)">1793-5</text>
      </g>
    </g>
    <g transform="translate(178.63,139.36)">
      <g class="primitive">
        <text text-anchor="end" dy="0.35em" transform="rotate(-90,0, 0)">1793-6</text>
      </g>
    </g>
    <g transform="translate(183.26,139.36)">
      <g class="primitive">
        <text text-anchor="end" dy="0.35em" transform="rotate(-90,0, 0)">1793-7</text>
      </g>
    </g>
    <g transform="translate(187.88,139.36)">
      <g class="primitive">
        <text text-anchor="end" dy="0.35em" transform="rotate(-90,0, 0)">1793-9</text>
      </g>
    </g>
    <g transform="translate(192.5,139.36)">
      <g class="primitive">
        <text text-anchor="end" dy="0.35em" transform="rotate(-90,0, 0)">1794-1</text>
      </g>
    </g>
    <g transform="translate(197.12,139.36)">
      <g class="primitive">
        <text text-anchor="end" dy="0.35em" transform="rotate(-90,0, 0)">1794-10</text>
      </g>
    </g>
    <g transform="translate(201.75,139.36)">
      <g class="primitive">
        <text text-anchor="end" dy="0.35em" transform="rotate(-90,0, 0)">1794-11</text>
      </g>
    </g>
    <g transform="translate(206.37,139.36)">
      <g class="primitive">
        <text text-anchor="end" dy="0.35em" transform="rotate(-90,0, 0)">1794-12</text>
      </g>
    </g>
    <g transform="translate(210.99,139.36)">
      <g class="primitive">
        <text text-anchor="end" dy="0.35em" transform="rotate(-90,0, 0)">1794-2</text>
      </g>
    </g>
    <g transform="translate(215.61,139.36)">
      <g class="primitive">
        <text text-anchor="end" dy="0.35em" transform="rotate(-90,0, 0)">1794-5</text>
      </g>
    </g>
    <g transform="translate(220.24,139.36)">
      <g class="primitive">
        <text text-anchor="end" dy="0.35em" transform="rotate(-90,0, 0)">1794-6</text>
      </g>
    </g>
    <g transform="translate(224.86,139.36)">
      <g class="primitive">
        <text text-anchor="end" dy="0.35em" transform="rotate(-90,0, 0)">1794-7</text>
      </g>
    </g>
    <g transform="translate(229.48,139.36)">
      <g class="primitive">
        <text text-anchor="end" dy="0.35em" transform="rotate(-90,0, 0)">1794-8</text>
      </g>
    </g>
    <g transform="translate(234.1,139.36)">
      <g class="primitive">
        <text text-anchor="end" dy="0.35em" transform="rotate(-90,0, 0)">1794-9</text>
      </g>
    </g>
    <g transform="translate(238.73,139.36)">
      <g class="primitive">
        <text text-anchor="end" dy="0.35em" transform="rotate(-90,0, 0)">1795-1</text>
      </g>
    </g>
    <g transform="translate(243.35,139.36)">
      <g class="primitive">
        <text text-anchor="end" dy="0.35em" transform="rotate(-90,0, 0)">1795-11</text>
      </g>
    </g>
    <g transform="translate(247.97,139.36)">
      <g class="primitive">
        <text text-anchor="end" dy="0.35em" transform="rotate(-90,0, 0)">1795-2</text>
      </g>
    </g>
    <g transform="translate(252.59,139.36)">
      <g class="primitive">
        <text text-anchor="end" dy="0.35em" transform="rotate(-90,0, 0)">1795-3</text>
      </g>
    </g>
    <g transform="translate(257.22,139.36)">
      <g class="primitive">
        <text text-anchor="end" dy="0.35em" transform="rotate(-90,0, 0)">1795-5</text>
      </g>
    </g>
    <g transform="translate(261.84,139.36)">
      <g class="primitive">
        <text text-anchor="end" dy="0.35em" transform="rotate(-90,0, 0)">1796-10</text>
      </g>
    </g>
    <g transform="translate(266.46,139.36)">
      <g class="primitive">
        <text text-anchor="end" dy="0.35em" transform="rotate(-90,0, 0)">1796-11</text>
      </g>
    </g>
    <g transform="translate(271.09,139.36)">
      <g class="primitive">
        <text text-anchor="end" dy="0.35em" transform="rotate(-90,0, 0)">1796-12</text>
      </g>
    </g>
    <g transform="translate(275.71,139.36)">
      <g class="primitive">
        <text text-anchor="end" dy="0.35em" transform="rotate(-90,0, 0)">1796-2</text>
      </g>
    </g>
    <g transform="translate(280.33,139.36)">
      <g class="primitive">
        <text text-anchor="end" dy="0.35em" transform="rotate(-90,0, 0)">1796-3</text>
      </g>
    </g>
    <g transform="translate(284.95,139.36)">
      <g class="primitive">
        <text text-anchor="end" dy="0.35em" transform="rotate(-90,0, 0)">1796-4</text>
      </g>
    </g>
    <g transform="translate(289.58,139.36)">
      <g class="primitive">
        <text text-anchor="end" dy="0.35em" transform="rotate(-90,0, 0)">1796-5</text>
      </g>
    </g>
    <g transform="translate(294.2,139.36)">
      <g class="primitive">
        <text text-anchor="end" dy="0.35em" transform="rotate(-90,0, 0)">1796-7</text>
      </g>
    </g>
    <g transform="translate(298.82,139.36)">
      <g class="primitive">
        <text text-anchor="end" dy="0.35em" transform="rotate(-90,0, 0)">1796-8</text>
      </g>
    </g>
    <g transform="translate(303.44,139.36)">
      <g class="primitive">
        <text text-anchor="end" dy="0.35em" transform="rotate(-90,0, 0)">1796-9</text>
      </g>
    </g>
    <g transform="translate(308.07,139.36)">
      <g class="primitive">
        <text text-anchor="end" dy="0.35em" transform="rotate(-90,0, 0)">1797-1</text>
      </g>
    </g>
    <g transform="translate(312.69,139.36)">
      <g class="primitive">
        <text text-anchor="end" dy="0.35em" transform="rotate(-90,0, 0)">no year-no month</text>
      </g>
    </g>
  </g>
  <g clip-path="url(#img-5d5e1071-5)">
    <g id="img-5d5e1071-6">
      <g pointer-events="visible" stroke-width="0.3" fill="#000000" fill-opacity="0.000" stroke="#000000" stroke-opacity="0.000" class="guide background" id="img-5d5e1071-7">
        <g transform="translate(171.7,74.48)" id="img-5d5e1071-8">
          <path d="M-143.3,-63.87 L143.3,-63.87 143.3,63.87 -143.3,63.87  z" class="primitive"/>
        </g>
      </g>
      <g class="guide ygridlines xfixed" stroke-dasharray="0.5,0.5" stroke-width="0.2" stroke="#D0D0E0" id="img-5d5e1071-9">
        <g transform="translate(171.7,136.36)" id="img-5d5e1071-10">
          <path fill="none" d="M-143.3,0 L143.3,0 " class="primitive"/>
        </g>
        <g transform="translate(171.7,105.42)" id="img-5d5e1071-11">
          <path fill="none" d="M-143.3,0 L143.3,0 " class="primitive"/>
        </g>
        <g transform="translate(171.7,74.48)" id="img-5d5e1071-12">
          <path fill="none" d="M-143.3,0 L143.3,0 " class="primitive"/>
        </g>
        <g transform="translate(171.7,43.55)" id="img-5d5e1071-13">
          <path fill="none" d="M-143.3,0 L143.3,0 " class="primitive"/>
        </g>
        <g transform="translate(171.7,12.61)" id="img-5d5e1071-14">
          <path fill="none" d="M-143.3,0 L143.3,0 " class="primitive"/>
        </g>
      </g>
      <g class="guide xgridlines yfixed" stroke-dasharray="0.5,0.5" stroke-width="0.2" stroke="#D0D0E0" id="img-5d5e1071-15">
        <g transform="translate(33.02,74.48)" id="img-5d5e1071-16">
          <path fill="none" d="M0,-63.87 L0,63.87 " class="primitive"/>
        </g>
        <g transform="translate(37.64,74.48)" id="img-5d5e1071-17">
          <path fill="none" d="M0,-63.87 L0,63.87 " class="primitive"/>
        </g>
        <g transform="translate(42.27,74.48)" id="img-5d5e1071-18">
          <path fill="none" d="M0,-63.87 L0,63.87 " class="primitive"/>
        </g>
        <g transform="translate(46.89,74.48)" id="img-5d5e1071-19">
          <path fill="none" d="M0,-63.87 L0,63.87 " class="primitive"/>
        </g>
        <g transform="translate(51.51,74.48)" id="img-5d5e1071-20">
          <path fill="none" d="M0,-63.87 L0,63.87 " class="primitive"/>
        </g>
        <g transform="translate(56.13,74.48)" id="img-5d5e1071-21">
          <path fill="none" d="M0,-63.87 L0,63.87 " class="primitive"/>
        </g>
        <g transform="translate(60.76,74.48)" id="img-5d5e1071-22">
          <path fill="none" d="M0,-63.87 L0,63.87 " class="primitive"/>
        </g>
        <g transform="translate(65.38,74.48)" id="img-5d5e1071-23">
          <path fill="none" d="M0,-63.87 L0,63.87 " class="primitive"/>
        </g>
        <g transform="translate(70,74.48)" id="img-5d5e1071-24">
          <path fill="none" d="M0,-63.87 L0,63.87 " class="primitive"/>
        </g>
        <g transform="translate(74.62,74.48)" id="img-5d5e1071-25">
          <path fill="none" d="M0,-63.87 L0,63.87 " class="primitive"/>
        </g>
        <g transform="translate(79.25,74.48)" id="img-5d5e1071-26">
          <path fill="none" d="M0,-63.87 L0,63.87 " class="primitive"/>
        </g>
        <g transform="translate(83.87,74.48)" id="img-5d5e1071-27">
          <path fill="none" d="M0,-63.87 L0,63.87 " class="primitive"/>
        </g>
        <g transform="translate(88.49,74.48)" id="img-5d5e1071-28">
          <path fill="none" d="M0,-63.87 L0,63.87 " class="primitive"/>
        </g>
        <g transform="translate(93.11,74.48)" id="img-5d5e1071-29">
          <path fill="none" d="M0,-63.87 L0,63.87 " class="primitive"/>
        </g>
        <g transform="translate(97.74,74.48)" id="img-5d5e1071-30">
          <path fill="none" d="M0,-63.87 L0,63.87 " class="primitive"/>
        </g>
        <g transform="translate(102.36,74.48)" id="img-5d5e1071-31">
          <path fill="none" d="M0,-63.87 L0,63.87 " class="primitive"/>
        </g>
        <g transform="translate(106.98,74.48)" id="img-5d5e1071-32">
          <path fill="none" d="M0,-63.87 L0,63.87 " class="primitive"/>
        </g>
        <g transform="translate(111.61,74.48)" id="img-5d5e1071-33">
          <path fill="none" d="M0,-63.87 L0,63.87 " class="primitive"/>
        </g>
        <g transform="translate(116.23,74.48)" id="img-5d5e1071-34">
          <path fill="none" d="M0,-63.87 L0,63.87 " class="primitive"/>
        </g>
        <g transform="translate(120.85,74.48)" id="img-5d5e1071-35">
          <path fill="none" d="M0,-63.87 L0,63.87 " class="primitive"/>
        </g>
        <g transform="translate(125.47,74.48)" id="img-5d5e1071-36">
          <path fill="none" d="M0,-63.87 L0,63.87 " class="primitive"/>
        </g>
        <g transform="translate(130.1,74.48)" id="img-5d5e1071-37">
          <path fill="none" d="M0,-63.87 L0,63.87 " class="primitive"/>
        </g>
        <g transform="translate(134.72,74.48)" id="img-5d5e1071-38">
          <path fill="none" d="M0,-63.87 L0,63.87 " class="primitive"/>
        </g>
        <g transform="translate(139.34,74.48)" id="img-5d5e1071-39">
          <path fill="none" d="M0,-63.87 L0,63.87 " class="primitive"/>
        </g>
        <g transform="translate(143.96,74.48)" id="img-5d5e1071-40">
          <path fill="none" d="M0,-63.87 L0,63.87 " class="primitive"/>
        </g>
        <g transform="translate(148.59,74.48)" id="img-5d5e1071-41">
          <path fill="none" d="M0,-63.87 L0,63.87 " class="primitive"/>
        </g>
        <g transform="translate(153.21,74.48)" id="img-5d5e1071-42">
          <path fill="none" d="M0,-63.87 L0,63.87 " class="primitive"/>
        </g>
        <g transform="translate(157.83,74.48)" id="img-5d5e1071-43">
          <path fill="none" d="M0,-63.87 L0,63.87 " class="primitive"/>
        </g>
        <g transform="translate(162.45,74.48)" id="img-5d5e1071-44">
          <path fill="none" d="M0,-63.87 L0,63.87 " class="primitive"/>
        </g>
        <g transform="translate(167.08,74.48)" id="img-5d5e1071-45">
          <path fill="none" d="M0,-63.87 L0,63.87 " class="primitive"/>
        </g>
        <g transform="translate(171.7,74.48)" id="img-5d5e1071-46">
          <path fill="none" d="M0,-63.87 L0,63.87 " class="primitive"/>
        </g>
        <g transform="translate(176.32,74.48)" id="img-5d5e1071-47">
          <path fill="none" d="M0,-63.87 L0,63.87 " class="primitive"/>
        </g>
        <g transform="translate(180.94,74.48)" id="img-5d5e1071-48">
          <path fill="none" d="M0,-63.87 L0,63.87 " class="primitive"/>
        </g>
        <g transform="translate(185.57,74.48)" id="img-5d5e1071-49">
          <path fill="none" d="M0,-63.87 L0,63.87 " class="primitive"/>
        </g>
        <g transform="translate(190.19,74.48)" id="img-5d5e1071-50">
          <path fill="none" d="M0,-63.87 L0,63.87 " class="primitive"/>
        </g>
        <g transform="translate(194.81,74.48)" id="img-5d5e1071-51">
          <path fill="none" d="M0,-63.87 L0,63.87 " class="primitive"/>
        </g>
        <g transform="translate(199.43,74.48)" id="img-5d5e1071-52">
          <path fill="none" d="M0,-63.87 L0,63.87 " class="primitive"/>
        </g>
        <g transform="translate(204.06,74.48)" id="img-5d5e1071-53">
          <path fill="none" d="M0,-63.87 L0,63.87 " class="primitive"/>
        </g>
        <g transform="translate(208.68,74.48)" id="img-5d5e1071-54">
          <path fill="none" d="M0,-63.87 L0,63.87 " class="primitive"/>
        </g>
        <g transform="translate(213.3,74.48)" id="img-5d5e1071-55">
          <path fill="none" d="M0,-63.87 L0,63.87 " class="primitive"/>
        </g>
        <g transform="translate(217.93,74.48)" id="img-5d5e1071-56">
          <path fill="none" d="M0,-63.87 L0,63.87 " class="primitive"/>
        </g>
        <g transform="translate(222.55,74.48)" id="img-5d5e1071-57">
          <path fill="none" d="M0,-63.87 L0,63.87 " class="primitive"/>
        </g>
        <g transform="translate(227.17,74.48)" id="img-5d5e1071-58">
          <path fill="none" d="M0,-63.87 L0,63.87 " class="primitive"/>
        </g>
        <g transform="translate(231.79,74.48)" id="img-5d5e1071-59">
          <path fill="none" d="M0,-63.87 L0,63.87 " class="primitive"/>
        </g>
        <g transform="translate(236.42,74.48)" id="img-5d5e1071-60">
          <path fill="none" d="M0,-63.87 L0,63.87 " class="primitive"/>
        </g>
        <g transform="translate(241.04,74.48)" id="img-5d5e1071-61">
          <path fill="none" d="M0,-63.87 L0,63.87 " class="primitive"/>
        </g>
        <g transform="translate(245.66,74.48)" id="img-5d5e1071-62">
          <path fill="none" d="M0,-63.87 L0,63.87 " class="primitive"/>
        </g>
        <g transform="translate(250.28,74.48)" id="img-5d5e1071-63">
          <path fill="none" d="M0,-63.87 L0,63.87 " class="primitive"/>
        </g>
        <g transform="translate(254.91,74.48)" id="img-5d5e1071-64">
          <path fill="none" d="M0,-63.87 L0,63.87 " class="primitive"/>
        </g>
        <g transform="translate(259.53,74.48)" id="img-5d5e1071-65">
          <path fill="none" d="M0,-63.87 L0,63.87 " class="primitive"/>
        </g>
        <g transform="translate(264.15,74.48)" id="img-5d5e1071-66">
          <path fill="none" d="M0,-63.87 L0,63.87 " class="primitive"/>
        </g>
        <g transform="translate(268.77,74.48)" id="img-5d5e1071-67">
          <path fill="none" d="M0,-63.87 L0,63.87 " class="primitive"/>
        </g>
        <g transform="translate(273.4,74.48)" id="img-5d5e1071-68">
          <path fill="none" d="M0,-63.87 L0,63.87 " class="primitive"/>
        </g>
        <g transform="translate(278.02,74.48)" id="img-5d5e1071-69">
          <path fill="none" d="M0,-63.87 L0,63.87 " class="primitive"/>
        </g>
        <g transform="translate(282.64,74.48)" id="img-5d5e1071-70">
          <path fill="none" d="M0,-63.87 L0,63.87 " class="primitive"/>
        </g>
        <g transform="translate(287.26,74.48)" id="img-5d5e1071-71">
          <path fill="none" d="M0,-63.87 L0,63.87 " class="primitive"/>
        </g>
        <g transform="translate(291.89,74.48)" id="img-5d5e1071-72">
          <path fill="none" d="M0,-63.87 L0,63.87 " class="primitive"/>
        </g>
        <g transform="translate(296.51,74.48)" id="img-5d5e1071-73">
          <path fill="none" d="M0,-63.87 L0,63.87 " class="primitive"/>
        </g>
        <g transform="translate(301.13,74.48)" id="img-5d5e1071-74">
          <path fill="none" d="M0,-63.87 L0,63.87 " class="primitive"/>
        </g>
        <g transform="translate(305.75,74.48)" id="img-5d5e1071-75">
          <path fill="none" d="M0,-63.87 L0,63.87 " class="primitive"/>
        </g>
        <g transform="translate(310.38,74.48)" id="img-5d5e1071-76">
          <path fill="none" d="M0,-63.87 L0,63.87 " class="primitive"/>
        </g>
      </g>
      <g class="plotpanel" id="img-5d5e1071-77">
        <metadata>
          <boundingbox value="28.39833333333337mm 10.611666666666665mm 286.6016666666667mm 127.74333333333333mm"/>
          <unitbox value="0.5 203232.4973735959 62.0 -206464.99474719175"/>
        </metadata>
        <g shape-rendering="crispEdges" stroke-width="0.3" id="img-5d5e1071-78">
          <g class="geometry" fill-opacity="1" stroke="#000000" stroke-opacity="0.000" fill="#00BFFF" id="img-5d5e1071-79">
            <g transform="translate(30.71,114.4)" id="img-5d5e1071-80">
              <path d="M-2.34,-21.96 L2.34,-21.96 2.34,21.96 -2.34,21.96  z" class="primitive"/>
            </g>
            <g transform="translate(35.33,125.41)" id="img-5d5e1071-81">
              <path d="M-2.34,-10.95 L2.34,-10.95 2.34,10.95 -2.34,10.95  z" class="primitive"/>
            </g>
            <g transform="translate(39.95,125.93)" id="img-5d5e1071-82">
              <path d="M-2.34,-10.42 L2.34,-10.42 2.34,10.42 -2.34,10.42  z" class="primitive"/>
            </g>
            <g transform="translate(44.58,127.73)" id="img-5d5e1071-83">
              <path d="M-2.34,-8.62 L2.34,-8.62 2.34,8.62 -2.34,8.62  z" class="primitive"/>
            </g>
            <g transform="translate(49.2,126.98)" id="img-5d5e1071-84">
              <path d="M-2.34,-9.38 L2.34,-9.38 2.34,9.38 -2.34,9.38  z" class="primitive"/>
            </g>
            <g transform="translate(53.82,135.47)" id="img-5d5e1071-85">
              <path d="M-2.34,-0.88 L2.34,-0.88 2.34,0.88 -2.34,0.88  z" class="primitive"/>
            </g>
            <g transform="translate(58.45,136.36)" id="img-5d5e1071-86">
              <path d="M-2.34,-0 L2.34,-0 2.34,0 -2.34,0  z" class="primitive"/>
            </g>
            <g transform="translate(63.07,127.29)" id="img-5d5e1071-87">
              <path d="M-2.34,-9.06 L2.34,-9.06 2.34,9.06 -2.34,9.06  z" class="primitive"/>
            </g>
            <g transform="translate(67.69,118.23)" id="img-5d5e1071-88">
              <path d="M-2.34,-18.13 L2.34,-18.13 2.34,18.13 -2.34,18.13  z" class="primitive"/>
            </g>
            <g transform="translate(72.31,84.32)" id="img-5d5e1071-89">
              <path d="M-2.34,-52.03 L2.34,-52.03 2.34,52.03 -2.34,52.03  z" class="primitive"/>
            </g>
            <g transform="translate(76.94,127.92)" id="img-5d5e1071-90">
              <path d="M-2.34,-8.43 L2.34,-8.43 2.34,8.43 -2.34,8.43  z" class="primitive"/>
            </g>
            <g transform="translate(81.56,133.93)" id="img-5d5e1071-91">
              <path d="M-2.34,-2.42 L2.34,-2.42 2.34,2.42 -2.34,2.42  z" class="primitive"/>
            </g>
            <g transform="translate(86.18,134.18)" id="img-5d5e1071-92">
              <path d="M-2.34,-2.18 L2.34,-2.18 2.34,2.18 -2.34,2.18  z" class="primitive"/>
            </g>
            <g transform="translate(90.8,130.21)" id="img-5d5e1071-93">
              <path d="M-2.34,-6.15 L2.34,-6.15 2.34,6.15 -2.34,6.15  z" class="primitive"/>
            </g>
            <g transform="translate(95.43,97.47)" id="img-5d5e1071-94">
              <path d="M-2.34,-38.89 L2.34,-38.89 2.34,38.89 -2.34,38.89  z" class="primitive"/>
            </g>
            <g transform="translate(100.05,136.03)" id="img-5d5e1071-95">
              <path d="M-2.34,-0.32 L2.34,-0.32 2.34,0.32 -2.34,0.32  z" class="primitive"/>
            </g>
            <g transform="translate(104.67,136.17)" id="img-5d5e1071-96">
              <path d="M-2.34,-0.18 L2.34,-0.18 2.34,0.18 -2.34,0.18  z" class="primitive"/>
            </g>
            <g transform="translate(109.29,136.15)" id="img-5d5e1071-97">
              <path d="M-2.34,-0.2 L2.34,-0.2 2.34,0.2 -2.34,0.2  z" class="primitive"/>
            </g>
            <g transform="translate(113.92,135.97)" id="img-5d5e1071-98">
              <path d="M-2.34,-0.39 L2.34,-0.39 2.34,0.39 -2.34,0.39  z" class="primitive"/>
            </g>
            <g transform="translate(118.54,136.35)" id="img-5d5e1071-99">
              <path d="M-2.34,-0.01 L2.34,-0.01 2.34,0.01 -2.34,0.01  z" class="primitive"/>
            </g>
            <g transform="translate(123.16,136.36)" id="img-5d5e1071-100">
              <path d="M-2.34,-0 L2.34,-0 2.34,0 -2.34,0  z" class="primitive"/>
            </g>
            <g transform="translate(127.78,135.83)" id="img-5d5e1071-101">
              <path d="M-2.34,-0.53 L2.34,-0.53 2.34,0.53 -2.34,0.53  z" class="primitive"/>
            </g>
            <g transform="translate(132.41,136.06)" id="img-5d5e1071-102">
              <path d="M-2.34,-0.3 L2.34,-0.3 2.34,0.3 -2.34,0.3  z" class="primitive"/>
            </g>
            <g transform="translate(137.03,136.15)" id="img-5d5e1071-103">
              <path d="M-2.34,-0.21 L2.34,-0.21 2.34,0.21 -2.34,0.21  z" class="primitive"/>
            </g>
            <g transform="translate(141.65,136.32)" id="img-5d5e1071-104">
              <path d="M-2.34,-0.03 L2.34,-0.03 2.34,0.03 -2.34,0.03  z" class="primitive"/>
            </g>
            <g transform="translate(146.27,136.32)" id="img-5d5e1071-105">
              <path d="M-2.34,-0.03 L2.34,-0.03 2.34,0.03 -2.34,0.03  z" class="primitive"/>
            </g>
            <g transform="translate(150.9,136.36)" id="img-5d5e1071-106">
              <path d="M-2.34,-0 L2.34,-0 2.34,0 -2.34,0  z" class="primitive"/>
            </g>
            <g transform="translate(155.52,136.36)" id="img-5d5e1071-107">
              <path d="M-2.34,-0 L2.34,-0 2.34,0 -2.34,0  z" class="primitive"/>
            </g>
            <g transform="translate(160.14,135.04)" id="img-5d5e1071-108">
              <path d="M-2.34,-1.32 L2.34,-1.32 2.34,1.32 -2.34,1.32  z" class="primitive"/>
            </g>
            <g transform="translate(164.77,125.47)" id="img-5d5e1071-109">
              <path d="M-2.34,-10.89 L2.34,-10.89 2.34,10.89 -2.34,10.89  z" class="primitive"/>
            </g>
            <g transform="translate(169.39,136.31)" id="img-5d5e1071-110">
              <path d="M-2.34,-0.04 L2.34,-0.04 2.34,0.04 -2.34,0.04  z" class="primitive"/>
            </g>
            <g transform="translate(174.01,135.12)" id="img-5d5e1071-111">
              <path d="M-2.34,-1.24 L2.34,-1.24 2.34,1.24 -2.34,1.24  z" class="primitive"/>
            </g>
            <g transform="translate(178.63,136.17)" id="img-5d5e1071-112">
              <path d="M-2.34,-0.19 L2.34,-0.19 2.34,0.19 -2.34,0.19  z" class="primitive"/>
            </g>
            <g transform="translate(183.26,136.36)" id="img-5d5e1071-113">
              <path d="M-2.34,-0 L2.34,-0 2.34,0 -2.34,0  z" class="primitive"/>
            </g>
            <g transform="translate(187.88,136.26)" id="img-5d5e1071-114">
              <path d="M-2.34,-0.09 L2.34,-0.09 2.34,0.09 -2.34,0.09  z" class="primitive"/>
            </g>
            <g transform="translate(192.5,136.25)" id="img-5d5e1071-115">
              <path d="M-2.34,-0.11 L2.34,-0.11 2.34,0.11 -2.34,0.11  z" class="primitive"/>
            </g>
            <g transform="translate(197.12,136.36)" id="img-5d5e1071-116">
              <path d="M-2.34,-0 L2.34,-0 2.34,0 -2.34,0  z" class="primitive"/>
            </g>
            <g transform="translate(201.75,136.34)" id="img-5d5e1071-117">
              <path d="M-2.34,-0.02 L2.34,-0.02 2.34,0.02 -2.34,0.02  z" class="primitive"/>
            </g>
            <g transform="translate(206.37,136.31)" id="img-5d5e1071-118">
              <path d="M-2.34,-0.04 L2.34,-0.04 2.34,0.04 -2.34,0.04  z" class="primitive"/>
            </g>
            <g transform="translate(210.99,136.34)" id="img-5d5e1071-119">
              <path d="M-2.34,-0.01 L2.34,-0.01 2.34,0.01 -2.34,0.01  z" class="primitive"/>
            </g>
            <g transform="translate(215.61,136.36)" id="img-5d5e1071-120">
              <path d="M-2.34,-0 L2.34,-0 2.34,0 -2.34,0  z" class="primitive"/>
            </g>
            <g transform="translate(220.24,136.36)" id="img-5d5e1071-121">
              <path d="M-2.34,-0 L2.34,-0 2.34,0 -2.34,0  z" class="primitive"/>
            </g>
            <g transform="translate(224.86,136.36)" id="img-5d5e1071-122">
              <path d="M-2.34,-0 L2.34,-0 2.34,0 -2.34,0  z" class="primitive"/>
            </g>
            <g transform="translate(229.48,136.33)" id="img-5d5e1071-123">
              <path d="M-2.34,-0.03 L2.34,-0.03 2.34,0.03 -2.34,0.03  z" class="primitive"/>
            </g>
            <g transform="translate(234.1,136.34)" id="img-5d5e1071-124">
              <path d="M-2.34,-0.01 L2.34,-0.01 2.34,0.01 -2.34,0.01  z" class="primitive"/>
            </g>
            <g transform="translate(238.73,136.36)" id="img-5d5e1071-125">
              <path d="M-2.34,-0 L2.34,-0 2.34,0 -2.34,0  z" class="primitive"/>
            </g>
            <g transform="translate(243.35,136.32)" id="img-5d5e1071-126">
              <path d="M-2.34,-0.03 L2.34,-0.03 2.34,0.03 -2.34,0.03  z" class="primitive"/>
            </g>
            <g transform="translate(247.97,136.36)" id="img-5d5e1071-127">
              <path d="M-2.34,-0 L2.34,-0 2.34,0 -2.34,0  z" class="primitive"/>
            </g>
            <g transform="translate(252.59,136.36)" id="img-5d5e1071-128">
              <path d="M-2.34,-0 L2.34,-0 2.34,0 -2.34,0  z" class="primitive"/>
            </g>
            <g transform="translate(257.22,136.19)" id="img-5d5e1071-129">
              <path d="M-2.34,-0.17 L2.34,-0.17 2.34,0.17 -2.34,0.17  z" class="primitive"/>
            </g>
            <g transform="translate(261.84,136.36)" id="img-5d5e1071-130">
              <path d="M-2.34,-0 L2.34,-0 2.34,0 -2.34,0  z" class="primitive"/>
            </g>
            <g transform="translate(266.46,136.35)" id="img-5d5e1071-131">
              <path d="M-2.34,-0 L2.34,-0 2.34,0 -2.34,0  z" class="primitive"/>
            </g>
            <g transform="translate(271.09,136.32)" id="img-5d5e1071-132">
              <path d="M-2.34,-0.03 L2.34,-0.03 2.34,0.03 -2.34,0.03  z" class="primitive"/>
            </g>
            <g transform="translate(275.71,136.36)" id="img-5d5e1071-133">
              <path d="M-2.34,-0 L2.34,-0 2.34,0 -2.34,0  z" class="primitive"/>
            </g>
            <g transform="translate(280.33,136.36)" id="img-5d5e1071-134">
              <path d="M-2.34,-0 L2.34,-0 2.34,0 -2.34,0  z" class="primitive"/>
            </g>
            <g transform="translate(284.95,136.36)" id="img-5d5e1071-135">
              <path d="M-2.34,-0 L2.34,-0 2.34,0 -2.34,0  z" class="primitive"/>
            </g>
            <g transform="translate(289.58,136.28)" id="img-5d5e1071-136">
              <path d="M-2.34,-0.07 L2.34,-0.07 2.34,0.07 -2.34,0.07  z" class="primitive"/>
            </g>
            <g transform="translate(294.2,136.36)" id="img-5d5e1071-137">
              <path d="M-2.34,-0 L2.34,-0 2.34,0 -2.34,0  z" class="primitive"/>
            </g>
            <g transform="translate(298.82,136.36)" id="img-5d5e1071-138">
              <path d="M-2.34,-0 L2.34,-0 2.34,0 -2.34,0  z" class="primitive"/>
            </g>
            <g transform="translate(303.44,136.36)" id="img-5d5e1071-139">
              <path d="M-2.34,-0 L2.34,-0 2.34,0 -2.34,0  z" class="primitive"/>
            </g>
            <g transform="translate(308.07,136.36)" id="img-5d5e1071-140">
              <path d="M-2.34,-0 L2.34,-0 2.34,0 -2.34,0  z" class="primitive"/>
            </g>
            <g transform="translate(312.69,104.62)" id="img-5d5e1071-141">
              <path d="M-2.34,-31.74 L2.34,-31.74 2.34,31.74 -2.34,31.74  z" class="primitive"/>
            </g>
          </g>
        </g>
      </g>
    </g>
  </g>
  <g class="guide ylabels" font-size="2.82" font-family="'PT Sans Caption','Helvetica Neue','Helvetica',sans-serif" fill="#6C606B" id="img-5d5e1071-142">
    <g transform="translate(27.4,136.36)" id="img-5d5e1071-143">
      <g class="primitive">
        <text text-anchor="end" dy="0.35em">0</text>
      </g>
    </g>
    <g transform="translate(27.4,105.42)" id="img-5d5e1071-144">
      <g class="primitive">
        <text text-anchor="end" dy="0.35em">5.00×10⁴</text>
      </g>
    </g>
    <g transform="translate(27.4,74.48)" id="img-5d5e1071-145">
      <g class="primitive">
        <text text-anchor="end" dy="0.35em">1.00×10⁵</text>
      </g>
    </g>
    <g transform="translate(27.4,43.55)" id="img-5d5e1071-146">
      <g class="primitive">
        <text text-anchor="end" dy="0.35em">1.50×10⁵</text>
      </g>
    </g>
    <g transform="translate(27.4,12.61)" id="img-5d5e1071-147">
      <g class="primitive">
        <text text-anchor="end" dy="0.35em">2.00×10⁵</text>
      </g>
    </g>
  </g>
  <g font-size="3.88" font-family="'PT Sans','Helvetica Neue','Helvetica',sans-serif" fill="#564A55" stroke="#000000" stroke-opacity="0.000" id="img-5d5e1071-148">
    <g transform="translate(8.81,72.48)" id="img-5d5e1071-149">
      <g class="primitive">
        <text text-anchor="middle" dy="0.35em" transform="rotate(-90,0, 2)">Total Debt (in dollars)</text>
      </g>
    </g>
  </g>
  <g font-size="3.88" font-family="'PT Sans','Helvetica Neue','Helvetica',sans-serif" fill="#564A55" stroke="#000000" stroke-opacity="0.000" id="img-5d5e1071-150">
    <g transform="translate(171.7,5)" id="img-5d5e1071-151">
      <g class="primitive">
        <text text-anchor="middle" dy="0.6em">MD Debt Redeemed Per Year/Month</text>
      </g>
    </g>
  </g>
</g>
<defs>
  <clipPath id="img-5d5e1071-5">
    <path d="M28.4,10.61 L315,10.61 315,138.35 28.4,138.35 " />
  </clipPath>
</defs>
</svg>
