<?xml version="1.0" encoding="UTF-8"?>
<svg xmlns="http://www.w3.org/2000/svg"
     xmlns:xlink="http://www.w3.org/1999/xlink"
     xmlns:gadfly="http://www.gadflyjl.org/ns"
     version="1.2"
     width="320mm" height="180mm" viewBox="0 0 320 180"
     stroke="none"
     fill="#000000"
     stroke-width="0.3"
     font-size="3.88"
>
<defs>
  <marker id="arrow" markerWidth="15" markerHeight="7" refX="5" refY="3.5" orient="auto" markerUnits="strokeWidth">
    <path d="M0,0 L15,3.5 L0,7 z" stroke="context-stroke" fill="context-stroke"/>
  </marker>
</defs>
<g stroke="#000000" stroke-opacity="0.000" fill="#FFFFFF" id="img-c2574568-1">
  <g transform="translate(160,90)">
    <path d="M-160,-90 L160,-90 160,90 -160,90  z" class="primitive"/>
  </g>
</g>
<g class="plotroot yscalable" id="img-c2574568-2">
  <g font-size="3.88" font-family="'PT Sans','Helvetica Neue','Helvetica',sans-serif" fill="#564A55" stroke="#000000" stroke-opacity="0.000" id="img-c2574568-3">
    <g transform="translate(170.86,168.39)">
      <g class="primitive">
        <text text-anchor="middle" dy="0.6em">Year</text>
      </g>
    </g>
  </g>
  <g class="guide xlabels" font-size="2.82" font-family="'PT Sans Caption','Helvetica Neue','Helvetica',sans-serif" fill="#6C606B" id="img-c2574568-4">
    <g transform="translate(34.31,161.72)">
      <g class="primitive">
        <text text-anchor="middle" dy="0.6em">1791-10</text>
      </g>
    </g>
    <g transform="translate(49.48,161.72)">
      <g class="primitive">
        <text text-anchor="middle" dy="0.6em">1791-12</text>
      </g>
    </g>
    <g transform="translate(64.66,161.72)">
      <g class="primitive">
        <text text-anchor="middle" dy="0.6em">1791-2</text>
      </g>
    </g>
    <g transform="translate(79.83,161.72)">
      <g class="primitive">
        <text text-anchor="middle" dy="0.6em">1791-4</text>
      </g>
    </g>
    <g transform="translate(95,161.72)">
      <g class="primitive">
        <text text-anchor="middle" dy="0.6em">1791-6</text>
      </g>
    </g>
    <g transform="translate(110.17,161.72)">
      <g class="primitive">
        <text text-anchor="middle" dy="0.6em">1791-7</text>
      </g>
    </g>
    <g transform="translate(125.35,161.72)">
      <g class="primitive">
        <text text-anchor="middle" dy="0.6em">1791-8</text>
      </g>
    </g>
    <g transform="translate(140.52,161.72)">
      <g class="primitive">
        <text text-anchor="middle" dy="0.6em">1791-9</text>
      </g>
    </g>
    <g transform="translate(155.69,161.72)">
      <g class="primitive">
        <text text-anchor="middle" dy="0.6em">1792-11</text>
      </g>
    </g>
    <g transform="translate(170.86,161.72)">
      <g class="primitive">
        <text text-anchor="middle" dy="0.6em">1792-12</text>
      </g>
    </g>
    <g transform="translate(186.03,161.72)">
      <g class="primitive">
        <text text-anchor="middle" dy="0.6em">1792-5</text>
      </g>
    </g>
    <g transform="translate(201.21,161.72)">
      <g class="primitive">
        <text text-anchor="middle" dy="0.6em">1792-7</text>
      </g>
    </g>
    <g transform="translate(216.38,161.72)">
      <g class="primitive">
        <text text-anchor="middle" dy="0.6em">1792-9</text>
      </g>
    </g>
    <g transform="translate(231.55,161.72)">
      <g class="primitive">
        <text text-anchor="middle" dy="0.6em">1793-1</text>
      </g>
    </g>
    <g transform="translate(246.72,161.72)">
      <g class="primitive">
        <text text-anchor="middle" dy="0.6em">1793-2</text>
      </g>
    </g>
    <g transform="translate(261.9,161.72)">
      <g class="primitive">
        <text text-anchor="middle" dy="0.6em">1793-4</text>
      </g>
    </g>
    <g transform="translate(277.07,161.72)">
      <g class="primitive">
        <text text-anchor="middle" dy="0.6em">1793-6</text>
      </g>
    </g>
    <g transform="translate(292.24,161.72)">
      <g class="primitive">
        <text text-anchor="middle" dy="0.6em">1794-2</text>
      </g>
    </g>
    <g transform="translate(307.41,161.72)">
      <g class="primitive">
        <text text-anchor="middle" dy="0.6em">1794-7</text>
      </g>
    </g>
  </g>
  <g clip-path="url(#img-c2574568-5)">
    <g id="img-c2574568-6">
      <g pointer-events="visible" stroke-width="0.3" fill="#000000" fill-opacity="0.000" stroke="#000000" stroke-opacity="0.000" class="guide background" id="img-c2574568-7">
        <g transform="translate(170.86,85.66)" id="img-c2574568-8">
          <path d="M-144.14,-75.05 L144.14,-75.05 144.14,75.05 -144.14,75.05  z" class="primitive"/>
        </g>
      </g>
      <g class="guide ygridlines xfixed" stroke-dasharray="0.5,0.5" stroke-width="0.2" stroke="#D0D0E0" id="img-c2574568-9">
        <g transform="translate(170.86,158.72)" id="img-c2574568-10">
          <path fill="none" d="M-144.14,0 L144.14,0 " class="primitive"/>
        </g>
        <g transform="translate(170.86,110.01)" id="img-c2574568-11">
          <path fill="none" d="M-144.14,0 L144.14,0 " class="primitive"/>
        </g>
        <g transform="translate(170.86,61.31)" id="img-c2574568-12">
          <path fill="none" d="M-144.14,0 L144.14,0 " class="primitive"/>
        </g>
        <g transform="translate(170.86,12.61)" id="img-c2574568-13">
          <path fill="none" d="M-144.14,0 L144.14,0 " class="primitive"/>
        </g>
      </g>
      <g class="guide xgridlines yfixed" stroke-dasharray="0.5,0.5" stroke-width="0.2" stroke="#D0D0E0" id="img-c2574568-14">
        <g transform="translate(41.9,85.66)" id="img-c2574568-15">
          <path fill="none" d="M0,-75.05 L0,75.05 " class="primitive"/>
        </g>
        <g transform="translate(57.07,85.66)" id="img-c2574568-16">
          <path fill="none" d="M0,-75.05 L0,75.05 " class="primitive"/>
        </g>
        <g transform="translate(72.24,85.66)" id="img-c2574568-17">
          <path fill="none" d="M0,-75.05 L0,75.05 " class="primitive"/>
        </g>
        <g transform="translate(87.41,85.66)" id="img-c2574568-18">
          <path fill="none" d="M0,-75.05 L0,75.05 " class="primitive"/>
        </g>
        <g transform="translate(102.59,85.66)" id="img-c2574568-19">
          <path fill="none" d="M0,-75.05 L0,75.05 " class="primitive"/>
        </g>
        <g transform="translate(117.76,85.66)" id="img-c2574568-20">
          <path fill="none" d="M0,-75.05 L0,75.05 " class="primitive"/>
        </g>
        <g transform="translate(132.93,85.66)" id="img-c2574568-21">
          <path fill="none" d="M0,-75.05 L0,75.05 " class="primitive"/>
        </g>
        <g transform="translate(148.1,85.66)" id="img-c2574568-22">
          <path fill="none" d="M0,-75.05 L0,75.05 " class="primitive"/>
        </g>
        <g transform="translate(163.28,85.66)" id="img-c2574568-23">
          <path fill="none" d="M0,-75.05 L0,75.05 " class="primitive"/>
        </g>
        <g transform="translate(178.45,85.66)" id="img-c2574568-24">
          <path fill="none" d="M0,-75.05 L0,75.05 " class="primitive"/>
        </g>
        <g transform="translate(193.62,85.66)" id="img-c2574568-25">
          <path fill="none" d="M0,-75.05 L0,75.05 " class="primitive"/>
        </g>
        <g transform="translate(208.79,85.66)" id="img-c2574568-26">
          <path fill="none" d="M0,-75.05 L0,75.05 " class="primitive"/>
        </g>
        <g transform="translate(223.97,85.66)" id="img-c2574568-27">
          <path fill="none" d="M0,-75.05 L0,75.05 " class="primitive"/>
        </g>
        <g transform="translate(239.14,85.66)" id="img-c2574568-28">
          <path fill="none" d="M0,-75.05 L0,75.05 " class="primitive"/>
        </g>
        <g transform="translate(254.31,85.66)" id="img-c2574568-29">
          <path fill="none" d="M0,-75.05 L0,75.05 " class="primitive"/>
        </g>
        <g transform="translate(269.48,85.66)" id="img-c2574568-30">
          <path fill="none" d="M0,-75.05 L0,75.05 " class="primitive"/>
        </g>
        <g transform="translate(284.66,85.66)" id="img-c2574568-31">
          <path fill="none" d="M0,-75.05 L0,75.05 " class="primitive"/>
        </g>
        <g transform="translate(299.83,85.66)" id="img-c2574568-32">
          <path fill="none" d="M0,-75.05 L0,75.05 " class="primitive"/>
        </g>
      </g>
      <g class="plotpanel" id="img-c2574568-33">
        <metadata>
          <boundingbox value="26.725000000000023mm 10.611666666666679mm 288.275mm 150.10333333333335mm"/>
          <unitbox value="0.5 30410.66824849992 19.0 -30821.33649699984"/>
        </metadata>
        <g shape-rendering="crispEdges" stroke-width="0.3" id="img-c2574568-34">
          <g class="geometry" fill-opacity="1" stroke="#000000" stroke-opacity="0.000" fill="#00BFFF" id="img-c2574568-35">
            <g transform="translate(34.31,157.83)" id="img-c2574568-36">
              <path d="M-7.61,-0.89 L7.61,-0.89 7.61,0.89 -7.61,0.89  z" class="primitive"/>
            </g>
            <g transform="translate(49.48,139.13)" id="img-c2574568-37">
              <path d="M-7.61,-19.59 L7.61,-19.59 7.61,19.59 -7.61,19.59  z" class="primitive"/>
            </g>
            <g transform="translate(64.66,147.15)" id="img-c2574568-38">
              <path d="M-7.61,-11.56 L7.61,-11.56 7.61,11.56 -7.61,11.56  z" class="primitive"/>
            </g>
            <g transform="translate(79.83,157.61)" id="img-c2574568-39">
              <path d="M-7.61,-1.11 L7.61,-1.11 7.61,1.11 -7.61,1.11  z" class="primitive"/>
            </g>
            <g transform="translate(95,146.81)" id="img-c2574568-40">
              <path d="M-7.61,-11.91 L7.61,-11.91 7.61,11.91 -7.61,11.91  z" class="primitive"/>
            </g>
            <g transform="translate(110.17,139.55)" id="img-c2574568-41">
              <path d="M-7.61,-19.17 L7.61,-19.17 7.61,19.17 -7.61,19.17  z" class="primitive"/>
            </g>
            <g transform="translate(125.35,151.35)" id="img-c2574568-42">
              <path d="M-7.61,-7.37 L7.61,-7.37 7.61,7.37 -7.61,7.37  z" class="primitive"/>
            </g>
            <g transform="translate(140.52,148.32)" id="img-c2574568-43">
              <path d="M-7.61,-10.39 L7.61,-10.39 7.61,10.39 -7.61,10.39  z" class="primitive"/>
            </g>
            <g transform="translate(155.69,158.57)" id="img-c2574568-44">
              <path d="M-7.61,-0.14 L7.61,-0.14 7.61,0.14 -7.61,0.14  z" class="primitive"/>
            </g>
            <g transform="translate(170.86,156.59)" id="img-c2574568-45">
              <path d="M-7.61,-2.12 L7.61,-2.12 7.61,2.12 -7.61,2.12  z" class="primitive"/>
            </g>
            <g transform="translate(186.03,156.84)" id="img-c2574568-46">
              <path d="M-7.61,-1.87 L7.61,-1.87 7.61,1.87 -7.61,1.87  z" class="primitive"/>
            </g>
            <g transform="translate(201.21,155.73)" id="img-c2574568-47">
              <path d="M-7.61,-2.98 L7.61,-2.98 7.61,2.98 -7.61,2.98  z" class="primitive"/>
            </g>
            <g transform="translate(216.38,87.59)" id="img-c2574568-48">
              <path d="M-7.61,-71.12 L7.61,-71.12 7.61,71.12 -7.61,71.12  z" class="primitive"/>
            </g>
            <g transform="translate(231.55,151.68)" id="img-c2574568-49">
              <path d="M-7.61,-7.04 L7.61,-7.04 7.61,7.04 -7.61,7.04  z" class="primitive"/>
            </g>
            <g transform="translate(246.72,158.28)" id="img-c2574568-50">
              <path d="M-7.61,-0.44 L7.61,-0.44 7.61,0.44 -7.61,0.44  z" class="primitive"/>
            </g>
            <g transform="translate(261.9,157.16)" id="img-c2574568-51">
              <path d="M-7.61,-1.55 L7.61,-1.55 7.61,1.55 -7.61,1.55  z" class="primitive"/>
            </g>
            <g transform="translate(277.07,156.27)" id="img-c2574568-52">
              <path d="M-7.61,-2.45 L7.61,-2.45 7.61,2.45 -7.61,2.45  z" class="primitive"/>
            </g>
            <g transform="translate(292.24,129.08)" id="img-c2574568-53">
              <path d="M-7.61,-29.64 L7.61,-29.64 7.61,29.64 -7.61,29.64  z" class="primitive"/>
            </g>
            <g transform="translate(307.41,153.28)" id="img-c2574568-54">
              <path d="M-7.61,-5.43 L7.61,-5.43 7.61,5.43 -7.61,5.43  z" class="primitive"/>
            </g>
          </g>
        </g>
      </g>
    </g>
  </g>
  <g class="guide ylabels" font-size="2.82" font-family="'PT Sans Caption','Helvetica Neue','Helvetica',sans-serif" fill="#6C606B" id="img-c2574568-55">
    <g transform="translate(25.72,158.72)" id="img-c2574568-56">
      <g class="primitive">
        <text text-anchor="end" dy="0.35em">0</text>
      </g>
    </g>
    <g transform="translate(25.72,110.01)" id="img-c2574568-57">
      <g class="primitive">
        <text text-anchor="end" dy="0.35em">1.0×10⁴</text>
      </g>
    </g>
    <g transform="translate(25.72,61.31)" id="img-c2574568-58">
      <g class="primitive">
        <text text-anchor="end" dy="0.35em">2.0×10⁴</text>
      </g>
    </g>
    <g transform="translate(25.72,12.61)" id="img-c2574568-59">
      <g class="primitive">
        <text text-anchor="end" dy="0.35em">3.0×10⁴</text>
      </g>
    </g>
  </g>
  <g font-size="3.88" font-family="'PT Sans','Helvetica Neue','Helvetica',sans-serif" fill="#564A55" stroke="#000000" stroke-opacity="0.000" id="img-c2574568-60">
    <g transform="translate(8.81,83.66)" id="img-c2574568-61">
      <g class="primitive">
        <text text-anchor="middle" dy="0.35em" transform="rotate(-90,0, 2)">Total Debt (in dollars)</text>
      </g>
    </g>
  </g>
  <g font-size="3.88" font-family="'PT Sans','Helvetica Neue','Helvetica',sans-serif" fill="#564A55" stroke="#000000" stroke-opacity="0.000" id="img-c2574568-62">
    <g transform="translate(170.86,5)" id="img-c2574568-63">
      <g class="primitive">
        <text text-anchor="middle" dy="0.6em">NC Debt Redeemed Per Year/Month</text>
      </g>
    </g>
  </g>
</g>
<defs>
  <clipPath id="img-c2574568-5">
    <path d="M26.73,10.61 L315,10.61 315,160.72 26.73,160.72 " />
  </clipPath>
</defs>
</svg>
