<?xml version="1.0" encoding="UTF-8"?>
<svg xmlns="http://www.w3.org/2000/svg"
     xmlns:xlink="http://www.w3.org/1999/xlink"
     xmlns:gadfly="http://www.gadflyjl.org/ns"
     version="1.2"
     width="400mm" height="225mm" viewBox="0 0 400 225"
     stroke="none"
     fill="#000000"
     stroke-width="0.3"
     font-size="3.88"
>
<defs>
  <marker id="arrow" markerWidth="15" markerHeight="7" refX="5" refY="3.5" orient="auto" markerUnits="strokeWidth">
    <path d="M0,0 L15,3.5 L0,7 z" stroke="context-stroke" fill="context-stroke"/>
  </marker>
</defs>
<g stroke="#000000" stroke-opacity="0.000" fill="#FFFFFF" id="img-a2f04699-1">
  <g transform="translate(200,112.5)">
    <path d="M-200,-112.5 L200,-112.5 200,112.5 -200,112.5  z" class="primitive"/>
  </g>
</g>
<g class="plotroot yscalable" id="img-a2f04699-2">
  <g font-size="3.88" font-family="'PT Sans','Helvetica Neue','Helvetica',sans-serif" fill="#564A55" stroke="#000000" stroke-opacity="0.000" id="img-a2f04699-3">
    <g transform="translate(211.7,213.39)">
      <g class="primitive">
        <text text-anchor="middle" dy="0.6em">Year</text>
      </g>
    </g>
  </g>
  <g class="guide xlabels" font-size="2.82" font-family="'PT Sans Caption','Helvetica Neue','Helvetica',sans-serif" fill="#6C606B" id="img-a2f04699-4">
    <g transform="translate(38.05,206.72)">
      <g class="primitive">
        <text text-anchor="middle" dy="0.6em">1791-03</text>
      </g>
    </g>
    <g transform="translate(57.34,206.72)">
      <g class="primitive">
        <text text-anchor="middle" dy="0.6em">1791-04</text>
      </g>
    </g>
    <g transform="translate(76.64,206.72)">
      <g class="primitive">
        <text text-anchor="middle" dy="0.6em">1791-05</text>
      </g>
    </g>
    <g transform="translate(95.93,206.72)">
      <g class="primitive">
        <text text-anchor="middle" dy="0.6em">1791-06</text>
      </g>
    </g>
    <g transform="translate(115.23,206.72)">
      <g class="primitive">
        <text text-anchor="middle" dy="0.6em">1791-07</text>
      </g>
    </g>
    <g transform="translate(134.52,206.72)">
      <g class="primitive">
        <text text-anchor="middle" dy="0.6em">1791-08</text>
      </g>
    </g>
    <g transform="translate(153.81,206.72)">
      <g class="primitive">
        <text text-anchor="middle" dy="0.6em">1791-09</text>
      </g>
    </g>
    <g transform="translate(173.11,206.72)">
      <g class="primitive">
        <text text-anchor="middle" dy="0.6em">1791-10</text>
      </g>
    </g>
    <g transform="translate(192.4,206.72)">
      <g class="primitive">
        <text text-anchor="middle" dy="0.6em">1792-02</text>
      </g>
    </g>
    <g transform="translate(211.7,206.72)">
      <g class="primitive">
        <text text-anchor="middle" dy="0.6em">1792-06</text>
      </g>
    </g>
    <g transform="translate(230.99,206.72)">
      <g class="primitive">
        <text text-anchor="middle" dy="0.6em">1792-07</text>
      </g>
    </g>
    <g transform="translate(250.29,206.72)">
      <g class="primitive">
        <text text-anchor="middle" dy="0.6em">1792-08</text>
      </g>
    </g>
    <g transform="translate(269.58,206.72)">
      <g class="primitive">
        <text text-anchor="middle" dy="0.6em">1792-09</text>
      </g>
    </g>
    <g transform="translate(288.88,206.72)">
      <g class="primitive">
        <text text-anchor="middle" dy="0.6em">1792-10</text>
      </g>
    </g>
    <g transform="translate(308.17,206.72)">
      <g class="primitive">
        <text text-anchor="middle" dy="0.6em">1792-11</text>
      </g>
    </g>
    <g transform="translate(327.47,206.72)">
      <g class="primitive">
        <text text-anchor="middle" dy="0.6em">1792-12</text>
      </g>
    </g>
    <g transform="translate(346.76,206.72)">
      <g class="primitive">
        <text text-anchor="middle" dy="0.6em">1793-01</text>
      </g>
    </g>
    <g transform="translate(366.06,206.72)">
      <g class="primitive">
        <text text-anchor="middle" dy="0.6em">post-1795</text>
      </g>
    </g>
    <g transform="translate(385.35,206.72)">
      <g class="primitive">
        <text text-anchor="middle" dy="0.6em">missing info</text>
      </g>
    </g>
  </g>
  <g clip-path="url(#img-a2f04699-5)">
    <g id="img-a2f04699-6">
      <g pointer-events="visible" stroke-width="0.3" fill="#000000" fill-opacity="0.000" stroke="#000000" stroke-opacity="0.000" class="guide background" id="img-a2f04699-7">
        <g transform="translate(211.7,108.16)" id="img-a2f04699-8">
          <path d="M-183.3,-97.55 L183.3,-97.55 183.3,97.55 -183.3,97.55  z" class="primitive"/>
        </g>
      </g>
      <g class="guide ygridlines xfixed" stroke-dasharray="0.5,0.5" stroke-width="0.2" stroke="#D0D0E0" id="img-a2f04699-9">
        <g transform="translate(211.7,203.72)" id="img-a2f04699-10">
          <path fill="none" d="M-183.3,0 L183.3,0 " class="primitive"/>
        </g>
        <g transform="translate(211.7,165.49)" id="img-a2f04699-11">
          <path fill="none" d="M-183.3,0 L183.3,0 " class="primitive"/>
        </g>
        <g transform="translate(211.7,127.27)" id="img-a2f04699-12">
          <path fill="none" d="M-183.3,0 L183.3,0 " class="primitive"/>
        </g>
        <g transform="translate(211.7,89.05)" id="img-a2f04699-13">
          <path fill="none" d="M-183.3,0 L183.3,0 " class="primitive"/>
        </g>
        <g transform="translate(211.7,50.83)" id="img-a2f04699-14">
          <path fill="none" d="M-183.3,0 L183.3,0 " class="primitive"/>
        </g>
        <g transform="translate(211.7,12.61)" id="img-a2f04699-15">
          <path fill="none" d="M-183.3,0 L183.3,0 " class="primitive"/>
        </g>
      </g>
      <g class="guide xgridlines yfixed" stroke-dasharray="0.5,0.5" stroke-width="0.2" stroke="#D0D0E0" id="img-a2f04699-16">
        <g transform="translate(47.69,108.16)" id="img-a2f04699-17">
          <path fill="none" d="M0,-97.55 L0,97.55 " class="primitive"/>
        </g>
        <g transform="translate(66.99,108.16)" id="img-a2f04699-18">
          <path fill="none" d="M0,-97.55 L0,97.55 " class="primitive"/>
        </g>
        <g transform="translate(86.28,108.16)" id="img-a2f04699-19">
          <path fill="none" d="M0,-97.55 L0,97.55 " class="primitive"/>
        </g>
        <g transform="translate(105.58,108.16)" id="img-a2f04699-20">
          <path fill="none" d="M0,-97.55 L0,97.55 " class="primitive"/>
        </g>
        <g transform="translate(124.87,108.16)" id="img-a2f04699-21">
          <path fill="none" d="M0,-97.55 L0,97.55 " class="primitive"/>
        </g>
        <g transform="translate(144.17,108.16)" id="img-a2f04699-22">
          <path fill="none" d="M0,-97.55 L0,97.55 " class="primitive"/>
        </g>
        <g transform="translate(163.46,108.16)" id="img-a2f04699-23">
          <path fill="none" d="M0,-97.55 L0,97.55 " class="primitive"/>
        </g>
        <g transform="translate(182.76,108.16)" id="img-a2f04699-24">
          <path fill="none" d="M0,-97.55 L0,97.55 " class="primitive"/>
        </g>
        <g transform="translate(202.05,108.16)" id="img-a2f04699-25">
          <path fill="none" d="M0,-97.55 L0,97.55 " class="primitive"/>
        </g>
        <g transform="translate(221.35,108.16)" id="img-a2f04699-26">
          <path fill="none" d="M0,-97.55 L0,97.55 " class="primitive"/>
        </g>
        <g transform="translate(240.64,108.16)" id="img-a2f04699-27">
          <path fill="none" d="M0,-97.55 L0,97.55 " class="primitive"/>
        </g>
        <g transform="translate(259.94,108.16)" id="img-a2f04699-28">
          <path fill="none" d="M0,-97.55 L0,97.55 " class="primitive"/>
        </g>
        <g transform="translate(279.23,108.16)" id="img-a2f04699-29">
          <path fill="none" d="M0,-97.55 L0,97.55 " class="primitive"/>
        </g>
        <g transform="translate(298.53,108.16)" id="img-a2f04699-30">
          <path fill="none" d="M0,-97.55 L0,97.55 " class="primitive"/>
        </g>
        <g transform="translate(317.82,108.16)" id="img-a2f04699-31">
          <path fill="none" d="M0,-97.55 L0,97.55 " class="primitive"/>
        </g>
        <g transform="translate(337.12,108.16)" id="img-a2f04699-32">
          <path fill="none" d="M0,-97.55 L0,97.55 " class="primitive"/>
        </g>
        <g transform="translate(356.41,108.16)" id="img-a2f04699-33">
          <path fill="none" d="M0,-97.55 L0,97.55 " class="primitive"/>
        </g>
        <g transform="translate(375.71,108.16)" id="img-a2f04699-34">
          <path fill="none" d="M0,-97.55 L0,97.55 " class="primitive"/>
        </g>
      </g>
      <g class="plotpanel" id="img-a2f04699-35">
        <metadata>
          <boundingbox value="28.39833333333337mm 10.611666666666679mm 366.6016666666667mm 195.10333333333335mm"/>
          <unitbox value="0.5 252616.38555057472 19.0 -255232.77110114944"/>
        </metadata>
        <g shape-rendering="crispEdges" stroke-width="0.3" id="img-a2f04699-36">
          <g class="geometry" fill-opacity="1" stroke="#000000" stroke-opacity="0.000" fill="#00BFFF" id="img-a2f04699-37">
            <g transform="translate(38.05,111.51)" id="img-a2f04699-38">
              <path d="M-9.67,-92.2 L9.67,-92.2 9.67,92.2 -9.67,92.2  z" class="primitive"/>
            </g>
            <g transform="translate(57.34,190.4)" id="img-a2f04699-39">
              <path d="M-9.67,-13.31 L9.67,-13.31 9.67,13.31 -9.67,13.31  z" class="primitive"/>
            </g>
            <g transform="translate(76.64,185.25)" id="img-a2f04699-40">
              <path d="M-9.67,-18.47 L9.67,-18.47 9.67,18.47 -9.67,18.47  z" class="primitive"/>
            </g>
            <g transform="translate(95.93,201.75)" id="img-a2f04699-41">
              <path d="M-9.67,-1.96 L9.67,-1.96 9.67,1.96 -9.67,1.96  z" class="primitive"/>
            </g>
            <g transform="translate(115.23,195.01)" id="img-a2f04699-42">
              <path d="M-9.67,-8.7 L9.67,-8.7 9.67,8.7 -9.67,8.7  z" class="primitive"/>
            </g>
            <g transform="translate(134.52,188.55)" id="img-a2f04699-43">
              <path d="M-9.67,-15.16 L9.67,-15.16 9.67,15.16 -9.67,15.16  z" class="primitive"/>
            </g>
            <g transform="translate(153.81,192.84)" id="img-a2f04699-44">
              <path d="M-9.67,-10.88 L9.67,-10.88 9.67,10.88 -9.67,10.88  z" class="primitive"/>
            </g>
            <g transform="translate(173.11,203.58)" id="img-a2f04699-45">
              <path d="M-9.67,-0.14 L9.67,-0.14 9.67,0.14 -9.67,0.14  z" class="primitive"/>
            </g>
            <g transform="translate(192.4,202.57)" id="img-a2f04699-46">
              <path d="M-9.67,-1.14 L9.67,-1.14 9.67,1.14 -9.67,1.14  z" class="primitive"/>
            </g>
            <g transform="translate(211.7,197.56)" id="img-a2f04699-47">
              <path d="M-9.67,-6.16 L9.67,-6.16 9.67,6.16 -9.67,6.16  z" class="primitive"/>
            </g>
            <g transform="translate(230.99,203.2)" id="img-a2f04699-48">
              <path d="M-9.67,-0.52 L9.67,-0.52 9.67,0.52 -9.67,0.52  z" class="primitive"/>
            </g>
            <g transform="translate(250.29,202.74)" id="img-a2f04699-49">
              <path d="M-9.67,-0.97 L9.67,-0.97 9.67,0.97 -9.67,0.97  z" class="primitive"/>
            </g>
            <g transform="translate(269.58,202.97)" id="img-a2f04699-50">
              <path d="M-9.67,-0.74 L9.67,-0.74 9.67,0.74 -9.67,0.74  z" class="primitive"/>
            </g>
            <g transform="translate(288.88,201.19)" id="img-a2f04699-51">
              <path d="M-9.67,-2.53 L9.67,-2.53 9.67,2.53 -9.67,2.53  z" class="primitive"/>
            </g>
            <g transform="translate(308.17,201.76)" id="img-a2f04699-52">
              <path d="M-9.67,-1.95 L9.67,-1.95 9.67,1.95 -9.67,1.95  z" class="primitive"/>
            </g>
            <g transform="translate(327.47,203.46)" id="img-a2f04699-53">
              <path d="M-9.67,-0.25 L9.67,-0.25 9.67,0.25 -9.67,0.25  z" class="primitive"/>
            </g>
            <g transform="translate(346.76,201.96)" id="img-a2f04699-54">
              <path d="M-9.67,-1.76 L9.67,-1.76 9.67,1.76 -9.67,1.76  z" class="primitive"/>
            </g>
            <g transform="translate(366.06,203.72)" id="img-a2f04699-55">
              <path d="M-9.67,-0 L9.67,-0 9.67,0 -9.67,0  z" class="primitive"/>
            </g>
            <g transform="translate(385.35,203.72)" id="img-a2f04699-56">
              <path d="M-9.67,-0 L9.67,-0 9.67,0 -9.67,0  z" class="primitive"/>
            </g>
          </g>
        </g>
      </g>
    </g>
  </g>
  <g class="guide ylabels" font-size="2.82" font-family="'PT Sans Caption','Helvetica Neue','Helvetica',sans-serif" fill="#6C606B" id="img-a2f04699-57">
    <g transform="translate(27.4,203.72)" id="img-a2f04699-58">
      <g class="primitive">
        <text text-anchor="end" dy="0.35em">0</text>
      </g>
    </g>
    <g transform="translate(27.4,165.49)" id="img-a2f04699-59">
      <g class="primitive">
        <text text-anchor="end" dy="0.35em">5.00×10⁴</text>
      </g>
    </g>
    <g transform="translate(27.4,127.27)" id="img-a2f04699-60">
      <g class="primitive">
        <text text-anchor="end" dy="0.35em">1.00×10⁵</text>
      </g>
    </g>
    <g transform="translate(27.4,89.05)" id="img-a2f04699-61">
      <g class="primitive">
        <text text-anchor="end" dy="0.35em">1.50×10⁵</text>
      </g>
    </g>
    <g transform="translate(27.4,50.83)" id="img-a2f04699-62">
      <g class="primitive">
        <text text-anchor="end" dy="0.35em">2.00×10⁵</text>
      </g>
    </g>
    <g transform="translate(27.4,12.61)" id="img-a2f04699-63">
      <g class="primitive">
        <text text-anchor="end" dy="0.35em">2.50×10⁵</text>
      </g>
    </g>
  </g>
  <g font-size="3.88" font-family="'PT Sans','Helvetica Neue','Helvetica',sans-serif" fill="#564A55" stroke="#000000" stroke-opacity="0.000" id="img-a2f04699-64">
    <g transform="translate(8.81,106.16)" id="img-a2f04699-65">
      <g class="primitive">
        <text text-anchor="middle" dy="0.35em" transform="rotate(-90,0, 2)">Total Debt (in dollars)</text>
      </g>
    </g>
  </g>
  <g font-size="3.88" font-family="'PT Sans','Helvetica Neue','Helvetica',sans-serif" fill="#564A55" stroke="#000000" stroke-opacity="0.000" id="img-a2f04699-66">
    <g transform="translate(211.7,5)" id="img-a2f04699-67">
      <g class="primitive">
        <text text-anchor="middle" dy="0.6em">NH Debt Redeemed Per Year/Month</text>
      </g>
    </g>
  </g>
</g>
<defs>
  <clipPath id="img-a2f04699-5">
    <path d="M28.4,10.61 L395,10.61 395,205.72 28.4,205.72 " />
  </clipPath>
</defs>
</svg>
