<?xml version="1.0" encoding="UTF-8"?>
<svg xmlns="http://www.w3.org/2000/svg"
     xmlns:xlink="http://www.w3.org/1999/xlink"
     xmlns:gadfly="http://www.gadflyjl.org/ns"
     version="1.2"
     width="320mm" height="180mm" viewBox="0 0 320 180"
     stroke="none"
     fill="#000000"
     stroke-width="0.3"
     font-size="3.88"
>
<defs>
  <marker id="arrow" markerWidth="15" markerHeight="7" refX="5" refY="3.5" orient="auto" markerUnits="strokeWidth">
    <path d="M0,0 L15,3.5 L0,7 z" stroke="context-stroke" fill="context-stroke"/>
  </marker>
</defs>
<g stroke="#000000" stroke-opacity="0.000" fill="#FFFFFF" id="img-37340f95-1">
  <g transform="translate(160,90)">
    <path d="M-160,-90 L160,-90 160,90 -160,90  z" class="primitive"/>
  </g>
</g>
<g class="plotroot yscalable" id="img-37340f95-2">
  <g font-size="3.88" font-family="'PT Sans','Helvetica Neue','Helvetica',sans-serif" fill="#564A55" stroke="#000000" stroke-opacity="0.000" id="img-37340f95-3">
    <g transform="translate(171.7,168.39)">
      <g class="primitive">
        <text text-anchor="middle" dy="0.6em">Year</text>
      </g>
    </g>
  </g>
  <g class="guide xlabels" font-size="2.82" font-family="'PT Sans Caption','Helvetica Neue','Helvetica',sans-serif" fill="#6C606B" id="img-37340f95-4">
    <g transform="translate(36.83,161.72)">
      <g class="primitive">
        <text text-anchor="middle" dy="0.6em">1791-10</text>
      </g>
    </g>
    <g transform="translate(53.69,161.72)">
      <g class="primitive">
        <text text-anchor="middle" dy="0.6em">1791-3</text>
      </g>
    </g>
    <g transform="translate(70.55,161.72)">
      <g class="primitive">
        <text text-anchor="middle" dy="0.6em">1791-4</text>
      </g>
    </g>
    <g transform="translate(87.4,161.72)">
      <g class="primitive">
        <text text-anchor="middle" dy="0.6em">1791-5</text>
      </g>
    </g>
    <g transform="translate(104.26,161.72)">
      <g class="primitive">
        <text text-anchor="middle" dy="0.6em">1791-6</text>
      </g>
    </g>
    <g transform="translate(121.12,161.72)">
      <g class="primitive">
        <text text-anchor="middle" dy="0.6em">1791-7</text>
      </g>
    </g>
    <g transform="translate(137.98,161.72)">
      <g class="primitive">
        <text text-anchor="middle" dy="0.6em">1791-8</text>
      </g>
    </g>
    <g transform="translate(154.84,161.72)">
      <g class="primitive">
        <text text-anchor="middle" dy="0.6em">1791-9</text>
      </g>
    </g>
    <g transform="translate(171.7,161.72)">
      <g class="primitive">
        <text text-anchor="middle" dy="0.6em">1792-10</text>
      </g>
    </g>
    <g transform="translate(188.56,161.72)">
      <g class="primitive">
        <text text-anchor="middle" dy="0.6em">1792-11</text>
      </g>
    </g>
    <g transform="translate(205.42,161.72)">
      <g class="primitive">
        <text text-anchor="middle" dy="0.6em">1792-12</text>
      </g>
    </g>
    <g transform="translate(222.28,161.72)">
      <g class="primitive">
        <text text-anchor="middle" dy="0.6em">1792-2</text>
      </g>
    </g>
    <g transform="translate(239.13,161.72)">
      <g class="primitive">
        <text text-anchor="middle" dy="0.6em">1792-6</text>
      </g>
    </g>
    <g transform="translate(255.99,161.72)">
      <g class="primitive">
        <text text-anchor="middle" dy="0.6em">1792-7</text>
      </g>
    </g>
    <g transform="translate(272.85,161.72)">
      <g class="primitive">
        <text text-anchor="middle" dy="0.6em">1792-8</text>
      </g>
    </g>
    <g transform="translate(289.71,161.72)">
      <g class="primitive">
        <text text-anchor="middle" dy="0.6em">1792-9</text>
      </g>
    </g>
    <g transform="translate(306.57,161.72)">
      <g class="primitive">
        <text text-anchor="middle" dy="0.6em">1793-1</text>
      </g>
    </g>
  </g>
  <g clip-path="url(#img-37340f95-5)">
    <g id="img-37340f95-6">
      <g pointer-events="visible" stroke-width="0.3" fill="#000000" fill-opacity="0.000" stroke="#000000" stroke-opacity="0.000" class="guide background" id="img-37340f95-7">
        <g transform="translate(171.7,85.66)" id="img-37340f95-8">
          <path d="M-143.3,-75.05 L143.3,-75.05 143.3,75.05 -143.3,75.05  z" class="primitive"/>
        </g>
      </g>
      <g class="guide ygridlines xfixed" stroke-dasharray="0.5,0.5" stroke-width="0.2" stroke="#D0D0E0" id="img-37340f95-9">
        <g transform="translate(171.7,158.72)" id="img-37340f95-10">
          <path fill="none" d="M-143.3,0 L143.3,0 " class="primitive"/>
        </g>
        <g transform="translate(171.7,129.49)" id="img-37340f95-11">
          <path fill="none" d="M-143.3,0 L143.3,0 " class="primitive"/>
        </g>
        <g transform="translate(171.7,100.27)" id="img-37340f95-12">
          <path fill="none" d="M-143.3,0 L143.3,0 " class="primitive"/>
        </g>
        <g transform="translate(171.7,71.05)" id="img-37340f95-13">
          <path fill="none" d="M-143.3,0 L143.3,0 " class="primitive"/>
        </g>
        <g transform="translate(171.7,41.83)" id="img-37340f95-14">
          <path fill="none" d="M-143.3,0 L143.3,0 " class="primitive"/>
        </g>
        <g transform="translate(171.7,12.61)" id="img-37340f95-15">
          <path fill="none" d="M-143.3,0 L143.3,0 " class="primitive"/>
        </g>
      </g>
      <g class="guide xgridlines yfixed" stroke-dasharray="0.5,0.5" stroke-width="0.2" stroke="#D0D0E0" id="img-37340f95-16">
        <g transform="translate(45.26,85.66)" id="img-37340f95-17">
          <path fill="none" d="M0,-75.05 L0,75.05 " class="primitive"/>
        </g>
        <g transform="translate(62.12,85.66)" id="img-37340f95-18">
          <path fill="none" d="M0,-75.05 L0,75.05 " class="primitive"/>
        </g>
        <g transform="translate(78.98,85.66)" id="img-37340f95-19">
          <path fill="none" d="M0,-75.05 L0,75.05 " class="primitive"/>
        </g>
        <g transform="translate(95.83,85.66)" id="img-37340f95-20">
          <path fill="none" d="M0,-75.05 L0,75.05 " class="primitive"/>
        </g>
        <g transform="translate(112.69,85.66)" id="img-37340f95-21">
          <path fill="none" d="M0,-75.05 L0,75.05 " class="primitive"/>
        </g>
        <g transform="translate(129.55,85.66)" id="img-37340f95-22">
          <path fill="none" d="M0,-75.05 L0,75.05 " class="primitive"/>
        </g>
        <g transform="translate(146.41,85.66)" id="img-37340f95-23">
          <path fill="none" d="M0,-75.05 L0,75.05 " class="primitive"/>
        </g>
        <g transform="translate(163.27,85.66)" id="img-37340f95-24">
          <path fill="none" d="M0,-75.05 L0,75.05 " class="primitive"/>
        </g>
        <g transform="translate(180.13,85.66)" id="img-37340f95-25">
          <path fill="none" d="M0,-75.05 L0,75.05 " class="primitive"/>
        </g>
        <g transform="translate(196.99,85.66)" id="img-37340f95-26">
          <path fill="none" d="M0,-75.05 L0,75.05 " class="primitive"/>
        </g>
        <g transform="translate(213.85,85.66)" id="img-37340f95-27">
          <path fill="none" d="M0,-75.05 L0,75.05 " class="primitive"/>
        </g>
        <g transform="translate(230.71,85.66)" id="img-37340f95-28">
          <path fill="none" d="M0,-75.05 L0,75.05 " class="primitive"/>
        </g>
        <g transform="translate(247.56,85.66)" id="img-37340f95-29">
          <path fill="none" d="M0,-75.05 L0,75.05 " class="primitive"/>
        </g>
        <g transform="translate(264.42,85.66)" id="img-37340f95-30">
          <path fill="none" d="M0,-75.05 L0,75.05 " class="primitive"/>
        </g>
        <g transform="translate(281.28,85.66)" id="img-37340f95-31">
          <path fill="none" d="M0,-75.05 L0,75.05 " class="primitive"/>
        </g>
        <g transform="translate(298.14,85.66)" id="img-37340f95-32">
          <path fill="none" d="M0,-75.05 L0,75.05 " class="primitive"/>
        </g>
      </g>
      <g class="plotpanel" id="img-37340f95-33">
        <metadata>
          <boundingbox value="28.39833333333337mm 10.611666666666679mm 286.6016666666667mm 150.10333333333335mm"/>
          <unitbox value="0.5 253422.23540416601 17.0 -256844.470808332"/>
        </metadata>
        <g shape-rendering="crispEdges" stroke-width="0.3" id="img-37340f95-34">
          <g class="geometry" fill-opacity="1" stroke="#000000" stroke-opacity="0.000" fill="#00BFFF" id="img-37340f95-35">
            <g transform="translate(36.83,158.61)" id="img-37340f95-36">
              <path d="M-8.45,-0.1 L8.45,-0.1 8.45,0.1 -8.45,0.1  z" class="primitive"/>
            </g>
            <g transform="translate(53.69,88.22)" id="img-37340f95-37">
              <path d="M-8.45,-70.49 L8.45,-70.49 8.45,70.49 -8.45,70.49  z" class="primitive"/>
            </g>
            <g transform="translate(70.55,148.54)" id="img-37340f95-38">
              <path d="M-8.45,-10.18 L8.45,-10.18 8.45,10.18 -8.45,10.18  z" class="primitive"/>
            </g>
            <g transform="translate(87.4,144.6)" id="img-37340f95-39">
              <path d="M-8.45,-14.12 L8.45,-14.12 8.45,14.12 -8.45,14.12  z" class="primitive"/>
            </g>
            <g transform="translate(104.26,157.22)" id="img-37340f95-40">
              <path d="M-8.45,-1.5 L8.45,-1.5 8.45,1.5 -8.45,1.5  z" class="primitive"/>
            </g>
            <g transform="translate(121.12,152.06)" id="img-37340f95-41">
              <path d="M-8.45,-6.65 L8.45,-6.65 8.45,6.65 -8.45,6.65  z" class="primitive"/>
            </g>
            <g transform="translate(137.98,147.12)" id="img-37340f95-42">
              <path d="M-8.45,-11.59 L8.45,-11.59 8.45,11.59 -8.45,11.59  z" class="primitive"/>
            </g>
            <g transform="translate(154.84,150.4)" id="img-37340f95-43">
              <path d="M-8.45,-8.32 L8.45,-8.32 8.45,8.32 -8.45,8.32  z" class="primitive"/>
            </g>
            <g transform="translate(171.7,156.78)" id="img-37340f95-44">
              <path d="M-8.45,-1.93 L8.45,-1.93 8.45,1.93 -8.45,1.93  z" class="primitive"/>
            </g>
            <g transform="translate(188.56,157.22)" id="img-37340f95-45">
              <path d="M-8.45,-1.49 L8.45,-1.49 8.45,1.49 -8.45,1.49  z" class="primitive"/>
            </g>
            <g transform="translate(205.42,158.52)" id="img-37340f95-46">
              <path d="M-8.45,-0.19 L8.45,-0.19 8.45,0.19 -8.45,0.19  z" class="primitive"/>
            </g>
            <g transform="translate(222.28,157.84)" id="img-37340f95-47">
              <path d="M-8.45,-0.87 L8.45,-0.87 8.45,0.87 -8.45,0.87  z" class="primitive"/>
            </g>
            <g transform="translate(239.13,154.01)" id="img-37340f95-48">
              <path d="M-8.45,-4.71 L8.45,-4.71 8.45,4.71 -8.45,4.71  z" class="primitive"/>
            </g>
            <g transform="translate(255.99,158.32)" id="img-37340f95-49">
              <path d="M-8.45,-0.39 L8.45,-0.39 8.45,0.39 -8.45,0.39  z" class="primitive"/>
            </g>
            <g transform="translate(272.85,157.97)" id="img-37340f95-50">
              <path d="M-8.45,-0.74 L8.45,-0.74 8.45,0.74 -8.45,0.74  z" class="primitive"/>
            </g>
            <g transform="translate(289.71,158.15)" id="img-37340f95-51">
              <path d="M-8.45,-0.57 L8.45,-0.57 8.45,0.57 -8.45,0.57  z" class="primitive"/>
            </g>
            <g transform="translate(306.57,157.37)" id="img-37340f95-52">
              <path d="M-8.45,-1.34 L8.45,-1.34 8.45,1.34 -8.45,1.34  z" class="primitive"/>
            </g>
          </g>
        </g>
      </g>
    </g>
  </g>
  <g class="guide ylabels" font-size="2.82" font-family="'PT Sans Caption','Helvetica Neue','Helvetica',sans-serif" fill="#6C606B" id="img-37340f95-53">
    <g transform="translate(27.4,158.72)" id="img-37340f95-54">
      <g class="primitive">
        <text text-anchor="end" dy="0.35em">0</text>
      </g>
    </g>
    <g transform="translate(27.4,129.49)" id="img-37340f95-55">
      <g class="primitive">
        <text text-anchor="end" dy="0.35em">5.00×10⁴</text>
      </g>
    </g>
    <g transform="translate(27.4,100.27)" id="img-37340f95-56">
      <g class="primitive">
        <text text-anchor="end" dy="0.35em">1.00×10⁵</text>
      </g>
    </g>
    <g transform="translate(27.4,71.05)" id="img-37340f95-57">
      <g class="primitive">
        <text text-anchor="end" dy="0.35em">1.50×10⁵</text>
      </g>
    </g>
    <g transform="translate(27.4,41.83)" id="img-37340f95-58">
      <g class="primitive">
        <text text-anchor="end" dy="0.35em">2.00×10⁵</text>
      </g>
    </g>
    <g transform="translate(27.4,12.61)" id="img-37340f95-59">
      <g class="primitive">
        <text text-anchor="end" dy="0.35em">2.50×10⁵</text>
      </g>
    </g>
  </g>
  <g font-size="3.88" font-family="'PT Sans','Helvetica Neue','Helvetica',sans-serif" fill="#564A55" stroke="#000000" stroke-opacity="0.000" id="img-37340f95-60">
    <g transform="translate(8.81,83.66)" id="img-37340f95-61">
      <g class="primitive">
        <text text-anchor="middle" dy="0.35em" transform="rotate(-90,0, 2)">Total Debt (in dollars)</text>
      </g>
    </g>
  </g>
  <g font-size="3.88" font-family="'PT Sans','Helvetica Neue','Helvetica',sans-serif" fill="#564A55" stroke="#000000" stroke-opacity="0.000" id="img-37340f95-62">
    <g transform="translate(171.7,5)" id="img-37340f95-63">
      <g class="primitive">
        <text text-anchor="middle" dy="0.6em">NH Debt Redeemed Per Year/Month</text>
      </g>
    </g>
  </g>
</g>
<defs>
  <clipPath id="img-37340f95-5">
    <path d="M28.4,10.61 L315,10.61 315,160.72 28.4,160.72 " />
  </clipPath>
</defs>
</svg>
