<?xml version="1.0" encoding="UTF-8"?>
<svg xmlns="http://www.w3.org/2000/svg"
     xmlns:xlink="http://www.w3.org/1999/xlink"
     xmlns:gadfly="http://www.gadflyjl.org/ns"
     version="1.2"
     width="320mm" height="180mm" viewBox="0 0 320 180"
     stroke="none"
     fill="#000000"
     stroke-width="0.3"
     font-size="3.88"
>
<defs>
  <marker id="arrow" markerWidth="15" markerHeight="7" refX="5" refY="3.5" orient="auto" markerUnits="strokeWidth">
    <path d="M0,0 L15,3.5 L0,7 z" stroke="context-stroke" fill="context-stroke"/>
  </marker>
</defs>
<g stroke="#000000" stroke-opacity="0.000" fill="#FFFFFF" id="img-e941d311-1">
  <g transform="translate(160,90)">
    <path d="M-160,-90 L160,-90 160,90 -160,90  z" class="primitive"/>
  </g>
</g>
<g class="plotroot yscalable" id="img-e941d311-2">
  <g font-size="3.88" font-family="'PT Sans','Helvetica Neue','Helvetica',sans-serif" fill="#564A55" stroke="#000000" stroke-opacity="0.000" id="img-e941d311-3">
    <g transform="translate(171.7,168.39)">
      <g class="primitive">
        <text text-anchor="middle" dy="0.6em">Year</text>
      </g>
    </g>
  </g>
  <g class="guide xlabels" font-size="2.82" font-family="'PT Sans Caption','Helvetica Neue','Helvetica',sans-serif" fill="#6C606B" id="img-e941d311-4">
    <g transform="translate(30.42,139.36)">
      <g class="primitive">
        <text text-anchor="end" dy="0.35em" transform="rotate(-90,0, 0)">1791-1</text>
      </g>
    </g>
    <g transform="translate(34.45,139.36)">
      <g class="primitive">
        <text text-anchor="end" dy="0.35em" transform="rotate(-90,0, 0)">1791-10</text>
      </g>
    </g>
    <g transform="translate(38.49,139.36)">
      <g class="primitive">
        <text text-anchor="end" dy="0.35em" transform="rotate(-90,0, 0)">1791-11</text>
      </g>
    </g>
    <g transform="translate(42.53,139.36)">
      <g class="primitive">
        <text text-anchor="end" dy="0.35em" transform="rotate(-90,0, 0)">1791-12</text>
      </g>
    </g>
    <g transform="translate(46.56,139.36)">
      <g class="primitive">
        <text text-anchor="end" dy="0.35em" transform="rotate(-90,0, 0)">1791-6</text>
      </g>
    </g>
    <g transform="translate(50.6,139.36)">
      <g class="primitive">
        <text text-anchor="end" dy="0.35em" transform="rotate(-90,0, 0)">1791-7</text>
      </g>
    </g>
    <g transform="translate(54.64,139.36)">
      <g class="primitive">
        <text text-anchor="end" dy="0.35em" transform="rotate(-90,0, 0)">1791-8</text>
      </g>
    </g>
    <g transform="translate(58.67,139.36)">
      <g class="primitive">
        <text text-anchor="end" dy="0.35em" transform="rotate(-90,0, 0)">1791-9</text>
      </g>
    </g>
    <g transform="translate(62.71,139.36)">
      <g class="primitive">
        <text text-anchor="end" dy="0.35em" transform="rotate(-90,0, 0)">1791-no month</text>
      </g>
    </g>
    <g transform="translate(66.75,139.36)">
      <g class="primitive">
        <text text-anchor="end" dy="0.35em" transform="rotate(-90,0, 0)">1792-1</text>
      </g>
    </g>
    <g transform="translate(70.78,139.36)">
      <g class="primitive">
        <text text-anchor="end" dy="0.35em" transform="rotate(-90,0, 0)">1792-10</text>
      </g>
    </g>
    <g transform="translate(74.82,139.36)">
      <g class="primitive">
        <text text-anchor="end" dy="0.35em" transform="rotate(-90,0, 0)">1792-11</text>
      </g>
    </g>
    <g transform="translate(78.86,139.36)">
      <g class="primitive">
        <text text-anchor="end" dy="0.35em" transform="rotate(-90,0, 0)">1792-12</text>
      </g>
    </g>
    <g transform="translate(82.89,139.36)">
      <g class="primitive">
        <text text-anchor="end" dy="0.35em" transform="rotate(-90,0, 0)">1792-2</text>
      </g>
    </g>
    <g transform="translate(86.93,139.36)">
      <g class="primitive">
        <text text-anchor="end" dy="0.35em" transform="rotate(-90,0, 0)">1792-4</text>
      </g>
    </g>
    <g transform="translate(90.97,139.36)">
      <g class="primitive">
        <text text-anchor="end" dy="0.35em" transform="rotate(-90,0, 0)">1792-6</text>
      </g>
    </g>
    <g transform="translate(95,139.36)">
      <g class="primitive">
        <text text-anchor="end" dy="0.35em" transform="rotate(-90,0, 0)">1792-7</text>
      </g>
    </g>
    <g transform="translate(99.04,139.36)">
      <g class="primitive">
        <text text-anchor="end" dy="0.35em" transform="rotate(-90,0, 0)">1792-8</text>
      </g>
    </g>
    <g transform="translate(103.08,139.36)">
      <g class="primitive">
        <text text-anchor="end" dy="0.35em" transform="rotate(-90,0, 0)">1792-9</text>
      </g>
    </g>
    <g transform="translate(107.11,139.36)">
      <g class="primitive">
        <text text-anchor="end" dy="0.35em" transform="rotate(-90,0, 0)">1793-1</text>
      </g>
    </g>
    <g transform="translate(111.15,139.36)">
      <g class="primitive">
        <text text-anchor="end" dy="0.35em" transform="rotate(-90,0, 0)">1793-2</text>
      </g>
    </g>
    <g transform="translate(115.19,139.36)">
      <g class="primitive">
        <text text-anchor="end" dy="0.35em" transform="rotate(-90,0, 0)">1793-3</text>
      </g>
    </g>
    <g transform="translate(119.22,139.36)">
      <g class="primitive">
        <text text-anchor="end" dy="0.35em" transform="rotate(-90,0, 0)">1793-4</text>
      </g>
    </g>
    <g transform="translate(123.26,139.36)">
      <g class="primitive">
        <text text-anchor="end" dy="0.35em" transform="rotate(-90,0, 0)">1793-7</text>
      </g>
    </g>
    <g transform="translate(127.3,139.36)">
      <g class="primitive">
        <text text-anchor="end" dy="0.35em" transform="rotate(-90,0, 0)">1793-9</text>
      </g>
    </g>
    <g transform="translate(131.33,139.36)">
      <g class="primitive">
        <text text-anchor="end" dy="0.35em" transform="rotate(-90,0, 0)">1794-1</text>
      </g>
    </g>
    <g transform="translate(135.37,139.36)">
      <g class="primitive">
        <text text-anchor="end" dy="0.35em" transform="rotate(-90,0, 0)">1794-10</text>
      </g>
    </g>
    <g transform="translate(139.41,139.36)">
      <g class="primitive">
        <text text-anchor="end" dy="0.35em" transform="rotate(-90,0, 0)">1794-11</text>
      </g>
    </g>
    <g transform="translate(143.44,139.36)">
      <g class="primitive">
        <text text-anchor="end" dy="0.35em" transform="rotate(-90,0, 0)">1794-4</text>
      </g>
    </g>
    <g transform="translate(147.48,139.36)">
      <g class="primitive">
        <text text-anchor="end" dy="0.35em" transform="rotate(-90,0, 0)">1794-9</text>
      </g>
    </g>
    <g transform="translate(151.52,139.36)">
      <g class="primitive">
        <text text-anchor="end" dy="0.35em" transform="rotate(-90,0, 0)">1795-5</text>
      </g>
    </g>
    <g transform="translate(155.55,139.36)">
      <g class="primitive">
        <text text-anchor="end" dy="0.35em" transform="rotate(-90,0, 0)">1795-6</text>
      </g>
    </g>
    <g transform="translate(159.59,139.36)">
      <g class="primitive">
        <text text-anchor="end" dy="0.35em" transform="rotate(-90,0, 0)">1795-7</text>
      </g>
    </g>
    <g transform="translate(163.63,139.36)">
      <g class="primitive">
        <text text-anchor="end" dy="0.35em" transform="rotate(-90,0, 0)">1795-8</text>
      </g>
    </g>
    <g transform="translate(167.66,139.36)">
      <g class="primitive">
        <text text-anchor="end" dy="0.35em" transform="rotate(-90,0, 0)">1796-1</text>
      </g>
    </g>
    <g transform="translate(171.7,139.36)">
      <g class="primitive">
        <text text-anchor="end" dy="0.35em" transform="rotate(-90,0, 0)">1796-3</text>
      </g>
    </g>
    <g transform="translate(175.74,139.36)">
      <g class="primitive">
        <text text-anchor="end" dy="0.35em" transform="rotate(-90,0, 0)">1796-6</text>
      </g>
    </g>
    <g transform="translate(179.77,139.36)">
      <g class="primitive">
        <text text-anchor="end" dy="0.35em" transform="rotate(-90,0, 0)">1796-7</text>
      </g>
    </g>
    <g transform="translate(183.81,139.36)">
      <g class="primitive">
        <text text-anchor="end" dy="0.35em" transform="rotate(-90,0, 0)">1797-1</text>
      </g>
    </g>
    <g transform="translate(187.85,139.36)">
      <g class="primitive">
        <text text-anchor="end" dy="0.35em" transform="rotate(-90,0, 0)">1797-3</text>
      </g>
    </g>
    <g transform="translate(191.88,139.36)">
      <g class="primitive">
        <text text-anchor="end" dy="0.35em" transform="rotate(-90,0, 0)">1797-4</text>
      </g>
    </g>
    <g transform="translate(195.92,139.36)">
      <g class="primitive">
        <text text-anchor="end" dy="0.35em" transform="rotate(-90,0, 0)">1797-6</text>
      </g>
    </g>
    <g transform="translate(199.96,139.36)">
      <g class="primitive">
        <text text-anchor="end" dy="0.35em" transform="rotate(-90,0, 0)">1797-7</text>
      </g>
    </g>
    <g transform="translate(203.99,139.36)">
      <g class="primitive">
        <text text-anchor="end" dy="0.35em" transform="rotate(-90,0, 0)">1797-8</text>
      </g>
    </g>
    <g transform="translate(208.03,139.36)">
      <g class="primitive">
        <text text-anchor="end" dy="0.35em" transform="rotate(-90,0, 0)">1797-9</text>
      </g>
    </g>
    <g transform="translate(212.07,139.36)">
      <g class="primitive">
        <text text-anchor="end" dy="0.35em" transform="rotate(-90,0, 0)">1798-1</text>
      </g>
    </g>
    <g transform="translate(216.1,139.36)">
      <g class="primitive">
        <text text-anchor="end" dy="0.35em" transform="rotate(-90,0, 0)">1798-10</text>
      </g>
    </g>
    <g transform="translate(220.14,139.36)">
      <g class="primitive">
        <text text-anchor="end" dy="0.35em" transform="rotate(-90,0, 0)">1798-11</text>
      </g>
    </g>
    <g transform="translate(224.18,139.36)">
      <g class="primitive">
        <text text-anchor="end" dy="0.35em" transform="rotate(-90,0, 0)">1798-7</text>
      </g>
    </g>
    <g transform="translate(228.21,139.36)">
      <g class="primitive">
        <text text-anchor="end" dy="0.35em" transform="rotate(-90,0, 0)">1798-8</text>
      </g>
    </g>
    <g transform="translate(232.25,139.36)">
      <g class="primitive">
        <text text-anchor="end" dy="0.35em" transform="rotate(-90,0, 0)">1799-12</text>
      </g>
    </g>
    <g transform="translate(236.29,139.36)">
      <g class="primitive">
        <text text-anchor="end" dy="0.35em" transform="rotate(-90,0, 0)">1799-5</text>
      </g>
    </g>
    <g transform="translate(240.32,139.36)">
      <g class="primitive">
        <text text-anchor="end" dy="0.35em" transform="rotate(-90,0, 0)">1799-9</text>
      </g>
    </g>
    <g transform="translate(244.36,139.36)">
      <g class="primitive">
        <text text-anchor="end" dy="0.35em" transform="rotate(-90,0, 0)">1800-1</text>
      </g>
    </g>
    <g transform="translate(248.4,139.36)">
      <g class="primitive">
        <text text-anchor="end" dy="0.35em" transform="rotate(-90,0, 0)">1800-3</text>
      </g>
    </g>
    <g transform="translate(252.43,139.36)">
      <g class="primitive">
        <text text-anchor="end" dy="0.35em" transform="rotate(-90,0, 0)">1800-4</text>
      </g>
    </g>
    <g transform="translate(256.47,139.36)">
      <g class="primitive">
        <text text-anchor="end" dy="0.35em" transform="rotate(-90,0, 0)">1800-7</text>
      </g>
    </g>
    <g transform="translate(260.51,139.36)">
      <g class="primitive">
        <text text-anchor="end" dy="0.35em" transform="rotate(-90,0, 0)">1801-10</text>
      </g>
    </g>
    <g transform="translate(264.54,139.36)">
      <g class="primitive">
        <text text-anchor="end" dy="0.35em" transform="rotate(-90,0, 0)">1801-11</text>
      </g>
    </g>
    <g transform="translate(268.58,139.36)">
      <g class="primitive">
        <text text-anchor="end" dy="0.35em" transform="rotate(-90,0, 0)">1801-5</text>
      </g>
    </g>
    <g transform="translate(272.62,139.36)">
      <g class="primitive">
        <text text-anchor="end" dy="0.35em" transform="rotate(-90,0, 0)">1801-7</text>
      </g>
    </g>
    <g transform="translate(276.65,139.36)">
      <g class="primitive">
        <text text-anchor="end" dy="0.35em" transform="rotate(-90,0, 0)">1801-8</text>
      </g>
    </g>
    <g transform="translate(280.69,139.36)">
      <g class="primitive">
        <text text-anchor="end" dy="0.35em" transform="rotate(-90,0, 0)">1801-9</text>
      </g>
    </g>
    <g transform="translate(284.73,139.36)">
      <g class="primitive">
        <text text-anchor="end" dy="0.35em" transform="rotate(-90,0, 0)">1803-12</text>
      </g>
    </g>
    <g transform="translate(288.76,139.36)">
      <g class="primitive">
        <text text-anchor="end" dy="0.35em" transform="rotate(-90,0, 0)">1803-4</text>
      </g>
    </g>
    <g transform="translate(292.8,139.36)">
      <g class="primitive">
        <text text-anchor="end" dy="0.35em" transform="rotate(-90,0, 0)">1805-4</text>
      </g>
    </g>
    <g transform="translate(296.84,139.36)">
      <g class="primitive">
        <text text-anchor="end" dy="0.35em" transform="rotate(-90,0, 0)">1807-1</text>
      </g>
    </g>
    <g transform="translate(300.87,139.36)">
      <g class="primitive">
        <text text-anchor="end" dy="0.35em" transform="rotate(-90,0, 0)">1807-11</text>
      </g>
    </g>
    <g transform="translate(304.91,139.36)">
      <g class="primitive">
        <text text-anchor="end" dy="0.35em" transform="rotate(-90,0, 0)">1808-10</text>
      </g>
    </g>
    <g transform="translate(308.95,139.36)">
      <g class="primitive">
        <text text-anchor="end" dy="0.35em" transform="rotate(-90,0, 0)">1813-3</text>
      </g>
    </g>
    <g transform="translate(312.98,139.36)">
      <g class="primitive">
        <text text-anchor="end" dy="0.35em" transform="rotate(-90,0, 0)">no year-no month</text>
      </g>
    </g>
  </g>
  <g clip-path="url(#img-e941d311-5)">
    <g id="img-e941d311-6">
      <g pointer-events="visible" stroke-width="0.3" fill="#000000" fill-opacity="0.000" stroke="#000000" stroke-opacity="0.000" class="guide background" id="img-e941d311-7">
        <g transform="translate(171.7,74.48)" id="img-e941d311-8">
          <path d="M-143.3,-63.87 L143.3,-63.87 143.3,63.87 -143.3,63.87  z" class="primitive"/>
        </g>
      </g>
      <g class="guide ygridlines xfixed" stroke-dasharray="0.5,0.5" stroke-width="0.2" stroke="#D0D0E0" id="img-e941d311-9">
        <g transform="translate(171.7,136.36)" id="img-e941d311-10">
          <path fill="none" d="M-143.3,0 L143.3,0 " class="primitive"/>
        </g>
        <g transform="translate(171.7,105.42)" id="img-e941d311-11">
          <path fill="none" d="M-143.3,0 L143.3,0 " class="primitive"/>
        </g>
        <g transform="translate(171.7,74.48)" id="img-e941d311-12">
          <path fill="none" d="M-143.3,0 L143.3,0 " class="primitive"/>
        </g>
        <g transform="translate(171.7,43.55)" id="img-e941d311-13">
          <path fill="none" d="M-143.3,0 L143.3,0 " class="primitive"/>
        </g>
        <g transform="translate(171.7,12.61)" id="img-e941d311-14">
          <path fill="none" d="M-143.3,0 L143.3,0 " class="primitive"/>
        </g>
      </g>
      <g class="guide xgridlines yfixed" stroke-dasharray="0.5,0.5" stroke-width="0.2" stroke="#D0D0E0" id="img-e941d311-15">
        <g transform="translate(32.43,74.48)" id="img-e941d311-16">
          <path fill="none" d="M0,-63.87 L0,63.87 " class="primitive"/>
        </g>
        <g transform="translate(36.47,74.48)" id="img-e941d311-17">
          <path fill="none" d="M0,-63.87 L0,63.87 " class="primitive"/>
        </g>
        <g transform="translate(40.51,74.48)" id="img-e941d311-18">
          <path fill="none" d="M0,-63.87 L0,63.87 " class="primitive"/>
        </g>
        <g transform="translate(44.54,74.48)" id="img-e941d311-19">
          <path fill="none" d="M0,-63.87 L0,63.87 " class="primitive"/>
        </g>
        <g transform="translate(48.58,74.48)" id="img-e941d311-20">
          <path fill="none" d="M0,-63.87 L0,63.87 " class="primitive"/>
        </g>
        <g transform="translate(52.62,74.48)" id="img-e941d311-21">
          <path fill="none" d="M0,-63.87 L0,63.87 " class="primitive"/>
        </g>
        <g transform="translate(56.65,74.48)" id="img-e941d311-22">
          <path fill="none" d="M0,-63.87 L0,63.87 " class="primitive"/>
        </g>
        <g transform="translate(60.69,74.48)" id="img-e941d311-23">
          <path fill="none" d="M0,-63.87 L0,63.87 " class="primitive"/>
        </g>
        <g transform="translate(64.73,74.48)" id="img-e941d311-24">
          <path fill="none" d="M0,-63.87 L0,63.87 " class="primitive"/>
        </g>
        <g transform="translate(68.76,74.48)" id="img-e941d311-25">
          <path fill="none" d="M0,-63.87 L0,63.87 " class="primitive"/>
        </g>
        <g transform="translate(72.8,74.48)" id="img-e941d311-26">
          <path fill="none" d="M0,-63.87 L0,63.87 " class="primitive"/>
        </g>
        <g transform="translate(76.84,74.48)" id="img-e941d311-27">
          <path fill="none" d="M0,-63.87 L0,63.87 " class="primitive"/>
        </g>
        <g transform="translate(80.87,74.48)" id="img-e941d311-28">
          <path fill="none" d="M0,-63.87 L0,63.87 " class="primitive"/>
        </g>
        <g transform="translate(84.91,74.48)" id="img-e941d311-29">
          <path fill="none" d="M0,-63.87 L0,63.87 " class="primitive"/>
        </g>
        <g transform="translate(88.95,74.48)" id="img-e941d311-30">
          <path fill="none" d="M0,-63.87 L0,63.87 " class="primitive"/>
        </g>
        <g transform="translate(92.98,74.48)" id="img-e941d311-31">
          <path fill="none" d="M0,-63.87 L0,63.87 " class="primitive"/>
        </g>
        <g transform="translate(97.02,74.48)" id="img-e941d311-32">
          <path fill="none" d="M0,-63.87 L0,63.87 " class="primitive"/>
        </g>
        <g transform="translate(101.06,74.48)" id="img-e941d311-33">
          <path fill="none" d="M0,-63.87 L0,63.87 " class="primitive"/>
        </g>
        <g transform="translate(105.09,74.48)" id="img-e941d311-34">
          <path fill="none" d="M0,-63.87 L0,63.87 " class="primitive"/>
        </g>
        <g transform="translate(109.13,74.48)" id="img-e941d311-35">
          <path fill="none" d="M0,-63.87 L0,63.87 " class="primitive"/>
        </g>
        <g transform="translate(113.17,74.48)" id="img-e941d311-36">
          <path fill="none" d="M0,-63.87 L0,63.87 " class="primitive"/>
        </g>
        <g transform="translate(117.2,74.48)" id="img-e941d311-37">
          <path fill="none" d="M0,-63.87 L0,63.87 " class="primitive"/>
        </g>
        <g transform="translate(121.24,74.48)" id="img-e941d311-38">
          <path fill="none" d="M0,-63.87 L0,63.87 " class="primitive"/>
        </g>
        <g transform="translate(125.28,74.48)" id="img-e941d311-39">
          <path fill="none" d="M0,-63.87 L0,63.87 " class="primitive"/>
        </g>
        <g transform="translate(129.31,74.48)" id="img-e941d311-40">
          <path fill="none" d="M0,-63.87 L0,63.87 " class="primitive"/>
        </g>
        <g transform="translate(133.35,74.48)" id="img-e941d311-41">
          <path fill="none" d="M0,-63.87 L0,63.87 " class="primitive"/>
        </g>
        <g transform="translate(137.39,74.48)" id="img-e941d311-42">
          <path fill="none" d="M0,-63.87 L0,63.87 " class="primitive"/>
        </g>
        <g transform="translate(141.42,74.48)" id="img-e941d311-43">
          <path fill="none" d="M0,-63.87 L0,63.87 " class="primitive"/>
        </g>
        <g transform="translate(145.46,74.48)" id="img-e941d311-44">
          <path fill="none" d="M0,-63.87 L0,63.87 " class="primitive"/>
        </g>
        <g transform="translate(149.5,74.48)" id="img-e941d311-45">
          <path fill="none" d="M0,-63.87 L0,63.87 " class="primitive"/>
        </g>
        <g transform="translate(153.53,74.48)" id="img-e941d311-46">
          <path fill="none" d="M0,-63.87 L0,63.87 " class="primitive"/>
        </g>
        <g transform="translate(157.57,74.48)" id="img-e941d311-47">
          <path fill="none" d="M0,-63.87 L0,63.87 " class="primitive"/>
        </g>
        <g transform="translate(161.61,74.48)" id="img-e941d311-48">
          <path fill="none" d="M0,-63.87 L0,63.87 " class="primitive"/>
        </g>
        <g transform="translate(165.64,74.48)" id="img-e941d311-49">
          <path fill="none" d="M0,-63.87 L0,63.87 " class="primitive"/>
        </g>
        <g transform="translate(169.68,74.48)" id="img-e941d311-50">
          <path fill="none" d="M0,-63.87 L0,63.87 " class="primitive"/>
        </g>
        <g transform="translate(173.72,74.48)" id="img-e941d311-51">
          <path fill="none" d="M0,-63.87 L0,63.87 " class="primitive"/>
        </g>
        <g transform="translate(177.75,74.48)" id="img-e941d311-52">
          <path fill="none" d="M0,-63.87 L0,63.87 " class="primitive"/>
        </g>
        <g transform="translate(181.79,74.48)" id="img-e941d311-53">
          <path fill="none" d="M0,-63.87 L0,63.87 " class="primitive"/>
        </g>
        <g transform="translate(185.83,74.48)" id="img-e941d311-54">
          <path fill="none" d="M0,-63.87 L0,63.87 " class="primitive"/>
        </g>
        <g transform="translate(189.86,74.48)" id="img-e941d311-55">
          <path fill="none" d="M0,-63.87 L0,63.87 " class="primitive"/>
        </g>
        <g transform="translate(193.9,74.48)" id="img-e941d311-56">
          <path fill="none" d="M0,-63.87 L0,63.87 " class="primitive"/>
        </g>
        <g transform="translate(197.94,74.48)" id="img-e941d311-57">
          <path fill="none" d="M0,-63.87 L0,63.87 " class="primitive"/>
        </g>
        <g transform="translate(201.97,74.48)" id="img-e941d311-58">
          <path fill="none" d="M0,-63.87 L0,63.87 " class="primitive"/>
        </g>
        <g transform="translate(206.01,74.48)" id="img-e941d311-59">
          <path fill="none" d="M0,-63.87 L0,63.87 " class="primitive"/>
        </g>
        <g transform="translate(210.05,74.48)" id="img-e941d311-60">
          <path fill="none" d="M0,-63.87 L0,63.87 " class="primitive"/>
        </g>
        <g transform="translate(214.08,74.48)" id="img-e941d311-61">
          <path fill="none" d="M0,-63.87 L0,63.87 " class="primitive"/>
        </g>
        <g transform="translate(218.12,74.48)" id="img-e941d311-62">
          <path fill="none" d="M0,-63.87 L0,63.87 " class="primitive"/>
        </g>
        <g transform="translate(222.16,74.48)" id="img-e941d311-63">
          <path fill="none" d="M0,-63.87 L0,63.87 " class="primitive"/>
        </g>
        <g transform="translate(226.19,74.48)" id="img-e941d311-64">
          <path fill="none" d="M0,-63.87 L0,63.87 " class="primitive"/>
        </g>
        <g transform="translate(230.23,74.48)" id="img-e941d311-65">
          <path fill="none" d="M0,-63.87 L0,63.87 " class="primitive"/>
        </g>
        <g transform="translate(234.27,74.48)" id="img-e941d311-66">
          <path fill="none" d="M0,-63.87 L0,63.87 " class="primitive"/>
        </g>
        <g transform="translate(238.3,74.48)" id="img-e941d311-67">
          <path fill="none" d="M0,-63.87 L0,63.87 " class="primitive"/>
        </g>
        <g transform="translate(242.34,74.48)" id="img-e941d311-68">
          <path fill="none" d="M0,-63.87 L0,63.87 " class="primitive"/>
        </g>
        <g transform="translate(246.38,74.48)" id="img-e941d311-69">
          <path fill="none" d="M0,-63.87 L0,63.87 " class="primitive"/>
        </g>
        <g transform="translate(250.41,74.48)" id="img-e941d311-70">
          <path fill="none" d="M0,-63.87 L0,63.87 " class="primitive"/>
        </g>
        <g transform="translate(254.45,74.48)" id="img-e941d311-71">
          <path fill="none" d="M0,-63.87 L0,63.87 " class="primitive"/>
        </g>
        <g transform="translate(258.49,74.48)" id="img-e941d311-72">
          <path fill="none" d="M0,-63.87 L0,63.87 " class="primitive"/>
        </g>
        <g transform="translate(262.52,74.48)" id="img-e941d311-73">
          <path fill="none" d="M0,-63.87 L0,63.87 " class="primitive"/>
        </g>
        <g transform="translate(266.56,74.48)" id="img-e941d311-74">
          <path fill="none" d="M0,-63.87 L0,63.87 " class="primitive"/>
        </g>
        <g transform="translate(270.6,74.48)" id="img-e941d311-75">
          <path fill="none" d="M0,-63.87 L0,63.87 " class="primitive"/>
        </g>
        <g transform="translate(274.63,74.48)" id="img-e941d311-76">
          <path fill="none" d="M0,-63.87 L0,63.87 " class="primitive"/>
        </g>
        <g transform="translate(278.67,74.48)" id="img-e941d311-77">
          <path fill="none" d="M0,-63.87 L0,63.87 " class="primitive"/>
        </g>
        <g transform="translate(282.71,74.48)" id="img-e941d311-78">
          <path fill="none" d="M0,-63.87 L0,63.87 " class="primitive"/>
        </g>
        <g transform="translate(286.74,74.48)" id="img-e941d311-79">
          <path fill="none" d="M0,-63.87 L0,63.87 " class="primitive"/>
        </g>
        <g transform="translate(290.78,74.48)" id="img-e941d311-80">
          <path fill="none" d="M0,-63.87 L0,63.87 " class="primitive"/>
        </g>
        <g transform="translate(294.82,74.48)" id="img-e941d311-81">
          <path fill="none" d="M0,-63.87 L0,63.87 " class="primitive"/>
        </g>
        <g transform="translate(298.85,74.48)" id="img-e941d311-82">
          <path fill="none" d="M0,-63.87 L0,63.87 " class="primitive"/>
        </g>
        <g transform="translate(302.89,74.48)" id="img-e941d311-83">
          <path fill="none" d="M0,-63.87 L0,63.87 " class="primitive"/>
        </g>
        <g transform="translate(306.93,74.48)" id="img-e941d311-84">
          <path fill="none" d="M0,-63.87 L0,63.87 " class="primitive"/>
        </g>
        <g transform="translate(310.96,74.48)" id="img-e941d311-85">
          <path fill="none" d="M0,-63.87 L0,63.87 " class="primitive"/>
        </g>
      </g>
      <g class="plotpanel" id="img-e941d311-86">
        <metadata>
          <boundingbox value="28.39833333333337mm 10.611666666666665mm 286.6016666666667mm 127.74333333333333mm"/>
          <unitbox value="0.5 203232.4973735959 71.0 -206464.99474719175"/>
        </metadata>
        <g shape-rendering="crispEdges" stroke-width="0.3" id="img-e941d311-87">
          <g class="geometry" fill-opacity="1" stroke="#000000" stroke-opacity="0.000" fill="#00BFFF" id="img-e941d311-88">
            <g transform="translate(30.42,136.06)" id="img-e941d311-89">
              <path d="M-2.04,-0.3 L2.04,-0.3 2.04,0.3 -2.04,0.3  z" class="primitive"/>
            </g>
            <g transform="translate(34.45,136.21)" id="img-e941d311-90">
              <path d="M-2.04,-0.14 L2.04,-0.14 2.04,0.14 -2.04,0.14  z" class="primitive"/>
            </g>
            <g transform="translate(38.49,135.86)" id="img-e941d311-91">
              <path d="M-2.04,-0.49 L2.04,-0.49 2.04,0.49 -2.04,0.49  z" class="primitive"/>
            </g>
            <g transform="translate(42.53,135.83)" id="img-e941d311-92">
              <path d="M-2.04,-0.52 L2.04,-0.52 2.04,0.52 -2.04,0.52  z" class="primitive"/>
            </g>
            <g transform="translate(46.56,136.33)" id="img-e941d311-93">
              <path d="M-2.04,-0.03 L2.04,-0.03 2.04,0.03 -2.04,0.03  z" class="primitive"/>
            </g>
            <g transform="translate(50.6,78.27)" id="img-e941d311-94">
              <path d="M-2.04,-58.09 L2.04,-58.09 2.04,58.09 -2.04,58.09  z" class="primitive"/>
            </g>
            <g transform="translate(54.64,131.84)" id="img-e941d311-95">
              <path d="M-2.04,-4.51 L2.04,-4.51 2.04,4.51 -2.04,4.51  z" class="primitive"/>
            </g>
            <g transform="translate(58.67,127.55)" id="img-e941d311-96">
              <path d="M-2.04,-8.81 L2.04,-8.81 2.04,8.81 -2.04,8.81  z" class="primitive"/>
            </g>
            <g transform="translate(62.71,136.32)" id="img-e941d311-97">
              <path d="M-2.04,-0.03 L2.04,-0.03 2.04,0.03 -2.04,0.03  z" class="primitive"/>
            </g>
            <g transform="translate(66.75,136.34)" id="img-e941d311-98">
              <path d="M-2.04,-0.01 L2.04,-0.01 2.04,0.01 -2.04,0.01  z" class="primitive"/>
            </g>
            <g transform="translate(70.78,136.08)" id="img-e941d311-99">
              <path d="M-2.04,-0.27 L2.04,-0.27 2.04,0.27 -2.04,0.27  z" class="primitive"/>
            </g>
            <g transform="translate(74.82,136.07)" id="img-e941d311-100">
              <path d="M-2.04,-0.29 L2.04,-0.29 2.04,0.29 -2.04,0.29  z" class="primitive"/>
            </g>
            <g transform="translate(78.86,136.27)" id="img-e941d311-101">
              <path d="M-2.04,-0.08 L2.04,-0.08 2.04,0.08 -2.04,0.08  z" class="primitive"/>
            </g>
            <g transform="translate(82.89,135.91)" id="img-e941d311-102">
              <path d="M-2.04,-0.44 L2.04,-0.44 2.04,0.44 -2.04,0.44  z" class="primitive"/>
            </g>
            <g transform="translate(86.93,136.05)" id="img-e941d311-103">
              <path d="M-2.04,-0.31 L2.04,-0.31 2.04,0.31 -2.04,0.31  z" class="primitive"/>
            </g>
            <g transform="translate(90.97,132.71)" id="img-e941d311-104">
              <path d="M-2.04,-3.64 L2.04,-3.64 2.04,3.64 -2.04,3.64  z" class="primitive"/>
            </g>
            <g transform="translate(95,135.94)" id="img-e941d311-105">
              <path d="M-2.04,-0.41 L2.04,-0.41 2.04,0.41 -2.04,0.41  z" class="primitive"/>
            </g>
            <g transform="translate(99.04,136.29)" id="img-e941d311-106">
              <path d="M-2.04,-0.07 L2.04,-0.07 2.04,0.07 -2.04,0.07  z" class="primitive"/>
            </g>
            <g transform="translate(103.08,136.35)" id="img-e941d311-107">
              <path d="M-2.04,-0.01 L2.04,-0.01 2.04,0.01 -2.04,0.01  z" class="primitive"/>
            </g>
            <g transform="translate(107.11,136.25)" id="img-e941d311-108">
              <path d="M-2.04,-0.11 L2.04,-0.11 2.04,0.11 -2.04,0.11  z" class="primitive"/>
            </g>
            <g transform="translate(111.15,135.79)" id="img-e941d311-109">
              <path d="M-2.04,-0.56 L2.04,-0.56 2.04,0.56 -2.04,0.56  z" class="primitive"/>
            </g>
            <g transform="translate(115.19,136.16)" id="img-e941d311-110">
              <path d="M-2.04,-0.19 L2.04,-0.19 2.04,0.19 -2.04,0.19  z" class="primitive"/>
            </g>
            <g transform="translate(119.22,136.18)" id="img-e941d311-111">
              <path d="M-2.04,-0.18 L2.04,-0.18 2.04,0.18 -2.04,0.18  z" class="primitive"/>
            </g>
            <g transform="translate(123.26,136.35)" id="img-e941d311-112">
              <path d="M-2.04,-0 L2.04,-0 2.04,0 -2.04,0  z" class="primitive"/>
            </g>
            <g transform="translate(127.3,136.26)" id="img-e941d311-113">
              <path d="M-2.04,-0.09 L2.04,-0.09 2.04,0.09 -2.04,0.09  z" class="primitive"/>
            </g>
            <g transform="translate(131.33,136.32)" id="img-e941d311-114">
              <path d="M-2.04,-0.04 L2.04,-0.04 2.04,0.04 -2.04,0.04  z" class="primitive"/>
            </g>
            <g transform="translate(135.37,133.21)" id="img-e941d311-115">
              <path d="M-2.04,-3.14 L2.04,-3.14 2.04,3.14 -2.04,3.14  z" class="primitive"/>
            </g>
            <g transform="translate(139.41,136.36)" id="img-e941d311-116">
              <path d="M-2.04,-0 L2.04,-0 2.04,0 -2.04,0  z" class="primitive"/>
            </g>
            <g transform="translate(143.44,134.74)" id="img-e941d311-117">
              <path d="M-2.04,-1.61 L2.04,-1.61 2.04,1.61 -2.04,1.61  z" class="primitive"/>
            </g>
            <g transform="translate(147.48,136.04)" id="img-e941d311-118">
              <path d="M-2.04,-0.31 L2.04,-0.31 2.04,0.31 -2.04,0.31  z" class="primitive"/>
            </g>
            <g transform="translate(151.52,136.27)" id="img-e941d311-119">
              <path d="M-2.04,-0.09 L2.04,-0.09 2.04,0.09 -2.04,0.09  z" class="primitive"/>
            </g>
            <g transform="translate(155.55,136.31)" id="img-e941d311-120">
              <path d="M-2.04,-0.04 L2.04,-0.04 2.04,0.04 -2.04,0.04  z" class="primitive"/>
            </g>
            <g transform="translate(159.59,136.34)" id="img-e941d311-121">
              <path d="M-2.04,-0.02 L2.04,-0.02 2.04,0.02 -2.04,0.02  z" class="primitive"/>
            </g>
            <g transform="translate(163.63,136.25)" id="img-e941d311-122">
              <path d="M-2.04,-0.11 L2.04,-0.11 2.04,0.11 -2.04,0.11  z" class="primitive"/>
            </g>
            <g transform="translate(167.66,136.36)" id="img-e941d311-123">
              <path d="M-2.04,-0 L2.04,-0 2.04,0 -2.04,0  z" class="primitive"/>
            </g>
            <g transform="translate(171.7,136.11)" id="img-e941d311-124">
              <path d="M-2.04,-0.25 L2.04,-0.25 2.04,0.25 -2.04,0.25  z" class="primitive"/>
            </g>
            <g transform="translate(175.74,136.31)" id="img-e941d311-125">
              <path d="M-2.04,-0.05 L2.04,-0.05 2.04,0.05 -2.04,0.05  z" class="primitive"/>
            </g>
            <g transform="translate(179.77,136.34)" id="img-e941d311-126">
              <path d="M-2.04,-0.01 L2.04,-0.01 2.04,0.01 -2.04,0.01  z" class="primitive"/>
            </g>
            <g transform="translate(183.81,92.39)" id="img-e941d311-127">
              <path d="M-2.04,-43.96 L2.04,-43.96 2.04,43.96 -2.04,43.96  z" class="primitive"/>
            </g>
            <g transform="translate(187.85,136.36)" id="img-e941d311-128">
              <path d="M-2.04,-0 L2.04,-0 2.04,0 -2.04,0  z" class="primitive"/>
            </g>
            <g transform="translate(191.88,136.09)" id="img-e941d311-129">
              <path d="M-2.04,-0.26 L2.04,-0.26 2.04,0.26 -2.04,0.26  z" class="primitive"/>
            </g>
            <g transform="translate(195.92,136.24)" id="img-e941d311-130">
              <path d="M-2.04,-0.11 L2.04,-0.11 2.04,0.11 -2.04,0.11  z" class="primitive"/>
            </g>
            <g transform="translate(199.96,136.11)" id="img-e941d311-131">
              <path d="M-2.04,-0.24 L2.04,-0.24 2.04,0.24 -2.04,0.24  z" class="primitive"/>
            </g>
            <g transform="translate(203.99,136.27)" id="img-e941d311-132">
              <path d="M-2.04,-0.09 L2.04,-0.09 2.04,0.09 -2.04,0.09  z" class="primitive"/>
            </g>
            <g transform="translate(208.03,136.13)" id="img-e941d311-133">
              <path d="M-2.04,-0.22 L2.04,-0.22 2.04,0.22 -2.04,0.22  z" class="primitive"/>
            </g>
            <g transform="translate(212.07,136.2)" id="img-e941d311-134">
              <path d="M-2.04,-0.15 L2.04,-0.15 2.04,0.15 -2.04,0.15  z" class="primitive"/>
            </g>
            <g transform="translate(216.1,136.35)" id="img-e941d311-135">
              <path d="M-2.04,-0 L2.04,-0 2.04,0 -2.04,0  z" class="primitive"/>
            </g>
            <g transform="translate(220.14,136.35)" id="img-e941d311-136">
              <path d="M-2.04,-0 L2.04,-0 2.04,0 -2.04,0  z" class="primitive"/>
            </g>
            <g transform="translate(224.18,136.33)" id="img-e941d311-137">
              <path d="M-2.04,-0.02 L2.04,-0.02 2.04,0.02 -2.04,0.02  z" class="primitive"/>
            </g>
            <g transform="translate(228.21,135.84)" id="img-e941d311-138">
              <path d="M-2.04,-0.51 L2.04,-0.51 2.04,0.51 -2.04,0.51  z" class="primitive"/>
            </g>
            <g transform="translate(232.25,135.28)" id="img-e941d311-139">
              <path d="M-2.04,-1.07 L2.04,-1.07 2.04,1.07 -2.04,1.07  z" class="primitive"/>
            </g>
            <g transform="translate(236.29,136.25)" id="img-e941d311-140">
              <path d="M-2.04,-0.1 L2.04,-0.1 2.04,0.1 -2.04,0.1  z" class="primitive"/>
            </g>
            <g transform="translate(240.32,136.34)" id="img-e941d311-141">
              <path d="M-2.04,-0.02 L2.04,-0.02 2.04,0.02 -2.04,0.02  z" class="primitive"/>
            </g>
            <g transform="translate(244.36,136.25)" id="img-e941d311-142">
              <path d="M-2.04,-0.1 L2.04,-0.1 2.04,0.1 -2.04,0.1  z" class="primitive"/>
            </g>
            <g transform="translate(248.4,136.34)" id="img-e941d311-143">
              <path d="M-2.04,-0.01 L2.04,-0.01 2.04,0.01 -2.04,0.01  z" class="primitive"/>
            </g>
            <g transform="translate(252.43,136.34)" id="img-e941d311-144">
              <path d="M-2.04,-0.02 L2.04,-0.02 2.04,0.02 -2.04,0.02  z" class="primitive"/>
            </g>
            <g transform="translate(256.47,136.24)" id="img-e941d311-145">
              <path d="M-2.04,-0.12 L2.04,-0.12 2.04,0.12 -2.04,0.12  z" class="primitive"/>
            </g>
            <g transform="translate(260.51,136.24)" id="img-e941d311-146">
              <path d="M-2.04,-0.12 L2.04,-0.12 2.04,0.12 -2.04,0.12  z" class="primitive"/>
            </g>
            <g transform="translate(264.54,136.34)" id="img-e941d311-147">
              <path d="M-2.04,-0.01 L2.04,-0.01 2.04,0.01 -2.04,0.01  z" class="primitive"/>
            </g>
            <g transform="translate(268.58,136.16)" id="img-e941d311-148">
              <path d="M-2.04,-0.19 L2.04,-0.19 2.04,0.19 -2.04,0.19  z" class="primitive"/>
            </g>
            <g transform="translate(272.62,135.93)" id="img-e941d311-149">
              <path d="M-2.04,-0.42 L2.04,-0.42 2.04,0.42 -2.04,0.42  z" class="primitive"/>
            </g>
            <g transform="translate(276.65,135.96)" id="img-e941d311-150">
              <path d="M-2.04,-0.39 L2.04,-0.39 2.04,0.39 -2.04,0.39  z" class="primitive"/>
            </g>
            <g transform="translate(280.69,136.3)" id="img-e941d311-151">
              <path d="M-2.04,-0.06 L2.04,-0.06 2.04,0.06 -2.04,0.06  z" class="primitive"/>
            </g>
            <g transform="translate(284.73,136.35)" id="img-e941d311-152">
              <path d="M-2.04,-0.01 L2.04,-0.01 2.04,0.01 -2.04,0.01  z" class="primitive"/>
            </g>
            <g transform="translate(288.76,134.23)" id="img-e941d311-153">
              <path d="M-2.04,-2.12 L2.04,-2.12 2.04,2.12 -2.04,2.12  z" class="primitive"/>
            </g>
            <g transform="translate(292.8,133.65)" id="img-e941d311-154">
              <path d="M-2.04,-2.71 L2.04,-2.71 2.04,2.71 -2.04,2.71  z" class="primitive"/>
            </g>
            <g transform="translate(296.84,136.31)" id="img-e941d311-155">
              <path d="M-2.04,-0.04 L2.04,-0.04 2.04,0.04 -2.04,0.04  z" class="primitive"/>
            </g>
            <g transform="translate(300.87,136.35)" id="img-e941d311-156">
              <path d="M-2.04,-0.01 L2.04,-0.01 2.04,0.01 -2.04,0.01  z" class="primitive"/>
            </g>
            <g transform="translate(304.91,136.35)" id="img-e941d311-157">
              <path d="M-2.04,-0.01 L2.04,-0.01 2.04,0.01 -2.04,0.01  z" class="primitive"/>
            </g>
            <g transform="translate(308.95,136.22)" id="img-e941d311-158">
              <path d="M-2.04,-0.13 L2.04,-0.13 2.04,0.13 -2.04,0.13  z" class="primitive"/>
            </g>
            <g transform="translate(312.98,136.28)" id="img-e941d311-159">
              <path d="M-2.04,-0.07 L2.04,-0.07 2.04,0.07 -2.04,0.07  z" class="primitive"/>
            </g>
          </g>
        </g>
      </g>
    </g>
  </g>
  <g class="guide ylabels" font-size="2.82" font-family="'PT Sans Caption','Helvetica Neue','Helvetica',sans-serif" fill="#6C606B" id="img-e941d311-160">
    <g transform="translate(27.4,136.36)" id="img-e941d311-161">
      <g class="primitive">
        <text text-anchor="end" dy="0.35em">0</text>
      </g>
    </g>
    <g transform="translate(27.4,105.42)" id="img-e941d311-162">
      <g class="primitive">
        <text text-anchor="end" dy="0.35em">5.00×10⁴</text>
      </g>
    </g>
    <g transform="translate(27.4,74.48)" id="img-e941d311-163">
      <g class="primitive">
        <text text-anchor="end" dy="0.35em">1.00×10⁵</text>
      </g>
    </g>
    <g transform="translate(27.4,43.55)" id="img-e941d311-164">
      <g class="primitive">
        <text text-anchor="end" dy="0.35em">1.50×10⁵</text>
      </g>
    </g>
    <g transform="translate(27.4,12.61)" id="img-e941d311-165">
      <g class="primitive">
        <text text-anchor="end" dy="0.35em">2.00×10⁵</text>
      </g>
    </g>
  </g>
  <g font-size="3.88" font-family="'PT Sans','Helvetica Neue','Helvetica',sans-serif" fill="#564A55" stroke="#000000" stroke-opacity="0.000" id="img-e941d311-166">
    <g transform="translate(8.81,72.48)" id="img-e941d311-167">
      <g class="primitive">
        <text text-anchor="middle" dy="0.35em" transform="rotate(-90,0, 2)">Total Debt (in dollars)</text>
      </g>
    </g>
  </g>
  <g font-size="3.88" font-family="'PT Sans','Helvetica Neue','Helvetica',sans-serif" fill="#564A55" stroke="#000000" stroke-opacity="0.000" id="img-e941d311-168">
    <g transform="translate(171.7,5)" id="img-e941d311-169">
      <g class="primitive">
        <text text-anchor="middle" dy="0.6em">NJ Debt Redeemed Per Year/Month</text>
      </g>
    </g>
  </g>
</g>
<defs>
  <clipPath id="img-e941d311-5">
    <path d="M28.4,10.61 L315,10.61 315,138.35 28.4,138.35 " />
  </clipPath>
</defs>
</svg>
