<?xml version="1.0" encoding="UTF-8"?>
<svg xmlns="http://www.w3.org/2000/svg"
     xmlns:xlink="http://www.w3.org/1999/xlink"
     xmlns:gadfly="http://www.gadflyjl.org/ns"
     version="1.2"
     width="320mm" height="180mm" viewBox="0 0 320 180"
     stroke="none"
     fill="#000000"
     stroke-width="0.3"
     font-size="3.88"
>
<defs>
  <marker id="arrow" markerWidth="15" markerHeight="7" refX="5" refY="3.5" orient="auto" markerUnits="strokeWidth">
    <path d="M0,0 L15,3.5 L0,7 z" stroke="context-stroke" fill="context-stroke"/>
  </marker>
</defs>
<g stroke="#000000" stroke-opacity="0.000" fill="#FFFFFF" id="img-37eb747e-1">
  <g transform="translate(160,90)">
    <path d="M-160,-90 L160,-90 160,90 -160,90  z" class="primitive"/>
  </g>
</g>
<g class="plotroot yscalable" id="img-37eb747e-2">
  <g font-size="3.88" font-family="'PT Sans','Helvetica Neue','Helvetica',sans-serif" fill="#564A55" stroke="#000000" stroke-opacity="0.000" id="img-37eb747e-3">
    <g transform="translate(170.86,168.39)">
      <g class="primitive">
        <text text-anchor="middle" dy="0.6em">Year</text>
      </g>
    </g>
  </g>
  <g class="guide xlabels" font-size="2.82" font-family="'PT Sans Caption','Helvetica Neue','Helvetica',sans-serif" fill="#6C606B" id="img-37eb747e-4">
    <g transform="translate(29.17,139.36)">
      <g class="primitive">
        <text text-anchor="end" dy="0.35em" transform="rotate(-90,0, 0)">1790-10</text>
      </g>
    </g>
    <g transform="translate(34.05,139.36)">
      <g class="primitive">
        <text text-anchor="end" dy="0.35em" transform="rotate(-90,0, 0)">1790-11</text>
      </g>
    </g>
    <g transform="translate(38.94,139.36)">
      <g class="primitive">
        <text text-anchor="end" dy="0.35em" transform="rotate(-90,0, 0)">1790-12</text>
      </g>
    </g>
    <g transform="translate(43.83,139.36)">
      <g class="primitive">
        <text text-anchor="end" dy="0.35em" transform="rotate(-90,0, 0)">1791-1</text>
      </g>
    </g>
    <g transform="translate(48.71,139.36)">
      <g class="primitive">
        <text text-anchor="end" dy="0.35em" transform="rotate(-90,0, 0)">1791-10</text>
      </g>
    </g>
    <g transform="translate(53.6,139.36)">
      <g class="primitive">
        <text text-anchor="end" dy="0.35em" transform="rotate(-90,0, 0)">1791-11</text>
      </g>
    </g>
    <g transform="translate(58.48,139.36)">
      <g class="primitive">
        <text text-anchor="end" dy="0.35em" transform="rotate(-90,0, 0)">1791-12</text>
      </g>
    </g>
    <g transform="translate(63.37,139.36)">
      <g class="primitive">
        <text text-anchor="end" dy="0.35em" transform="rotate(-90,0, 0)">1791-2</text>
      </g>
    </g>
    <g transform="translate(68.26,139.36)">
      <g class="primitive">
        <text text-anchor="end" dy="0.35em" transform="rotate(-90,0, 0)">1791-3</text>
      </g>
    </g>
    <g transform="translate(73.14,139.36)">
      <g class="primitive">
        <text text-anchor="end" dy="0.35em" transform="rotate(-90,0, 0)">1791-4</text>
      </g>
    </g>
    <g transform="translate(78.03,139.36)">
      <g class="primitive">
        <text text-anchor="end" dy="0.35em" transform="rotate(-90,0, 0)">1791-5</text>
      </g>
    </g>
    <g transform="translate(82.91,139.36)">
      <g class="primitive">
        <text text-anchor="end" dy="0.35em" transform="rotate(-90,0, 0)">1791-6</text>
      </g>
    </g>
    <g transform="translate(87.8,139.36)">
      <g class="primitive">
        <text text-anchor="end" dy="0.35em" transform="rotate(-90,0, 0)">1791-7</text>
      </g>
    </g>
    <g transform="translate(92.69,139.36)">
      <g class="primitive">
        <text text-anchor="end" dy="0.35em" transform="rotate(-90,0, 0)">1791-8</text>
      </g>
    </g>
    <g transform="translate(97.57,139.36)">
      <g class="primitive">
        <text text-anchor="end" dy="0.35em" transform="rotate(-90,0, 0)">1791-9</text>
      </g>
    </g>
    <g transform="translate(102.46,139.36)">
      <g class="primitive">
        <text text-anchor="end" dy="0.35em" transform="rotate(-90,0, 0)">1792-1</text>
      </g>
    </g>
    <g transform="translate(107.34,139.36)">
      <g class="primitive">
        <text text-anchor="end" dy="0.35em" transform="rotate(-90,0, 0)">1792-10</text>
      </g>
    </g>
    <g transform="translate(112.23,139.36)">
      <g class="primitive">
        <text text-anchor="end" dy="0.35em" transform="rotate(-90,0, 0)">1792-11</text>
      </g>
    </g>
    <g transform="translate(117.12,139.36)">
      <g class="primitive">
        <text text-anchor="end" dy="0.35em" transform="rotate(-90,0, 0)">1792-12</text>
      </g>
    </g>
    <g transform="translate(122,139.36)">
      <g class="primitive">
        <text text-anchor="end" dy="0.35em" transform="rotate(-90,0, 0)">1792-2</text>
      </g>
    </g>
    <g transform="translate(126.89,139.36)">
      <g class="primitive">
        <text text-anchor="end" dy="0.35em" transform="rotate(-90,0, 0)">1792-3</text>
      </g>
    </g>
    <g transform="translate(131.77,139.36)">
      <g class="primitive">
        <text text-anchor="end" dy="0.35em" transform="rotate(-90,0, 0)">1792-4</text>
      </g>
    </g>
    <g transform="translate(136.66,139.36)">
      <g class="primitive">
        <text text-anchor="end" dy="0.35em" transform="rotate(-90,0, 0)">1792-5</text>
      </g>
    </g>
    <g transform="translate(141.55,139.36)">
      <g class="primitive">
        <text text-anchor="end" dy="0.35em" transform="rotate(-90,0, 0)">1792-6</text>
      </g>
    </g>
    <g transform="translate(146.43,139.36)">
      <g class="primitive">
        <text text-anchor="end" dy="0.35em" transform="rotate(-90,0, 0)">1792-7</text>
      </g>
    </g>
    <g transform="translate(151.32,139.36)">
      <g class="primitive">
        <text text-anchor="end" dy="0.35em" transform="rotate(-90,0, 0)">1792-8</text>
      </g>
    </g>
    <g transform="translate(156.2,139.36)">
      <g class="primitive">
        <text text-anchor="end" dy="0.35em" transform="rotate(-90,0, 0)">1792-9</text>
      </g>
    </g>
    <g transform="translate(161.09,139.36)">
      <g class="primitive">
        <text text-anchor="end" dy="0.35em" transform="rotate(-90,0, 0)">1793-1</text>
      </g>
    </g>
    <g transform="translate(165.98,139.36)">
      <g class="primitive">
        <text text-anchor="end" dy="0.35em" transform="rotate(-90,0, 0)">1793-10</text>
      </g>
    </g>
    <g transform="translate(170.86,139.36)">
      <g class="primitive">
        <text text-anchor="end" dy="0.35em" transform="rotate(-90,0, 0)">1793-11</text>
      </g>
    </g>
    <g transform="translate(175.75,139.36)">
      <g class="primitive">
        <text text-anchor="end" dy="0.35em" transform="rotate(-90,0, 0)">1793-12</text>
      </g>
    </g>
    <g transform="translate(180.63,139.36)">
      <g class="primitive">
        <text text-anchor="end" dy="0.35em" transform="rotate(-90,0, 0)">1793-2</text>
      </g>
    </g>
    <g transform="translate(185.52,139.36)">
      <g class="primitive">
        <text text-anchor="end" dy="0.35em" transform="rotate(-90,0, 0)">1793-3</text>
      </g>
    </g>
    <g transform="translate(190.41,139.36)">
      <g class="primitive">
        <text text-anchor="end" dy="0.35em" transform="rotate(-90,0, 0)">1793-4</text>
      </g>
    </g>
    <g transform="translate(195.29,139.36)">
      <g class="primitive">
        <text text-anchor="end" dy="0.35em" transform="rotate(-90,0, 0)">1793-5</text>
      </g>
    </g>
    <g transform="translate(200.18,139.36)">
      <g class="primitive">
        <text text-anchor="end" dy="0.35em" transform="rotate(-90,0, 0)">1793-6</text>
      </g>
    </g>
    <g transform="translate(205.06,139.36)">
      <g class="primitive">
        <text text-anchor="end" dy="0.35em" transform="rotate(-90,0, 0)">1793-7</text>
      </g>
    </g>
    <g transform="translate(209.95,139.36)">
      <g class="primitive">
        <text text-anchor="end" dy="0.35em" transform="rotate(-90,0, 0)">1793-8</text>
      </g>
    </g>
    <g transform="translate(214.84,139.36)">
      <g class="primitive">
        <text text-anchor="end" dy="0.35em" transform="rotate(-90,0, 0)">1793-9</text>
      </g>
    </g>
    <g transform="translate(219.72,139.36)">
      <g class="primitive">
        <text text-anchor="end" dy="0.35em" transform="rotate(-90,0, 0)">1794-1</text>
      </g>
    </g>
    <g transform="translate(224.61,139.36)">
      <g class="primitive">
        <text text-anchor="end" dy="0.35em" transform="rotate(-90,0, 0)">1794-10</text>
      </g>
    </g>
    <g transform="translate(229.49,139.36)">
      <g class="primitive">
        <text text-anchor="end" dy="0.35em" transform="rotate(-90,0, 0)">1794-12</text>
      </g>
    </g>
    <g transform="translate(234.38,139.36)">
      <g class="primitive">
        <text text-anchor="end" dy="0.35em" transform="rotate(-90,0, 0)">1794-2</text>
      </g>
    </g>
    <g transform="translate(239.27,139.36)">
      <g class="primitive">
        <text text-anchor="end" dy="0.35em" transform="rotate(-90,0, 0)">1794-3</text>
      </g>
    </g>
    <g transform="translate(244.15,139.36)">
      <g class="primitive">
        <text text-anchor="end" dy="0.35em" transform="rotate(-90,0, 0)">1794-4</text>
      </g>
    </g>
    <g transform="translate(249.04,139.36)">
      <g class="primitive">
        <text text-anchor="end" dy="0.35em" transform="rotate(-90,0, 0)">1794-5</text>
      </g>
    </g>
    <g transform="translate(253.92,139.36)">
      <g class="primitive">
        <text text-anchor="end" dy="0.35em" transform="rotate(-90,0, 0)">1794-6</text>
      </g>
    </g>
    <g transform="translate(258.81,139.36)">
      <g class="primitive">
        <text text-anchor="end" dy="0.35em" transform="rotate(-90,0, 0)">1794-7</text>
      </g>
    </g>
    <g transform="translate(263.7,139.36)">
      <g class="primitive">
        <text text-anchor="end" dy="0.35em" transform="rotate(-90,0, 0)">1794-8</text>
      </g>
    </g>
    <g transform="translate(268.58,139.36)">
      <g class="primitive">
        <text text-anchor="end" dy="0.35em" transform="rotate(-90,0, 0)">1794-9</text>
      </g>
    </g>
    <g transform="translate(273.47,139.36)">
      <g class="primitive">
        <text text-anchor="end" dy="0.35em" transform="rotate(-90,0, 0)">1795-1</text>
      </g>
    </g>
    <g transform="translate(278.35,139.36)">
      <g class="primitive">
        <text text-anchor="end" dy="0.35em" transform="rotate(-90,0, 0)">1795-2</text>
      </g>
    </g>
    <g transform="translate(283.24,139.36)">
      <g class="primitive">
        <text text-anchor="end" dy="0.35em" transform="rotate(-90,0, 0)">1795-3</text>
      </g>
    </g>
    <g transform="translate(288.13,139.36)">
      <g class="primitive">
        <text text-anchor="end" dy="0.35em" transform="rotate(-90,0, 0)">1795-4</text>
      </g>
    </g>
    <g transform="translate(293.01,139.36)">
      <g class="primitive">
        <text text-anchor="end" dy="0.35em" transform="rotate(-90,0, 0)">1795-5</text>
      </g>
    </g>
    <g transform="translate(297.9,139.36)">
      <g class="primitive">
        <text text-anchor="end" dy="0.35em" transform="rotate(-90,0, 0)">1795-6</text>
      </g>
    </g>
    <g transform="translate(302.78,139.36)">
      <g class="primitive">
        <text text-anchor="end" dy="0.35em" transform="rotate(-90,0, 0)">1795-7</text>
      </g>
    </g>
    <g transform="translate(307.67,139.36)">
      <g class="primitive">
        <text text-anchor="end" dy="0.35em" transform="rotate(-90,0, 0)">1795-8</text>
      </g>
    </g>
    <g transform="translate(312.56,139.36)">
      <g class="primitive">
        <text text-anchor="end" dy="0.35em" transform="rotate(-90,0, 0)">no year-no month</text>
      </g>
    </g>
  </g>
  <g clip-path="url(#img-37eb747e-5)">
    <g id="img-37eb747e-6">
      <g pointer-events="visible" stroke-width="0.3" fill="#000000" fill-opacity="0.000" stroke="#000000" stroke-opacity="0.000" class="guide background" id="img-37eb747e-7">
        <g transform="translate(170.86,74.48)" id="img-37eb747e-8">
          <path d="M-144.14,-63.87 L144.14,-63.87 144.14,63.87 -144.14,63.87  z" class="primitive"/>
        </g>
      </g>
      <g class="guide ygridlines xfixed" stroke-dasharray="0.5,0.5" stroke-width="0.2" stroke="#D0D0E0" id="img-37eb747e-9">
        <g transform="translate(170.86,136.36)" id="img-37eb747e-10">
          <path fill="none" d="M-144.14,0 L144.14,0 " class="primitive"/>
        </g>
        <g transform="translate(170.86,111.61)" id="img-37eb747e-11">
          <path fill="none" d="M-144.14,0 L144.14,0 " class="primitive"/>
        </g>
        <g transform="translate(170.86,86.86)" id="img-37eb747e-12">
          <path fill="none" d="M-144.14,0 L144.14,0 " class="primitive"/>
        </g>
        <g transform="translate(170.86,62.11)" id="img-37eb747e-13">
          <path fill="none" d="M-144.14,0 L144.14,0 " class="primitive"/>
        </g>
        <g transform="translate(170.86,37.36)" id="img-37eb747e-14">
          <path fill="none" d="M-144.14,0 L144.14,0 " class="primitive"/>
        </g>
        <g transform="translate(170.86,12.61)" id="img-37eb747e-15">
          <path fill="none" d="M-144.14,0 L144.14,0 " class="primitive"/>
        </g>
      </g>
      <g class="guide xgridlines yfixed" stroke-dasharray="0.5,0.5" stroke-width="0.2" stroke="#D0D0E0" id="img-37eb747e-16">
        <g transform="translate(31.61,74.48)" id="img-37eb747e-17">
          <path fill="none" d="M0,-63.87 L0,63.87 " class="primitive"/>
        </g>
        <g transform="translate(36.5,74.48)" id="img-37eb747e-18">
          <path fill="none" d="M0,-63.87 L0,63.87 " class="primitive"/>
        </g>
        <g transform="translate(41.38,74.48)" id="img-37eb747e-19">
          <path fill="none" d="M0,-63.87 L0,63.87 " class="primitive"/>
        </g>
        <g transform="translate(46.27,74.48)" id="img-37eb747e-20">
          <path fill="none" d="M0,-63.87 L0,63.87 " class="primitive"/>
        </g>
        <g transform="translate(51.16,74.48)" id="img-37eb747e-21">
          <path fill="none" d="M0,-63.87 L0,63.87 " class="primitive"/>
        </g>
        <g transform="translate(56.04,74.48)" id="img-37eb747e-22">
          <path fill="none" d="M0,-63.87 L0,63.87 " class="primitive"/>
        </g>
        <g transform="translate(60.93,74.48)" id="img-37eb747e-23">
          <path fill="none" d="M0,-63.87 L0,63.87 " class="primitive"/>
        </g>
        <g transform="translate(65.81,74.48)" id="img-37eb747e-24">
          <path fill="none" d="M0,-63.87 L0,63.87 " class="primitive"/>
        </g>
        <g transform="translate(70.7,74.48)" id="img-37eb747e-25">
          <path fill="none" d="M0,-63.87 L0,63.87 " class="primitive"/>
        </g>
        <g transform="translate(75.59,74.48)" id="img-37eb747e-26">
          <path fill="none" d="M0,-63.87 L0,63.87 " class="primitive"/>
        </g>
        <g transform="translate(80.47,74.48)" id="img-37eb747e-27">
          <path fill="none" d="M0,-63.87 L0,63.87 " class="primitive"/>
        </g>
        <g transform="translate(85.36,74.48)" id="img-37eb747e-28">
          <path fill="none" d="M0,-63.87 L0,63.87 " class="primitive"/>
        </g>
        <g transform="translate(90.24,74.48)" id="img-37eb747e-29">
          <path fill="none" d="M0,-63.87 L0,63.87 " class="primitive"/>
        </g>
        <g transform="translate(95.13,74.48)" id="img-37eb747e-30">
          <path fill="none" d="M0,-63.87 L0,63.87 " class="primitive"/>
        </g>
        <g transform="translate(100.02,74.48)" id="img-37eb747e-31">
          <path fill="none" d="M0,-63.87 L0,63.87 " class="primitive"/>
        </g>
        <g transform="translate(104.9,74.48)" id="img-37eb747e-32">
          <path fill="none" d="M0,-63.87 L0,63.87 " class="primitive"/>
        </g>
        <g transform="translate(109.79,74.48)" id="img-37eb747e-33">
          <path fill="none" d="M0,-63.87 L0,63.87 " class="primitive"/>
        </g>
        <g transform="translate(114.67,74.48)" id="img-37eb747e-34">
          <path fill="none" d="M0,-63.87 L0,63.87 " class="primitive"/>
        </g>
        <g transform="translate(119.56,74.48)" id="img-37eb747e-35">
          <path fill="none" d="M0,-63.87 L0,63.87 " class="primitive"/>
        </g>
        <g transform="translate(124.45,74.48)" id="img-37eb747e-36">
          <path fill="none" d="M0,-63.87 L0,63.87 " class="primitive"/>
        </g>
        <g transform="translate(129.33,74.48)" id="img-37eb747e-37">
          <path fill="none" d="M0,-63.87 L0,63.87 " class="primitive"/>
        </g>
        <g transform="translate(134.22,74.48)" id="img-37eb747e-38">
          <path fill="none" d="M0,-63.87 L0,63.87 " class="primitive"/>
        </g>
        <g transform="translate(139.1,74.48)" id="img-37eb747e-39">
          <path fill="none" d="M0,-63.87 L0,63.87 " class="primitive"/>
        </g>
        <g transform="translate(143.99,74.48)" id="img-37eb747e-40">
          <path fill="none" d="M0,-63.87 L0,63.87 " class="primitive"/>
        </g>
        <g transform="translate(148.88,74.48)" id="img-37eb747e-41">
          <path fill="none" d="M0,-63.87 L0,63.87 " class="primitive"/>
        </g>
        <g transform="translate(153.76,74.48)" id="img-37eb747e-42">
          <path fill="none" d="M0,-63.87 L0,63.87 " class="primitive"/>
        </g>
        <g transform="translate(158.65,74.48)" id="img-37eb747e-43">
          <path fill="none" d="M0,-63.87 L0,63.87 " class="primitive"/>
        </g>
        <g transform="translate(163.53,74.48)" id="img-37eb747e-44">
          <path fill="none" d="M0,-63.87 L0,63.87 " class="primitive"/>
        </g>
        <g transform="translate(168.42,74.48)" id="img-37eb747e-45">
          <path fill="none" d="M0,-63.87 L0,63.87 " class="primitive"/>
        </g>
        <g transform="translate(173.31,74.48)" id="img-37eb747e-46">
          <path fill="none" d="M0,-63.87 L0,63.87 " class="primitive"/>
        </g>
        <g transform="translate(178.19,74.48)" id="img-37eb747e-47">
          <path fill="none" d="M0,-63.87 L0,63.87 " class="primitive"/>
        </g>
        <g transform="translate(183.08,74.48)" id="img-37eb747e-48">
          <path fill="none" d="M0,-63.87 L0,63.87 " class="primitive"/>
        </g>
        <g transform="translate(187.96,74.48)" id="img-37eb747e-49">
          <path fill="none" d="M0,-63.87 L0,63.87 " class="primitive"/>
        </g>
        <g transform="translate(192.85,74.48)" id="img-37eb747e-50">
          <path fill="none" d="M0,-63.87 L0,63.87 " class="primitive"/>
        </g>
        <g transform="translate(197.74,74.48)" id="img-37eb747e-51">
          <path fill="none" d="M0,-63.87 L0,63.87 " class="primitive"/>
        </g>
        <g transform="translate(202.62,74.48)" id="img-37eb747e-52">
          <path fill="none" d="M0,-63.87 L0,63.87 " class="primitive"/>
        </g>
        <g transform="translate(207.51,74.48)" id="img-37eb747e-53">
          <path fill="none" d="M0,-63.87 L0,63.87 " class="primitive"/>
        </g>
        <g transform="translate(212.39,74.48)" id="img-37eb747e-54">
          <path fill="none" d="M0,-63.87 L0,63.87 " class="primitive"/>
        </g>
        <g transform="translate(217.28,74.48)" id="img-37eb747e-55">
          <path fill="none" d="M0,-63.87 L0,63.87 " class="primitive"/>
        </g>
        <g transform="translate(222.17,74.48)" id="img-37eb747e-56">
          <path fill="none" d="M0,-63.87 L0,63.87 " class="primitive"/>
        </g>
        <g transform="translate(227.05,74.48)" id="img-37eb747e-57">
          <path fill="none" d="M0,-63.87 L0,63.87 " class="primitive"/>
        </g>
        <g transform="translate(231.94,74.48)" id="img-37eb747e-58">
          <path fill="none" d="M0,-63.87 L0,63.87 " class="primitive"/>
        </g>
        <g transform="translate(236.82,74.48)" id="img-37eb747e-59">
          <path fill="none" d="M0,-63.87 L0,63.87 " class="primitive"/>
        </g>
        <g transform="translate(241.71,74.48)" id="img-37eb747e-60">
          <path fill="none" d="M0,-63.87 L0,63.87 " class="primitive"/>
        </g>
        <g transform="translate(246.6,74.48)" id="img-37eb747e-61">
          <path fill="none" d="M0,-63.87 L0,63.87 " class="primitive"/>
        </g>
        <g transform="translate(251.48,74.48)" id="img-37eb747e-62">
          <path fill="none" d="M0,-63.87 L0,63.87 " class="primitive"/>
        </g>
        <g transform="translate(256.37,74.48)" id="img-37eb747e-63">
          <path fill="none" d="M0,-63.87 L0,63.87 " class="primitive"/>
        </g>
        <g transform="translate(261.25,74.48)" id="img-37eb747e-64">
          <path fill="none" d="M0,-63.87 L0,63.87 " class="primitive"/>
        </g>
        <g transform="translate(266.14,74.48)" id="img-37eb747e-65">
          <path fill="none" d="M0,-63.87 L0,63.87 " class="primitive"/>
        </g>
        <g transform="translate(271.03,74.48)" id="img-37eb747e-66">
          <path fill="none" d="M0,-63.87 L0,63.87 " class="primitive"/>
        </g>
        <g transform="translate(275.91,74.48)" id="img-37eb747e-67">
          <path fill="none" d="M0,-63.87 L0,63.87 " class="primitive"/>
        </g>
        <g transform="translate(280.8,74.48)" id="img-37eb747e-68">
          <path fill="none" d="M0,-63.87 L0,63.87 " class="primitive"/>
        </g>
        <g transform="translate(285.68,74.48)" id="img-37eb747e-69">
          <path fill="none" d="M0,-63.87 L0,63.87 " class="primitive"/>
        </g>
        <g transform="translate(290.57,74.48)" id="img-37eb747e-70">
          <path fill="none" d="M0,-63.87 L0,63.87 " class="primitive"/>
        </g>
        <g transform="translate(295.46,74.48)" id="img-37eb747e-71">
          <path fill="none" d="M0,-63.87 L0,63.87 " class="primitive"/>
        </g>
        <g transform="translate(300.34,74.48)" id="img-37eb747e-72">
          <path fill="none" d="M0,-63.87 L0,63.87 " class="primitive"/>
        </g>
        <g transform="translate(305.23,74.48)" id="img-37eb747e-73">
          <path fill="none" d="M0,-63.87 L0,63.87 " class="primitive"/>
        </g>
        <g transform="translate(310.11,74.48)" id="img-37eb747e-74">
          <path fill="none" d="M0,-63.87 L0,63.87 " class="primitive"/>
        </g>
      </g>
      <g class="plotpanel" id="img-37eb747e-75">
        <metadata>
          <boundingbox value="26.725000000000023mm 10.611666666666665mm 288.275mm 127.74333333333333mm"/>
          <unitbox value="0.5 508081.2434339897 59.0 -516162.4868679794"/>
        </metadata>
        <g shape-rendering="crispEdges" stroke-width="0.3" id="img-37eb747e-76">
          <g class="geometry" fill-opacity="1" stroke="#000000" stroke-opacity="0.000" fill="#00BFFF" id="img-37eb747e-77">
            <g transform="translate(29.17,102.51)" id="img-37eb747e-78">
              <path d="M-2.47,-33.85 L2.47,-33.85 2.47,33.85 -2.47,33.85  z" class="primitive"/>
            </g>
            <g transform="translate(34.05,123.84)" id="img-37eb747e-79">
              <path d="M-2.47,-12.52 L2.47,-12.52 2.47,12.52 -2.47,12.52  z" class="primitive"/>
            </g>
            <g transform="translate(38.94,115.56)" id="img-37eb747e-80">
              <path d="M-2.47,-20.79 L2.47,-20.79 2.47,20.79 -2.47,20.79  z" class="primitive"/>
            </g>
            <g transform="translate(43.83,121.76)" id="img-37eb747e-81">
              <path d="M-2.47,-14.6 L2.47,-14.6 2.47,14.6 -2.47,14.6  z" class="primitive"/>
            </g>
            <g transform="translate(48.71,127.68)" id="img-37eb747e-82">
              <path d="M-2.47,-8.67 L2.47,-8.67 2.47,8.67 -2.47,8.67  z" class="primitive"/>
            </g>
            <g transform="translate(53.6,94.15)" id="img-37eb747e-83">
              <path d="M-2.47,-42.2 L2.47,-42.2 2.47,42.2 -2.47,42.2  z" class="primitive"/>
            </g>
            <g transform="translate(58.48,78.77)" id="img-37eb747e-84">
              <path d="M-2.47,-57.59 L2.47,-57.59 2.47,57.59 -2.47,57.59  z" class="primitive"/>
            </g>
            <g transform="translate(63.37,122.12)" id="img-37eb747e-85">
              <path d="M-2.47,-14.23 L2.47,-14.23 2.47,14.23 -2.47,14.23  z" class="primitive"/>
            </g>
            <g transform="translate(68.26,113.05)" id="img-37eb747e-86">
              <path d="M-2.47,-23.31 L2.47,-23.31 2.47,23.31 -2.47,23.31  z" class="primitive"/>
            </g>
            <g transform="translate(73.14,115.3)" id="img-37eb747e-87">
              <path d="M-2.47,-21.05 L2.47,-21.05 2.47,21.05 -2.47,21.05  z" class="primitive"/>
            </g>
            <g transform="translate(78.03,117.71)" id="img-37eb747e-88">
              <path d="M-2.47,-18.65 L2.47,-18.65 2.47,18.65 -2.47,18.65  z" class="primitive"/>
            </g>
            <g transform="translate(82.91,110.18)" id="img-37eb747e-89">
              <path d="M-2.47,-26.18 L2.47,-26.18 2.47,26.18 -2.47,26.18  z" class="primitive"/>
            </g>
            <g transform="translate(87.8,118.95)" id="img-37eb747e-90">
              <path d="M-2.47,-17.4 L2.47,-17.4 2.47,17.4 -2.47,17.4  z" class="primitive"/>
            </g>
            <g transform="translate(92.69,104.79)" id="img-37eb747e-91">
              <path d="M-2.47,-31.57 L2.47,-31.57 2.47,31.57 -2.47,31.57  z" class="primitive"/>
            </g>
            <g transform="translate(97.57,90.06)" id="img-37eb747e-92">
              <path d="M-2.47,-46.3 L2.47,-46.3 2.47,46.3 -2.47,46.3  z" class="primitive"/>
            </g>
            <g transform="translate(102.46,127.24)" id="img-37eb747e-93">
              <path d="M-2.47,-9.11 L2.47,-9.11 2.47,9.11 -2.47,9.11  z" class="primitive"/>
            </g>
            <g transform="translate(107.34,126.72)" id="img-37eb747e-94">
              <path d="M-2.47,-9.63 L2.47,-9.63 2.47,9.63 -2.47,9.63  z" class="primitive"/>
            </g>
            <g transform="translate(112.23,132.44)" id="img-37eb747e-95">
              <path d="M-2.47,-3.92 L2.47,-3.92 2.47,3.92 -2.47,3.92  z" class="primitive"/>
            </g>
            <g transform="translate(117.12,134.12)" id="img-37eb747e-96">
              <path d="M-2.47,-2.24 L2.47,-2.24 2.47,2.24 -2.47,2.24  z" class="primitive"/>
            </g>
            <g transform="translate(122,119.29)" id="img-37eb747e-97">
              <path d="M-2.47,-17.07 L2.47,-17.07 2.47,17.07 -2.47,17.07  z" class="primitive"/>
            </g>
            <g transform="translate(126.89,131.13)" id="img-37eb747e-98">
              <path d="M-2.47,-5.23 L2.47,-5.23 2.47,5.23 -2.47,5.23  z" class="primitive"/>
            </g>
            <g transform="translate(131.77,132.79)" id="img-37eb747e-99">
              <path d="M-2.47,-3.56 L2.47,-3.56 2.47,3.56 -2.47,3.56  z" class="primitive"/>
            </g>
            <g transform="translate(136.66,122.94)" id="img-37eb747e-100">
              <path d="M-2.47,-13.42 L2.47,-13.42 2.47,13.42 -2.47,13.42  z" class="primitive"/>
            </g>
            <g transform="translate(141.55,125.35)" id="img-37eb747e-101">
              <path d="M-2.47,-11.01 L2.47,-11.01 2.47,11.01 -2.47,11.01  z" class="primitive"/>
            </g>
            <g transform="translate(146.43,125.87)" id="img-37eb747e-102">
              <path d="M-2.47,-10.48 L2.47,-10.48 2.47,10.48 -2.47,10.48  z" class="primitive"/>
            </g>
            <g transform="translate(151.32,130.72)" id="img-37eb747e-103">
              <path d="M-2.47,-5.64 L2.47,-5.64 2.47,5.64 -2.47,5.64  z" class="primitive"/>
            </g>
            <g transform="translate(156.2,130.27)" id="img-37eb747e-104">
              <path d="M-2.47,-6.08 L2.47,-6.08 2.47,6.08 -2.47,6.08  z" class="primitive"/>
            </g>
            <g transform="translate(161.09,129.91)" id="img-37eb747e-105">
              <path d="M-2.47,-6.45 L2.47,-6.45 2.47,6.45 -2.47,6.45  z" class="primitive"/>
            </g>
            <g transform="translate(165.98,135.63)" id="img-37eb747e-106">
              <path d="M-2.47,-0.73 L2.47,-0.73 2.47,0.73 -2.47,0.73  z" class="primitive"/>
            </g>
            <g transform="translate(170.86,136.32)" id="img-37eb747e-107">
              <path d="M-2.47,-0.03 L2.47,-0.03 2.47,0.03 -2.47,0.03  z" class="primitive"/>
            </g>
            <g transform="translate(175.75,121.88)" id="img-37eb747e-108">
              <path d="M-2.47,-14.48 L2.47,-14.48 2.47,14.48 -2.47,14.48  z" class="primitive"/>
            </g>
            <g transform="translate(180.63,133.12)" id="img-37eb747e-109">
              <path d="M-2.47,-3.23 L2.47,-3.23 2.47,3.23 -2.47,3.23  z" class="primitive"/>
            </g>
            <g transform="translate(185.52,134.03)" id="img-37eb747e-110">
              <path d="M-2.47,-2.33 L2.47,-2.33 2.47,2.33 -2.47,2.33  z" class="primitive"/>
            </g>
            <g transform="translate(190.41,131.34)" id="img-37eb747e-111">
              <path d="M-2.47,-5.01 L2.47,-5.01 2.47,5.01 -2.47,5.01  z" class="primitive"/>
            </g>
            <g transform="translate(195.29,124.61)" id="img-37eb747e-112">
              <path d="M-2.47,-11.75 L2.47,-11.75 2.47,11.75 -2.47,11.75  z" class="primitive"/>
            </g>
            <g transform="translate(200.18,135.57)" id="img-37eb747e-113">
              <path d="M-2.47,-0.78 L2.47,-0.78 2.47,0.78 -2.47,0.78  z" class="primitive"/>
            </g>
            <g transform="translate(205.06,130.7)" id="img-37eb747e-114">
              <path d="M-2.47,-5.66 L2.47,-5.66 2.47,5.66 -2.47,5.66  z" class="primitive"/>
            </g>
            <g transform="translate(209.95,135.07)" id="img-37eb747e-115">
              <path d="M-2.47,-1.28 L2.47,-1.28 2.47,1.28 -2.47,1.28  z" class="primitive"/>
            </g>
            <g transform="translate(214.84,135.61)" id="img-37eb747e-116">
              <path d="M-2.47,-0.75 L2.47,-0.75 2.47,0.75 -2.47,0.75  z" class="primitive"/>
            </g>
            <g transform="translate(219.72,133.47)" id="img-37eb747e-117">
              <path d="M-2.47,-2.89 L2.47,-2.89 2.47,2.89 -2.47,2.89  z" class="primitive"/>
            </g>
            <g transform="translate(224.61,130.51)" id="img-37eb747e-118">
              <path d="M-2.47,-5.85 L2.47,-5.85 2.47,5.85 -2.47,5.85  z" class="primitive"/>
            </g>
            <g transform="translate(229.49,136.17)" id="img-37eb747e-119">
              <path d="M-2.47,-0.19 L2.47,-0.19 2.47,0.19 -2.47,0.19  z" class="primitive"/>
            </g>
            <g transform="translate(234.38,135.63)" id="img-37eb747e-120">
              <path d="M-2.47,-0.73 L2.47,-0.73 2.47,0.73 -2.47,0.73  z" class="primitive"/>
            </g>
            <g transform="translate(239.27,123.28)" id="img-37eb747e-121">
              <path d="M-2.47,-13.08 L2.47,-13.08 2.47,13.08 -2.47,13.08  z" class="primitive"/>
            </g>
            <g transform="translate(244.15,135.65)" id="img-37eb747e-122">
              <path d="M-2.47,-0.71 L2.47,-0.71 2.47,0.71 -2.47,0.71  z" class="primitive"/>
            </g>
            <g transform="translate(249.04,135.16)" id="img-37eb747e-123">
              <path d="M-2.47,-1.2 L2.47,-1.2 2.47,1.2 -2.47,1.2  z" class="primitive"/>
            </g>
            <g transform="translate(253.92,133.83)" id="img-37eb747e-124">
              <path d="M-2.47,-2.53 L2.47,-2.53 2.47,2.53 -2.47,2.53  z" class="primitive"/>
            </g>
            <g transform="translate(258.81,134.53)" id="img-37eb747e-125">
              <path d="M-2.47,-1.82 L2.47,-1.82 2.47,1.82 -2.47,1.82  z" class="primitive"/>
            </g>
            <g transform="translate(263.7,135.81)" id="img-37eb747e-126">
              <path d="M-2.47,-0.55 L2.47,-0.55 2.47,0.55 -2.47,0.55  z" class="primitive"/>
            </g>
            <g transform="translate(268.58,131.4)" id="img-37eb747e-127">
              <path d="M-2.47,-4.95 L2.47,-4.95 2.47,4.95 -2.47,4.95  z" class="primitive"/>
            </g>
            <g transform="translate(273.47,136.09)" id="img-37eb747e-128">
              <path d="M-2.47,-0.26 L2.47,-0.26 2.47,0.26 -2.47,0.26  z" class="primitive"/>
            </g>
            <g transform="translate(278.35,134.63)" id="img-37eb747e-129">
              <path d="M-2.47,-1.72 L2.47,-1.72 2.47,1.72 -2.47,1.72  z" class="primitive"/>
            </g>
            <g transform="translate(283.24,134.56)" id="img-37eb747e-130">
              <path d="M-2.47,-1.79 L2.47,-1.79 2.47,1.79 -2.47,1.79  z" class="primitive"/>
            </g>
            <g transform="translate(288.13,131.32)" id="img-37eb747e-131">
              <path d="M-2.47,-5.03 L2.47,-5.03 2.47,5.03 -2.47,5.03  z" class="primitive"/>
            </g>
            <g transform="translate(293.01,131.09)" id="img-37eb747e-132">
              <path d="M-2.47,-5.27 L2.47,-5.27 2.47,5.27 -2.47,5.27  z" class="primitive"/>
            </g>
            <g transform="translate(297.9,135.53)" id="img-37eb747e-133">
              <path d="M-2.47,-0.82 L2.47,-0.82 2.47,0.82 -2.47,0.82  z" class="primitive"/>
            </g>
            <g transform="translate(302.78,132.22)" id="img-37eb747e-134">
              <path d="M-2.47,-4.14 L2.47,-4.14 2.47,4.14 -2.47,4.14  z" class="primitive"/>
            </g>
            <g transform="translate(307.67,133.99)" id="img-37eb747e-135">
              <path d="M-2.47,-2.36 L2.47,-2.36 2.47,2.36 -2.47,2.36  z" class="primitive"/>
            </g>
            <g transform="translate(312.56,135.94)" id="img-37eb747e-136">
              <path d="M-2.47,-0.41 L2.47,-0.41 2.47,0.41 -2.47,0.41  z" class="primitive"/>
            </g>
          </g>
        </g>
      </g>
    </g>
  </g>
  <g class="guide ylabels" font-size="2.82" font-family="'PT Sans Caption','Helvetica Neue','Helvetica',sans-serif" fill="#6C606B" id="img-37eb747e-137">
    <g transform="translate(25.72,136.36)" id="img-37eb747e-138">
      <g class="primitive">
        <text text-anchor="end" dy="0.35em">0</text>
      </g>
    </g>
    <g transform="translate(25.72,111.61)" id="img-37eb747e-139">
      <g class="primitive">
        <text text-anchor="end" dy="0.35em">1.0×10⁵</text>
      </g>
    </g>
    <g transform="translate(25.72,86.86)" id="img-37eb747e-140">
      <g class="primitive">
        <text text-anchor="end" dy="0.35em">2.0×10⁵</text>
      </g>
    </g>
    <g transform="translate(25.72,62.11)" id="img-37eb747e-141">
      <g class="primitive">
        <text text-anchor="end" dy="0.35em">3.0×10⁵</text>
      </g>
    </g>
    <g transform="translate(25.72,37.36)" id="img-37eb747e-142">
      <g class="primitive">
        <text text-anchor="end" dy="0.35em">4.0×10⁵</text>
      </g>
    </g>
    <g transform="translate(25.72,12.61)" id="img-37eb747e-143">
      <g class="primitive">
        <text text-anchor="end" dy="0.35em">5.0×10⁵</text>
      </g>
    </g>
  </g>
  <g font-size="3.88" font-family="'PT Sans','Helvetica Neue','Helvetica',sans-serif" fill="#564A55" stroke="#000000" stroke-opacity="0.000" id="img-37eb747e-144">
    <g transform="translate(8.81,72.48)" id="img-37eb747e-145">
      <g class="primitive">
        <text text-anchor="middle" dy="0.35em" transform="rotate(-90,0, 2)">Total Debt (in dollars)</text>
      </g>
    </g>
  </g>
  <g font-size="3.88" font-family="'PT Sans','Helvetica Neue','Helvetica',sans-serif" fill="#564A55" stroke="#000000" stroke-opacity="0.000" id="img-37eb747e-146">
    <g transform="translate(170.86,5)" id="img-37eb747e-147">
      <g class="primitive">
        <text text-anchor="middle" dy="0.6em">NY Debt Redeemed Per Year/Month</text>
      </g>
    </g>
  </g>
</g>
<defs>
  <clipPath id="img-37eb747e-5">
    <path d="M26.73,10.61 L315,10.61 315,138.35 26.73,138.35 " />
  </clipPath>
</defs>
</svg>
