<?xml version="1.0" encoding="UTF-8"?>
<svg xmlns="http://www.w3.org/2000/svg"
     xmlns:xlink="http://www.w3.org/1999/xlink"
     xmlns:gadfly="http://www.gadflyjl.org/ns"
     version="1.2"
     width="320mm" height="180mm" viewBox="0 0 320 180"
     stroke="none"
     fill="#000000"
     stroke-width="0.3"
     font-size="3.88"
>
<defs>
  <marker id="arrow" markerWidth="15" markerHeight="7" refX="5" refY="3.5" orient="auto" markerUnits="strokeWidth">
    <path d="M0,0 L15,3.5 L0,7 z" stroke="context-stroke" fill="context-stroke"/>
  </marker>
</defs>
<g stroke="#000000" stroke-opacity="0.000" fill="#FFFFFF" id="img-9b480698-1">
  <g transform="translate(160,90)">
    <path d="M-160,-90 L160,-90 160,90 -160,90  z" class="primitive"/>
  </g>
</g>
<g class="plotroot yscalable" id="img-9b480698-2">
  <g font-size="3.88" font-family="'PT Sans','Helvetica Neue','Helvetica',sans-serif" fill="#564A55" stroke="#000000" stroke-opacity="0.000" id="img-9b480698-3">
    <g transform="translate(170.86,168.39)">
      <g class="primitive">
        <text text-anchor="middle" dy="0.6em">Year</text>
      </g>
    </g>
  </g>
  <g class="guide xlabels" font-size="2.82" font-family="'PT Sans Caption','Helvetica Neue','Helvetica',sans-serif" fill="#6C606B" id="img-9b480698-4">
    <g transform="translate(32.73,161.72)">
      <g class="primitive">
        <text text-anchor="middle" dy="0.6em">1790-10</text>
      </g>
    </g>
    <g transform="translate(44.74,161.72)">
      <g class="primitive">
        <text text-anchor="middle" dy="0.6em">1790-11</text>
      </g>
    </g>
    <g transform="translate(56.75,161.72)">
      <g class="primitive">
        <text text-anchor="middle" dy="0.6em">1790-12</text>
      </g>
    </g>
    <g transform="translate(68.77,161.72)">
      <g class="primitive">
        <text text-anchor="middle" dy="0.6em">1791-1</text>
      </g>
    </g>
    <g transform="translate(80.78,161.72)">
      <g class="primitive">
        <text text-anchor="middle" dy="0.6em">1791-10</text>
      </g>
    </g>
    <g transform="translate(92.79,161.72)">
      <g class="primitive">
        <text text-anchor="middle" dy="0.6em">1791-2</text>
      </g>
    </g>
    <g transform="translate(104.8,161.72)">
      <g class="primitive">
        <text text-anchor="middle" dy="0.6em">1791-3</text>
      </g>
    </g>
    <g transform="translate(116.81,161.72)">
      <g class="primitive">
        <text text-anchor="middle" dy="0.6em">1791-4</text>
      </g>
    </g>
    <g transform="translate(128.82,161.72)">
      <g class="primitive">
        <text text-anchor="middle" dy="0.6em">1791-5</text>
      </g>
    </g>
    <g transform="translate(140.83,161.72)">
      <g class="primitive">
        <text text-anchor="middle" dy="0.6em">1791-6</text>
      </g>
    </g>
    <g transform="translate(152.85,161.72)">
      <g class="primitive">
        <text text-anchor="middle" dy="0.6em">1791-7</text>
      </g>
    </g>
    <g transform="translate(164.86,161.72)">
      <g class="primitive">
        <text text-anchor="middle" dy="0.6em">1791-8</text>
      </g>
    </g>
    <g transform="translate(176.87,161.72)">
      <g class="primitive">
        <text text-anchor="middle" dy="0.6em">1791-9</text>
      </g>
    </g>
    <g transform="translate(188.88,161.72)">
      <g class="primitive">
        <text text-anchor="middle" dy="0.6em">1792-10</text>
      </g>
    </g>
    <g transform="translate(200.89,161.72)">
      <g class="primitive">
        <text text-anchor="middle" dy="0.6em">1792-11</text>
      </g>
    </g>
    <g transform="translate(212.9,161.72)">
      <g class="primitive">
        <text text-anchor="middle" dy="0.6em">1792-12</text>
      </g>
    </g>
    <g transform="translate(224.91,161.72)">
      <g class="primitive">
        <text text-anchor="middle" dy="0.6em">1792-2</text>
      </g>
    </g>
    <g transform="translate(236.93,161.72)">
      <g class="primitive">
        <text text-anchor="middle" dy="0.6em">1792-6</text>
      </g>
    </g>
    <g transform="translate(248.94,161.72)">
      <g class="primitive">
        <text text-anchor="middle" dy="0.6em">1792-7</text>
      </g>
    </g>
    <g transform="translate(260.95,161.72)">
      <g class="primitive">
        <text text-anchor="middle" dy="0.6em">1792-8</text>
      </g>
    </g>
    <g transform="translate(272.96,161.72)">
      <g class="primitive">
        <text text-anchor="middle" dy="0.6em">1792-9</text>
      </g>
    </g>
    <g transform="translate(284.97,161.72)">
      <g class="primitive">
        <text text-anchor="middle" dy="0.6em">1793-1</text>
      </g>
    </g>
    <g transform="translate(296.98,161.72)">
      <g class="primitive">
        <text text-anchor="middle" dy="0.6em">1793-2</text>
      </g>
    </g>
    <g transform="translate(308.99,161.72)">
      <g class="primitive">
        <text text-anchor="middle" dy="0.6em">no year-no month</text>
      </g>
    </g>
  </g>
  <g clip-path="url(#img-9b480698-5)">
    <g id="img-9b480698-6">
      <g pointer-events="visible" stroke-width="0.3" fill="#000000" fill-opacity="0.000" stroke="#000000" stroke-opacity="0.000" class="guide background" id="img-9b480698-7">
        <g transform="translate(170.86,85.66)" id="img-9b480698-8">
          <path d="M-144.14,-75.05 L144.14,-75.05 144.14,75.05 -144.14,75.05  z" class="primitive"/>
        </g>
      </g>
      <g class="guide ygridlines xfixed" stroke-dasharray="0.5,0.5" stroke-width="0.2" stroke="#D0D0E0" id="img-9b480698-9">
        <g transform="translate(170.86,158.72)" id="img-9b480698-10">
          <path fill="none" d="M-144.14,0 L144.14,0 " class="primitive"/>
        </g>
        <g transform="translate(170.86,85.66)" id="img-9b480698-11">
          <path fill="none" d="M-144.14,0 L144.14,0 " class="primitive"/>
        </g>
        <g transform="translate(170.86,12.61)" id="img-9b480698-12">
          <path fill="none" d="M-144.14,0 L144.14,0 " class="primitive"/>
        </g>
      </g>
      <g class="guide xgridlines yfixed" stroke-dasharray="0.5,0.5" stroke-width="0.2" stroke="#D0D0E0" id="img-9b480698-13">
        <g transform="translate(38.74,85.66)" id="img-9b480698-14">
          <path fill="none" d="M0,-75.05 L0,75.05 " class="primitive"/>
        </g>
        <g transform="translate(50.75,85.66)" id="img-9b480698-15">
          <path fill="none" d="M0,-75.05 L0,75.05 " class="primitive"/>
        </g>
        <g transform="translate(62.76,85.66)" id="img-9b480698-16">
          <path fill="none" d="M0,-75.05 L0,75.05 " class="primitive"/>
        </g>
        <g transform="translate(74.77,85.66)" id="img-9b480698-17">
          <path fill="none" d="M0,-75.05 L0,75.05 " class="primitive"/>
        </g>
        <g transform="translate(86.78,85.66)" id="img-9b480698-18">
          <path fill="none" d="M0,-75.05 L0,75.05 " class="primitive"/>
        </g>
        <g transform="translate(98.79,85.66)" id="img-9b480698-19">
          <path fill="none" d="M0,-75.05 L0,75.05 " class="primitive"/>
        </g>
        <g transform="translate(110.81,85.66)" id="img-9b480698-20">
          <path fill="none" d="M0,-75.05 L0,75.05 " class="primitive"/>
        </g>
        <g transform="translate(122.82,85.66)" id="img-9b480698-21">
          <path fill="none" d="M0,-75.05 L0,75.05 " class="primitive"/>
        </g>
        <g transform="translate(134.83,85.66)" id="img-9b480698-22">
          <path fill="none" d="M0,-75.05 L0,75.05 " class="primitive"/>
        </g>
        <g transform="translate(146.84,85.66)" id="img-9b480698-23">
          <path fill="none" d="M0,-75.05 L0,75.05 " class="primitive"/>
        </g>
        <g transform="translate(158.85,85.66)" id="img-9b480698-24">
          <path fill="none" d="M0,-75.05 L0,75.05 " class="primitive"/>
        </g>
        <g transform="translate(170.86,85.66)" id="img-9b480698-25">
          <path fill="none" d="M0,-75.05 L0,75.05 " class="primitive"/>
        </g>
        <g transform="translate(182.87,85.66)" id="img-9b480698-26">
          <path fill="none" d="M0,-75.05 L0,75.05 " class="primitive"/>
        </g>
        <g transform="translate(194.89,85.66)" id="img-9b480698-27">
          <path fill="none" d="M0,-75.05 L0,75.05 " class="primitive"/>
        </g>
        <g transform="translate(206.9,85.66)" id="img-9b480698-28">
          <path fill="none" d="M0,-75.05 L0,75.05 " class="primitive"/>
        </g>
        <g transform="translate(218.91,85.66)" id="img-9b480698-29">
          <path fill="none" d="M0,-75.05 L0,75.05 " class="primitive"/>
        </g>
        <g transform="translate(230.92,85.66)" id="img-9b480698-30">
          <path fill="none" d="M0,-75.05 L0,75.05 " class="primitive"/>
        </g>
        <g transform="translate(242.93,85.66)" id="img-9b480698-31">
          <path fill="none" d="M0,-75.05 L0,75.05 " class="primitive"/>
        </g>
        <g transform="translate(254.94,85.66)" id="img-9b480698-32">
          <path fill="none" d="M0,-75.05 L0,75.05 " class="primitive"/>
        </g>
        <g transform="translate(266.95,85.66)" id="img-9b480698-33">
          <path fill="none" d="M0,-75.05 L0,75.05 " class="primitive"/>
        </g>
        <g transform="translate(278.97,85.66)" id="img-9b480698-34">
          <path fill="none" d="M0,-75.05 L0,75.05 " class="primitive"/>
        </g>
        <g transform="translate(290.98,85.66)" id="img-9b480698-35">
          <path fill="none" d="M0,-75.05 L0,75.05 " class="primitive"/>
        </g>
        <g transform="translate(302.99,85.66)" id="img-9b480698-36">
          <path fill="none" d="M0,-75.05 L0,75.05 " class="primitive"/>
        </g>
      </g>
      <g class="plotpanel" id="img-9b480698-37">
        <metadata>
          <boundingbox value="26.725000000000023mm 10.611666666666679mm 288.275mm 150.10333333333335mm"/>
          <unitbox value="0.5 101368.8941616664 24.0 -102737.7883233328"/>
        </metadata>
        <g shape-rendering="crispEdges" stroke-width="0.3" id="img-9b480698-38">
          <g class="geometry" fill-opacity="1" stroke="#000000" stroke-opacity="0.000" fill="#00BFFF" id="img-9b480698-39">
            <g transform="translate(32.73,90.77)" id="img-9b480698-40">
              <path d="M-6.03,-67.95 L6.03,-67.95 6.03,67.95 -6.03,67.95  z" class="primitive"/>
            </g>
            <g transform="translate(44.74,115.92)" id="img-9b480698-41">
              <path d="M-6.03,-42.79 L6.03,-42.79 6.03,42.79 -6.03,42.79  z" class="primitive"/>
            </g>
            <g transform="translate(56.75,120.83)" id="img-9b480698-42">
              <path d="M-6.03,-37.89 L6.03,-37.89 6.03,37.89 -6.03,37.89  z" class="primitive"/>
            </g>
            <g transform="translate(68.77,96.57)" id="img-9b480698-43">
              <path d="M-6.03,-62.15 L6.03,-62.15 6.03,62.15 -6.03,62.15  z" class="primitive"/>
            </g>
            <g transform="translate(80.78,120.2)" id="img-9b480698-44">
              <path d="M-6.03,-38.51 L6.03,-38.51 6.03,38.51 -6.03,38.51  z" class="primitive"/>
            </g>
            <g transform="translate(92.79,91.31)" id="img-9b480698-45">
              <path d="M-6.03,-67.41 L6.03,-67.41 6.03,67.41 -6.03,67.41  z" class="primitive"/>
            </g>
            <g transform="translate(104.8,110.48)" id="img-9b480698-46">
              <path d="M-6.03,-48.24 L6.03,-48.24 6.03,48.24 -6.03,48.24  z" class="primitive"/>
            </g>
            <g transform="translate(116.81,95.45)" id="img-9b480698-47">
              <path d="M-6.03,-63.26 L6.03,-63.26 6.03,63.26 -6.03,63.26  z" class="primitive"/>
            </g>
            <g transform="translate(128.82,107.48)" id="img-9b480698-48">
              <path d="M-6.03,-51.23 L6.03,-51.23 6.03,51.23 -6.03,51.23  z" class="primitive"/>
            </g>
            <g transform="translate(140.83,136.93)" id="img-9b480698-49">
              <path d="M-6.03,-21.78 L6.03,-21.78 6.03,21.78 -6.03,21.78  z" class="primitive"/>
            </g>
            <g transform="translate(152.85,122.36)" id="img-9b480698-50">
              <path d="M-6.03,-36.35 L6.03,-36.35 6.03,36.35 -6.03,36.35  z" class="primitive"/>
            </g>
            <g transform="translate(164.86,127.88)" id="img-9b480698-51">
              <path d="M-6.03,-30.84 L6.03,-30.84 6.03,30.84 -6.03,30.84  z" class="primitive"/>
            </g>
            <g transform="translate(176.87,135.67)" id="img-9b480698-52">
              <path d="M-6.03,-23.04 L6.03,-23.04 6.03,23.04 -6.03,23.04  z" class="primitive"/>
            </g>
            <g transform="translate(188.88,156.62)" id="img-9b480698-53">
              <path d="M-6.03,-2.09 L6.03,-2.09 6.03,2.09 -6.03,2.09  z" class="primitive"/>
            </g>
            <g transform="translate(200.89,158.45)" id="img-9b480698-54">
              <path d="M-6.03,-0.27 L6.03,-0.27 6.03,0.27 -6.03,0.27  z" class="primitive"/>
            </g>
            <g transform="translate(212.9,157.99)" id="img-9b480698-55">
              <path d="M-6.03,-0.72 L6.03,-0.72 6.03,0.72 -6.03,0.72  z" class="primitive"/>
            </g>
            <g transform="translate(224.91,157.54)" id="img-9b480698-56">
              <path d="M-6.03,-1.17 L6.03,-1.17 6.03,1.17 -6.03,1.17  z" class="primitive"/>
            </g>
            <g transform="translate(236.93,150.96)" id="img-9b480698-57">
              <path d="M-6.03,-7.75 L6.03,-7.75 6.03,7.75 -6.03,7.75  z" class="primitive"/>
            </g>
            <g transform="translate(248.94,149.47)" id="img-9b480698-58">
              <path d="M-6.03,-9.25 L6.03,-9.25 6.03,9.25 -6.03,9.25  z" class="primitive"/>
            </g>
            <g transform="translate(260.95,156.3)" id="img-9b480698-59">
              <path d="M-6.03,-2.41 L6.03,-2.41 6.03,2.41 -6.03,2.41  z" class="primitive"/>
            </g>
            <g transform="translate(272.96,156.92)" id="img-9b480698-60">
              <path d="M-6.03,-1.8 L6.03,-1.8 6.03,1.8 -6.03,1.8  z" class="primitive"/>
            </g>
            <g transform="translate(284.97,158.29)" id="img-9b480698-61">
              <path d="M-6.03,-0.43 L6.03,-0.43 6.03,0.43 -6.03,0.43  z" class="primitive"/>
            </g>
            <g transform="translate(296.98,147.25)" id="img-9b480698-62">
              <path d="M-6.03,-11.47 L6.03,-11.47 6.03,11.47 -6.03,11.47  z" class="primitive"/>
            </g>
            <g transform="translate(308.99,102.81)" id="img-9b480698-63">
              <path d="M-6.03,-55.9 L6.03,-55.9 6.03,55.9 -6.03,55.9  z" class="primitive"/>
            </g>
          </g>
        </g>
      </g>
    </g>
  </g>
  <g class="guide ylabels" font-size="2.82" font-family="'PT Sans Caption','Helvetica Neue','Helvetica',sans-serif" fill="#6C606B" id="img-9b480698-64">
    <g transform="translate(25.72,158.72)" id="img-9b480698-65">
      <g class="primitive">
        <text text-anchor="end" dy="0.35em">0</text>
      </g>
    </g>
    <g transform="translate(25.72,85.66)" id="img-9b480698-66">
      <g class="primitive">
        <text text-anchor="end" dy="0.35em">5.0×10⁴</text>
      </g>
    </g>
    <g transform="translate(25.72,12.61)" id="img-9b480698-67">
      <g class="primitive">
        <text text-anchor="end" dy="0.35em">1.0×10⁵</text>
      </g>
    </g>
  </g>
  <g font-size="3.88" font-family="'PT Sans','Helvetica Neue','Helvetica',sans-serif" fill="#564A55" stroke="#000000" stroke-opacity="0.000" id="img-9b480698-68">
    <g transform="translate(8.81,83.66)" id="img-9b480698-69">
      <g class="primitive">
        <text text-anchor="middle" dy="0.35em" transform="rotate(-90,0, 2)">Total Debt (in dollars)</text>
      </g>
    </g>
  </g>
  <g font-size="3.88" font-family="'PT Sans','Helvetica Neue','Helvetica',sans-serif" fill="#564A55" stroke="#000000" stroke-opacity="0.000" id="img-9b480698-70">
    <g transform="translate(170.86,5)" id="img-9b480698-71">
      <g class="primitive">
        <text text-anchor="middle" dy="0.6em">PA Debt Redeemed Per Year/Month</text>
      </g>
    </g>
  </g>
</g>
<defs>
  <clipPath id="img-9b480698-5">
    <path d="M26.73,10.61 L315,10.61 315,160.72 26.73,160.72 " />
  </clipPath>
</defs>
</svg>
