<?xml version="1.0" encoding="UTF-8"?>
<svg xmlns="http://www.w3.org/2000/svg"
     xmlns:xlink="http://www.w3.org/1999/xlink"
     xmlns:gadfly="http://www.gadflyjl.org/ns"
     version="1.2"
     width="320mm" height="180mm" viewBox="0 0 320 180"
     stroke="none"
     fill="#000000"
     stroke-width="0.3"
     font-size="3.88"
>
<defs>
  <marker id="arrow" markerWidth="15" markerHeight="7" refX="5" refY="3.5" orient="auto" markerUnits="strokeWidth">
    <path d="M0,0 L15,3.5 L0,7 z" stroke="context-stroke" fill="context-stroke"/>
  </marker>
</defs>
<g stroke="#000000" stroke-opacity="0.000" fill="#FFFFFF" id="img-cd217e09-1">
  <g transform="translate(160,90)">
    <path d="M-160,-90 L160,-90 160,90 -160,90  z" class="primitive"/>
  </g>
</g>
<g class="plotroot yscalable" id="img-cd217e09-2">
  <g font-size="3.88" font-family="'PT Sans','Helvetica Neue','Helvetica',sans-serif" fill="#564A55" stroke="#000000" stroke-opacity="0.000" id="img-cd217e09-3">
    <g transform="translate(170.86,168.39)">
      <g class="primitive">
        <text text-anchor="middle" dy="0.6em">Year</text>
      </g>
    </g>
  </g>
  <g class="guide xlabels" font-size="2.82" font-family="'PT Sans Caption','Helvetica Neue','Helvetica',sans-serif" fill="#6C606B" id="img-cd217e09-4">
    <g transform="translate(30.62,139.36)">
      <g class="primitive">
        <text text-anchor="end" dy="0.35em" transform="rotate(-90,0, 0)">1790-11</text>
      </g>
    </g>
    <g transform="translate(38.41,139.36)">
      <g class="primitive">
        <text text-anchor="end" dy="0.35em" transform="rotate(-90,0, 0)">1790-12</text>
      </g>
    </g>
    <g transform="translate(46.2,139.36)">
      <g class="primitive">
        <text text-anchor="end" dy="0.35em" transform="rotate(-90,0, 0)">1791-1</text>
      </g>
    </g>
    <g transform="translate(53.99,139.36)">
      <g class="primitive">
        <text text-anchor="end" dy="0.35em" transform="rotate(-90,0, 0)">1791-10</text>
      </g>
    </g>
    <g transform="translate(61.79,139.36)">
      <g class="primitive">
        <text text-anchor="end" dy="0.35em" transform="rotate(-90,0, 0)">1791-12</text>
      </g>
    </g>
    <g transform="translate(69.58,139.36)">
      <g class="primitive">
        <text text-anchor="end" dy="0.35em" transform="rotate(-90,0, 0)">1791-2</text>
      </g>
    </g>
    <g transform="translate(77.37,139.36)">
      <g class="primitive">
        <text text-anchor="end" dy="0.35em" transform="rotate(-90,0, 0)">1791-3</text>
      </g>
    </g>
    <g transform="translate(85.16,139.36)">
      <g class="primitive">
        <text text-anchor="end" dy="0.35em" transform="rotate(-90,0, 0)">1791-4</text>
      </g>
    </g>
    <g transform="translate(92.95,139.36)">
      <g class="primitive">
        <text text-anchor="end" dy="0.35em" transform="rotate(-90,0, 0)">1791-5</text>
      </g>
    </g>
    <g transform="translate(100.74,139.36)">
      <g class="primitive">
        <text text-anchor="end" dy="0.35em" transform="rotate(-90,0, 0)">1791-6</text>
      </g>
    </g>
    <g transform="translate(108.53,139.36)">
      <g class="primitive">
        <text text-anchor="end" dy="0.35em" transform="rotate(-90,0, 0)">1791-7</text>
      </g>
    </g>
    <g transform="translate(116.32,139.36)">
      <g class="primitive">
        <text text-anchor="end" dy="0.35em" transform="rotate(-90,0, 0)">1791-8</text>
      </g>
    </g>
    <g transform="translate(124.12,139.36)">
      <g class="primitive">
        <text text-anchor="end" dy="0.35em" transform="rotate(-90,0, 0)">1791-9</text>
      </g>
    </g>
    <g transform="translate(131.91,139.36)">
      <g class="primitive">
        <text text-anchor="end" dy="0.35em" transform="rotate(-90,0, 0)">1792-1</text>
      </g>
    </g>
    <g transform="translate(139.7,139.36)">
      <g class="primitive">
        <text text-anchor="end" dy="0.35em" transform="rotate(-90,0, 0)">1792-10</text>
      </g>
    </g>
    <g transform="translate(147.49,139.36)">
      <g class="primitive">
        <text text-anchor="end" dy="0.35em" transform="rotate(-90,0, 0)">1792-11</text>
      </g>
    </g>
    <g transform="translate(155.28,139.36)">
      <g class="primitive">
        <text text-anchor="end" dy="0.35em" transform="rotate(-90,0, 0)">1792-12</text>
      </g>
    </g>
    <g transform="translate(163.07,139.36)">
      <g class="primitive">
        <text text-anchor="end" dy="0.35em" transform="rotate(-90,0, 0)">1792-2</text>
      </g>
    </g>
    <g transform="translate(170.86,139.36)">
      <g class="primitive">
        <text text-anchor="end" dy="0.35em" transform="rotate(-90,0, 0)">1792-3</text>
      </g>
    </g>
    <g transform="translate(178.65,139.36)">
      <g class="primitive">
        <text text-anchor="end" dy="0.35em" transform="rotate(-90,0, 0)">1792-7</text>
      </g>
    </g>
    <g transform="translate(186.44,139.36)">
      <g class="primitive">
        <text text-anchor="end" dy="0.35em" transform="rotate(-90,0, 0)">1792-8</text>
      </g>
    </g>
    <g transform="translate(194.24,139.36)">
      <g class="primitive">
        <text text-anchor="end" dy="0.35em" transform="rotate(-90,0, 0)">1792-9</text>
      </g>
    </g>
    <g transform="translate(202.03,139.36)">
      <g class="primitive">
        <text text-anchor="end" dy="0.35em" transform="rotate(-90,0, 0)">1792-no month</text>
      </g>
    </g>
    <g transform="translate(209.82,139.36)">
      <g class="primitive">
        <text text-anchor="end" dy="0.35em" transform="rotate(-90,0, 0)">1793-1</text>
      </g>
    </g>
    <g transform="translate(217.61,139.36)">
      <g class="primitive">
        <text text-anchor="end" dy="0.35em" transform="rotate(-90,0, 0)">1793-2</text>
      </g>
    </g>
    <g transform="translate(225.4,139.36)">
      <g class="primitive">
        <text text-anchor="end" dy="0.35em" transform="rotate(-90,0, 0)">1793-3</text>
      </g>
    </g>
    <g transform="translate(233.19,139.36)">
      <g class="primitive">
        <text text-anchor="end" dy="0.35em" transform="rotate(-90,0, 0)">1793-4</text>
      </g>
    </g>
    <g transform="translate(240.98,139.36)">
      <g class="primitive">
        <text text-anchor="end" dy="0.35em" transform="rotate(-90,0, 0)">1793-8</text>
      </g>
    </g>
    <g transform="translate(248.77,139.36)">
      <g class="primitive">
        <text text-anchor="end" dy="0.35em" transform="rotate(-90,0, 0)">1793-9</text>
      </g>
    </g>
    <g transform="translate(256.57,139.36)">
      <g class="primitive">
        <text text-anchor="end" dy="0.35em" transform="rotate(-90,0, 0)">1794-11</text>
      </g>
    </g>
    <g transform="translate(264.36,139.36)">
      <g class="primitive">
        <text text-anchor="end" dy="0.35em" transform="rotate(-90,0, 0)">1794-12</text>
      </g>
    </g>
    <g transform="translate(272.15,139.36)">
      <g class="primitive">
        <text text-anchor="end" dy="0.35em" transform="rotate(-90,0, 0)">1794-2</text>
      </g>
    </g>
    <g transform="translate(279.94,139.36)">
      <g class="primitive">
        <text text-anchor="end" dy="0.35em" transform="rotate(-90,0, 0)">1794-3</text>
      </g>
    </g>
    <g transform="translate(287.73,139.36)">
      <g class="primitive">
        <text text-anchor="end" dy="0.35em" transform="rotate(-90,0, 0)">1794-5</text>
      </g>
    </g>
    <g transform="translate(295.52,139.36)">
      <g class="primitive">
        <text text-anchor="end" dy="0.35em" transform="rotate(-90,0, 0)">1794-8</text>
      </g>
    </g>
    <g transform="translate(303.31,139.36)">
      <g class="primitive">
        <text text-anchor="end" dy="0.35em" transform="rotate(-90,0, 0)">1794-9</text>
      </g>
    </g>
    <g transform="translate(311.1,139.36)">
      <g class="primitive">
        <text text-anchor="end" dy="0.35em" transform="rotate(-90,0, 0)">no year-no month</text>
      </g>
    </g>
  </g>
  <g clip-path="url(#img-cd217e09-5)">
    <g id="img-cd217e09-6">
      <g pointer-events="visible" stroke-width="0.3" fill="#000000" fill-opacity="0.000" stroke="#000000" stroke-opacity="0.000" class="guide background" id="img-cd217e09-7">
        <g transform="translate(170.86,74.48)" id="img-cd217e09-8">
          <path d="M-144.14,-63.87 L144.14,-63.87 144.14,63.87 -144.14,63.87  z" class="primitive"/>
        </g>
      </g>
      <g class="guide ygridlines xfixed" stroke-dasharray="0.5,0.5" stroke-width="0.2" stroke="#D0D0E0" id="img-cd217e09-9">
        <g transform="translate(170.86,136.36)" id="img-cd217e09-10">
          <path fill="none" d="M-144.14,0 L144.14,0 " class="primitive"/>
        </g>
        <g transform="translate(170.86,115.73)" id="img-cd217e09-11">
          <path fill="none" d="M-144.14,0 L144.14,0 " class="primitive"/>
        </g>
        <g transform="translate(170.86,95.11)" id="img-cd217e09-12">
          <path fill="none" d="M-144.14,0 L144.14,0 " class="primitive"/>
        </g>
        <g transform="translate(170.86,74.48)" id="img-cd217e09-13">
          <path fill="none" d="M-144.14,0 L144.14,0 " class="primitive"/>
        </g>
        <g transform="translate(170.86,53.86)" id="img-cd217e09-14">
          <path fill="none" d="M-144.14,0 L144.14,0 " class="primitive"/>
        </g>
        <g transform="translate(170.86,33.24)" id="img-cd217e09-15">
          <path fill="none" d="M-144.14,0 L144.14,0 " class="primitive"/>
        </g>
        <g transform="translate(170.86,12.61)" id="img-cd217e09-16">
          <path fill="none" d="M-144.14,0 L144.14,0 " class="primitive"/>
        </g>
      </g>
      <g class="guide xgridlines yfixed" stroke-dasharray="0.5,0.5" stroke-width="0.2" stroke="#D0D0E0" id="img-cd217e09-17">
        <g transform="translate(34.52,74.48)" id="img-cd217e09-18">
          <path fill="none" d="M0,-63.87 L0,63.87 " class="primitive"/>
        </g>
        <g transform="translate(42.31,74.48)" id="img-cd217e09-19">
          <path fill="none" d="M0,-63.87 L0,63.87 " class="primitive"/>
        </g>
        <g transform="translate(50.1,74.48)" id="img-cd217e09-20">
          <path fill="none" d="M0,-63.87 L0,63.87 " class="primitive"/>
        </g>
        <g transform="translate(57.89,74.48)" id="img-cd217e09-21">
          <path fill="none" d="M0,-63.87 L0,63.87 " class="primitive"/>
        </g>
        <g transform="translate(65.68,74.48)" id="img-cd217e09-22">
          <path fill="none" d="M0,-63.87 L0,63.87 " class="primitive"/>
        </g>
        <g transform="translate(73.47,74.48)" id="img-cd217e09-23">
          <path fill="none" d="M0,-63.87 L0,63.87 " class="primitive"/>
        </g>
        <g transform="translate(81.26,74.48)" id="img-cd217e09-24">
          <path fill="none" d="M0,-63.87 L0,63.87 " class="primitive"/>
        </g>
        <g transform="translate(89.05,74.48)" id="img-cd217e09-25">
          <path fill="none" d="M0,-63.87 L0,63.87 " class="primitive"/>
        </g>
        <g transform="translate(96.85,74.48)" id="img-cd217e09-26">
          <path fill="none" d="M0,-63.87 L0,63.87 " class="primitive"/>
        </g>
        <g transform="translate(104.64,74.48)" id="img-cd217e09-27">
          <path fill="none" d="M0,-63.87 L0,63.87 " class="primitive"/>
        </g>
        <g transform="translate(112.43,74.48)" id="img-cd217e09-28">
          <path fill="none" d="M0,-63.87 L0,63.87 " class="primitive"/>
        </g>
        <g transform="translate(120.22,74.48)" id="img-cd217e09-29">
          <path fill="none" d="M0,-63.87 L0,63.87 " class="primitive"/>
        </g>
        <g transform="translate(128.01,74.48)" id="img-cd217e09-30">
          <path fill="none" d="M0,-63.87 L0,63.87 " class="primitive"/>
        </g>
        <g transform="translate(135.8,74.48)" id="img-cd217e09-31">
          <path fill="none" d="M0,-63.87 L0,63.87 " class="primitive"/>
        </g>
        <g transform="translate(143.59,74.48)" id="img-cd217e09-32">
          <path fill="none" d="M0,-63.87 L0,63.87 " class="primitive"/>
        </g>
        <g transform="translate(151.38,74.48)" id="img-cd217e09-33">
          <path fill="none" d="M0,-63.87 L0,63.87 " class="primitive"/>
        </g>
        <g transform="translate(159.18,74.48)" id="img-cd217e09-34">
          <path fill="none" d="M0,-63.87 L0,63.87 " class="primitive"/>
        </g>
        <g transform="translate(166.97,74.48)" id="img-cd217e09-35">
          <path fill="none" d="M0,-63.87 L0,63.87 " class="primitive"/>
        </g>
        <g transform="translate(174.76,74.48)" id="img-cd217e09-36">
          <path fill="none" d="M0,-63.87 L0,63.87 " class="primitive"/>
        </g>
        <g transform="translate(182.55,74.48)" id="img-cd217e09-37">
          <path fill="none" d="M0,-63.87 L0,63.87 " class="primitive"/>
        </g>
        <g transform="translate(190.34,74.48)" id="img-cd217e09-38">
          <path fill="none" d="M0,-63.87 L0,63.87 " class="primitive"/>
        </g>
        <g transform="translate(198.13,74.48)" id="img-cd217e09-39">
          <path fill="none" d="M0,-63.87 L0,63.87 " class="primitive"/>
        </g>
        <g transform="translate(205.92,74.48)" id="img-cd217e09-40">
          <path fill="none" d="M0,-63.87 L0,63.87 " class="primitive"/>
        </g>
        <g transform="translate(213.71,74.48)" id="img-cd217e09-41">
          <path fill="none" d="M0,-63.87 L0,63.87 " class="primitive"/>
        </g>
        <g transform="translate(221.51,74.48)" id="img-cd217e09-42">
          <path fill="none" d="M0,-63.87 L0,63.87 " class="primitive"/>
        </g>
        <g transform="translate(229.3,74.48)" id="img-cd217e09-43">
          <path fill="none" d="M0,-63.87 L0,63.87 " class="primitive"/>
        </g>
        <g transform="translate(237.09,74.48)" id="img-cd217e09-44">
          <path fill="none" d="M0,-63.87 L0,63.87 " class="primitive"/>
        </g>
        <g transform="translate(244.88,74.48)" id="img-cd217e09-45">
          <path fill="none" d="M0,-63.87 L0,63.87 " class="primitive"/>
        </g>
        <g transform="translate(252.67,74.48)" id="img-cd217e09-46">
          <path fill="none" d="M0,-63.87 L0,63.87 " class="primitive"/>
        </g>
        <g transform="translate(260.46,74.48)" id="img-cd217e09-47">
          <path fill="none" d="M0,-63.87 L0,63.87 " class="primitive"/>
        </g>
        <g transform="translate(268.25,74.48)" id="img-cd217e09-48">
          <path fill="none" d="M0,-63.87 L0,63.87 " class="primitive"/>
        </g>
        <g transform="translate(276.04,74.48)" id="img-cd217e09-49">
          <path fill="none" d="M0,-63.87 L0,63.87 " class="primitive"/>
        </g>
        <g transform="translate(283.84,74.48)" id="img-cd217e09-50">
          <path fill="none" d="M0,-63.87 L0,63.87 " class="primitive"/>
        </g>
        <g transform="translate(291.63,74.48)" id="img-cd217e09-51">
          <path fill="none" d="M0,-63.87 L0,63.87 " class="primitive"/>
        </g>
        <g transform="translate(299.42,74.48)" id="img-cd217e09-52">
          <path fill="none" d="M0,-63.87 L0,63.87 " class="primitive"/>
        </g>
        <g transform="translate(307.21,74.48)" id="img-cd217e09-53">
          <path fill="none" d="M0,-63.87 L0,63.87 " class="primitive"/>
        </g>
      </g>
      <g class="plotpanel" id="img-cd217e09-54">
        <metadata>
          <boundingbox value="26.725000000000023mm 10.611666666666665mm 288.275mm 127.74333333333333mm"/>
          <unitbox value="0.5 60969.749212078765 37.0 -61939.49842415753"/>
        </metadata>
        <g shape-rendering="crispEdges" stroke-width="0.3" id="img-cd217e09-55">
          <g class="geometry" fill-opacity="1" stroke="#000000" stroke-opacity="0.000" fill="#00BFFF" id="img-cd217e09-56">
            <g transform="translate(30.62,125.82)" id="img-cd217e09-57">
              <path d="M-3.92,-10.53 L3.92,-10.53 3.92,10.53 -3.92,10.53  z" class="primitive"/>
            </g>
            <g transform="translate(38.41,108.87)" id="img-cd217e09-58">
              <path d="M-3.92,-27.48 L3.92,-27.48 3.92,27.48 -3.92,27.48  z" class="primitive"/>
            </g>
            <g transform="translate(46.2,121.79)" id="img-cd217e09-59">
              <path d="M-3.92,-14.56 L3.92,-14.56 3.92,14.56 -3.92,14.56  z" class="primitive"/>
            </g>
            <g transform="translate(53.99,131.32)" id="img-cd217e09-60">
              <path d="M-3.92,-5.03 L3.92,-5.03 3.92,5.03 -3.92,5.03  z" class="primitive"/>
            </g>
            <g transform="translate(61.79,136.02)" id="img-cd217e09-61">
              <path d="M-3.92,-0.33 L3.92,-0.33 3.92,0.33 -3.92,0.33  z" class="primitive"/>
            </g>
            <g transform="translate(69.58,126.88)" id="img-cd217e09-62">
              <path d="M-3.92,-9.47 L3.92,-9.47 3.92,9.47 -3.92,9.47  z" class="primitive"/>
            </g>
            <g transform="translate(77.37,102.63)" id="img-cd217e09-63">
              <path d="M-3.92,-33.72 L3.92,-33.72 3.92,33.72 -3.92,33.72  z" class="primitive"/>
            </g>
            <g transform="translate(85.16,125.63)" id="img-cd217e09-64">
              <path d="M-3.92,-10.73 L3.92,-10.73 3.92,10.73 -3.92,10.73  z" class="primitive"/>
            </g>
            <g transform="translate(92.95,117.35)" id="img-cd217e09-65">
              <path d="M-3.92,-19 L3.92,-19 3.92,19 -3.92,19  z" class="primitive"/>
            </g>
            <g transform="translate(100.74,109.58)" id="img-cd217e09-66">
              <path d="M-3.92,-26.77 L3.92,-26.77 3.92,26.77 -3.92,26.77  z" class="primitive"/>
            </g>
            <g transform="translate(108.53,126.58)" id="img-cd217e09-67">
              <path d="M-3.92,-9.77 L3.92,-9.77 3.92,9.77 -3.92,9.77  z" class="primitive"/>
            </g>
            <g transform="translate(116.32,126.23)" id="img-cd217e09-68">
              <path d="M-3.92,-10.12 L3.92,-10.12 3.92,10.12 -3.92,10.12  z" class="primitive"/>
            </g>
            <g transform="translate(124.12,124.9)" id="img-cd217e09-69">
              <path d="M-3.92,-11.46 L3.92,-11.46 3.92,11.46 -3.92,11.46  z" class="primitive"/>
            </g>
            <g transform="translate(131.91,136.27)" id="img-cd217e09-70">
              <path d="M-3.92,-0.09 L3.92,-0.09 3.92,0.09 -3.92,0.09  z" class="primitive"/>
            </g>
            <g transform="translate(139.7,136.17)" id="img-cd217e09-71">
              <path d="M-3.92,-0.18 L3.92,-0.18 3.92,0.18 -3.92,0.18  z" class="primitive"/>
            </g>
            <g transform="translate(147.49,135.97)" id="img-cd217e09-72">
              <path d="M-3.92,-0.39 L3.92,-0.39 3.92,0.39 -3.92,0.39  z" class="primitive"/>
            </g>
            <g transform="translate(155.28,135.51)" id="img-cd217e09-73">
              <path d="M-3.92,-0.85 L3.92,-0.85 3.92,0.85 -3.92,0.85  z" class="primitive"/>
            </g>
            <g transform="translate(163.07,136.25)" id="img-cd217e09-74">
              <path d="M-3.92,-0.1 L3.92,-0.1 3.92,0.1 -3.92,0.1  z" class="primitive"/>
            </g>
            <g transform="translate(170.86,134.2)" id="img-cd217e09-75">
              <path d="M-3.92,-2.16 L3.92,-2.16 3.92,2.16 -3.92,2.16  z" class="primitive"/>
            </g>
            <g transform="translate(178.65,136.15)" id="img-cd217e09-76">
              <path d="M-3.92,-0.2 L3.92,-0.2 3.92,0.2 -3.92,0.2  z" class="primitive"/>
            </g>
            <g transform="translate(186.44,132.27)" id="img-cd217e09-77">
              <path d="M-3.92,-4.09 L3.92,-4.09 3.92,4.09 -3.92,4.09  z" class="primitive"/>
            </g>
            <g transform="translate(194.24,136)" id="img-cd217e09-78">
              <path d="M-3.92,-0.36 L3.92,-0.36 3.92,0.36 -3.92,0.36  z" class="primitive"/>
            </g>
            <g transform="translate(202.03,136.25)" id="img-cd217e09-79">
              <path d="M-3.92,-0.1 L3.92,-0.1 3.92,0.1 -3.92,0.1  z" class="primitive"/>
            </g>
            <g transform="translate(209.82,136.3)" id="img-cd217e09-80">
              <path d="M-3.92,-0.06 L3.92,-0.06 3.92,0.06 -3.92,0.06  z" class="primitive"/>
            </g>
            <g transform="translate(217.61,135.49)" id="img-cd217e09-81">
              <path d="M-3.92,-0.87 L3.92,-0.87 3.92,0.87 -3.92,0.87  z" class="primitive"/>
            </g>
            <g transform="translate(225.4,136.15)" id="img-cd217e09-82">
              <path d="M-3.92,-0.2 L3.92,-0.2 3.92,0.2 -3.92,0.2  z" class="primitive"/>
            </g>
            <g transform="translate(233.19,136)" id="img-cd217e09-83">
              <path d="M-3.92,-0.35 L3.92,-0.35 3.92,0.35 -3.92,0.35  z" class="primitive"/>
            </g>
            <g transform="translate(240.98,136.04)" id="img-cd217e09-84">
              <path d="M-3.92,-0.32 L3.92,-0.32 3.92,0.32 -3.92,0.32  z" class="primitive"/>
            </g>
            <g transform="translate(248.77,134.35)" id="img-cd217e09-85">
              <path d="M-3.92,-2 L3.92,-2 3.92,2 -3.92,2  z" class="primitive"/>
            </g>
            <g transform="translate(256.57,74.56)" id="img-cd217e09-86">
              <path d="M-3.92,-61.79 L3.92,-61.79 3.92,61.79 -3.92,61.79  z" class="primitive"/>
            </g>
            <g transform="translate(264.36,136.35)" id="img-cd217e09-87">
              <path d="M-3.92,-0.01 L3.92,-0.01 3.92,0.01 -3.92,0.01  z" class="primitive"/>
            </g>
            <g transform="translate(272.15,136.21)" id="img-cd217e09-88">
              <path d="M-3.92,-0.15 L3.92,-0.15 3.92,0.15 -3.92,0.15  z" class="primitive"/>
            </g>
            <g transform="translate(279.94,136.31)" id="img-cd217e09-89">
              <path d="M-3.92,-0.04 L3.92,-0.04 3.92,0.04 -3.92,0.04  z" class="primitive"/>
            </g>
            <g transform="translate(287.73,136.34)" id="img-cd217e09-90">
              <path d="M-3.92,-0.02 L3.92,-0.02 3.92,0.02 -3.92,0.02  z" class="primitive"/>
            </g>
            <g transform="translate(295.52,136.07)" id="img-cd217e09-91">
              <path d="M-3.92,-0.29 L3.92,-0.29 3.92,0.29 -3.92,0.29  z" class="primitive"/>
            </g>
            <g transform="translate(303.31,136.13)" id="img-cd217e09-92">
              <path d="M-3.92,-0.22 L3.92,-0.22 3.92,0.22 -3.92,0.22  z" class="primitive"/>
            </g>
            <g transform="translate(311.1,115.14)" id="img-cd217e09-93">
              <path d="M-3.92,-21.21 L3.92,-21.21 3.92,21.21 -3.92,21.21  z" class="primitive"/>
            </g>
          </g>
        </g>
      </g>
    </g>
  </g>
  <g class="guide ylabels" font-size="2.82" font-family="'PT Sans Caption','Helvetica Neue','Helvetica',sans-serif" fill="#6C606B" id="img-cd217e09-94">
    <g transform="translate(25.72,136.36)" id="img-cd217e09-95">
      <g class="primitive">
        <text text-anchor="end" dy="0.35em">0</text>
      </g>
    </g>
    <g transform="translate(25.72,115.73)" id="img-cd217e09-96">
      <g class="primitive">
        <text text-anchor="end" dy="0.35em">1.0×10⁴</text>
      </g>
    </g>
    <g transform="translate(25.72,95.11)" id="img-cd217e09-97">
      <g class="primitive">
        <text text-anchor="end" dy="0.35em">2.0×10⁴</text>
      </g>
    </g>
    <g transform="translate(25.72,74.48)" id="img-cd217e09-98">
      <g class="primitive">
        <text text-anchor="end" dy="0.35em">3.0×10⁴</text>
      </g>
    </g>
    <g transform="translate(25.72,53.86)" id="img-cd217e09-99">
      <g class="primitive">
        <text text-anchor="end" dy="0.35em">4.0×10⁴</text>
      </g>
    </g>
    <g transform="translate(25.72,33.24)" id="img-cd217e09-100">
      <g class="primitive">
        <text text-anchor="end" dy="0.35em">5.0×10⁴</text>
      </g>
    </g>
    <g transform="translate(25.72,12.61)" id="img-cd217e09-101">
      <g class="primitive">
        <text text-anchor="end" dy="0.35em">6.0×10⁴</text>
      </g>
    </g>
  </g>
  <g font-size="3.88" font-family="'PT Sans','Helvetica Neue','Helvetica',sans-serif" fill="#564A55" stroke="#000000" stroke-opacity="0.000" id="img-cd217e09-102">
    <g transform="translate(8.81,72.48)" id="img-cd217e09-103">
      <g class="primitive">
        <text text-anchor="middle" dy="0.35em" transform="rotate(-90,0, 2)">Total Debt (in dollars)</text>
      </g>
    </g>
  </g>
  <g font-size="3.88" font-family="'PT Sans','Helvetica Neue','Helvetica',sans-serif" fill="#564A55" stroke="#000000" stroke-opacity="0.000" id="img-cd217e09-104">
    <g transform="translate(170.86,5)" id="img-cd217e09-105">
      <g class="primitive">
        <text text-anchor="middle" dy="0.6em">RI Debt Redeemed Per Year/Month</text>
      </g>
    </g>
  </g>
</g>
<defs>
  <clipPath id="img-cd217e09-5">
    <path d="M26.73,10.61 L315,10.61 315,138.35 26.73,138.35 " />
  </clipPath>
</defs>
</svg>
