<?xml version="1.0" encoding="UTF-8"?>
<svg xmlns="http://www.w3.org/2000/svg"
     xmlns:xlink="http://www.w3.org/1999/xlink"
     xmlns:gadfly="http://www.gadflyjl.org/ns"
     version="1.2"
     width="320mm" height="180mm" viewBox="0 0 320 180"
     stroke="none"
     fill="#000000"
     stroke-width="0.3"
     font-size="3.88"
>
<defs>
  <marker id="arrow" markerWidth="15" markerHeight="7" refX="5" refY="3.5" orient="auto" markerUnits="strokeWidth">
    <path d="M0,0 L15,3.5 L0,7 z" stroke="context-stroke" fill="context-stroke"/>
  </marker>
</defs>
<g stroke="#000000" stroke-opacity="0.000" fill="#FFFFFF" id="img-e82546e2-1">
  <g transform="translate(160,90)">
    <path d="M-160,-90 L160,-90 160,90 -160,90  z" class="primitive"/>
  </g>
</g>
<g class="plotroot yscalable" id="img-e82546e2-2">
  <g font-size="3.88" font-family="'PT Sans','Helvetica Neue','Helvetica',sans-serif" fill="#564A55" stroke="#000000" stroke-opacity="0.000" id="img-e82546e2-3">
    <g transform="translate(171.7,168.39)">
      <g class="primitive">
        <text text-anchor="middle" dy="0.6em">Year</text>
      </g>
    </g>
  </g>
  <g class="guide xlabels" font-size="2.82" font-family="'PT Sans Caption','Helvetica Neue','Helvetica',sans-serif" fill="#6C606B" id="img-e82546e2-4">
    <g transform="translate(31.45,139.36)">
      <g class="primitive">
        <text text-anchor="end" dy="0.35em" transform="rotate(-90,0, 0)">1790-11</text>
      </g>
    </g>
    <g transform="translate(37.55,139.36)">
      <g class="primitive">
        <text text-anchor="end" dy="0.35em" transform="rotate(-90,0, 0)">1790-12</text>
      </g>
    </g>
    <g transform="translate(43.64,139.36)">
      <g class="primitive">
        <text text-anchor="end" dy="0.35em" transform="rotate(-90,0, 0)">1790-9</text>
      </g>
    </g>
    <g transform="translate(49.74,139.36)">
      <g class="primitive">
        <text text-anchor="end" dy="0.35em" transform="rotate(-90,0, 0)">1791-1</text>
      </g>
    </g>
    <g transform="translate(55.84,139.36)">
      <g class="primitive">
        <text text-anchor="end" dy="0.35em" transform="rotate(-90,0, 0)">1791-10</text>
      </g>
    </g>
    <g transform="translate(61.94,139.36)">
      <g class="primitive">
        <text text-anchor="end" dy="0.35em" transform="rotate(-90,0, 0)">1791-12</text>
      </g>
    </g>
    <g transform="translate(68.03,139.36)">
      <g class="primitive">
        <text text-anchor="end" dy="0.35em" transform="rotate(-90,0, 0)">1791-2</text>
      </g>
    </g>
    <g transform="translate(74.13,139.36)">
      <g class="primitive">
        <text text-anchor="end" dy="0.35em" transform="rotate(-90,0, 0)">1791-3</text>
      </g>
    </g>
    <g transform="translate(80.23,139.36)">
      <g class="primitive">
        <text text-anchor="end" dy="0.35em" transform="rotate(-90,0, 0)">1791-4</text>
      </g>
    </g>
    <g transform="translate(86.33,139.36)">
      <g class="primitive">
        <text text-anchor="end" dy="0.35em" transform="rotate(-90,0, 0)">1791-5</text>
      </g>
    </g>
    <g transform="translate(92.43,139.36)">
      <g class="primitive">
        <text text-anchor="end" dy="0.35em" transform="rotate(-90,0, 0)">1791-6</text>
      </g>
    </g>
    <g transform="translate(98.52,139.36)">
      <g class="primitive">
        <text text-anchor="end" dy="0.35em" transform="rotate(-90,0, 0)">1791-7</text>
      </g>
    </g>
    <g transform="translate(104.62,139.36)">
      <g class="primitive">
        <text text-anchor="end" dy="0.35em" transform="rotate(-90,0, 0)">1791-8</text>
      </g>
    </g>
    <g transform="translate(110.72,139.36)">
      <g class="primitive">
        <text text-anchor="end" dy="0.35em" transform="rotate(-90,0, 0)">1791-9</text>
      </g>
    </g>
    <g transform="translate(116.82,139.36)">
      <g class="primitive">
        <text text-anchor="end" dy="0.35em" transform="rotate(-90,0, 0)">1792-1</text>
      </g>
    </g>
    <g transform="translate(122.92,139.36)">
      <g class="primitive">
        <text text-anchor="end" dy="0.35em" transform="rotate(-90,0, 0)">1792-10</text>
      </g>
    </g>
    <g transform="translate(129.01,139.36)">
      <g class="primitive">
        <text text-anchor="end" dy="0.35em" transform="rotate(-90,0, 0)">1792-11</text>
      </g>
    </g>
    <g transform="translate(135.11,139.36)">
      <g class="primitive">
        <text text-anchor="end" dy="0.35em" transform="rotate(-90,0, 0)">1792-12</text>
      </g>
    </g>
    <g transform="translate(141.21,139.36)">
      <g class="primitive">
        <text text-anchor="end" dy="0.35em" transform="rotate(-90,0, 0)">1792-2</text>
      </g>
    </g>
    <g transform="translate(147.31,139.36)">
      <g class="primitive">
        <text text-anchor="end" dy="0.35em" transform="rotate(-90,0, 0)">1792-4</text>
      </g>
    </g>
    <g transform="translate(153.41,139.36)">
      <g class="primitive">
        <text text-anchor="end" dy="0.35em" transform="rotate(-90,0, 0)">1792-5</text>
      </g>
    </g>
    <g transform="translate(159.5,139.36)">
      <g class="primitive">
        <text text-anchor="end" dy="0.35em" transform="rotate(-90,0, 0)">1792-7</text>
      </g>
    </g>
    <g transform="translate(165.6,139.36)">
      <g class="primitive">
        <text text-anchor="end" dy="0.35em" transform="rotate(-90,0, 0)">1792-9</text>
      </g>
    </g>
    <g transform="translate(171.7,139.36)">
      <g class="primitive">
        <text text-anchor="end" dy="0.35em" transform="rotate(-90,0, 0)">1793-1</text>
      </g>
    </g>
    <g transform="translate(177.8,139.36)">
      <g class="primitive">
        <text text-anchor="end" dy="0.35em" transform="rotate(-90,0, 0)">1793-12</text>
      </g>
    </g>
    <g transform="translate(183.89,139.36)">
      <g class="primitive">
        <text text-anchor="end" dy="0.35em" transform="rotate(-90,0, 0)">1793-2</text>
      </g>
    </g>
    <g transform="translate(189.99,139.36)">
      <g class="primitive">
        <text text-anchor="end" dy="0.35em" transform="rotate(-90,0, 0)">1793-3</text>
      </g>
    </g>
    <g transform="translate(196.09,139.36)">
      <g class="primitive">
        <text text-anchor="end" dy="0.35em" transform="rotate(-90,0, 0)">1793-4</text>
      </g>
    </g>
    <g transform="translate(202.19,139.36)">
      <g class="primitive">
        <text text-anchor="end" dy="0.35em" transform="rotate(-90,0, 0)">1793-5</text>
      </g>
    </g>
    <g transform="translate(208.29,139.36)">
      <g class="primitive">
        <text text-anchor="end" dy="0.35em" transform="rotate(-90,0, 0)">1793-9</text>
      </g>
    </g>
    <g transform="translate(214.38,139.36)">
      <g class="primitive">
        <text text-anchor="end" dy="0.35em" transform="rotate(-90,0, 0)">1794-1</text>
      </g>
    </g>
    <g transform="translate(220.48,139.36)">
      <g class="primitive">
        <text text-anchor="end" dy="0.35em" transform="rotate(-90,0, 0)">1794-10</text>
      </g>
    </g>
    <g transform="translate(226.58,139.36)">
      <g class="primitive">
        <text text-anchor="end" dy="0.35em" transform="rotate(-90,0, 0)">1794-11</text>
      </g>
    </g>
    <g transform="translate(232.68,139.36)">
      <g class="primitive">
        <text text-anchor="end" dy="0.35em" transform="rotate(-90,0, 0)">1794-4</text>
      </g>
    </g>
    <g transform="translate(238.78,139.36)">
      <g class="primitive">
        <text text-anchor="end" dy="0.35em" transform="rotate(-90,0, 0)">1795-11</text>
      </g>
    </g>
    <g transform="translate(244.87,139.36)">
      <g class="primitive">
        <text text-anchor="end" dy="0.35em" transform="rotate(-90,0, 0)">1795-12</text>
      </g>
    </g>
    <g transform="translate(250.97,139.36)">
      <g class="primitive">
        <text text-anchor="end" dy="0.35em" transform="rotate(-90,0, 0)">1795-2</text>
      </g>
    </g>
    <g transform="translate(257.07,139.36)">
      <g class="primitive">
        <text text-anchor="end" dy="0.35em" transform="rotate(-90,0, 0)">1795-4</text>
      </g>
    </g>
    <g transform="translate(263.17,139.36)">
      <g class="primitive">
        <text text-anchor="end" dy="0.35em" transform="rotate(-90,0, 0)">1795-8</text>
      </g>
    </g>
    <g transform="translate(269.27,139.36)">
      <g class="primitive">
        <text text-anchor="end" dy="0.35em" transform="rotate(-90,0, 0)">1795-9</text>
      </g>
    </g>
    <g transform="translate(275.36,139.36)">
      <g class="primitive">
        <text text-anchor="end" dy="0.35em" transform="rotate(-90,0, 0)">1796-1</text>
      </g>
    </g>
    <g transform="translate(281.46,139.36)">
      <g class="primitive">
        <text text-anchor="end" dy="0.35em" transform="rotate(-90,0, 0)">1796-10</text>
      </g>
    </g>
    <g transform="translate(287.56,139.36)">
      <g class="primitive">
        <text text-anchor="end" dy="0.35em" transform="rotate(-90,0, 0)">1796-11</text>
      </g>
    </g>
    <g transform="translate(293.66,139.36)">
      <g class="primitive">
        <text text-anchor="end" dy="0.35em" transform="rotate(-90,0, 0)">1796-4</text>
      </g>
    </g>
    <g transform="translate(299.76,139.36)">
      <g class="primitive">
        <text text-anchor="end" dy="0.35em" transform="rotate(-90,0, 0)">1796-7</text>
      </g>
    </g>
    <g transform="translate(305.85,139.36)">
      <g class="primitive">
        <text text-anchor="end" dy="0.35em" transform="rotate(-90,0, 0)">1797-1</text>
      </g>
    </g>
    <g transform="translate(311.95,139.36)">
      <g class="primitive">
        <text text-anchor="end" dy="0.35em" transform="rotate(-90,0, 0)">no year-no month</text>
      </g>
    </g>
  </g>
  <g clip-path="url(#img-e82546e2-5)">
    <g id="img-e82546e2-6">
      <g pointer-events="visible" stroke-width="0.3" fill="#000000" fill-opacity="0.000" stroke="#000000" stroke-opacity="0.000" class="guide background" id="img-e82546e2-7">
        <g transform="translate(171.7,74.48)" id="img-e82546e2-8">
          <path d="M-143.3,-63.87 L143.3,-63.87 143.3,63.87 -143.3,63.87  z" class="primitive"/>
        </g>
      </g>
      <g class="guide ygridlines xfixed" stroke-dasharray="0.5,0.5" stroke-width="0.2" stroke="#D0D0E0" id="img-e82546e2-9">
        <g transform="translate(171.7,136.36)" id="img-e82546e2-10">
          <path fill="none" d="M-143.3,0 L143.3,0 " class="primitive"/>
        </g>
        <g transform="translate(171.7,111.61)" id="img-e82546e2-11">
          <path fill="none" d="M-143.3,0 L143.3,0 " class="primitive"/>
        </g>
        <g transform="translate(171.7,86.86)" id="img-e82546e2-12">
          <path fill="none" d="M-143.3,0 L143.3,0 " class="primitive"/>
        </g>
        <g transform="translate(171.7,62.11)" id="img-e82546e2-13">
          <path fill="none" d="M-143.3,0 L143.3,0 " class="primitive"/>
        </g>
        <g transform="translate(171.7,37.36)" id="img-e82546e2-14">
          <path fill="none" d="M-143.3,0 L143.3,0 " class="primitive"/>
        </g>
        <g transform="translate(171.7,12.61)" id="img-e82546e2-15">
          <path fill="none" d="M-143.3,0 L143.3,0 " class="primitive"/>
        </g>
      </g>
      <g class="guide xgridlines yfixed" stroke-dasharray="0.5,0.5" stroke-width="0.2" stroke="#D0D0E0" id="img-e82546e2-16">
        <g transform="translate(34.5,74.48)" id="img-e82546e2-17">
          <path fill="none" d="M0,-63.87 L0,63.87 " class="primitive"/>
        </g>
        <g transform="translate(40.59,74.48)" id="img-e82546e2-18">
          <path fill="none" d="M0,-63.87 L0,63.87 " class="primitive"/>
        </g>
        <g transform="translate(46.69,74.48)" id="img-e82546e2-19">
          <path fill="none" d="M0,-63.87 L0,63.87 " class="primitive"/>
        </g>
        <g transform="translate(52.79,74.48)" id="img-e82546e2-20">
          <path fill="none" d="M0,-63.87 L0,63.87 " class="primitive"/>
        </g>
        <g transform="translate(58.89,74.48)" id="img-e82546e2-21">
          <path fill="none" d="M0,-63.87 L0,63.87 " class="primitive"/>
        </g>
        <g transform="translate(64.99,74.48)" id="img-e82546e2-22">
          <path fill="none" d="M0,-63.87 L0,63.87 " class="primitive"/>
        </g>
        <g transform="translate(71.08,74.48)" id="img-e82546e2-23">
          <path fill="none" d="M0,-63.87 L0,63.87 " class="primitive"/>
        </g>
        <g transform="translate(77.18,74.48)" id="img-e82546e2-24">
          <path fill="none" d="M0,-63.87 L0,63.87 " class="primitive"/>
        </g>
        <g transform="translate(83.28,74.48)" id="img-e82546e2-25">
          <path fill="none" d="M0,-63.87 L0,63.87 " class="primitive"/>
        </g>
        <g transform="translate(89.38,74.48)" id="img-e82546e2-26">
          <path fill="none" d="M0,-63.87 L0,63.87 " class="primitive"/>
        </g>
        <g transform="translate(95.48,74.48)" id="img-e82546e2-27">
          <path fill="none" d="M0,-63.87 L0,63.87 " class="primitive"/>
        </g>
        <g transform="translate(101.57,74.48)" id="img-e82546e2-28">
          <path fill="none" d="M0,-63.87 L0,63.87 " class="primitive"/>
        </g>
        <g transform="translate(107.67,74.48)" id="img-e82546e2-29">
          <path fill="none" d="M0,-63.87 L0,63.87 " class="primitive"/>
        </g>
        <g transform="translate(113.77,74.48)" id="img-e82546e2-30">
          <path fill="none" d="M0,-63.87 L0,63.87 " class="primitive"/>
        </g>
        <g transform="translate(119.87,74.48)" id="img-e82546e2-31">
          <path fill="none" d="M0,-63.87 L0,63.87 " class="primitive"/>
        </g>
        <g transform="translate(125.96,74.48)" id="img-e82546e2-32">
          <path fill="none" d="M0,-63.87 L0,63.87 " class="primitive"/>
        </g>
        <g transform="translate(132.06,74.48)" id="img-e82546e2-33">
          <path fill="none" d="M0,-63.87 L0,63.87 " class="primitive"/>
        </g>
        <g transform="translate(138.16,74.48)" id="img-e82546e2-34">
          <path fill="none" d="M0,-63.87 L0,63.87 " class="primitive"/>
        </g>
        <g transform="translate(144.26,74.48)" id="img-e82546e2-35">
          <path fill="none" d="M0,-63.87 L0,63.87 " class="primitive"/>
        </g>
        <g transform="translate(150.36,74.48)" id="img-e82546e2-36">
          <path fill="none" d="M0,-63.87 L0,63.87 " class="primitive"/>
        </g>
        <g transform="translate(156.45,74.48)" id="img-e82546e2-37">
          <path fill="none" d="M0,-63.87 L0,63.87 " class="primitive"/>
        </g>
        <g transform="translate(162.55,74.48)" id="img-e82546e2-38">
          <path fill="none" d="M0,-63.87 L0,63.87 " class="primitive"/>
        </g>
        <g transform="translate(168.65,74.48)" id="img-e82546e2-39">
          <path fill="none" d="M0,-63.87 L0,63.87 " class="primitive"/>
        </g>
        <g transform="translate(174.75,74.48)" id="img-e82546e2-40">
          <path fill="none" d="M0,-63.87 L0,63.87 " class="primitive"/>
        </g>
        <g transform="translate(180.85,74.48)" id="img-e82546e2-41">
          <path fill="none" d="M0,-63.87 L0,63.87 " class="primitive"/>
        </g>
        <g transform="translate(186.94,74.48)" id="img-e82546e2-42">
          <path fill="none" d="M0,-63.87 L0,63.87 " class="primitive"/>
        </g>
        <g transform="translate(193.04,74.48)" id="img-e82546e2-43">
          <path fill="none" d="M0,-63.87 L0,63.87 " class="primitive"/>
        </g>
        <g transform="translate(199.14,74.48)" id="img-e82546e2-44">
          <path fill="none" d="M0,-63.87 L0,63.87 " class="primitive"/>
        </g>
        <g transform="translate(205.24,74.48)" id="img-e82546e2-45">
          <path fill="none" d="M0,-63.87 L0,63.87 " class="primitive"/>
        </g>
        <g transform="translate(211.34,74.48)" id="img-e82546e2-46">
          <path fill="none" d="M0,-63.87 L0,63.87 " class="primitive"/>
        </g>
        <g transform="translate(217.43,74.48)" id="img-e82546e2-47">
          <path fill="none" d="M0,-63.87 L0,63.87 " class="primitive"/>
        </g>
        <g transform="translate(223.53,74.48)" id="img-e82546e2-48">
          <path fill="none" d="M0,-63.87 L0,63.87 " class="primitive"/>
        </g>
        <g transform="translate(229.63,74.48)" id="img-e82546e2-49">
          <path fill="none" d="M0,-63.87 L0,63.87 " class="primitive"/>
        </g>
        <g transform="translate(235.73,74.48)" id="img-e82546e2-50">
          <path fill="none" d="M0,-63.87 L0,63.87 " class="primitive"/>
        </g>
        <g transform="translate(241.83,74.48)" id="img-e82546e2-51">
          <path fill="none" d="M0,-63.87 L0,63.87 " class="primitive"/>
        </g>
        <g transform="translate(247.92,74.48)" id="img-e82546e2-52">
          <path fill="none" d="M0,-63.87 L0,63.87 " class="primitive"/>
        </g>
        <g transform="translate(254.02,74.48)" id="img-e82546e2-53">
          <path fill="none" d="M0,-63.87 L0,63.87 " class="primitive"/>
        </g>
        <g transform="translate(260.12,74.48)" id="img-e82546e2-54">
          <path fill="none" d="M0,-63.87 L0,63.87 " class="primitive"/>
        </g>
        <g transform="translate(266.22,74.48)" id="img-e82546e2-55">
          <path fill="none" d="M0,-63.87 L0,63.87 " class="primitive"/>
        </g>
        <g transform="translate(272.31,74.48)" id="img-e82546e2-56">
          <path fill="none" d="M0,-63.87 L0,63.87 " class="primitive"/>
        </g>
        <g transform="translate(278.41,74.48)" id="img-e82546e2-57">
          <path fill="none" d="M0,-63.87 L0,63.87 " class="primitive"/>
        </g>
        <g transform="translate(284.51,74.48)" id="img-e82546e2-58">
          <path fill="none" d="M0,-63.87 L0,63.87 " class="primitive"/>
        </g>
        <g transform="translate(290.61,74.48)" id="img-e82546e2-59">
          <path fill="none" d="M0,-63.87 L0,63.87 " class="primitive"/>
        </g>
        <g transform="translate(296.71,74.48)" id="img-e82546e2-60">
          <path fill="none" d="M0,-63.87 L0,63.87 " class="primitive"/>
        </g>
        <g transform="translate(302.8,74.48)" id="img-e82546e2-61">
          <path fill="none" d="M0,-63.87 L0,63.87 " class="primitive"/>
        </g>
        <g transform="translate(308.9,74.48)" id="img-e82546e2-62">
          <path fill="none" d="M0,-63.87 L0,63.87 " class="primitive"/>
        </g>
      </g>
      <g class="plotpanel" id="img-e82546e2-63">
        <metadata>
          <boundingbox value="28.39833333333337mm 10.611666666666665mm 286.6016666666667mm 127.74333333333333mm"/>
          <unitbox value="0.5 254040.62171699485 47.0 -258081.2434339897"/>
        </metadata>
        <g shape-rendering="crispEdges" stroke-width="0.3" id="img-e82546e2-64">
          <g class="geometry" fill-opacity="1" stroke="#000000" stroke-opacity="0.000" fill="#00BFFF" id="img-e82546e2-65">
            <g transform="translate(31.45,131.56)" id="img-e82546e2-66">
              <path d="M-3.07,-4.8 L3.07,-4.8 3.07,4.8 -3.07,4.8  z" class="primitive"/>
            </g>
            <g transform="translate(37.55,134.34)" id="img-e82546e2-67">
              <path d="M-3.07,-2.01 L3.07,-2.01 3.07,2.01 -3.07,2.01  z" class="primitive"/>
            </g>
            <g transform="translate(43.64,136.36)" id="img-e82546e2-68">
              <path d="M-3.07,-0 L3.07,-0 3.07,0 -3.07,0  z" class="primitive"/>
            </g>
            <g transform="translate(49.74,135.5)" id="img-e82546e2-69">
              <path d="M-3.07,-0.85 L3.07,-0.85 3.07,0.85 -3.07,0.85  z" class="primitive"/>
            </g>
            <g transform="translate(55.84,134.93)" id="img-e82546e2-70">
              <path d="M-3.07,-1.42 L3.07,-1.42 3.07,1.42 -3.07,1.42  z" class="primitive"/>
            </g>
            <g transform="translate(61.94,135.58)" id="img-e82546e2-71">
              <path d="M-3.07,-0.78 L3.07,-0.78 3.07,0.78 -3.07,0.78  z" class="primitive"/>
            </g>
            <g transform="translate(68.03,134.89)" id="img-e82546e2-72">
              <path d="M-3.07,-1.47 L3.07,-1.47 3.07,1.47 -3.07,1.47  z" class="primitive"/>
            </g>
            <g transform="translate(74.13,133.9)" id="img-e82546e2-73">
              <path d="M-3.07,-2.45 L3.07,-2.45 3.07,2.45 -3.07,2.45  z" class="primitive"/>
            </g>
            <g transform="translate(80.23,133.92)" id="img-e82546e2-74">
              <path d="M-3.07,-2.43 L3.07,-2.43 3.07,2.43 -3.07,2.43  z" class="primitive"/>
            </g>
            <g transform="translate(86.33,132.93)" id="img-e82546e2-75">
              <path d="M-3.07,-3.43 L3.07,-3.43 3.07,3.43 -3.07,3.43  z" class="primitive"/>
            </g>
            <g transform="translate(92.43,135.52)" id="img-e82546e2-76">
              <path d="M-3.07,-0.84 L3.07,-0.84 3.07,0.84 -3.07,0.84  z" class="primitive"/>
            </g>
            <g transform="translate(98.52,134.13)" id="img-e82546e2-77">
              <path d="M-3.07,-2.23 L3.07,-2.23 3.07,2.23 -3.07,2.23  z" class="primitive"/>
            </g>
            <g transform="translate(104.62,134.17)" id="img-e82546e2-78">
              <path d="M-3.07,-2.19 L3.07,-2.19 3.07,2.19 -3.07,2.19  z" class="primitive"/>
            </g>
            <g transform="translate(110.72,134.93)" id="img-e82546e2-79">
              <path d="M-3.07,-1.42 L3.07,-1.42 3.07,1.42 -3.07,1.42  z" class="primitive"/>
            </g>
            <g transform="translate(116.82,134.99)" id="img-e82546e2-80">
              <path d="M-3.07,-1.37 L3.07,-1.37 3.07,1.37 -3.07,1.37  z" class="primitive"/>
            </g>
            <g transform="translate(122.92,136.36)" id="img-e82546e2-81">
              <path d="M-3.07,-0 L3.07,-0 3.07,0 -3.07,0  z" class="primitive"/>
            </g>
            <g transform="translate(129.01,136.35)" id="img-e82546e2-82">
              <path d="M-3.07,-0.01 L3.07,-0.01 3.07,0.01 -3.07,0.01  z" class="primitive"/>
            </g>
            <g transform="translate(135.11,136.23)" id="img-e82546e2-83">
              <path d="M-3.07,-0.13 L3.07,-0.13 3.07,0.13 -3.07,0.13  z" class="primitive"/>
            </g>
            <g transform="translate(141.21,135.65)" id="img-e82546e2-84">
              <path d="M-3.07,-0.71 L3.07,-0.71 3.07,0.71 -3.07,0.71  z" class="primitive"/>
            </g>
            <g transform="translate(147.31,136.27)" id="img-e82546e2-85">
              <path d="M-3.07,-0.09 L3.07,-0.09 3.07,0.09 -3.07,0.09  z" class="primitive"/>
            </g>
            <g transform="translate(153.41,135.36)" id="img-e82546e2-86">
              <path d="M-3.07,-1 L3.07,-1 3.07,1 -3.07,1  z" class="primitive"/>
            </g>
            <g transform="translate(159.5,136.3)" id="img-e82546e2-87">
              <path d="M-3.07,-0.05 L3.07,-0.05 3.07,0.05 -3.07,0.05  z" class="primitive"/>
            </g>
            <g transform="translate(165.6,135.97)" id="img-e82546e2-88">
              <path d="M-3.07,-0.38 L3.07,-0.38 3.07,0.38 -3.07,0.38  z" class="primitive"/>
            </g>
            <g transform="translate(171.7,136.07)" id="img-e82546e2-89">
              <path d="M-3.07,-0.29 L3.07,-0.29 3.07,0.29 -3.07,0.29  z" class="primitive"/>
            </g>
            <g transform="translate(177.8,136.36)" id="img-e82546e2-90">
              <path d="M-3.07,-0 L3.07,-0 3.07,0 -3.07,0  z" class="primitive"/>
            </g>
            <g transform="translate(183.89,136.17)" id="img-e82546e2-91">
              <path d="M-3.07,-0.18 L3.07,-0.18 3.07,0.18 -3.07,0.18  z" class="primitive"/>
            </g>
            <g transform="translate(189.99,136.23)" id="img-e82546e2-92">
              <path d="M-3.07,-0.13 L3.07,-0.13 3.07,0.13 -3.07,0.13  z" class="primitive"/>
            </g>
            <g transform="translate(196.09,136.35)" id="img-e82546e2-93">
              <path d="M-3.07,-0 L3.07,-0 3.07,0 -3.07,0  z" class="primitive"/>
            </g>
            <g transform="translate(202.19,136.34)" id="img-e82546e2-94">
              <path d="M-3.07,-0.02 L3.07,-0.02 3.07,0.02 -3.07,0.02  z" class="primitive"/>
            </g>
            <g transform="translate(208.29,136.2)" id="img-e82546e2-95">
              <path d="M-3.07,-0.15 L3.07,-0.15 3.07,0.15 -3.07,0.15  z" class="primitive"/>
            </g>
            <g transform="translate(214.38,136.3)" id="img-e82546e2-96">
              <path d="M-3.07,-0.05 L3.07,-0.05 3.07,0.05 -3.07,0.05  z" class="primitive"/>
            </g>
            <g transform="translate(220.48,76.47)" id="img-e82546e2-97">
              <path d="M-3.07,-59.89 L3.07,-59.89 3.07,59.89 -3.07,59.89  z" class="primitive"/>
            </g>
            <g transform="translate(226.58,134.77)" id="img-e82546e2-98">
              <path d="M-3.07,-1.59 L3.07,-1.59 3.07,1.59 -3.07,1.59  z" class="primitive"/>
            </g>
            <g transform="translate(232.68,136.26)" id="img-e82546e2-99">
              <path d="M-3.07,-0.09 L3.07,-0.09 3.07,0.09 -3.07,0.09  z" class="primitive"/>
            </g>
            <g transform="translate(238.78,136.36)" id="img-e82546e2-100">
              <path d="M-3.07,-0 L3.07,-0 3.07,0 -3.07,0  z" class="primitive"/>
            </g>
            <g transform="translate(244.87,136.14)" id="img-e82546e2-101">
              <path d="M-3.07,-0.21 L3.07,-0.21 3.07,0.21 -3.07,0.21  z" class="primitive"/>
            </g>
            <g transform="translate(250.97,136.36)" id="img-e82546e2-102">
              <path d="M-3.07,-0 L3.07,-0 3.07,0 -3.07,0  z" class="primitive"/>
            </g>
            <g transform="translate(257.07,135.38)" id="img-e82546e2-103">
              <path d="M-3.07,-0.98 L3.07,-0.98 3.07,0.98 -3.07,0.98  z" class="primitive"/>
            </g>
            <g transform="translate(263.17,136.32)" id="img-e82546e2-104">
              <path d="M-3.07,-0.03 L3.07,-0.03 3.07,0.03 -3.07,0.03  z" class="primitive"/>
            </g>
            <g transform="translate(269.27,133.53)" id="img-e82546e2-105">
              <path d="M-3.07,-2.82 L3.07,-2.82 3.07,2.82 -3.07,2.82  z" class="primitive"/>
            </g>
            <g transform="translate(275.36,136.3)" id="img-e82546e2-106">
              <path d="M-3.07,-0.05 L3.07,-0.05 3.07,0.05 -3.07,0.05  z" class="primitive"/>
            </g>
            <g transform="translate(281.46,136.36)" id="img-e82546e2-107">
              <path d="M-3.07,-0 L3.07,-0 3.07,0 -3.07,0  z" class="primitive"/>
            </g>
            <g transform="translate(287.56,136.33)" id="img-e82546e2-108">
              <path d="M-3.07,-0.02 L3.07,-0.02 3.07,0.02 -3.07,0.02  z" class="primitive"/>
            </g>
            <g transform="translate(293.66,136.29)" id="img-e82546e2-109">
              <path d="M-3.07,-0.07 L3.07,-0.07 3.07,0.07 -3.07,0.07  z" class="primitive"/>
            </g>
            <g transform="translate(299.76,136.36)" id="img-e82546e2-110">
              <path d="M-3.07,-0 L3.07,-0 3.07,0 -3.07,0  z" class="primitive"/>
            </g>
            <g transform="translate(305.85,136.33)" id="img-e82546e2-111">
              <path d="M-3.07,-0.03 L3.07,-0.03 3.07,0.03 -3.07,0.03  z" class="primitive"/>
            </g>
            <g transform="translate(311.95,131.62)" id="img-e82546e2-112">
              <path d="M-3.07,-4.74 L3.07,-4.74 3.07,4.74 -3.07,4.74  z" class="primitive"/>
            </g>
          </g>
        </g>
      </g>
    </g>
  </g>
  <g class="guide ylabels" font-size="2.82" font-family="'PT Sans Caption','Helvetica Neue','Helvetica',sans-serif" fill="#6C606B" id="img-e82546e2-113">
    <g transform="translate(27.4,136.36)" id="img-e82546e2-114">
      <g class="primitive">
        <text text-anchor="end" dy="0.35em">0</text>
      </g>
    </g>
    <g transform="translate(27.4,111.61)" id="img-e82546e2-115">
      <g class="primitive">
        <text text-anchor="end" dy="0.35em">5.00×10⁴</text>
      </g>
    </g>
    <g transform="translate(27.4,86.86)" id="img-e82546e2-116">
      <g class="primitive">
        <text text-anchor="end" dy="0.35em">1.00×10⁵</text>
      </g>
    </g>
    <g transform="translate(27.4,62.11)" id="img-e82546e2-117">
      <g class="primitive">
        <text text-anchor="end" dy="0.35em">1.50×10⁵</text>
      </g>
    </g>
    <g transform="translate(27.4,37.36)" id="img-e82546e2-118">
      <g class="primitive">
        <text text-anchor="end" dy="0.35em">2.00×10⁵</text>
      </g>
    </g>
    <g transform="translate(27.4,12.61)" id="img-e82546e2-119">
      <g class="primitive">
        <text text-anchor="end" dy="0.35em">2.50×10⁵</text>
      </g>
    </g>
  </g>
  <g font-size="3.88" font-family="'PT Sans','Helvetica Neue','Helvetica',sans-serif" fill="#564A55" stroke="#000000" stroke-opacity="0.000" id="img-e82546e2-120">
    <g transform="translate(8.81,72.48)" id="img-e82546e2-121">
      <g class="primitive">
        <text text-anchor="middle" dy="0.35em" transform="rotate(-90,0, 2)">Total Debt (in dollars)</text>
      </g>
    </g>
  </g>
  <g font-size="3.88" font-family="'PT Sans','Helvetica Neue','Helvetica',sans-serif" fill="#564A55" stroke="#000000" stroke-opacity="0.000" id="img-e82546e2-122">
    <g transform="translate(171.7,5)" id="img-e82546e2-123">
      <g class="primitive">
        <text text-anchor="middle" dy="0.6em">SC Debt Redeemed Per Year/Month</text>
      </g>
    </g>
  </g>
</g>
<defs>
  <clipPath id="img-e82546e2-5">
    <path d="M28.4,10.61 L315,10.61 315,138.35 28.4,138.35 " />
  </clipPath>
</defs>
</svg>
