<?xml version="1.0" encoding="UTF-8"?>
<svg xmlns="http://www.w3.org/2000/svg"
     xmlns:xlink="http://www.w3.org/1999/xlink"
     xmlns:gadfly="http://www.gadflyjl.org/ns"
     version="1.2"
     width="320mm" height="180mm" viewBox="0 0 320 180"
     stroke="none"
     fill="#000000"
     stroke-width="0.3"
     font-size="3.88"
>
<defs>
  <marker id="arrow" markerWidth="15" markerHeight="7" refX="5" refY="3.5" orient="auto" markerUnits="strokeWidth">
    <path d="M0,0 L15,3.5 L0,7 z" stroke="context-stroke" fill="context-stroke"/>
  </marker>
</defs>
<g stroke="#000000" stroke-opacity="0.000" fill="#FFFFFF" id="img-08ccb50a-1">
  <g transform="translate(160,90)">
    <path d="M-160,-90 L160,-90 160,90 -160,90  z" class="primitive"/>
  </g>
</g>
<g class="plotroot yscalable" id="img-08ccb50a-2">
  <g font-size="3.88" font-family="'PT Sans','Helvetica Neue','Helvetica',sans-serif" fill="#564A55" stroke="#000000" stroke-opacity="0.000" id="img-08ccb50a-3">
    <g transform="translate(170.86,168.39)">
      <g class="primitive">
        <text text-anchor="middle" dy="0.6em">Year</text>
      </g>
    </g>
  </g>
  <g class="guide xlabels" font-size="2.82" font-family="'PT Sans Caption','Helvetica Neue','Helvetica',sans-serif" fill="#6C606B" id="img-08ccb50a-4">
    <g transform="translate(28.88,139.36)">
      <g class="primitive">
        <text text-anchor="end" dy="0.35em" transform="rotate(-90,0, 0)">1790-1</text>
      </g>
    </g>
    <g transform="translate(33.18,139.36)">
      <g class="primitive">
        <text text-anchor="end" dy="0.35em" transform="rotate(-90,0, 0)">1790-10</text>
      </g>
    </g>
    <g transform="translate(37.48,139.36)">
      <g class="primitive">
        <text text-anchor="end" dy="0.35em" transform="rotate(-90,0, 0)">1790-11</text>
      </g>
    </g>
    <g transform="translate(41.78,139.36)">
      <g class="primitive">
        <text text-anchor="end" dy="0.35em" transform="rotate(-90,0, 0)">1790-12</text>
      </g>
    </g>
    <g transform="translate(46.09,139.36)">
      <g class="primitive">
        <text text-anchor="end" dy="0.35em" transform="rotate(-90,0, 0)">1791-1</text>
      </g>
    </g>
    <g transform="translate(50.39,139.36)">
      <g class="primitive">
        <text text-anchor="end" dy="0.35em" transform="rotate(-90,0, 0)">1791-10</text>
      </g>
    </g>
    <g transform="translate(54.69,139.36)">
      <g class="primitive">
        <text text-anchor="end" dy="0.35em" transform="rotate(-90,0, 0)">1791-11</text>
      </g>
    </g>
    <g transform="translate(58.99,139.36)">
      <g class="primitive">
        <text text-anchor="end" dy="0.35em" transform="rotate(-90,0, 0)">1791-12</text>
      </g>
    </g>
    <g transform="translate(63.3,139.36)">
      <g class="primitive">
        <text text-anchor="end" dy="0.35em" transform="rotate(-90,0, 0)">1791-2</text>
      </g>
    </g>
    <g transform="translate(67.6,139.36)">
      <g class="primitive">
        <text text-anchor="end" dy="0.35em" transform="rotate(-90,0, 0)">1791-3</text>
      </g>
    </g>
    <g transform="translate(71.9,139.36)">
      <g class="primitive">
        <text text-anchor="end" dy="0.35em" transform="rotate(-90,0, 0)">1791-4</text>
      </g>
    </g>
    <g transform="translate(76.21,139.36)">
      <g class="primitive">
        <text text-anchor="end" dy="0.35em" transform="rotate(-90,0, 0)">1791-5</text>
      </g>
    </g>
    <g transform="translate(80.51,139.36)">
      <g class="primitive">
        <text text-anchor="end" dy="0.35em" transform="rotate(-90,0, 0)">1791-6</text>
      </g>
    </g>
    <g transform="translate(84.81,139.36)">
      <g class="primitive">
        <text text-anchor="end" dy="0.35em" transform="rotate(-90,0, 0)">1791-7</text>
      </g>
    </g>
    <g transform="translate(89.11,139.36)">
      <g class="primitive">
        <text text-anchor="end" dy="0.35em" transform="rotate(-90,0, 0)">1791-8</text>
      </g>
    </g>
    <g transform="translate(93.42,139.36)">
      <g class="primitive">
        <text text-anchor="end" dy="0.35em" transform="rotate(-90,0, 0)">1791-9</text>
      </g>
    </g>
    <g transform="translate(97.72,139.36)">
      <g class="primitive">
        <text text-anchor="end" dy="0.35em" transform="rotate(-90,0, 0)">1792-1</text>
      </g>
    </g>
    <g transform="translate(102.02,139.36)">
      <g class="primitive">
        <text text-anchor="end" dy="0.35em" transform="rotate(-90,0, 0)">1792-10</text>
      </g>
    </g>
    <g transform="translate(106.32,139.36)">
      <g class="primitive">
        <text text-anchor="end" dy="0.35em" transform="rotate(-90,0, 0)">1792-11</text>
      </g>
    </g>
    <g transform="translate(110.63,139.36)">
      <g class="primitive">
        <text text-anchor="end" dy="0.35em" transform="rotate(-90,0, 0)">1792-12</text>
      </g>
    </g>
    <g transform="translate(114.93,139.36)">
      <g class="primitive">
        <text text-anchor="end" dy="0.35em" transform="rotate(-90,0, 0)">1792-3</text>
      </g>
    </g>
    <g transform="translate(119.23,139.36)">
      <g class="primitive">
        <text text-anchor="end" dy="0.35em" transform="rotate(-90,0, 0)">1792-4</text>
      </g>
    </g>
    <g transform="translate(123.53,139.36)">
      <g class="primitive">
        <text text-anchor="end" dy="0.35em" transform="rotate(-90,0, 0)">1792-5</text>
      </g>
    </g>
    <g transform="translate(127.84,139.36)">
      <g class="primitive">
        <text text-anchor="end" dy="0.35em" transform="rotate(-90,0, 0)">1792-6</text>
      </g>
    </g>
    <g transform="translate(132.14,139.36)">
      <g class="primitive">
        <text text-anchor="end" dy="0.35em" transform="rotate(-90,0, 0)">1792-7</text>
      </g>
    </g>
    <g transform="translate(136.44,139.36)">
      <g class="primitive">
        <text text-anchor="end" dy="0.35em" transform="rotate(-90,0, 0)">1792-8</text>
      </g>
    </g>
    <g transform="translate(140.74,139.36)">
      <g class="primitive">
        <text text-anchor="end" dy="0.35em" transform="rotate(-90,0, 0)">1792-9</text>
      </g>
    </g>
    <g transform="translate(145.05,139.36)">
      <g class="primitive">
        <text text-anchor="end" dy="0.35em" transform="rotate(-90,0, 0)">1793-1</text>
      </g>
    </g>
    <g transform="translate(149.35,139.36)">
      <g class="primitive">
        <text text-anchor="end" dy="0.35em" transform="rotate(-90,0, 0)">1793-12</text>
      </g>
    </g>
    <g transform="translate(153.65,139.36)">
      <g class="primitive">
        <text text-anchor="end" dy="0.35em" transform="rotate(-90,0, 0)">1793-2</text>
      </g>
    </g>
    <g transform="translate(157.95,139.36)">
      <g class="primitive">
        <text text-anchor="end" dy="0.35em" transform="rotate(-90,0, 0)">1793-3</text>
      </g>
    </g>
    <g transform="translate(162.26,139.36)">
      <g class="primitive">
        <text text-anchor="end" dy="0.35em" transform="rotate(-90,0, 0)">1793-4</text>
      </g>
    </g>
    <g transform="translate(166.56,139.36)">
      <g class="primitive">
        <text text-anchor="end" dy="0.35em" transform="rotate(-90,0, 0)">1793-6</text>
      </g>
    </g>
    <g transform="translate(170.86,139.36)">
      <g class="primitive">
        <text text-anchor="end" dy="0.35em" transform="rotate(-90,0, 0)">1793-7</text>
      </g>
    </g>
    <g transform="translate(175.17,139.36)">
      <g class="primitive">
        <text text-anchor="end" dy="0.35em" transform="rotate(-90,0, 0)">1793-8</text>
      </g>
    </g>
    <g transform="translate(179.47,139.36)">
      <g class="primitive">
        <text text-anchor="end" dy="0.35em" transform="rotate(-90,0, 0)">1793-9</text>
      </g>
    </g>
    <g transform="translate(183.77,139.36)">
      <g class="primitive">
        <text text-anchor="end" dy="0.35em" transform="rotate(-90,0, 0)">1794-11</text>
      </g>
    </g>
    <g transform="translate(188.07,139.36)">
      <g class="primitive">
        <text text-anchor="end" dy="0.35em" transform="rotate(-90,0, 0)">1794-12</text>
      </g>
    </g>
    <g transform="translate(192.38,139.36)">
      <g class="primitive">
        <text text-anchor="end" dy="0.35em" transform="rotate(-90,0, 0)">1794-2</text>
      </g>
    </g>
    <g transform="translate(196.68,139.36)">
      <g class="primitive">
        <text text-anchor="end" dy="0.35em" transform="rotate(-90,0, 0)">1794-3</text>
      </g>
    </g>
    <g transform="translate(200.98,139.36)">
      <g class="primitive">
        <text text-anchor="end" dy="0.35em" transform="rotate(-90,0, 0)">1794-4</text>
      </g>
    </g>
    <g transform="translate(205.28,139.36)">
      <g class="primitive">
        <text text-anchor="end" dy="0.35em" transform="rotate(-90,0, 0)">1794-5</text>
      </g>
    </g>
    <g transform="translate(209.59,139.36)">
      <g class="primitive">
        <text text-anchor="end" dy="0.35em" transform="rotate(-90,0, 0)">1794-6</text>
      </g>
    </g>
    <g transform="translate(213.89,139.36)">
      <g class="primitive">
        <text text-anchor="end" dy="0.35em" transform="rotate(-90,0, 0)">1794-7</text>
      </g>
    </g>
    <g transform="translate(218.19,139.36)">
      <g class="primitive">
        <text text-anchor="end" dy="0.35em" transform="rotate(-90,0, 0)">1794-8</text>
      </g>
    </g>
    <g transform="translate(222.49,139.36)">
      <g class="primitive">
        <text text-anchor="end" dy="0.35em" transform="rotate(-90,0, 0)">1795-1</text>
      </g>
    </g>
    <g transform="translate(226.8,139.36)">
      <g class="primitive">
        <text text-anchor="end" dy="0.35em" transform="rotate(-90,0, 0)">1795-10</text>
      </g>
    </g>
    <g transform="translate(231.1,139.36)">
      <g class="primitive">
        <text text-anchor="end" dy="0.35em" transform="rotate(-90,0, 0)">1795-11</text>
      </g>
    </g>
    <g transform="translate(235.4,139.36)">
      <g class="primitive">
        <text text-anchor="end" dy="0.35em" transform="rotate(-90,0, 0)">1795-12</text>
      </g>
    </g>
    <g transform="translate(239.7,139.36)">
      <g class="primitive">
        <text text-anchor="end" dy="0.35em" transform="rotate(-90,0, 0)">1795-2</text>
      </g>
    </g>
    <g transform="translate(244.01,139.36)">
      <g class="primitive">
        <text text-anchor="end" dy="0.35em" transform="rotate(-90,0, 0)">1795-4</text>
      </g>
    </g>
    <g transform="translate(248.31,139.36)">
      <g class="primitive">
        <text text-anchor="end" dy="0.35em" transform="rotate(-90,0, 0)">1795-5</text>
      </g>
    </g>
    <g transform="translate(252.61,139.36)">
      <g class="primitive">
        <text text-anchor="end" dy="0.35em" transform="rotate(-90,0, 0)">1795-6</text>
      </g>
    </g>
    <g transform="translate(256.91,139.36)">
      <g class="primitive">
        <text text-anchor="end" dy="0.35em" transform="rotate(-90,0, 0)">1795-7</text>
      </g>
    </g>
    <g transform="translate(261.22,139.36)">
      <g class="primitive">
        <text text-anchor="end" dy="0.35em" transform="rotate(-90,0, 0)">1795-8</text>
      </g>
    </g>
    <g transform="translate(265.52,139.36)">
      <g class="primitive">
        <text text-anchor="end" dy="0.35em" transform="rotate(-90,0, 0)">1795-9</text>
      </g>
    </g>
    <g transform="translate(269.82,139.36)">
      <g class="primitive">
        <text text-anchor="end" dy="0.35em" transform="rotate(-90,0, 0)">1796-10</text>
      </g>
    </g>
    <g transform="translate(274.13,139.36)">
      <g class="primitive">
        <text text-anchor="end" dy="0.35em" transform="rotate(-90,0, 0)">1796-11</text>
      </g>
    </g>
    <g transform="translate(278.43,139.36)">
      <g class="primitive">
        <text text-anchor="end" dy="0.35em" transform="rotate(-90,0, 0)">1796-12</text>
      </g>
    </g>
    <g transform="translate(282.73,139.36)">
      <g class="primitive">
        <text text-anchor="end" dy="0.35em" transform="rotate(-90,0, 0)">1796-3</text>
      </g>
    </g>
    <g transform="translate(287.03,139.36)">
      <g class="primitive">
        <text text-anchor="end" dy="0.35em" transform="rotate(-90,0, 0)">1796-4</text>
      </g>
    </g>
    <g transform="translate(291.34,139.36)">
      <g class="primitive">
        <text text-anchor="end" dy="0.35em" transform="rotate(-90,0, 0)">1796-6</text>
      </g>
    </g>
    <g transform="translate(295.64,139.36)">
      <g class="primitive">
        <text text-anchor="end" dy="0.35em" transform="rotate(-90,0, 0)">1796-7</text>
      </g>
    </g>
    <g transform="translate(299.94,139.36)">
      <g class="primitive">
        <text text-anchor="end" dy="0.35em" transform="rotate(-90,0, 0)">1796-8</text>
      </g>
    </g>
    <g transform="translate(304.24,139.36)">
      <g class="primitive">
        <text text-anchor="end" dy="0.35em" transform="rotate(-90,0, 0)">1796-9</text>
      </g>
    </g>
    <g transform="translate(308.55,139.36)">
      <g class="primitive">
        <text text-anchor="end" dy="0.35em" transform="rotate(-90,0, 0)">1797-3</text>
      </g>
    </g>
    <g transform="translate(312.85,139.36)">
      <g class="primitive">
        <text text-anchor="end" dy="0.35em" transform="rotate(-90,0, 0)">no year-no month</text>
      </g>
    </g>
  </g>
  <g clip-path="url(#img-08ccb50a-5)">
    <g id="img-08ccb50a-6">
      <g pointer-events="visible" stroke-width="0.3" fill="#000000" fill-opacity="0.000" stroke="#000000" stroke-opacity="0.000" class="guide background" id="img-08ccb50a-7">
        <g transform="translate(170.86,74.48)" id="img-08ccb50a-8">
          <path d="M-144.14,-63.87 L144.14,-63.87 144.14,63.87 -144.14,63.87  z" class="primitive"/>
        </g>
      </g>
      <g class="guide ygridlines xfixed" stroke-dasharray="0.5,0.5" stroke-width="0.2" stroke="#D0D0E0" id="img-08ccb50a-9">
        <g transform="translate(170.86,136.36)" id="img-08ccb50a-10">
          <path fill="none" d="M-144.14,0 L144.14,0 " class="primitive"/>
        </g>
        <g transform="translate(170.86,105.42)" id="img-08ccb50a-11">
          <path fill="none" d="M-144.14,0 L144.14,0 " class="primitive"/>
        </g>
        <g transform="translate(170.86,74.48)" id="img-08ccb50a-12">
          <path fill="none" d="M-144.14,0 L144.14,0 " class="primitive"/>
        </g>
        <g transform="translate(170.86,43.55)" id="img-08ccb50a-13">
          <path fill="none" d="M-144.14,0 L144.14,0 " class="primitive"/>
        </g>
        <g transform="translate(170.86,12.61)" id="img-08ccb50a-14">
          <path fill="none" d="M-144.14,0 L144.14,0 " class="primitive"/>
        </g>
      </g>
      <g class="guide xgridlines yfixed" stroke-dasharray="0.5,0.5" stroke-width="0.2" stroke="#D0D0E0" id="img-08ccb50a-15">
        <g transform="translate(31.03,74.48)" id="img-08ccb50a-16">
          <path fill="none" d="M0,-63.87 L0,63.87 " class="primitive"/>
        </g>
        <g transform="translate(35.33,74.48)" id="img-08ccb50a-17">
          <path fill="none" d="M0,-63.87 L0,63.87 " class="primitive"/>
        </g>
        <g transform="translate(39.63,74.48)" id="img-08ccb50a-18">
          <path fill="none" d="M0,-63.87 L0,63.87 " class="primitive"/>
        </g>
        <g transform="translate(43.94,74.48)" id="img-08ccb50a-19">
          <path fill="none" d="M0,-63.87 L0,63.87 " class="primitive"/>
        </g>
        <g transform="translate(48.24,74.48)" id="img-08ccb50a-20">
          <path fill="none" d="M0,-63.87 L0,63.87 " class="primitive"/>
        </g>
        <g transform="translate(52.54,74.48)" id="img-08ccb50a-21">
          <path fill="none" d="M0,-63.87 L0,63.87 " class="primitive"/>
        </g>
        <g transform="translate(56.84,74.48)" id="img-08ccb50a-22">
          <path fill="none" d="M0,-63.87 L0,63.87 " class="primitive"/>
        </g>
        <g transform="translate(61.15,74.48)" id="img-08ccb50a-23">
          <path fill="none" d="M0,-63.87 L0,63.87 " class="primitive"/>
        </g>
        <g transform="translate(65.45,74.48)" id="img-08ccb50a-24">
          <path fill="none" d="M0,-63.87 L0,63.87 " class="primitive"/>
        </g>
        <g transform="translate(69.75,74.48)" id="img-08ccb50a-25">
          <path fill="none" d="M0,-63.87 L0,63.87 " class="primitive"/>
        </g>
        <g transform="translate(74.05,74.48)" id="img-08ccb50a-26">
          <path fill="none" d="M0,-63.87 L0,63.87 " class="primitive"/>
        </g>
        <g transform="translate(78.36,74.48)" id="img-08ccb50a-27">
          <path fill="none" d="M0,-63.87 L0,63.87 " class="primitive"/>
        </g>
        <g transform="translate(82.66,74.48)" id="img-08ccb50a-28">
          <path fill="none" d="M0,-63.87 L0,63.87 " class="primitive"/>
        </g>
        <g transform="translate(86.96,74.48)" id="img-08ccb50a-29">
          <path fill="none" d="M0,-63.87 L0,63.87 " class="primitive"/>
        </g>
        <g transform="translate(91.26,74.48)" id="img-08ccb50a-30">
          <path fill="none" d="M0,-63.87 L0,63.87 " class="primitive"/>
        </g>
        <g transform="translate(95.57,74.48)" id="img-08ccb50a-31">
          <path fill="none" d="M0,-63.87 L0,63.87 " class="primitive"/>
        </g>
        <g transform="translate(99.87,74.48)" id="img-08ccb50a-32">
          <path fill="none" d="M0,-63.87 L0,63.87 " class="primitive"/>
        </g>
        <g transform="translate(104.17,74.48)" id="img-08ccb50a-33">
          <path fill="none" d="M0,-63.87 L0,63.87 " class="primitive"/>
        </g>
        <g transform="translate(108.47,74.48)" id="img-08ccb50a-34">
          <path fill="none" d="M0,-63.87 L0,63.87 " class="primitive"/>
        </g>
        <g transform="translate(112.78,74.48)" id="img-08ccb50a-35">
          <path fill="none" d="M0,-63.87 L0,63.87 " class="primitive"/>
        </g>
        <g transform="translate(117.08,74.48)" id="img-08ccb50a-36">
          <path fill="none" d="M0,-63.87 L0,63.87 " class="primitive"/>
        </g>
        <g transform="translate(121.38,74.48)" id="img-08ccb50a-37">
          <path fill="none" d="M0,-63.87 L0,63.87 " class="primitive"/>
        </g>
        <g transform="translate(125.69,74.48)" id="img-08ccb50a-38">
          <path fill="none" d="M0,-63.87 L0,63.87 " class="primitive"/>
        </g>
        <g transform="translate(129.99,74.48)" id="img-08ccb50a-39">
          <path fill="none" d="M0,-63.87 L0,63.87 " class="primitive"/>
        </g>
        <g transform="translate(134.29,74.48)" id="img-08ccb50a-40">
          <path fill="none" d="M0,-63.87 L0,63.87 " class="primitive"/>
        </g>
        <g transform="translate(138.59,74.48)" id="img-08ccb50a-41">
          <path fill="none" d="M0,-63.87 L0,63.87 " class="primitive"/>
        </g>
        <g transform="translate(142.9,74.48)" id="img-08ccb50a-42">
          <path fill="none" d="M0,-63.87 L0,63.87 " class="primitive"/>
        </g>
        <g transform="translate(147.2,74.48)" id="img-08ccb50a-43">
          <path fill="none" d="M0,-63.87 L0,63.87 " class="primitive"/>
        </g>
        <g transform="translate(151.5,74.48)" id="img-08ccb50a-44">
          <path fill="none" d="M0,-63.87 L0,63.87 " class="primitive"/>
        </g>
        <g transform="translate(155.8,74.48)" id="img-08ccb50a-45">
          <path fill="none" d="M0,-63.87 L0,63.87 " class="primitive"/>
        </g>
        <g transform="translate(160.11,74.48)" id="img-08ccb50a-46">
          <path fill="none" d="M0,-63.87 L0,63.87 " class="primitive"/>
        </g>
        <g transform="translate(164.41,74.48)" id="img-08ccb50a-47">
          <path fill="none" d="M0,-63.87 L0,63.87 " class="primitive"/>
        </g>
        <g transform="translate(168.71,74.48)" id="img-08ccb50a-48">
          <path fill="none" d="M0,-63.87 L0,63.87 " class="primitive"/>
        </g>
        <g transform="translate(173.01,74.48)" id="img-08ccb50a-49">
          <path fill="none" d="M0,-63.87 L0,63.87 " class="primitive"/>
        </g>
        <g transform="translate(177.32,74.48)" id="img-08ccb50a-50">
          <path fill="none" d="M0,-63.87 L0,63.87 " class="primitive"/>
        </g>
        <g transform="translate(181.62,74.48)" id="img-08ccb50a-51">
          <path fill="none" d="M0,-63.87 L0,63.87 " class="primitive"/>
        </g>
        <g transform="translate(185.92,74.48)" id="img-08ccb50a-52">
          <path fill="none" d="M0,-63.87 L0,63.87 " class="primitive"/>
        </g>
        <g transform="translate(190.22,74.48)" id="img-08ccb50a-53">
          <path fill="none" d="M0,-63.87 L0,63.87 " class="primitive"/>
        </g>
        <g transform="translate(194.53,74.48)" id="img-08ccb50a-54">
          <path fill="none" d="M0,-63.87 L0,63.87 " class="primitive"/>
        </g>
        <g transform="translate(198.83,74.48)" id="img-08ccb50a-55">
          <path fill="none" d="M0,-63.87 L0,63.87 " class="primitive"/>
        </g>
        <g transform="translate(203.13,74.48)" id="img-08ccb50a-56">
          <path fill="none" d="M0,-63.87 L0,63.87 " class="primitive"/>
        </g>
        <g transform="translate(207.43,74.48)" id="img-08ccb50a-57">
          <path fill="none" d="M0,-63.87 L0,63.87 " class="primitive"/>
        </g>
        <g transform="translate(211.74,74.48)" id="img-08ccb50a-58">
          <path fill="none" d="M0,-63.87 L0,63.87 " class="primitive"/>
        </g>
        <g transform="translate(216.04,74.48)" id="img-08ccb50a-59">
          <path fill="none" d="M0,-63.87 L0,63.87 " class="primitive"/>
        </g>
        <g transform="translate(220.34,74.48)" id="img-08ccb50a-60">
          <path fill="none" d="M0,-63.87 L0,63.87 " class="primitive"/>
        </g>
        <g transform="translate(224.65,74.48)" id="img-08ccb50a-61">
          <path fill="none" d="M0,-63.87 L0,63.87 " class="primitive"/>
        </g>
        <g transform="translate(228.95,74.48)" id="img-08ccb50a-62">
          <path fill="none" d="M0,-63.87 L0,63.87 " class="primitive"/>
        </g>
        <g transform="translate(233.25,74.48)" id="img-08ccb50a-63">
          <path fill="none" d="M0,-63.87 L0,63.87 " class="primitive"/>
        </g>
        <g transform="translate(237.55,74.48)" id="img-08ccb50a-64">
          <path fill="none" d="M0,-63.87 L0,63.87 " class="primitive"/>
        </g>
        <g transform="translate(241.86,74.48)" id="img-08ccb50a-65">
          <path fill="none" d="M0,-63.87 L0,63.87 " class="primitive"/>
        </g>
        <g transform="translate(246.16,74.48)" id="img-08ccb50a-66">
          <path fill="none" d="M0,-63.87 L0,63.87 " class="primitive"/>
        </g>
        <g transform="translate(250.46,74.48)" id="img-08ccb50a-67">
          <path fill="none" d="M0,-63.87 L0,63.87 " class="primitive"/>
        </g>
        <g transform="translate(254.76,74.48)" id="img-08ccb50a-68">
          <path fill="none" d="M0,-63.87 L0,63.87 " class="primitive"/>
        </g>
        <g transform="translate(259.07,74.48)" id="img-08ccb50a-69">
          <path fill="none" d="M0,-63.87 L0,63.87 " class="primitive"/>
        </g>
        <g transform="translate(263.37,74.48)" id="img-08ccb50a-70">
          <path fill="none" d="M0,-63.87 L0,63.87 " class="primitive"/>
        </g>
        <g transform="translate(267.67,74.48)" id="img-08ccb50a-71">
          <path fill="none" d="M0,-63.87 L0,63.87 " class="primitive"/>
        </g>
        <g transform="translate(271.97,74.48)" id="img-08ccb50a-72">
          <path fill="none" d="M0,-63.87 L0,63.87 " class="primitive"/>
        </g>
        <g transform="translate(276.28,74.48)" id="img-08ccb50a-73">
          <path fill="none" d="M0,-63.87 L0,63.87 " class="primitive"/>
        </g>
        <g transform="translate(280.58,74.48)" id="img-08ccb50a-74">
          <path fill="none" d="M0,-63.87 L0,63.87 " class="primitive"/>
        </g>
        <g transform="translate(284.88,74.48)" id="img-08ccb50a-75">
          <path fill="none" d="M0,-63.87 L0,63.87 " class="primitive"/>
        </g>
        <g transform="translate(289.18,74.48)" id="img-08ccb50a-76">
          <path fill="none" d="M0,-63.87 L0,63.87 " class="primitive"/>
        </g>
        <g transform="translate(293.49,74.48)" id="img-08ccb50a-77">
          <path fill="none" d="M0,-63.87 L0,63.87 " class="primitive"/>
        </g>
        <g transform="translate(297.79,74.48)" id="img-08ccb50a-78">
          <path fill="none" d="M0,-63.87 L0,63.87 " class="primitive"/>
        </g>
        <g transform="translate(302.09,74.48)" id="img-08ccb50a-79">
          <path fill="none" d="M0,-63.87 L0,63.87 " class="primitive"/>
        </g>
        <g transform="translate(306.39,74.48)" id="img-08ccb50a-80">
          <path fill="none" d="M0,-63.87 L0,63.87 " class="primitive"/>
        </g>
        <g transform="translate(310.7,74.48)" id="img-08ccb50a-81">
          <path fill="none" d="M0,-63.87 L0,63.87 " class="primitive"/>
        </g>
      </g>
      <g class="plotpanel" id="img-08ccb50a-82">
        <metadata>
          <boundingbox value="26.725000000000023mm 10.611666666666665mm 288.275mm 127.74333333333333mm"/>
          <unitbox value="0.5 81292.99894943835 67.0 -82585.9978988767"/>
        </metadata>
        <g shape-rendering="crispEdges" stroke-width="0.3" id="img-08ccb50a-83">
          <g class="geometry" fill-opacity="1" stroke="#000000" stroke-opacity="0.000" fill="#00BFFF" id="img-08ccb50a-84">
            <g transform="translate(28.88,121.33)" id="img-08ccb50a-85">
              <path d="M-2.18,-15.03 L2.18,-15.03 2.18,15.03 -2.18,15.03  z" class="primitive"/>
            </g>
            <g transform="translate(33.18,128.91)" id="img-08ccb50a-86">
              <path d="M-2.18,-7.45 L2.18,-7.45 2.18,7.45 -2.18,7.45  z" class="primitive"/>
            </g>
            <g transform="translate(37.48,125.17)" id="img-08ccb50a-87">
              <path d="M-2.18,-11.18 L2.18,-11.18 2.18,11.18 -2.18,11.18  z" class="primitive"/>
            </g>
            <g transform="translate(41.78,132.21)" id="img-08ccb50a-88">
              <path d="M-2.18,-4.14 L2.18,-4.14 2.18,4.14 -2.18,4.14  z" class="primitive"/>
            </g>
            <g transform="translate(46.09,122.38)" id="img-08ccb50a-89">
              <path d="M-2.18,-13.98 L2.18,-13.98 2.18,13.98 -2.18,13.98  z" class="primitive"/>
            </g>
            <g transform="translate(50.39,135.56)" id="img-08ccb50a-90">
              <path d="M-2.18,-0.8 L2.18,-0.8 2.18,0.8 -2.18,0.8  z" class="primitive"/>
            </g>
            <g transform="translate(54.69,135.85)" id="img-08ccb50a-91">
              <path d="M-2.18,-0.5 L2.18,-0.5 2.18,0.5 -2.18,0.5  z" class="primitive"/>
            </g>
            <g transform="translate(58.99,135.63)" id="img-08ccb50a-92">
              <path d="M-2.18,-0.72 L2.18,-0.72 2.18,0.72 -2.18,0.72  z" class="primitive"/>
            </g>
            <g transform="translate(63.3,91.88)" id="img-08ccb50a-93">
              <path d="M-2.18,-44.48 L2.18,-44.48 2.18,44.48 -2.18,44.48  z" class="primitive"/>
            </g>
            <g transform="translate(67.6,81.27)" id="img-08ccb50a-94">
              <path d="M-2.18,-55.09 L2.18,-55.09 2.18,55.09 -2.18,55.09  z" class="primitive"/>
            </g>
            <g transform="translate(71.9,121.09)" id="img-08ccb50a-95">
              <path d="M-2.18,-15.27 L2.18,-15.27 2.18,15.27 -2.18,15.27  z" class="primitive"/>
            </g>
            <g transform="translate(76.21,103.36)" id="img-08ccb50a-96">
              <path d="M-2.18,-32.99 L2.18,-32.99 2.18,32.99 -2.18,32.99  z" class="primitive"/>
            </g>
            <g transform="translate(80.51,124.97)" id="img-08ccb50a-97">
              <path d="M-2.18,-11.38 L2.18,-11.38 2.18,11.38 -2.18,11.38  z" class="primitive"/>
            </g>
            <g transform="translate(84.81,127.01)" id="img-08ccb50a-98">
              <path d="M-2.18,-9.34 L2.18,-9.34 2.18,9.34 -2.18,9.34  z" class="primitive"/>
            </g>
            <g transform="translate(89.11,132.08)" id="img-08ccb50a-99">
              <path d="M-2.18,-4.27 L2.18,-4.27 2.18,4.27 -2.18,4.27  z" class="primitive"/>
            </g>
            <g transform="translate(93.42,93.43)" id="img-08ccb50a-100">
              <path d="M-2.18,-42.93 L2.18,-42.93 2.18,42.93 -2.18,42.93  z" class="primitive"/>
            </g>
            <g transform="translate(97.72,136.03)" id="img-08ccb50a-101">
              <path d="M-2.18,-0.33 L2.18,-0.33 2.18,0.33 -2.18,0.33  z" class="primitive"/>
            </g>
            <g transform="translate(102.02,133.63)" id="img-08ccb50a-102">
              <path d="M-2.18,-2.73 L2.18,-2.73 2.18,2.73 -2.18,2.73  z" class="primitive"/>
            </g>
            <g transform="translate(106.32,133.91)" id="img-08ccb50a-103">
              <path d="M-2.18,-2.44 L2.18,-2.44 2.18,2.44 -2.18,2.44  z" class="primitive"/>
            </g>
            <g transform="translate(110.63,135.6)" id="img-08ccb50a-104">
              <path d="M-2.18,-0.76 L2.18,-0.76 2.18,0.76 -2.18,0.76  z" class="primitive"/>
            </g>
            <g transform="translate(114.93,136.36)" id="img-08ccb50a-105">
              <path d="M-2.18,-0 L2.18,-0 2.18,0 -2.18,0  z" class="primitive"/>
            </g>
            <g transform="translate(119.23,136.36)" id="img-08ccb50a-106">
              <path d="M-2.18,-0 L2.18,-0 2.18,0 -2.18,0  z" class="primitive"/>
            </g>
            <g transform="translate(123.53,136.36)" id="img-08ccb50a-107">
              <path d="M-2.18,-0 L2.18,-0 2.18,0 -2.18,0  z" class="primitive"/>
            </g>
            <g transform="translate(127.84,134.16)" id="img-08ccb50a-108">
              <path d="M-2.18,-2.2 L2.18,-2.2 2.18,2.2 -2.18,2.2  z" class="primitive"/>
            </g>
            <g transform="translate(132.14,135.07)" id="img-08ccb50a-109">
              <path d="M-2.18,-1.29 L2.18,-1.29 2.18,1.29 -2.18,1.29  z" class="primitive"/>
            </g>
            <g transform="translate(136.44,133.85)" id="img-08ccb50a-110">
              <path d="M-2.18,-2.5 L2.18,-2.5 2.18,2.5 -2.18,2.5  z" class="primitive"/>
            </g>
            <g transform="translate(140.74,135.74)" id="img-08ccb50a-111">
              <path d="M-2.18,-0.61 L2.18,-0.61 2.18,0.61 -2.18,0.61  z" class="primitive"/>
            </g>
            <g transform="translate(145.05,136.15)" id="img-08ccb50a-112">
              <path d="M-2.18,-0.2 L2.18,-0.2 2.18,0.2 -2.18,0.2  z" class="primitive"/>
            </g>
            <g transform="translate(149.35,136.31)" id="img-08ccb50a-113">
              <path d="M-2.18,-0.04 L2.18,-0.04 2.18,0.04 -2.18,0.04  z" class="primitive"/>
            </g>
            <g transform="translate(153.65,135.46)" id="img-08ccb50a-114">
              <path d="M-2.18,-0.9 L2.18,-0.9 2.18,0.9 -2.18,0.9  z" class="primitive"/>
            </g>
            <g transform="translate(157.95,134.16)" id="img-08ccb50a-115">
              <path d="M-2.18,-2.2 L2.18,-2.2 2.18,2.2 -2.18,2.2  z" class="primitive"/>
            </g>
            <g transform="translate(162.26,135.68)" id="img-08ccb50a-116">
              <path d="M-2.18,-0.67 L2.18,-0.67 2.18,0.67 -2.18,0.67  z" class="primitive"/>
            </g>
            <g transform="translate(166.56,136.32)" id="img-08ccb50a-117">
              <path d="M-2.18,-0.04 L2.18,-0.04 2.18,0.04 -2.18,0.04  z" class="primitive"/>
            </g>
            <g transform="translate(170.86,136.13)" id="img-08ccb50a-118">
              <path d="M-2.18,-0.23 L2.18,-0.23 2.18,0.23 -2.18,0.23  z" class="primitive"/>
            </g>
            <g transform="translate(175.17,136.31)" id="img-08ccb50a-119">
              <path d="M-2.18,-0.04 L2.18,-0.04 2.18,0.04 -2.18,0.04  z" class="primitive"/>
            </g>
            <g transform="translate(179.47,135.61)" id="img-08ccb50a-120">
              <path d="M-2.18,-0.74 L2.18,-0.74 2.18,0.74 -2.18,0.74  z" class="primitive"/>
            </g>
            <g transform="translate(183.77,136)" id="img-08ccb50a-121">
              <path d="M-2.18,-0.36 L2.18,-0.36 2.18,0.36 -2.18,0.36  z" class="primitive"/>
            </g>
            <g transform="translate(188.07,136.18)" id="img-08ccb50a-122">
              <path d="M-2.18,-0.18 L2.18,-0.18 2.18,0.18 -2.18,0.18  z" class="primitive"/>
            </g>
            <g transform="translate(192.38,136.31)" id="img-08ccb50a-123">
              <path d="M-2.18,-0.05 L2.18,-0.05 2.18,0.05 -2.18,0.05  z" class="primitive"/>
            </g>
            <g transform="translate(196.68,136.14)" id="img-08ccb50a-124">
              <path d="M-2.18,-0.21 L2.18,-0.21 2.18,0.21 -2.18,0.21  z" class="primitive"/>
            </g>
            <g transform="translate(200.98,136.28)" id="img-08ccb50a-125">
              <path d="M-2.18,-0.08 L2.18,-0.08 2.18,0.08 -2.18,0.08  z" class="primitive"/>
            </g>
            <g transform="translate(205.28,135.85)" id="img-08ccb50a-126">
              <path d="M-2.18,-0.5 L2.18,-0.5 2.18,0.5 -2.18,0.5  z" class="primitive"/>
            </g>
            <g transform="translate(209.59,136.33)" id="img-08ccb50a-127">
              <path d="M-2.18,-0.03 L2.18,-0.03 2.18,0.03 -2.18,0.03  z" class="primitive"/>
            </g>
            <g transform="translate(213.89,135.75)" id="img-08ccb50a-128">
              <path d="M-2.18,-0.6 L2.18,-0.6 2.18,0.6 -2.18,0.6  z" class="primitive"/>
            </g>
            <g transform="translate(218.19,135.31)" id="img-08ccb50a-129">
              <path d="M-2.18,-1.04 L2.18,-1.04 2.18,1.04 -2.18,1.04  z" class="primitive"/>
            </g>
            <g transform="translate(222.49,135.89)" id="img-08ccb50a-130">
              <path d="M-2.18,-0.46 L2.18,-0.46 2.18,0.46 -2.18,0.46  z" class="primitive"/>
            </g>
            <g transform="translate(226.8,136.34)" id="img-08ccb50a-131">
              <path d="M-2.18,-0.02 L2.18,-0.02 2.18,0.02 -2.18,0.02  z" class="primitive"/>
            </g>
            <g transform="translate(231.1,136.03)" id="img-08ccb50a-132">
              <path d="M-2.18,-0.32 L2.18,-0.32 2.18,0.32 -2.18,0.32  z" class="primitive"/>
            </g>
            <g transform="translate(235.4,136.29)" id="img-08ccb50a-133">
              <path d="M-2.18,-0.07 L2.18,-0.07 2.18,0.07 -2.18,0.07  z" class="primitive"/>
            </g>
            <g transform="translate(239.7,136.2)" id="img-08ccb50a-134">
              <path d="M-2.18,-0.16 L2.18,-0.16 2.18,0.16 -2.18,0.16  z" class="primitive"/>
            </g>
            <g transform="translate(244.01,136.36)" id="img-08ccb50a-135">
              <path d="M-2.18,-0 L2.18,-0 2.18,0 -2.18,0  z" class="primitive"/>
            </g>
            <g transform="translate(248.31,136.3)" id="img-08ccb50a-136">
              <path d="M-2.18,-0.05 L2.18,-0.05 2.18,0.05 -2.18,0.05  z" class="primitive"/>
            </g>
            <g transform="translate(252.61,136.34)" id="img-08ccb50a-137">
              <path d="M-2.18,-0.01 L2.18,-0.01 2.18,0.01 -2.18,0.01  z" class="primitive"/>
            </g>
            <g transform="translate(256.91,135.82)" id="img-08ccb50a-138">
              <path d="M-2.18,-0.54 L2.18,-0.54 2.18,0.54 -2.18,0.54  z" class="primitive"/>
            </g>
            <g transform="translate(261.22,136.28)" id="img-08ccb50a-139">
              <path d="M-2.18,-0.07 L2.18,-0.07 2.18,0.07 -2.18,0.07  z" class="primitive"/>
            </g>
            <g transform="translate(265.52,136.17)" id="img-08ccb50a-140">
              <path d="M-2.18,-0.19 L2.18,-0.19 2.18,0.19 -2.18,0.19  z" class="primitive"/>
            </g>
            <g transform="translate(269.82,136.3)" id="img-08ccb50a-141">
              <path d="M-2.18,-0.05 L2.18,-0.05 2.18,0.05 -2.18,0.05  z" class="primitive"/>
            </g>
            <g transform="translate(274.13,134.91)" id="img-08ccb50a-142">
              <path d="M-2.18,-1.45 L2.18,-1.45 2.18,1.45 -2.18,1.45  z" class="primitive"/>
            </g>
            <g transform="translate(278.43,136.36)" id="img-08ccb50a-143">
              <path d="M-2.18,-0 L2.18,-0 2.18,0 -2.18,0  z" class="primitive"/>
            </g>
            <g transform="translate(282.73,136.08)" id="img-08ccb50a-144">
              <path d="M-2.18,-0.27 L2.18,-0.27 2.18,0.27 -2.18,0.27  z" class="primitive"/>
            </g>
            <g transform="translate(287.03,136.3)" id="img-08ccb50a-145">
              <path d="M-2.18,-0.05 L2.18,-0.05 2.18,0.05 -2.18,0.05  z" class="primitive"/>
            </g>
            <g transform="translate(291.34,135)" id="img-08ccb50a-146">
              <path d="M-2.18,-1.36 L2.18,-1.36 2.18,1.36 -2.18,1.36  z" class="primitive"/>
            </g>
            <g transform="translate(295.64,135.82)" id="img-08ccb50a-147">
              <path d="M-2.18,-0.54 L2.18,-0.54 2.18,0.54 -2.18,0.54  z" class="primitive"/>
            </g>
            <g transform="translate(299.94,136.27)" id="img-08ccb50a-148">
              <path d="M-2.18,-0.09 L2.18,-0.09 2.18,0.09 -2.18,0.09  z" class="primitive"/>
            </g>
            <g transform="translate(304.24,135.63)" id="img-08ccb50a-149">
              <path d="M-2.18,-0.72 L2.18,-0.72 2.18,0.72 -2.18,0.72  z" class="primitive"/>
            </g>
            <g transform="translate(308.55,136.35)" id="img-08ccb50a-150">
              <path d="M-2.18,-0.01 L2.18,-0.01 2.18,0.01 -2.18,0.01  z" class="primitive"/>
            </g>
            <g transform="translate(312.85,105.15)" id="img-08ccb50a-151">
              <path d="M-2.18,-31.21 L2.18,-31.21 2.18,31.21 -2.18,31.21  z" class="primitive"/>
            </g>
          </g>
        </g>
      </g>
    </g>
  </g>
  <g class="guide ylabels" font-size="2.82" font-family="'PT Sans Caption','Helvetica Neue','Helvetica',sans-serif" fill="#6C606B" id="img-08ccb50a-152">
    <g transform="translate(25.72,136.36)" id="img-08ccb50a-153">
      <g class="primitive">
        <text text-anchor="end" dy="0.35em">0</text>
      </g>
    </g>
    <g transform="translate(25.72,105.42)" id="img-08ccb50a-154">
      <g class="primitive">
        <text text-anchor="end" dy="0.35em">2.0×10⁴</text>
      </g>
    </g>
    <g transform="translate(25.72,74.48)" id="img-08ccb50a-155">
      <g class="primitive">
        <text text-anchor="end" dy="0.35em">4.0×10⁴</text>
      </g>
    </g>
    <g transform="translate(25.72,43.55)" id="img-08ccb50a-156">
      <g class="primitive">
        <text text-anchor="end" dy="0.35em">6.0×10⁴</text>
      </g>
    </g>
    <g transform="translate(25.72,12.61)" id="img-08ccb50a-157">
      <g class="primitive">
        <text text-anchor="end" dy="0.35em">8.0×10⁴</text>
      </g>
    </g>
  </g>
  <g font-size="3.88" font-family="'PT Sans','Helvetica Neue','Helvetica',sans-serif" fill="#564A55" stroke="#000000" stroke-opacity="0.000" id="img-08ccb50a-158">
    <g transform="translate(8.81,72.48)" id="img-08ccb50a-159">
      <g class="primitive">
        <text text-anchor="middle" dy="0.35em" transform="rotate(-90,0, 2)">Total Debt (in dollars)</text>
      </g>
    </g>
  </g>
  <g font-size="3.88" font-family="'PT Sans','Helvetica Neue','Helvetica',sans-serif" fill="#564A55" stroke="#000000" stroke-opacity="0.000" id="img-08ccb50a-160">
    <g transform="translate(170.86,5)" id="img-08ccb50a-161">
      <g class="primitive">
        <text text-anchor="middle" dy="0.6em">VA Debt Redeemed Per Year/Month</text>
      </g>
    </g>
  </g>
</g>
<defs>
  <clipPath id="img-08ccb50a-5">
    <path d="M26.73,10.61 L315,10.61 315,138.35 26.73,138.35 " />
  </clipPath>
</defs>
</svg>
